<?xml version="1.0" encoding="utf-8"?> <!-- Generator: IcoMoon.io --> <!DOCTYPE svg PUBLIC "-//W3C//DTD SVG 1.1//EN" "http://www.w3.org/Graphics/SVG/1.1/DTD/svg11.dtd"> <svg width="512" height="512" viewBox="0 0 512 512" xmlns="http://www.w3.org/2000/svg" xmlns:xlink="http://www.w3.org/1999/xlink" fill="#000000"><g class="svgGrid" id="svgGrid"><line stroke-width="1" stroke="#B35047" x1="32" x2="32" y1="0" y2="512"></line><line stroke-width="1" stroke="#B35047" x1="64" x2="64" y1="0" y2="512"></line><line stroke-width="1" stroke="#B35047" x1="96" x2="96" y1="0" y2="512"></line><line stroke-width="1" stroke="#B35047" x1="128" x2="128" y1="0" y2="512"></line><line stroke-width="1" stroke="#B35047" x1="160" x2="160" y1="0" y2="512"></line><line stroke-width="1" stroke="#B35047" x1="192" x2="192" y1="0" y2="512"></line><line stroke-width="1" stroke="#B35047" x1="224" x2="224" y1="0" y2="512"></line><line stroke-width="1" stroke="#B35047" x1="256" x2="256" y1="0" y2="512"></line><line stroke-width="1" stroke="#B35047" x1="288" x2="288" y1="0" y2="512"></line><line stroke-width="1" stroke="#B35047" x1="320" x2="320" y1="0" y2="512"></line><line stroke-width="1" stroke="#B35047" x1="352" x2="352" y1="0" y2="512"></line><line stroke-width="1" stroke="#B35047" x1="384" x2="384" y1="0" y2="512"></line><line stroke-width="1" stroke="#B35047" x1="416" x2="416" y1="0" y2="512"></line><line stroke-width="1" stroke="#B35047" x1="448" x2="448" y1="0" y2="512"></line><line stroke-width="1" stroke="#B35047" x1="480" x2="480" y1="0" y2="512"></line><line stroke-width="1" stroke="#B35047" x1="0" x2="512" y1="32" y2="32"></line><line stroke-width="1" stroke="#B35047" x1="0" x2="512" y1="64" y2="64"></line><line stroke-width="1" stroke="#B35047" x1="0" x2="512" y1="96" y2="96"></line><line stroke-width="1" stroke="#B35047" x1="0" x2="512" y1="128" y2="128"></line><line stroke-width="1" stroke="#B35047" x1="0" x2="512" y1="160" y2="160"></line><line stroke-width="1" stroke="#B35047" x1="0" x2="512" y1="192" y2="192"></line><line stroke-width="1" stroke="#B35047" x1="0" x2="512" y1="224" y2="224"></line><line stroke-width="1" stroke="#B35047" x1="0" x2="512" y1="256" y2="256"></line><line stroke-width="1" stroke="#B35047" x1="0" x2="512" y1="288" y2="288"></line><line stroke-width="1" stroke="#B35047" x1="0" x2="512" y1="320" y2="320"></line><line stroke-width="1" stroke="#B35047" x1="0" x2="512" y1="352" y2="352"></line><line stroke-width="1" stroke="#B35047" x1="0" x2="512" y1="384" y2="384"></line><line stroke-width="1" stroke="#B35047" x1="0" x2="512" y1="416" y2="416"></line><line stroke-width="1" stroke="#B35047" x1="0" x2="512" y1="448" y2="448"></line><line stroke-width="1" stroke="#B35047" x1="0" x2="512" y1="480" y2="480"></line><rect x="0" y="0" width="512" height="512" fill="none" stroke-width="1" stroke="#B35047"></rect></g><path d="M 256.001,0.00L0.00,256.00l 160.00,0.00 l0.00,255.999 L 352.00,512.00L 352.00,256.00 l 160.00,0.00 L 256.001,0.00z M 286.746,76.00l 8.00,8.00l-77.49,0.00 l 8.00-8.00L 286.746,76.00 z M 233.256,68.00l 8.00-8.00l 29.49,0.00 l 8.00,8.00 L 233.256,68.00 z M 302.746,92.00l 8.00,8.00L 201.255,100.00 l 8.00-8.00L 302.746,92.00 z M 318.746,108.00l 8.00,8.00L 185.255,116.00 l 8.00-8.00L 318.746,108.00 z M 334.746,124.00l 8.00,8.00L 169.255,132.00 l 8.00-8.00L 334.746,124.00 z M 350.746,140.00l 7.999,8.00l-205.49,0.00 l 8.00-8.00L 350.746,140.00 z M 366.745,156.00l 8.00,8.00l-237.49,0.00 l 8.00-8.00L 366.745,156.00 z M 382.745,172.00l 8.00,8.00l-269.49,0.00 l 8.00-8.00L 382.745,172.00 z M 398.745,188.00l 8.00,8.00l-301.49,0.00 l 8.00-8.00L 398.745,188.00 z M 414.745,204.00l 8.00,8.00L 89.255,212.00 l 8.00-8.00L 414.745,204.00 z M 262.746,52.00l-13.49,0.00 l 6.745-6.745L 262.746,52.00z M 192.00,236.00 l 128.00,0.00 l0.00,8.00 L 192.00,244.00 L 192.00,236.00 z M 192.00,252.00l 128.00,0.00 l0.00,8.00 L 192.00,260.00 L 192.00,252.00 z M 192.00,268.00l 128.00,0.00 l0.00,8.00 L 192.00,276.00 L 192.00,268.00 z M 192.00,284.00l 128.00,0.00 l0.00,8.00 L 192.00,292.00 L 192.00,284.00 z M 192.00,300.00l 128.00,0.00 l0.00,8.00 L 192.00,308.00 L 192.00,300.00 z M 192.00,316.00l 128.00,0.00 l0.00,8.00 L 192.00,324.00 L 192.00,316.00 z M 192.00,332.00l 128.00,0.00 l0.00,8.00 L 192.00,340.00 L 192.00,332.00 z M 192.00,348.00l 128.00,0.00 l0.00,8.00 L 192.00,356.00 L 192.00,348.00 z M 192.00,364.00l 128.00,0.00 l0.00,8.00 L 192.00,372.00 L 192.00,364.00 z M 192.00,380.00l 128.00,0.00 l0.00,8.00 L 192.00,388.00 L 192.00,380.00 z M 192.00,396.00l 128.00,0.00 l0.00,8.00 L 192.00,404.00 L 192.00,396.00 z M 192.00,412.00l 128.00,0.00 l0.00,8.00 L 192.00,420.00 L 192.00,412.00 z M 192.00,428.00l 128.00,0.00 l0.00,8.00 L 192.00,436.00 L 192.00,428.00 z M 192.00,444.00l 128.00,0.00 l0.00,8.00 L 192.00,452.00 L 192.00,444.00 z M 192.00,460.00l 128.00,0.00 l0.00,8.00 L 192.00,468.00 L 192.00,460.00 z M 192.00,479.999L 192.00,476.00 l 128.00,0.00 l0.00,4.00 L 192.00,479.999z M 320.00,224.00l0.00,4.00 L 192.00,228.00 l0.00-4.00 L 77.255,224.00 l 4.00-4.00l 349.49,0.00 l 4.00,4.00L 320.00,224.00 z" ></path></svg>