<?xml version="1.0" encoding="utf-8"?> <!-- Generator: IcoMoon.io --> <!DOCTYPE svg PUBLIC "-//W3C//DTD SVG 1.1//EN" "http://www.w3.org/Graphics/SVG/1.1/DTD/svg11.dtd"> <svg width="512" height="512" viewBox="0 0 512 512" xmlns="http://www.w3.org/2000/svg" xmlns:xlink="http://www.w3.org/1999/xlink" fill="#000000"><g class="svgGrid" id="svgGrid"><line stroke-width="1" stroke="#B35047" x1="32" x2="32" y1="0" y2="512"></line><line stroke-width="1" stroke="#B35047" x1="64" x2="64" y1="0" y2="512"></line><line stroke-width="1" stroke="#B35047" x1="96" x2="96" y1="0" y2="512"></line><line stroke-width="1" stroke="#B35047" x1="128" x2="128" y1="0" y2="512"></line><line stroke-width="1" stroke="#B35047" x1="160" x2="160" y1="0" y2="512"></line><line stroke-width="1" stroke="#B35047" x1="192" x2="192" y1="0" y2="512"></line><line stroke-width="1" stroke="#B35047" x1="224" x2="224" y1="0" y2="512"></line><line stroke-width="1" stroke="#B35047" x1="256" x2="256" y1="0" y2="512"></line><line stroke-width="1" stroke="#B35047" x1="288" x2="288" y1="0" y2="512"></line><line stroke-width="1" stroke="#B35047" x1="320" x2="320" y1="0" y2="512"></line><line stroke-width="1" stroke="#B35047" x1="352" x2="352" y1="0" y2="512"></line><line stroke-width="1" stroke="#B35047" x1="384" x2="384" y1="0" y2="512"></line><line stroke-width="1" stroke="#B35047" x1="416" x2="416" y1="0" y2="512"></line><line stroke-width="1" stroke="#B35047" x1="448" x2="448" y1="0" y2="512"></line><line stroke-width="1" stroke="#B35047" x1="480" x2="480" y1="0" y2="512"></line><line stroke-width="1" stroke="#B35047" x1="0" x2="512" y1="32" y2="32"></line><line stroke-width="1" stroke="#B35047" x1="0" x2="512" y1="64" y2="64"></line><line stroke-width="1" stroke="#B35047" x1="0" x2="512" y1="96" y2="96"></line><line stroke-width="1" stroke="#B35047" x1="0" x2="512" y1="128" y2="128"></line><line stroke-width="1" stroke="#B35047" x1="0" x2="512" y1="160" y2="160"></line><line stroke-width="1" stroke="#B35047" x1="0" x2="512" y1="192" y2="192"></line><line stroke-width="1" stroke="#B35047" x1="0" x2="512" y1="224" y2="224"></line><line stroke-width="1" stroke="#B35047" x1="0" x2="512" y1="256" y2="256"></line><line stroke-width="1" stroke="#B35047" x1="0" x2="512" y1="288" y2="288"></line><line stroke-width="1" stroke="#B35047" x1="0" x2="512" y1="320" y2="320"></line><line stroke-width="1" stroke="#B35047" x1="0" x2="512" y1="352" y2="352"></line><line stroke-width="1" stroke="#B35047" x1="0" x2="512" y1="384" y2="384"></line><line stroke-width="1" stroke="#B35047" x1="0" x2="512" y1="416" y2="416"></line><line stroke-width="1" stroke="#B35047" x1="0" x2="512" y1="448" y2="448"></line><line stroke-width="1" stroke="#B35047" x1="0" x2="512" y1="480" y2="480"></line><rect x="0" y="0" width="512" height="512" fill="none" stroke-width="1" stroke="#B35047"></rect></g><path d="M0.00,255.999L 256.00,512.00L 256.00,352.00 l 255.999,0.00 L 512.00,160.00L 256.00,160.00 L 256.00,0.00 L0.00,255.999z M 76.00,225.254l 8.00-8.00l0.00,77.49 l-8.00-8.00L 76.00,225.254 z M 68.00,278.744l-8.00-8.00l0.00-29.49 l 8.00-8.00 L 68.00,278.744 z M 92.00,209.254l 8.00-8.00l0.00,109.491 l-8.00-8.00L 92.00,209.254 z M 108.00,193.254l 8.00-8.00l0.00,141.491 l-8.00-8.00L 108.00,193.254 z M 124.00,177.254l 8.00-8.00l0.00,173.491 l-8.00-8.00L 124.00,177.254 z M 140.00,161.254l 8.00-7.999l0.00,205.49 l-8.00-8.00L 140.00,161.254 z M 156.00,145.255l 8.00-8.00l0.00,237.49 l-8.00-8.00L 156.00,145.255 z M 172.00,129.255l 8.00-8.00l0.00,269.49 l-8.00-8.00L 172.00,129.255 z M 188.00,113.255l 8.00-8.00l0.00,301.49 l-8.00-8.00L 188.00,113.255 z M 204.00,97.255l 8.00-8.00l0.00,333.49 l-8.00-8.00L 204.00,97.255 z M 52.00,249.254l0.00,13.49 l-6.745-6.745L 52.00,249.254z M 236.00,320.00 L 236.00,192.00 l 8.00,0.00 l0.00,128.00 L 236.00,320.00 z M 252.00,320.00L 252.00,192.00 l 8.00,0.00 l0.00,128.00 L 252.00,320.00 z M 268.00,320.00L 268.00,192.00 l 8.00,0.00 l0.00,128.00 L 268.00,320.00 z M 284.00,320.00L 284.00,192.00 l 8.00,0.00 l0.00,128.00 L 284.00,320.00 z M 300.00,320.00L 300.00,192.00 l 8.00,0.00 l0.00,128.00 L 300.00,320.00 z M 316.00,320.00L 316.00,192.00 l 8.00,0.00 l0.00,128.00 L 316.00,320.00 z M 332.00,320.00L 332.00,192.00 l 8.00,0.00 l0.00,128.00 L 332.00,320.00 z M 348.00,320.00L 348.00,192.00 l 8.00,0.00 l0.00,128.00 L 348.00,320.00 z M 364.00,320.00L 364.00,192.00 l 8.00,0.00 l0.00,128.00 L 364.00,320.00 z M 380.00,320.00L 380.00,192.00 l 8.00,0.00 l0.00,128.00 L 380.00,320.00 z M 396.00,320.00L 396.00,192.00 l 8.00,0.00 l0.00,128.00 L 396.00,320.00 z M 412.00,320.00L 412.00,192.00 l 8.00,0.00 l0.00,128.00 L 412.00,320.00 z M 428.00,320.00L 428.00,192.00 l 8.00,0.00 l0.00,128.00 L 428.00,320.00 z M 444.00,320.00L 444.00,192.00 l 8.00,0.00 l0.00,128.00 L 444.00,320.00 z M 460.00,320.00L 460.00,192.00 l 8.00,0.00 l0.00,128.00 L 460.00,320.00 z M 479.999,320.00L 476.00,320.00 L 476.00,192.00 l 4.00,0.00 L 479.999,320.00z M 224.00,192.00l 4.00,0.00 l0.00,128.00 l-4.00,0.00 l0.00,114.745 l-4.00-4.00L 220.00,81.255 l 4.00-4.00L 224.00,192.00 z" ></path></svg>