<?xml version="1.0" encoding="utf-8"?> <!-- Generator: IcoMoon.io --> <!DOCTYPE svg PUBLIC "-//W3C//DTD SVG 1.1//EN" "http://www.w3.org/Graphics/SVG/1.1/DTD/svg11.dtd"> <svg width="512" height="512" viewBox="0 0 512 512" xmlns="http://www.w3.org/2000/svg" xmlns:xlink="http://www.w3.org/1999/xlink" fill="#000000"><g class="svgGrid" id="svgGrid"><line stroke-width="1" stroke="#B35047" x1="32" x2="32" y1="0" y2="512"></line><line stroke-width="1" stroke="#B35047" x1="64" x2="64" y1="0" y2="512"></line><line stroke-width="1" stroke="#B35047" x1="96" x2="96" y1="0" y2="512"></line><line stroke-width="1" stroke="#B35047" x1="128" x2="128" y1="0" y2="512"></line><line stroke-width="1" stroke="#B35047" x1="160" x2="160" y1="0" y2="512"></line><line stroke-width="1" stroke="#B35047" x1="192" x2="192" y1="0" y2="512"></line><line stroke-width="1" stroke="#B35047" x1="224" x2="224" y1="0" y2="512"></line><line stroke-width="1" stroke="#B35047" x1="256" x2="256" y1="0" y2="512"></line><line stroke-width="1" stroke="#B35047" x1="288" x2="288" y1="0" y2="512"></line><line stroke-width="1" stroke="#B35047" x1="320" x2="320" y1="0" y2="512"></line><line stroke-width="1" stroke="#B35047" x1="352" x2="352" y1="0" y2="512"></line><line stroke-width="1" stroke="#B35047" x1="384" x2="384" y1="0" y2="512"></line><line stroke-width="1" stroke="#B35047" x1="416" x2="416" y1="0" y2="512"></line><line stroke-width="1" stroke="#B35047" x1="448" x2="448" y1="0" y2="512"></line><line stroke-width="1" stroke="#B35047" x1="480" x2="480" y1="0" y2="512"></line><line stroke-width="1" stroke="#B35047" x1="0" x2="512" y1="32" y2="32"></line><line stroke-width="1" stroke="#B35047" x1="0" x2="512" y1="64" y2="64"></line><line stroke-width="1" stroke="#B35047" x1="0" x2="512" y1="96" y2="96"></line><line stroke-width="1" stroke="#B35047" x1="0" x2="512" y1="128" y2="128"></line><line stroke-width="1" stroke="#B35047" x1="0" x2="512" y1="160" y2="160"></line><line stroke-width="1" stroke="#B35047" x1="0" x2="512" y1="192" y2="192"></line><line stroke-width="1" stroke="#B35047" x1="0" x2="512" y1="224" y2="224"></line><line stroke-width="1" stroke="#B35047" x1="0" x2="512" y1="256" y2="256"></line><line stroke-width="1" stroke="#B35047" x1="0" x2="512" y1="288" y2="288"></line><line stroke-width="1" stroke="#B35047" x1="0" x2="512" y1="320" y2="320"></line><line stroke-width="1" stroke="#B35047" x1="0" x2="512" y1="352" y2="352"></line><line stroke-width="1" stroke="#B35047" x1="0" x2="512" y1="384" y2="384"></line><line stroke-width="1" stroke="#B35047" x1="0" x2="512" y1="416" y2="416"></line><line stroke-width="1" stroke="#B35047" x1="0" x2="512" y1="448" y2="448"></line><line stroke-width="1" stroke="#B35047" x1="0" x2="512" y1="480" y2="480"></line><rect x="0" y="0" width="512" height="512" fill="none" stroke-width="1" stroke="#B35047"></rect></g><path d="M 255.999,512.00L 512.00,256.00L 352.00,256.00 L 352.00,0.001 L 160.00,0.00l0.00,256.00 L0.00,256.00 L 255.999,512.00z M 225.254,436.00l-8.00-8.00l 77.49,0.00 l-8.00,8.00L 225.254,436.00 z M 278.744,444.00l-8.00,8.00l-29.49,0.00 l-8.00-8.00L 278.744,444.00 z M 209.254,420.00l-8.00-8.00l 109.491,0.00 l-8.00,8.00L 209.254,420.00 z M 193.254,404.00l-8.00-8.00l 141.491,0.00 l-8.00,8.00L 193.254,404.00 z M 177.254,388.00l-8.00-8.00l 173.491,0.00 l-8.00,8.00 L 177.254,388.00 z M 161.254,372.00l-7.999-8.00l 205.49,0.00 l-8.00,8.00L 161.254,372.00 z M 145.255,356.00l-8.00-8.00l 237.49,0.00 l-8.00,8.00L 145.255,356.00 z M 129.255,340.00l-8.00-8.00l 269.49,0.00 l-8.00,8.00 L 129.255,340.00 z M 113.255,324.00l-8.00-8.00l 301.49,0.00 l-8.00,8.00L 113.255,324.00 z M 97.255,308.00l-8.00-8.00l 333.49,0.00 l-8.00,8.00L 97.255,308.00 z M 249.254,460.00l 13.49,0.00 l-6.745,6.745 L 249.254,460.00z M 320.00,276.00L 192.00,276.00 l0.00-8.00 l 128.00,0.00 L 320.00,276.00 z M 320.00,260.00L 192.00,260.00 l0.00-8.00 l 128.00,0.00 L 320.00,260.00 z M 320.00,244.00L 192.00,244.00 l0.00-8.00 l 128.00,0.00 L 320.00,244.00 z M 320.00,228.00L 192.00,228.00 l0.00-8.00 l 128.00,0.00 L 320.00,228.00 z M 320.00,212.00L 192.00,212.00 l0.00-8.00 l 128.00,0.00 L 320.00,212.00 z M 320.00,196.00L 192.00,196.00 l0.00-8.00 l 128.00,0.00 L 320.00,196.00 z M 320.00,180.00L 192.00,180.00 l0.00-8.00 l 128.00,0.00 L 320.00,180.00 z M 320.00,164.00L 192.00,164.00 l0.00-8.00 l 128.00,0.00 L 320.00,164.00 z M 320.00,148.00L 192.00,148.00 l0.00-8.00 l 128.00,0.00 L 320.00,148.00 z M 320.00,132.00L 192.00,132.00 l0.00-8.00 l 128.00,0.00 L 320.00,132.00 z M 320.00,116.00L 192.00,116.00 l0.00-8.00 l 128.00,0.00 L 320.00,116.00 z M 320.00,100.00L 192.00,100.00 l0.00-8.00 l 128.00,0.00 L 320.00,100.00 z M 320.00,84.00L 192.00,84.00 l0.00-8.00 l 128.00,0.00 L 320.00,84.00 z M 320.00,68.00L 192.00,68.00 l0.00-8.00 l 128.00,0.00 L 320.00,68.00 z M 320.00,52.00L 192.00,52.00 l0.00-8.00 l 128.00,0.00 L 320.00,52.00 z M 320.00,32.001L 320.00,36.00 L 192.00,36.00 l0.00-4.00 L 320.00,32.001z M 192.00,288.00l0.00-4.00 l 128.00,0.00 l0.00,4.00 l 114.745,0.00 l-4.00,4.00L 81.255,292.00 l-4.00-4.00L 192.00,288.00 z" ></path></svg>