<?xml version="1.0" encoding="utf-8"?> <!-- Generator: IcoMoon.io --> <!DOCTYPE svg PUBLIC "-//W3C//DTD SVG 1.1//EN" "http://www.w3.org/Graphics/SVG/1.1/DTD/svg11.dtd"> <svg width="512" height="512" viewBox="0 0 512 512" xmlns="http://www.w3.org/2000/svg" xmlns:xlink="http://www.w3.org/1999/xlink" fill="#000000"><g class="svgGrid" id="svgGrid"><line stroke-width="1" stroke="#B35047" x1="32" x2="32" y1="0" y2="512"></line><line stroke-width="1" stroke="#B35047" x1="64" x2="64" y1="0" y2="512"></line><line stroke-width="1" stroke="#B35047" x1="96" x2="96" y1="0" y2="512"></line><line stroke-width="1" stroke="#B35047" x1="128" x2="128" y1="0" y2="512"></line><line stroke-width="1" stroke="#B35047" x1="160" x2="160" y1="0" y2="512"></line><line stroke-width="1" stroke="#B35047" x1="192" x2="192" y1="0" y2="512"></line><line stroke-width="1" stroke="#B35047" x1="224" x2="224" y1="0" y2="512"></line><line stroke-width="1" stroke="#B35047" x1="256" x2="256" y1="0" y2="512"></line><line stroke-width="1" stroke="#B35047" x1="288" x2="288" y1="0" y2="512"></line><line stroke-width="1" stroke="#B35047" x1="320" x2="320" y1="0" y2="512"></line><line stroke-width="1" stroke="#B35047" x1="352" x2="352" y1="0" y2="512"></line><line stroke-width="1" stroke="#B35047" x1="384" x2="384" y1="0" y2="512"></line><line stroke-width="1" stroke="#B35047" x1="416" x2="416" y1="0" y2="512"></line><line stroke-width="1" stroke="#B35047" x1="448" x2="448" y1="0" y2="512"></line><line stroke-width="1" stroke="#B35047" x1="480" x2="480" y1="0" y2="512"></line><line stroke-width="1" stroke="#B35047" x1="0" x2="512" y1="32" y2="32"></line><line stroke-width="1" stroke="#B35047" x1="0" x2="512" y1="64" y2="64"></line><line stroke-width="1" stroke="#B35047" x1="0" x2="512" y1="96" y2="96"></line><line stroke-width="1" stroke="#B35047" x1="0" x2="512" y1="128" y2="128"></line><line stroke-width="1" stroke="#B35047" x1="0" x2="512" y1="160" y2="160"></line><line stroke-width="1" stroke="#B35047" x1="0" x2="512" y1="192" y2="192"></line><line stroke-width="1" stroke="#B35047" x1="0" x2="512" y1="224" y2="224"></line><line stroke-width="1" stroke="#B35047" x1="0" x2="512" y1="256" y2="256"></line><line stroke-width="1" stroke="#B35047" x1="0" x2="512" y1="288" y2="288"></line><line stroke-width="1" stroke="#B35047" x1="0" x2="512" y1="320" y2="320"></line><line stroke-width="1" stroke="#B35047" x1="0" x2="512" y1="352" y2="352"></line><line stroke-width="1" stroke="#B35047" x1="0" x2="512" y1="384" y2="384"></line><line stroke-width="1" stroke="#B35047" x1="0" x2="512" y1="416" y2="416"></line><line stroke-width="1" stroke="#B35047" x1="0" x2="512" y1="448" y2="448"></line><line stroke-width="1" stroke="#B35047" x1="0" x2="512" y1="480" y2="480"></line><rect x="0" y="0" width="512" height="512" fill="none" stroke-width="1" stroke="#B35047"></rect></g><path d="M 415.962,103.352L 415.962,103.352L 415.962,103.352 zM 417.025,256.00c 52.193-49.905, 77.541-98.79, 60.677-128.00c-9.63-16.678-31.68-24.648-61.74-24.648l0.00,24.00 c 21.072,0.00, 36.383,4.729, 40.956,12.648c 3.609,6.252, 1.60,15.865-0.723,22.829c-4.453,13.355-14.143,29.332-28.021,46.202 c-8.424,10.239-18.135,20.561-28.937,30.821c-14.882-12.849-31.438-25.629-49.398-38.029c-1.757-21.74-4.545-42.458-8.229-61.759 c 28.095-8.333, 53.593-12.709, 74.341-12.711l 0.011-24.00c-0.004,0.00-0.009,0.00-0.013,0.00c-22.587,0.002-49.698,4.516-79.436,13.202 C 319.392,46.396, 289.729,0.00, 256.00,0.00s-63.392,46.396-80.514,116.551c-29.737-8.686-56.849-13.199-79.436-13.199 c-30.06,0.00-52.124,7.971-61.753,24.648c-16.865,29.21, 8.483,78.095, 60.676,128.00c-52.193,49.905-77.541,98.79-60.676,128.00 c 9.63,16.68, 31.685,24.647, 61.753,24.647c 22.586,0.00, 49.698-4.514, 79.436-13.20C 192.608,465.604, 222.27,512.00, 256.00,512.00 c 33.729,0.00, 63.392-46.396, 80.514-116.551c 29.737,8.687, 56.849,13.199, 79.436,13.199c 30.06,0.00, 52.124-7.971, 61.753-24.648 C 494.566,354.791, 469.219,305.905, 417.025,256.00z M 381.271,256.00c-9.309,7.938-19.226,15.792-29.678,23.494 C 351.857,271.756, 352.00,263.923, 352.00,256.00c0.00-7.922-0.143-15.755-0.406-23.494C 362.046,240.208, 371.963,248.062, 381.271,256.00z M 318.646,364.433c-11.527-4.097-23.281-8.759-35.134-13.933c 6.813-3.631, 13.647-7.412, 20.487-11.361 c 6.861-3.961, 13.573-8.001, 20.144-12.099C 322.701,339.923, 320.861,352.42, 318.646,364.433z M 292.00,318.354 c-11.89,6.864-23.938,13.315-36.00,19.307c-12.062-5.991-24.11-12.442-36.00-19.307c-11.988-6.922-23.596-14.114-34.749-21.507 C 184.426,283.492, 184.00,269.843, 184.00,256.00c0.00-13.843, 0.426-27.492, 1.251-40.847c 11.153-7.393, 22.761-14.585, 34.749-21.507 c 11.89-6.864, 23.938-13.315, 36.00-19.307c 12.062,5.991, 24.11,12.442, 36.00,19.307c 11.988,6.921, 23.596,14.115, 34.749,21.507 C 327.574,228.508, 328.00,242.157, 328.00,256.00s-0.426,27.492-1.251,40.848C 315.596,304.24, 303.988,311.433, 292.00,318.354z M 187.856,327.04 c 6.57,4.098, 13.282,8.138, 20.144,12.099c 6.84,3.949, 13.673,7.73, 20.487,11.361c-11.852,5.174-23.607,9.835-35.133,13.932 C 191.139,352.419, 189.298,339.922, 187.856,327.04z M 160.406,279.495c-10.452-7.703-20.37-15.558-29.679-23.495 c 9.309-7.938, 19.227-15.792, 29.679-23.495C 160.142,240.245, 160.00,248.077, 160.00,256.00S 160.142,271.756, 160.406,279.495z M 193.354,147.568 c 11.526,4.097, 23.281,8.759, 35.133,13.932c-6.813,3.631-13.647,7.412-20.487,11.361c-6.861,3.961-13.573,8.001-20.144,12.099 C 189.298,172.078, 191.139,159.581, 193.354,147.568z M 304.00,172.861c-6.84-3.949-13.673-7.73-20.486-11.361 c 11.852-5.173, 23.606-9.834, 35.133-13.931c 2.215,12.012, 4.055,24.508, 5.497,37.391C 317.573,180.862, 310.861,176.823, 304.00,172.861z M 210.59,83.408c 7.67-20.454, 16.661-36.834, 26.001-47.368C 241.46,30.547, 248.78,24.00, 256.00,24.00s 14.539,6.547, 19.409,12.04 c 9.34,10.534, 18.33,26.914, 26.001,47.368c 4.656,12.417, 8.739,25.989, 12.225,40.476c-18.569,6.463-37.916,14.412-57.634,23.766 c-19.719-9.355-39.066-17.304-57.635-23.768C 201.851,109.396, 205.934,95.824, 210.59,83.408z M 83.825,209.031 c-13.878-16.87-23.568-32.846-28.021-46.202c-2.322-6.963-4.332-16.577-0.722-22.829c 4.572-7.919, 19.888-12.647, 40.969-12.648 l 0.002,0.00 c 20.746,0.00, 46.243,4.376, 74.337,12.709c-3.684,19.302-6.471,40.02-8.228,61.761c-17.96,12.399-34.518,25.18-49.40,38.029 C 101.96,229.591, 92.249,219.27, 83.825,209.031z M 96.05,384.647c-21.081,0.00-36.396-4.728-40.968-12.647 c-3.61-6.252-1.60-15.865, 0.722-22.829c 4.453-13.355, 14.143-29.331, 28.021-46.201c 8.424-10.239, 18.135-20.561, 28.937-30.821 c 14.881,12.85, 31.439,25.63, 49.399,38.029c 1.757,21.741, 4.544,42.458, 8.228,61.761C 142.294,380.271, 116.797,384.647, 96.05,384.647z M 301.41,428.592c-7.671,20.455-16.661,36.834-26.001,47.369C 270.539,481.453, 263.22,488.00, 256.00,488.00s-14.54-6.547-19.409-12.039 c-9.34-10.535-18.331-26.914-26.001-47.368c-4.656-12.417-8.739-25.989-12.225-40.476c 18.569-6.464, 37.916-14.412, 57.634-23.767 c 19.72,9.355, 39.066,17.305, 57.635,23.768C 310.148,402.604, 306.066,416.176, 301.41,428.592z M 456.195,349.172 c 2.322,6.963, 4.332,16.576, 0.723,22.828c-4.573,7.92-19.889,12.648-40.969,12.648c-20.748,0.00-46.245-4.376-74.339-12.709 c 3.684-19.303, 6.472-40.021, 8.229-61.762c 17.96-12.399, 34.517-25.18, 49.398-38.028c 10.802,10.26, 20.513,20.581, 28.937,30.82 C 442.053,319.84, 451.742,335.816, 456.195,349.172z" ></path></svg>