<?xml version="1.0" encoding="utf-8"?> <!-- Generator: IcoMoon.io --> <!DOCTYPE svg PUBLIC "-//W3C//DTD SVG 1.1//EN" "http://www.w3.org/Graphics/SVG/1.1/DTD/svg11.dtd"> <svg width="512" height="512" viewBox="0 0 512 512" xmlns="http://www.w3.org/2000/svg" xmlns:xlink="http://www.w3.org/1999/xlink" fill="#000000"><g class="svgGrid" id="svgGrid"><line stroke-width="1" stroke="#B35047" x1="32" x2="32" y1="0" y2="512"></line><line stroke-width="1" stroke="#B35047" x1="64" x2="64" y1="0" y2="512"></line><line stroke-width="1" stroke="#B35047" x1="96" x2="96" y1="0" y2="512"></line><line stroke-width="1" stroke="#B35047" x1="128" x2="128" y1="0" y2="512"></line><line stroke-width="1" stroke="#B35047" x1="160" x2="160" y1="0" y2="512"></line><line stroke-width="1" stroke="#B35047" x1="192" x2="192" y1="0" y2="512"></line><line stroke-width="1" stroke="#B35047" x1="224" x2="224" y1="0" y2="512"></line><line stroke-width="1" stroke="#B35047" x1="256" x2="256" y1="0" y2="512"></line><line stroke-width="1" stroke="#B35047" x1="288" x2="288" y1="0" y2="512"></line><line stroke-width="1" stroke="#B35047" x1="320" x2="320" y1="0" y2="512"></line><line stroke-width="1" stroke="#B35047" x1="352" x2="352" y1="0" y2="512"></line><line stroke-width="1" stroke="#B35047" x1="384" x2="384" y1="0" y2="512"></line><line stroke-width="1" stroke="#B35047" x1="416" x2="416" y1="0" y2="512"></line><line stroke-width="1" stroke="#B35047" x1="448" x2="448" y1="0" y2="512"></line><line stroke-width="1" stroke="#B35047" x1="480" x2="480" y1="0" y2="512"></line><line stroke-width="1" stroke="#B35047" x1="0" x2="512" y1="32" y2="32"></line><line stroke-width="1" stroke="#B35047" x1="0" x2="512" y1="64" y2="64"></line><line stroke-width="1" stroke="#B35047" x1="0" x2="512" y1="96" y2="96"></line><line stroke-width="1" stroke="#B35047" x1="0" x2="512" y1="128" y2="128"></line><line stroke-width="1" stroke="#B35047" x1="0" x2="512" y1="160" y2="160"></line><line stroke-width="1" stroke="#B35047" x1="0" x2="512" y1="192" y2="192"></line><line stroke-width="1" stroke="#B35047" x1="0" x2="512" y1="224" y2="224"></line><line stroke-width="1" stroke="#B35047" x1="0" x2="512" y1="256" y2="256"></line><line stroke-width="1" stroke="#B35047" x1="0" x2="512" y1="288" y2="288"></line><line stroke-width="1" stroke="#B35047" x1="0" x2="512" y1="320" y2="320"></line><line stroke-width="1" stroke="#B35047" x1="0" x2="512" y1="352" y2="352"></line><line stroke-width="1" stroke="#B35047" x1="0" x2="512" y1="384" y2="384"></line><line stroke-width="1" stroke="#B35047" x1="0" x2="512" y1="416" y2="416"></line><line stroke-width="1" stroke="#B35047" x1="0" x2="512" y1="448" y2="448"></line><line stroke-width="1" stroke="#B35047" x1="0" x2="512" y1="480" y2="480"></line><rect x="0" y="0" width="512" height="512" fill="none" stroke-width="1" stroke="#B35047"></rect></g><path d="M 352.00,96.00L 352.00,80.00 c0.00-44.183-35.817-80.00-80.00-80.00c-18.011,0.00-34.629,5.955-48.00,15.999C 210.629,5.955, 194.011,0.00, 176.00,0.00 c-44.183,0.00-80.00,35.817-80.00,80.00l0.00,54.40 L 32.00,144.00l0.00,336.00 l 64.00,0.00 l 32.00,32.00l 320.00-48.00L 448.00,128.00 L 352.00,96.00z M 64.00,420.00l0.00-8.00 l 32.00,0.00 l0.00,8.00 L 64.00,420.00 z M 96.00,428.00l0.00,8.00 L 64.00,436.00 l0.00-8.00 L 96.00,428.00 z M 64.00,404.00l0.00-8.00 l 32.00,0.00 l0.00,8.00 L 64.00,404.00 z M 64.00,388.00l0.00-8.00 l 32.00,0.00 l0.00,8.00 L 64.00,388.00 z M 64.00,372.00l0.00-8.00 l 32.00,0.00 l0.00,8.00 L 64.00,372.00 z M 64.00,356.00l0.00-8.00 l 32.00,0.00 l0.00,8.00 L 64.00,356.00 z M 64.00,340.00l0.00-8.00 l 32.00,0.00 l0.00,8.00 L 64.00,340.00 z M 64.00,324.00l0.00-8.00 l 32.00,0.00 l0.00,8.00 L 64.00,324.00 z M 64.00,308.00l0.00-8.00 l 32.00,0.00 l0.00,8.00 L 64.00,308.00 z M 64.00,292.00l0.00-8.00 l 32.00,0.00 l0.00,8.00 L 64.00,292.00 z M 64.00,276.00l0.00-8.00 l 32.00,0.00 l0.00,8.00 L 64.00,276.00 z M 64.00,260.00l0.00-8.00 l 32.00,0.00 l0.00,8.00 L 64.00,260.00 z M 64.00,244.00l0.00-8.00 l 32.00,0.00 l0.00,8.00 L 64.00,244.00 z M 64.00,228.00l0.00-8.00 l 32.00,0.00 l0.00,8.00 L 64.00,228.00 z M 64.00,212.00l0.00-8.00 l 32.00,0.00 l0.00,8.00 L 64.00,212.00 z M 64.00,196.00l0.00-8.00 l 32.00,0.00 l0.00,8.00 L 64.00,196.00 z M 64.00,180.00l0.00-8.00 l 32.00,0.00 l0.00,8.00 L 64.00,180.00 z M 64.00,448.00l0.00-4.00 l 32.00,0.00 l0.00,4.00 L 64.00,448.00 z M 380.00,170.558l 8.00-1.20l0.00,271.284 l-8.00,1.199L 380.00,170.558 z M 372.00,443.042l-8.00,1.20 L 364.00,172.958 l 8.00-1.20L 372.00,443.042 z M 396.00,168.158l 8.00-1.20l0.00,271.284 l-8.00,1.20L 396.00,168.158 z M 356.00,174.158l0.00,271.284 l-8.00,1.20L 348.00,175.358 L 356.00,174.158z M 252.00,189.758l 8.00-1.20l0.00,271.284 l-8.00,1.20L 252.00,189.758 z M 244.00,462.242l-8.00,1.20L 236.00,192.158 l 8.00-1.20L 244.00,462.242 z M 268.00,187.358l 8.00-1.20l0.00,271.284 l-8.00,1.199 L 268.00,187.358 z M 284.00,184.958l 8.00-1.20l0.00,271.284 l-8.00,1.20L 284.00,184.958 z M 300.00,182.558l 8.00-1.20l0.00,271.284 l-8.00,1.199L 300.00,182.558 z M 316.00,180.158l 8.00-1.20l0.00,271.284 l-8.00,1.20L 316.00,180.158 z M 332.00,177.758l 8.00-1.20l0.00,271.284 l-8.00,1.20L 332.00,177.758 z M 272.00,32.00c 26.468,0.00, 48.00,21.533, 48.00,48.00l0.00,20.80 l-64.00,9.60L 256.00,80.00 c0.00-14.531-3.894-28.145-10.666-39.89C 252.967,34.992, 262.14,32.00, 272.00,32.00z M 228.00,193.358l0.00,271.283 l-8.00,1.20L 220.00,194.558 L 228.00,193.358z M 180.00,200.558l0.00,271.284 l-8.00,1.20L 172.00,201.758 L 180.00,200.558z M 188.00,199.358l 8.00-1.20l0.00,271.283 l-8.00,1.20L 188.00,199.358 z M 204.00,196.958l 8.00-1.20l0.00,271.284 l-8.00,1.20 L 204.00,196.958 z M 128.00,80.00c0.00-26.467, 21.533-48.00, 48.00-48.00c 9.86,0.00, 19.033,2.992, 26.666,8.111C 195.894,51.855, 192.00,65.469, 192.00,80.00l0.00,40.00 l-64.00,9.60L 128.00,80.00 z M 160.00,203.558l 4.00-0.60l0.00,271.284 l-4.00,0.60L 160.00,203.558 z M 416.00,436.442l-4.00,0.60L 412.00,165.758 l 4.00-0.60L 416.00,436.442 z" ></path></svg>