<?xml version="1.0" encoding="utf-8"?> <!-- Generator: IcoMoon.io --> <!DOCTYPE svg PUBLIC "-//W3C//DTD SVG 1.1//EN" "http://www.w3.org/Graphics/SVG/1.1/DTD/svg11.dtd"> <svg width="512" height="512" viewBox="0 0 512 512" xmlns="http://www.w3.org/2000/svg" xmlns:xlink="http://www.w3.org/1999/xlink" fill="#000000"><g class="svgGrid" id="svgGrid"><line stroke-width="1" stroke="#B35047" x1="32" x2="32" y1="0" y2="512"></line><line stroke-width="1" stroke="#B35047" x1="64" x2="64" y1="0" y2="512"></line><line stroke-width="1" stroke="#B35047" x1="96" x2="96" y1="0" y2="512"></line><line stroke-width="1" stroke="#B35047" x1="128" x2="128" y1="0" y2="512"></line><line stroke-width="1" stroke="#B35047" x1="160" x2="160" y1="0" y2="512"></line><line stroke-width="1" stroke="#B35047" x1="192" x2="192" y1="0" y2="512"></line><line stroke-width="1" stroke="#B35047" x1="224" x2="224" y1="0" y2="512"></line><line stroke-width="1" stroke="#B35047" x1="256" x2="256" y1="0" y2="512"></line><line stroke-width="1" stroke="#B35047" x1="288" x2="288" y1="0" y2="512"></line><line stroke-width="1" stroke="#B35047" x1="320" x2="320" y1="0" y2="512"></line><line stroke-width="1" stroke="#B35047" x1="352" x2="352" y1="0" y2="512"></line><line stroke-width="1" stroke="#B35047" x1="384" x2="384" y1="0" y2="512"></line><line stroke-width="1" stroke="#B35047" x1="416" x2="416" y1="0" y2="512"></line><line stroke-width="1" stroke="#B35047" x1="448" x2="448" y1="0" y2="512"></line><line stroke-width="1" stroke="#B35047" x1="480" x2="480" y1="0" y2="512"></line><line stroke-width="1" stroke="#B35047" x1="0" x2="512" y1="32" y2="32"></line><line stroke-width="1" stroke="#B35047" x1="0" x2="512" y1="64" y2="64"></line><line stroke-width="1" stroke="#B35047" x1="0" x2="512" y1="96" y2="96"></line><line stroke-width="1" stroke="#B35047" x1="0" x2="512" y1="128" y2="128"></line><line stroke-width="1" stroke="#B35047" x1="0" x2="512" y1="160" y2="160"></line><line stroke-width="1" stroke="#B35047" x1="0" x2="512" y1="192" y2="192"></line><line stroke-width="1" stroke="#B35047" x1="0" x2="512" y1="224" y2="224"></line><line stroke-width="1" stroke="#B35047" x1="0" x2="512" y1="256" y2="256"></line><line stroke-width="1" stroke="#B35047" x1="0" x2="512" y1="288" y2="288"></line><line stroke-width="1" stroke="#B35047" x1="0" x2="512" y1="320" y2="320"></line><line stroke-width="1" stroke="#B35047" x1="0" x2="512" y1="352" y2="352"></line><line stroke-width="1" stroke="#B35047" x1="0" x2="512" y1="384" y2="384"></line><line stroke-width="1" stroke="#B35047" x1="0" x2="512" y1="416" y2="416"></line><line stroke-width="1" stroke="#B35047" x1="0" x2="512" y1="448" y2="448"></line><line stroke-width="1" stroke="#B35047" x1="0" x2="512" y1="480" y2="480"></line><rect x="0" y="0" width="512" height="512" fill="none" stroke-width="1" stroke="#B35047"></rect></g><path d="M 384.385,439.584c0.00-0.001-0.002-0.003-0.004-0.004c-0.04-0.044-0.073-0.08-0.114-0.123 c-0.003-0.004-0.006-0.007-0.009-0.01c-0.123-0.132-0.236-0.255-0.359-0.387c-0.003-0.004-0.006-0.008-0.01-0.011 c-0.041-0.044-0.07-0.077-0.111-0.121c-0.002-0.003-0.006-0.006-0.008-0.009c-0.082-0.088-0.154-0.166-0.236-0.255 c-0.006-0.007-0.012-0.013-0.018-0.019c-0.029-0.033-0.066-0.072-0.097-0.105c-0.008-0.009-0.016-0.018-0.023-0.025 c-0.03-0.033-0.072-0.079-0.103-0.111c-0.004-0.004-0.008-0.009-0.012-0.013c-0.041-0.044-0.075-0.082-0.115-0.126 c-0.006-0.006-0.011-0.012-0.016-0.018c-0.031-0.033-0.068-0.073-0.098-0.106c-0.009-0.01-0.019-0.021-0.027-0.03 c-0.031-0.033-0.059-0.063-0.089-0.098c-0.009-0.008-0.018-0.018-0.026-0.027c-0.035-0.039-0.076-0.084-0.112-0.123l-0.001,0.00 c-0.035-0.039-0.076-0.084-0.111-0.123c-0.01-0.011-0.02-0.021-0.029-0.031c-0.03-0.033-0.052-0.057-0.082-0.09 c-0.013-0.014-0.023-0.027-0.036-0.041c-0.03-0.032-0.054-0.058-0.083-0.09c-0.01-0.012-0.02-0.021-0.027-0.031 c-0.041-0.045-0.069-0.075-0.109-0.119c-0.011-0.012-0.02-0.022-0.031-0.033c-0.024-0.029-0.053-0.059-0.077-0.087 c-0.015-0.017-0.03-0.032-0.044-0.049c-0.021-0.022-0.045-0.05-0.066-0.072c-0.016-0.017-0.03-0.034-0.047-0.052 c-0.024-0.027-0.05-0.055-0.076-0.084c-0.01-0.012-0.02-0.023-0.031-0.035c-0.035-0.039-0.065-0.072-0.101-0.111 c-0.019-0.02-0.035-0.039-0.053-0.059c-0.015-0.018-0.04-0.045-0.056-0.061c-0.019-0.021-0.037-0.041-0.055-0.062 c-0.016-0.017-0.037-0.042-0.053-0.059c-0.019-0.021-0.037-0.041-0.057-0.062c-0.02-0.023-0.035-0.041-0.055-0.062 c-0.035-0.039-0.069-0.076-0.104-0.115c-0.01-0.012-0.031-0.035-0.041-0.045c-0.022-0.025-0.045-0.051-0.068-0.076 c-0.01-0.012-0.025-0.029-0.036-0.041c-0.022-0.024-0.045-0.05-0.067-0.074c-0.01-0.012-0.025-0.027-0.035-0.039 c-0.078-0.088-0.157-0.176-0.236-0.264c-0.01-0.012-0.017-0.02-0.026-0.031c-0.024-0.027-0.048-0.055-0.073-0.082 c-0.01-0.012-0.021-0.023-0.031-0.035c-0.024-0.027-0.049-0.055-0.074-0.084c-0.062-0.068-0.123-0.138-0.184-0.206l-0.004-0.004 c-0.027-0.03-0.055-0.062-0.082-0.093c-0.006-0.006-0.014-0.016-0.019-0.021c-0.028-0.031-0.057-0.062-0.085-0.094l-0.003-0.004 c-0.089-0.102-0.18-0.203-0.269-0.305c-0.006-0.005-0.008-0.008-0.013-0.013c-0.027-0.032-0.056-0.063-0.083-0.095 c-0.005-0.006-0.009-0.01-0.014-0.016c-0.121-0.137-0.242-0.274-0.363-0.412l-0.002-0.003c-1.082-1.231-2.152-2.477-3.209-3.731 l 6.658-5.61c-6.201-7.489-11.959-15.359-17.228-23.573l-8.081,5.438c-1.694-2.518-3.342-5.07-4.943-7.654l-0.002-0.006 c-0.023-0.036-0.047-0.073-0.068-0.109c-0.005-0.007-0.008-0.012-0.012-0.019c-0.092-0.149-0.185-0.298-0.276-0.448 c-0.008-0.013-0.015-0.023-0.022-0.037c-0.02-0.03-0.037-0.061-0.057-0.091c-0.008-0.013-0.018-0.03-0.025-0.043 c-0.041-0.065-0.08-0.128-0.12-0.193c-0.004-0.007-0.005-0.007-0.008-0.013c-0.017-0.029-0.033-0.057-0.05-0.084 c-0.013-0.019-0.022-0.035-0.035-0.055c-0.015-0.025-0.031-0.053-0.047-0.078c-0.012-0.02-0.026-0.043-0.038-0.062 c-0.015-0.024-0.03-0.049-0.044-0.072c-0.017-0.025-0.034-0.055-0.051-0.08c-0.02-0.036-0.042-0.072-0.064-0.107 c-0.015-0.025-0.03-0.051-0.045-0.076c-0.014-0.021-0.027-0.043-0.041-0.065c-0.016-0.026-0.029-0.05-0.045-0.075 c-0.014-0.021-0.025-0.042-0.039-0.062c-0.02-0.033-0.038-0.063-0.057-0.096c-0.01-0.014-0.019-0.029-0.026-0.043 c-0.028-0.045-0.054-0.088-0.081-0.133c-0.01-0.016-0.02-0.032-0.029-0.048c-0.02-0.032-0.039-0.065-0.059-0.099 c-0.01-0.014-0.019-0.029-0.027-0.045c-0.023-0.038-0.041-0.066-0.064-0.106c-0.008-0.012-0.016-0.024-0.022-0.036 c-0.026-0.045-0.06-0.098-0.087-0.144c0.00-0.001-0.001-0.003-0.002-0.005c-0.027-0.045-0.057-0.094-0.084-0.139 c-0.006-0.01-0.012-0.021-0.018-0.031c-0.023-0.039-0.05-0.08-0.072-0.12c-0.006-0.009-0.012-0.018-0.017-0.026 c-0.027-0.046-0.06-0.10-0.087-0.145c-0.031-0.052-0.06-0.102-0.092-0.152c-0.002-0.004-0.003-0.006-0.005-0.01 c-0.028-0.045-0.056-0.092-0.083-0.139c-0.004-0.006-0.008-0.014-0.013-0.021c-0.089-0.149-0.181-0.305-0.27-0.454 c-0.001-0.001-0.003-0.004-0.003-0.005c-0.031-0.052-0.059-0.097-0.089-0.148c-0.001-0.002-0.003-0.005-0.004-0.007 c-0.092-0.154-0.181-0.307-0.272-0.463c-0.002-0.001-0.002-0.002-0.003-0.003c-3.678-6.233-7.075-12.636-10.188-19.212l 9.401-4.451 c-3.538-7.792-6.66-15.812-9.362-24.021l-9.865,3.414c-2.137-6.174-4.027-12.459-5.662-18.848c0.00-0.002,0.00-0.002-0.001-0.004 c-0.046-0.18-0.091-0.355-0.137-0.536c0.00-0.001,0.00-0.001-0.001-0.002c-0.045-0.18-0.088-0.351-0.133-0.531 c-0.002-0.005-0.003-0.01-0.004-0.015c-0.045-0.18-0.088-0.348-0.133-0.529c0.00-0.002-0.001-0.005-0.002-0.008 c-0.044-0.18-0.086-0.35-0.131-0.53c0.00-0.005-0.002-0.008-0.002-0.012c-0.016-0.061-0.027-0.11-0.043-0.171 c0.00-0.002,0.00-0.002-0.001-0.004c-0.029-0.121-0.058-0.237-0.087-0.357c0.00-0.001-0.001-0.004-0.001-0.004 c-0.015-0.061-0.028-0.115-0.042-0.176c-0.001-0.002-0.001-0.002-0.002-0.005c-0.029-0.12-0.057-0.236-0.086-0.356 c0.00-0.002-0.001-0.004-0.002-0.006c-0.015-0.061-0.025-0.11-0.041-0.17c-0.001-0.005-0.002-0.008-0.002-0.012 c-0.043-0.18-0.084-0.348-0.127-0.529c-0.001-0.004-0.002-0.01-0.004-0.014c-0.043-0.182-0.082-0.35-0.125-0.531 c0.00-0.004-0.002-0.008-0.002-0.01c-0.043-0.181-0.084-0.354-0.125-0.535c-0.001-0.002-0.002-0.004-0.002-0.006 c-0.042-0.182-0.083-0.357-0.124-0.538c-0.001-0.001-0.001-0.003-0.001-0.005c-0.043-0.182-0.083-0.357-0.124-0.539 c-0.001-0.002-0.001-0.004-0.001-0.005c-0.738-3.241-1.41-6.505-2.017-9.794l 10.659-1.962c-1.417-8.074-2.425-16.289-3.013-24.62 L 320.00,289.777l0.00-35.555 l 8.616,0.636c 0.588-8.331, 1.596-16.545, 3.013-24.62l-10.659-1.962c 0.606-3.289, 1.278-6.552, 2.017-9.793 c0.00-0.001,0.00-0.003, 0.001-0.005c 0.041-0.181, 0.081-0.358, 0.124-0.54c0.00-0.001,0.00-0.003, 0.001-0.004 c 0.041-0.181, 0.082-0.356, 0.124-0.538c0.00-0.003, 0.001-0.004, 0.002-0.007c 0.041-0.181, 0.082-0.354, 0.125-0.534 c0.00-0.003, 0.002-0.007, 0.002-0.01c 0.043-0.182, 0.082-0.351, 0.125-0.531c 0.002-0.004, 0.003-0.01, 0.004-0.015 c 0.043-0.181, 0.084-0.349, 0.127-0.529c0.00-0.004, 0.001-0.006, 0.002-0.011c 0.016-0.06, 0.026-0.11, 0.041-0.17 c 0.001-0.002, 0.002-0.004, 0.002-0.006c 0.029-0.12, 0.057-0.236, 0.086-0.356c 0.001-0.002, 0.001-0.003, 0.002-0.005 c 0.014-0.061, 0.027-0.115, 0.042-0.175c0.00,0.00, 0.001-0.003, 0.001-0.003c 0.029-0.121, 0.058-0.237, 0.087-0.358 c 0.001-0.001, 0.001-0.002, 0.001-0.004c 0.016-0.06, 0.027-0.11, 0.043-0.171c0.00-0.004, 0.002-0.007, 0.002-0.012 c 0.045-0.18, 0.087-0.351, 0.131-0.53c 0.001-0.003, 0.002-0.005, 0.002-0.008c 0.045-0.181, 0.088-0.349, 0.133-0.529 c 0.001-0.005, 0.002-0.01, 0.004-0.015c 0.045-0.181, 0.088-0.352, 0.133-0.531c 0.001,0.00, 0.001-0.001, 0.001-0.002 c 0.046-0.18, 0.091-0.357, 0.137-0.536c 0.001-0.001, 0.001-0.002, 0.001-0.004c 1.635-6.389, 3.525-12.674, 5.662-18.848l 9.865,3.414 c 2.702-8.21, 5.825-16.229, 9.362-24.021l-9.401-4.451c 3.113-6.576, 6.511-12.978, 10.188-19.212c 0.001-0.001, 0.001-0.002, 0.003-0.003 c 0.092-0.156, 0.181-0.308, 0.272-0.463c 0.001-0.002, 0.003-0.004, 0.004-0.006c 0.03-0.052, 0.058-0.097, 0.089-0.148 c0.00-0.001, 0.002-0.004, 0.003-0.005c 0.089-0.149, 0.181-0.305, 0.27-0.454c 0.005-0.007, 0.009-0.014, 0.013-0.021 c 0.027-0.046, 0.055-0.093, 0.083-0.138c 0.002-0.003, 0.003-0.006, 0.005-0.01c 0.032-0.051, 0.061-0.101, 0.092-0.152l0.00,0.00 c 0.027-0.045, 0.06-0.099, 0.087-0.144c 0.005-0.009, 0.011-0.018, 0.017-0.027c 0.022-0.04, 0.049-0.082, 0.072-0.121 c 0.006-0.01, 0.012-0.021, 0.018-0.031c 0.027-0.045, 0.057-0.094, 0.084-0.139c 0.001-0.001, 0.002-0.003, 0.002-0.005 c 0.027-0.045, 0.061-0.099, 0.087-0.143c 0.007-0.012, 0.015-0.025, 0.022-0.037c 0.023-0.04, 0.041-0.068, 0.064-0.107 c 0.009-0.015, 0.018-0.03, 0.027-0.045c 0.02-0.032, 0.039-0.065, 0.059-0.098c 0.01-0.016, 0.02-0.032, 0.029-0.047 c 0.027-0.045, 0.053-0.089, 0.081-0.133c 0.008-0.014, 0.017-0.029, 0.026-0.043c 0.019-0.032, 0.037-0.062, 0.057-0.095 c 0.014-0.021, 0.025-0.042, 0.039-0.062c 0.016-0.026, 0.029-0.05, 0.045-0.076c 0.014-0.022, 0.027-0.043, 0.041-0.065 c 0.015-0.025, 0.03-0.051, 0.045-0.077c 0.022-0.035, 0.045-0.071, 0.064-0.106c 0.017-0.025, 0.034-0.055, 0.051-0.08 c 0.014-0.024, 0.029-0.048, 0.044-0.073c 0.012-0.019, 0.026-0.043, 0.038-0.062c 0.016-0.026, 0.032-0.053, 0.047-0.079 c 0.013-0.019, 0.022-0.036, 0.035-0.055c 0.017-0.027, 0.033-0.055, 0.05-0.083c 0.003-0.006, 0.004-0.007, 0.008-0.013 c 0.04-0.065, 0.079-0.128, 0.12-0.193c 0.008-0.013, 0.018-0.03, 0.025-0.043c 0.02-0.031, 0.037-0.061, 0.057-0.091 c 0.008-0.013, 0.015-0.024, 0.022-0.037c 0.092-0.15, 0.185-0.299, 0.276-0.448c 0.004-0.006, 0.007-0.012, 0.012-0.018 c 0.021-0.037, 0.045-0.074, 0.068-0.11l 0.002-0.006c 1.602-2.584, 3.249-5.136, 4.943-7.654l 8.081,5.438 c 5.269-8.215, 11.026-16.084, 17.228-23.574l-6.658-5.61c 1.057-1.254, 2.127-2.499, 3.209-3.731l 0.002-0.002 c 0.121-0.138, 0.242-0.275, 0.363-0.413c 0.005-0.005, 0.009-0.01, 0.014-0.015c 0.027-0.032, 0.056-0.062, 0.083-0.095 c 0.005-0.005, 0.007-0.008, 0.013-0.013c 0.089-0.101, 0.18-0.203, 0.269-0.304l 0.003-0.003c 0.028-0.031, 0.057-0.063, 0.085-0.095 c 0.005-0.006, 0.013-0.016, 0.019-0.021c 0.027-0.031, 0.055-0.062, 0.082-0.093l 0.004-0.004c 0.061-0.068, 0.122-0.138, 0.184-0.207 c 0.025-0.028, 0.05-0.056, 0.074-0.084c 0.01-0.011, 0.021-0.023, 0.031-0.035c 0.025-0.027, 0.049-0.054, 0.073-0.082 c 0.01-0.011, 0.017-0.02, 0.026-0.031c 0.079-0.088, 0.158-0.176, 0.236-0.264c 0.01-0.011, 0.025-0.028, 0.035-0.039 c 0.022-0.025, 0.045-0.05, 0.067-0.075c 0.011-0.011, 0.026-0.03, 0.036-0.042c 0.023-0.025, 0.046-0.05, 0.068-0.075 c 0.01-0.011, 0.031-0.034, 0.041-0.045c 0.034-0.04, 0.068-0.077, 0.104-0.116c 0.02-0.022, 0.035-0.04, 0.055-0.062 c 0.02-0.021, 0.038-0.042, 0.057-0.062c 0.016-0.017, 0.037-0.042, 0.053-0.059c 0.018-0.02, 0.036-0.04, 0.055-0.061 c 0.016-0.016, 0.041-0.044, 0.056-0.061c 0.018-0.02, 0.034-0.039, 0.053-0.059c 0.035-0.039, 0.065-0.073, 0.101-0.111 c 0.012-0.012, 0.021-0.023, 0.031-0.035c 0.026-0.029, 0.052-0.057, 0.076-0.084c 0.017-0.018, 0.031-0.035, 0.047-0.052 c 0.021-0.022, 0.046-0.05, 0.066-0.072c 0.014-0.017, 0.029-0.033, 0.044-0.049c 0.024-0.028, 0.053-0.058, 0.077-0.086 c 0.012-0.011, 0.021-0.022, 0.031-0.033c 0.04-0.044, 0.068-0.075, 0.109-0.12c 0.008-0.01, 0.018-0.02, 0.027-0.031 c 0.029-0.033, 0.053-0.058, 0.083-0.091c 0.013-0.014, 0.023-0.027, 0.036-0.041c 0.03-0.033, 0.052-0.056, 0.082-0.089 c 0.01-0.011, 0.02-0.021, 0.029-0.032c 0.035-0.039, 0.076-0.084, 0.111-0.123l 0.001,0.00c 0.036-0.038, 0.077-0.084, 0.112-0.123 c 0.009-0.009, 0.018-0.019, 0.026-0.027c 0.03-0.034, 0.058-0.064, 0.089-0.098c 0.009-0.01, 0.019-0.02, 0.027-0.03 c 0.029-0.033, 0.066-0.074, 0.098-0.107c 0.005-0.006, 0.01-0.011, 0.016-0.017c 0.04-0.044, 0.074-0.082, 0.115-0.126 c 0.004-0.004, 0.008-0.008, 0.012-0.012c 0.03-0.033, 0.072-0.078, 0.103-0.111c 0.008-0.009, 0.016-0.017, 0.023-0.025 c 0.03-0.033, 0.067-0.073, 0.097-0.106c 0.006-0.006, 0.012-0.012, 0.018-0.019c 0.082-0.089, 0.154-0.167, 0.236-0.255 c 0.002-0.002, 0.006-0.005, 0.008-0.008c 0.041-0.044, 0.07-0.077, 0.111-0.121c 0.004-0.003, 0.007-0.007, 0.01-0.011 c 0.123-0.132, 0.236-0.255, 0.359-0.387c 0.003-0.003, 0.006-0.006, 0.009-0.01c 0.041-0.043, 0.074-0.079, 0.114-0.123 c 0.002-0.001, 0.004-0.003, 0.004-0.004c 4.284-4.598, 8.751-9.019, 13.381-13.268C 355.58,54.318, 300.398,32.00, 240.00,32.00 c-60.399,0.00-115.58,22.318-157.765,59.148c 4.629,4.249, 9.096,8.67, 13.38,13.268c 0.001,0.001, 0.003,0.003, 0.004,0.004 c 0.041,0.044, 0.074,0.08, 0.115,0.123c 0.003,0.003, 0.006,0.007, 0.009,0.01c 0.122,0.132, 0.236,0.255, 0.358,0.387 c 0.003,0.003, 0.007,0.007, 0.01,0.011c 0.041,0.044, 0.071,0.077, 0.112,0.121c 0.002,0.003, 0.005,0.006, 0.007,0.008 c 0.082,0.088, 0.154,0.167, 0.236,0.255c 0.006,0.006, 0.012,0.012, 0.018,0.019c 0.03,0.033, 0.066,0.073, 0.097,0.106 c 0.008,0.008, 0.016,0.017, 0.023,0.025c 0.031,0.033, 0.072,0.079, 0.103,0.111c 0.004,0.004, 0.008,0.008, 0.011,0.012 c 0.041,0.044, 0.076,0.082, 0.116,0.126c 0.005,0.006, 0.011,0.011, 0.016,0.017c 0.031,0.033, 0.068,0.074, 0.098,0.107 c 0.008,0.01, 0.018,0.02, 0.027,0.03c 0.03,0.033, 0.059,0.064, 0.088,0.098c 0.009,0.009, 0.018,0.019, 0.026,0.027 c 0.035,0.039, 0.077,0.085, 0.112,0.123l0.00,0.00c 0.035,0.039, 0.077,0.084, 0.112,0.123c 0.01,0.011, 0.019,0.021, 0.029,0.032 c 0.03,0.033, 0.052,0.057, 0.082,0.089c 0.013,0.014, 0.023,0.027, 0.036,0.041c 0.03,0.033, 0.053,0.058, 0.083,0.091 c 0.009,0.011, 0.019,0.021, 0.027,0.031c 0.041,0.045, 0.069,0.075, 0.109,0.12c 0.011,0.011, 0.02,0.022, 0.031,0.033 c 0.025,0.029, 0.053,0.059, 0.078,0.086c 0.015,0.016, 0.03,0.032, 0.044,0.049c 0.021,0.022, 0.045,0.05, 0.066,0.072 c 0.016,0.017, 0.031,0.034, 0.047,0.052c 0.025,0.027, 0.05,0.055, 0.076,0.084c 0.01,0.012, 0.021,0.023, 0.032,0.035 c 0.035,0.039, 0.065,0.072, 0.101,0.111c 0.018,0.02, 0.035,0.039, 0.053,0.059c 0.015,0.017, 0.041,0.045, 0.056,0.061 c 0.019,0.021, 0.037,0.041, 0.055,0.061c 0.015,0.017, 0.037,0.042, 0.052,0.059c 0.019,0.021, 0.037,0.041, 0.056,0.062 c 0.02,0.022, 0.036,0.04, 0.056,0.062c 0.035,0.039, 0.069,0.076, 0.104,0.116c 0.01,0.011, 0.031,0.034, 0.041,0.045 c 0.022,0.025, 0.045,0.05, 0.068,0.075c 0.01,0.012, 0.026,0.03, 0.037,0.042c 0.022,0.024, 0.045,0.05, 0.067,0.075 c 0.01,0.011, 0.025,0.027, 0.036,0.039c 0.078,0.088, 0.157,0.176, 0.236,0.264c 0.01,0.011, 0.017,0.02, 0.027,0.031 c 0.024,0.028, 0.048,0.055, 0.073,0.082c 0.01,0.011, 0.021,0.023, 0.031,0.035c 0.024,0.028, 0.049,0.056, 0.074,0.084l0.00,0.00 c 0.061,0.069, 0.123,0.138, 0.184,0.207l 0.003,0.004c 0.028,0.031, 0.055,0.062, 0.083,0.093c 0.005,0.005, 0.013,0.015, 0.018,0.021 c 0.028,0.031, 0.057,0.063, 0.084,0.095l 0.003,0.003c 0.089,0.101, 0.18,0.204, 0.269,0.304c 0.005,0.005, 0.007,0.008, 0.012,0.013 c 0.027,0.033, 0.055,0.063, 0.083,0.095c 0.005,0.005, 0.009,0.01, 0.014,0.015c 0.121,0.137, 0.242,0.274, 0.362,0.413l 0.002,0.002 c 1.083,1.232, 2.152,2.477, 3.209,3.731l-6.658,5.61c 6.201,7.49, 11.959,15.36, 17.228,23.574l 8.082-5.438 c 1.694,2.518, 3.341,5.07, 4.942,7.654l 0.003,0.006c 0.023,0.037, 0.046,0.074, 0.068,0.11c 0.004,0.006, 0.007,0.012, 0.011,0.018 c 0.092,0.149, 0.185,0.298, 0.276,0.448c 0.008,0.013, 0.015,0.024, 0.022,0.037c 0.019,0.031, 0.038,0.061, 0.056,0.091 c 0.008,0.013, 0.019,0.03, 0.026,0.043c 0.04,0.065, 0.08,0.128, 0.12,0.193c 0.004,0.006, 0.004,0.007, 0.008,0.013 c 0.017,0.028, 0.033,0.056, 0.05,0.083c 0.012,0.019, 0.022,0.036, 0.034,0.055c 0.015,0.026, 0.032,0.052, 0.048,0.079 c 0.012,0.019, 0.026,0.043, 0.038,0.062c 0.015,0.024, 0.03,0.048, 0.044,0.073c 0.016,0.025, 0.034,0.055, 0.05,0.08 c 0.021,0.036, 0.042,0.072, 0.064,0.106c 0.015,0.026, 0.031,0.051, 0.046,0.077c 0.014,0.022, 0.027,0.043, 0.04,0.065 c 0.016,0.026, 0.03,0.05, 0.046,0.076c 0.013,0.021, 0.025,0.042, 0.038,0.062c 0.02,0.033, 0.039,0.063, 0.058,0.095 c 0.009,0.014, 0.018,0.03, 0.026,0.043c 0.028,0.044, 0.054,0.088, 0.082,0.133c 0.01,0.016, 0.019,0.032, 0.029,0.047 c 0.019,0.033, 0.039,0.066, 0.059,0.098c 0.009,0.015, 0.019,0.03, 0.028,0.045c 0.023,0.039, 0.041,0.067, 0.064,0.107 c 0.007,0.012, 0.015,0.024, 0.022,0.037c 0.027,0.044, 0.059,0.098, 0.087,0.143c0.00,0.001, 0.001,0.003, 0.001,0.005 c 0.028,0.045, 0.057,0.094, 0.084,0.139c 0.006,0.01, 0.013,0.021, 0.019,0.031c 0.023,0.039, 0.049,0.081, 0.072,0.121 c 0.006,0.009, 0.011,0.018, 0.017,0.027c 0.027,0.045, 0.06,0.099, 0.086,0.144l0.00,0.00 c 0.031,0.051, 0.06,0.101, 0.092,0.152 c 0.002,0.004, 0.003,0.006, 0.005,0.01c 0.028,0.045, 0.055,0.092, 0.083,0.138c 0.004,0.007, 0.009,0.014, 0.013,0.021 c 0.088,0.149, 0.181,0.305, 0.27,0.454c 0.001,0.001, 0.002,0.003, 0.003,0.005c 0.03,0.052, 0.058,0.096, 0.088,0.148 c 0.001,0.002, 0.003,0.004, 0.004,0.006c 0.092,0.155, 0.181,0.307, 0.273,0.463c 0.001,0.001, 0.001,0.002, 0.002,0.003 c 3.678,6.234, 7.076,12.636, 10.189,19.212l-9.402,4.452c 3.538,7.792, 6.66,15.811, 9.362,24.021l 9.865-3.414 c 2.137,6.174, 4.028,12.459, 5.663,18.848c0.00,0.001,0.00,0.002, 0.001,0.004c 0.046,0.179, 0.091,0.356, 0.137,0.536c0.00,0.001,0.00,0.001,0.00,0.002 c 0.045,0.18, 0.088,0.351, 0.134,0.531c 0.001,0.005, 0.002,0.01, 0.003,0.015c 0.045,0.18, 0.087,0.348, 0.132,0.529 c0.00,0.003, 0.001,0.005, 0.002,0.008c 0.044,0.18, 0.087,0.35, 0.131,0.53c 0.001,0.005, 0.002,0.008, 0.003,0.012 c 0.015,0.061, 0.027,0.111, 0.042,0.171c0.00,0.001, 0.001,0.002, 0.001,0.004c 0.029,0.121, 0.058,0.237, 0.087,0.358c0.00,0.00,0.00,0.003,0.00,0.003 c 0.015,0.061, 0.028,0.115, 0.042,0.175c0.00,0.002,0.00,0.003, 0.001,0.005c 0.029,0.12, 0.057,0.236, 0.086,0.356 c0.00,0.002, 0.001,0.004, 0.002,0.006c 0.015,0.061, 0.026,0.11, 0.041,0.17c 0.001,0.004, 0.002,0.007, 0.003,0.011 c 0.043,0.181, 0.083,0.348, 0.126,0.529c 0.001,0.004, 0.003,0.01, 0.004,0.015c 0.043,0.181, 0.083,0.35, 0.125,0.531 c 0.001,0.003, 0.002,0.007, 0.002,0.01c 0.043,0.18, 0.083,0.353, 0.125,0.534c0.00,0.002, 0.001,0.004, 0.001,0.007 c 0.042,0.182, 0.083,0.357, 0.124,0.538c0.00,0.001, 0.001,0.003, 0.001,0.004c 0.042,0.182, 0.083,0.358, 0.124,0.54 c0.00,0.001, 0.001,0.003, 0.001,0.005c 0.738,3.241, 1.41,6.504, 2.016,9.793l-10.659,1.962c 1.417,8.075, 2.425,16.289, 3.013,24.62 l 8.616-0.636l0.00,35.555 l-8.616-0.637c-0.588,8.331-1.596,16.546-3.013,24.62l 10.659,1.962c-0.606,3.289-1.278,6.553-2.016,9.794 c0.00,0.001-0.001,0.003-0.001,0.005c-0.041,0.182-0.082,0.357-0.124,0.539c0.00,0.002-0.001,0.004-0.001,0.005 c-0.041,0.181-0.082,0.356-0.124,0.538c0.00,0.002-0.001,0.004-0.001,0.006c-0.042,0.182-0.083,0.354-0.125,0.535 c0.00,0.002-0.001,0.006-0.002,0.01c-0.042,0.182-0.082,0.35-0.125,0.531c-0.001,0.004-0.002,0.01-0.004,0.014 c-0.043,0.182-0.083,0.35-0.126,0.529c-0.001,0.004-0.001,0.007-0.003,0.012c-0.015,0.06-0.026,0.109-0.041,0.17 c-0.001,0.002-0.001,0.004-0.002,0.006c-0.029,0.12-0.057,0.236-0.086,0.356c-0.001,0.003-0.001,0.003-0.001,0.005 c-0.015,0.061-0.028,0.115-0.042,0.176c0.00,0.00,0.00,0.003,0.00,0.004c-0.029,0.12-0.058,0.236-0.087,0.357c0.00,0.002-0.001,0.002-0.001,0.004 c-0.015,0.061-0.027,0.11-0.042,0.171c-0.001,0.004-0.002,0.007-0.003,0.012c-0.044,0.181-0.086,0.351-0.131,0.53 c0.00,0.003-0.001,0.006-0.002,0.008c-0.045,0.182-0.087,0.35-0.132,0.529c-0.001,0.005-0.002,0.01-0.003,0.015 c-0.045,0.181-0.089,0.352-0.134,0.531c0.00,0.001,0.00,0.001,0.00,0.002c-0.046,0.181-0.091,0.356-0.137,0.536 c0.00,0.002-0.001,0.002-0.001,0.004c-1.635,6.389-3.526,12.674-5.663,18.848l-9.865-3.414c-2.702,8.21-5.825,16.229-9.362,24.021 l 9.402,4.451c-3.113,6.576-6.511,12.979-10.189,19.212c-0.001,0.001-0.001,0.002-0.002,0.003c-0.092,0.156-0.181,0.309-0.273,0.463 c-0.001,0.002-0.003,0.005-0.004,0.007c-0.031,0.052-0.058,0.097-0.088,0.148c-0.001,0.001-0.002,0.004-0.003,0.005 c-0.088,0.149-0.181,0.305-0.27,0.454c-0.004,0.007-0.009,0.015-0.013,0.021c-0.027,0.047-0.055,0.094-0.083,0.139 c-0.002,0.004-0.003,0.006-0.005,0.01c-0.032,0.051-0.061,0.101-0.092,0.152c-0.027,0.045-0.059,0.099-0.086,0.145 c-0.005,0.009-0.011,0.018-0.017,0.026c-0.022,0.04-0.048,0.081-0.072,0.12c-0.006,0.01-0.013,0.021-0.019,0.031 c-0.027,0.045-0.056,0.094-0.084,0.139c0.00,0.002-0.001,0.004-0.001,0.005c-0.028,0.046-0.06,0.099-0.087,0.144 c-0.007,0.012-0.015,0.024-0.022,0.036c-0.023,0.04-0.041,0.068-0.064,0.106c-0.009,0.016-0.019,0.031-0.028,0.045 c-0.02,0.033-0.04,0.066-0.059,0.099c-0.01,0.016-0.019,0.032-0.029,0.048c-0.027,0.045-0.054,0.088-0.082,0.133 c-0.008,0.014-0.017,0.029-0.026,0.043c-0.019,0.032-0.038,0.062-0.058,0.096c-0.013,0.021-0.025,0.041-0.038,0.062 c-0.016,0.025-0.03,0.049-0.046,0.075c-0.013,0.022-0.026,0.044-0.04,0.065c-0.015,0.025-0.031,0.051-0.046,0.076 c-0.022,0.035-0.044,0.071-0.064,0.107c-0.016,0.025-0.034,0.055-0.05,0.08c-0.015,0.023-0.03,0.048-0.044,0.072 c-0.012,0.02-0.026,0.043-0.038,0.062c-0.016,0.025-0.033,0.053-0.048,0.078c-0.012,0.02-0.022,0.036-0.034,0.055 c-0.017,0.027-0.034,0.055-0.05,0.084c-0.003,0.006-0.004,0.006-0.008,0.013c-0.04,0.065-0.08,0.128-0.12,0.193 c-0.008,0.013-0.018,0.03-0.026,0.043c-0.019,0.03-0.037,0.061-0.056,0.091c-0.007,0.014-0.015,0.024-0.022,0.037 c-0.092,0.15-0.185,0.299-0.276,0.448c-0.004,0.007-0.007,0.012-0.011,0.019c-0.022,0.036-0.045,0.073-0.068,0.109l-0.003,0.006 c-1.601,2.584-3.249,5.137-4.942,7.654l-8.082-5.438c-5.268,8.214-11.026,16.084-17.227,23.573l 6.658,5.61 c-1.057,1.255-2.127,2.50-3.209,3.731l-0.002,0.003c-0.121,0.138-0.242,0.275-0.362,0.412c-0.005,0.006-0.009,0.01-0.014,0.016 c-0.028,0.031-0.056,0.062-0.083,0.095c-0.005,0.005-0.007,0.008-0.012,0.013c-0.089,0.102-0.18,0.203-0.269,0.305l-0.003,0.004 c-0.028,0.031-0.056,0.062-0.084,0.094c-0.005,0.006-0.013,0.016-0.018,0.021c-0.028,0.031-0.055,0.062-0.083,0.093l-0.003,0.004 c-0.061,0.068-0.123,0.138-0.184,0.206l0.00,0.00 c-0.025,0.029-0.05,0.057-0.074,0.084c-0.01,0.012-0.021,0.023-0.031,0.035 c-0.025,0.027-0.049,0.055-0.073,0.082c-0.01,0.012-0.017,0.02-0.027,0.031c-0.079,0.088-0.158,0.176-0.236,0.264 c-0.01,0.012-0.025,0.027-0.036,0.039c-0.022,0.024-0.045,0.05-0.067,0.074c-0.01,0.012-0.026,0.029-0.037,0.041 c-0.022,0.025-0.045,0.051-0.068,0.076c-0.01,0.01-0.031,0.033-0.041,0.045c-0.035,0.039-0.069,0.076-0.104,0.115 c-0.02,0.021-0.036,0.039-0.056,0.062c-0.019,0.021-0.038,0.041-0.056,0.062c-0.015,0.017-0.038,0.042-0.052,0.059 c-0.019,0.021-0.037,0.04-0.055,0.062c-0.015,0.016-0.041,0.043-0.056,0.061c-0.018,0.02-0.035,0.039-0.053,0.059 c-0.035,0.039-0.066,0.072-0.101,0.111c-0.011,0.012-0.021,0.023-0.032,0.035c-0.026,0.029-0.051,0.057-0.076,0.084 c-0.016,0.018-0.031,0.035-0.047,0.052c-0.021,0.022-0.045,0.05-0.066,0.072c-0.014,0.017-0.029,0.032-0.044,0.049 c-0.025,0.028-0.053,0.058-0.078,0.087c-0.011,0.011-0.02,0.021-0.031,0.033c-0.04,0.044-0.068,0.074-0.109,0.119 c-0.009,0.01-0.018,0.02-0.027,0.031c-0.03,0.032-0.053,0.058-0.083,0.09c-0.013,0.014-0.023,0.027-0.036,0.041 c-0.03,0.033-0.052,0.057-0.082,0.09c-0.01,0.01-0.02,0.021-0.029,0.031c-0.035,0.039-0.077,0.084-0.112,0.123l0.00,0.00 c-0.036,0.039-0.077,0.084-0.112,0.123c-0.009,0.01-0.018,0.02-0.026,0.027c-0.03,0.034-0.058,0.064-0.088,0.098 c-0.009,0.01-0.019,0.021-0.027,0.03c-0.03,0.033-0.067,0.073-0.098,0.106c-0.005,0.006-0.01,0.012-0.016,0.018 c-0.04,0.044-0.075,0.082-0.116,0.126c-0.003,0.004-0.007,0.009-0.011,0.013c-0.03,0.032-0.072,0.078-0.103,0.111 c-0.008,0.008-0.016,0.017-0.023,0.025c-0.031,0.033-0.067,0.072-0.097,0.105c-0.006,0.006-0.012,0.012-0.018,0.019 c-0.082,0.089-0.154,0.167-0.236,0.255c-0.002,0.003-0.005,0.006-0.007,0.009c-0.041,0.044-0.071,0.077-0.112,0.121 c-0.003,0.003-0.007,0.007-0.01,0.011c-0.123,0.132-0.236,0.255-0.358,0.387c-0.003,0.003-0.006,0.006-0.009,0.01 c-0.041,0.043-0.074,0.079-0.115,0.123c-0.001,0.001-0.003,0.003-0.004,0.004c-4.284,4.598-8.75,9.019-13.38,13.268 C 124.42,489.682, 179.601,512.00, 240.00,512.00c 60.398,0.00, 115.58-22.318, 157.766-59.148C 393.136,448.603, 388.669,444.182, 384.385,439.584zM 100.911,392.461l-8.524-5.736c 5.686-8.449, 10.772-17.387, 15.118-26.567l 8.676,4.107c 0.76-1.682, 1.502-3.374, 2.223-5.078 c 2.412-5.703, 4.564-11.484, 6.484-17.328l-9.041-3.129c 3.321-9.596, 5.938-19.529, 7.778-29.524l 9.028,1.662 c 1.319-7.555, 2.243-15.195, 2.782-22.904l-8.995-0.664c 0.374-5.055, 0.549-10.188, 0.548-15.299c 0.001-5.11-0.175-10.244-0.548-15.299 l 8.995-0.664c-0.539-7.709-1.462-15.35-2.782-22.904l-9.028,1.662c-1.84-9.996-4.457-19.929-7.778-29.525l 9.041-3.129 c-1.919-5.844-4.072-11.625-6.484-17.328c-0.721-1.705-1.463-3.397-2.224-5.079l-8.676,4.108 c-4.346-9.18-9.433-18.119-15.118-26.567l 8.524-5.736c-4.926-7.712-10.33-15.117-16.193-22.195l-8.644,7.283 c-5.903-7.006-12.331-13.66-19.127-19.824C 21.434,158.649,0.00,212.817,0.00,272.00s 21.434,113.351, 56.947,155.196 c 6.797-6.164, 13.224-12.817, 19.127-19.824l 8.644,7.283C 90.581,407.576, 95.985,400.172, 100.911,392.461zM 423.053,116.804c-6.797,6.164-13.224,12.818-19.127,19.824l-8.644-7.284c-5.863,7.079-11.267,14.484-16.192,22.196 l 8.523,5.736c-5.686,8.448-10.771,17.387-15.117,26.567l-8.676-4.108c-0.761,1.682-1.503,3.375-2.224,5.079 c-2.412,5.703-4.564,11.484-6.484,17.328l 9.041,3.129c-3.321,9.596-5.938,19.529-7.778,29.525l-9.028-1.662 c-1.319,7.554-2.243,15.194-2.782,22.903l 8.996,0.665c-0.374,5.055-0.55,10.188-0.549,15.299 c-0.001,5.11, 0.175,10.244, 0.549,15.299l-8.996,0.664c 0.539,7.71, 1.463,15.35, 2.782,22.904l 9.028-1.662 c 1.84,9.995, 4.457,19.929, 7.778,29.524l-9.041,3.129c 1.92,5.844, 4.072,11.625, 6.484,17.328c 0.721,1.704, 1.463,3.396, 2.224,5.078 l 8.676-4.107c 4.346,9.181, 9.432,18.118, 15.117,26.567l-8.523,5.735c 4.926,7.712, 10.329,15.117, 16.191,22.195l 8.645-7.283 c 5.903,7.007, 12.33,13.66, 19.127,19.824C 458.566,385.351, 480.00,331.183, 480.00,272.00S 458.566,158.649, 423.053,116.804z" ></path></svg>