<?xml version="1.0" encoding="utf-8"?> <!-- Generator: IcoMoon.io --> <!DOCTYPE svg PUBLIC "-//W3C//DTD SVG 1.1//EN" "http://www.w3.org/Graphics/SVG/1.1/DTD/svg11.dtd"> <svg width="512" height="512" viewBox="0 0 512 512" xmlns="http://www.w3.org/2000/svg" xmlns:xlink="http://www.w3.org/1999/xlink" fill="#000000"><g class="svgGrid" id="svgGrid"><line stroke-width="1" stroke="#B35047" x1="32" x2="32" y1="0" y2="512"></line><line stroke-width="1" stroke="#B35047" x1="64" x2="64" y1="0" y2="512"></line><line stroke-width="1" stroke="#B35047" x1="96" x2="96" y1="0" y2="512"></line><line stroke-width="1" stroke="#B35047" x1="128" x2="128" y1="0" y2="512"></line><line stroke-width="1" stroke="#B35047" x1="160" x2="160" y1="0" y2="512"></line><line stroke-width="1" stroke="#B35047" x1="192" x2="192" y1="0" y2="512"></line><line stroke-width="1" stroke="#B35047" x1="224" x2="224" y1="0" y2="512"></line><line stroke-width="1" stroke="#B35047" x1="256" x2="256" y1="0" y2="512"></line><line stroke-width="1" stroke="#B35047" x1="288" x2="288" y1="0" y2="512"></line><line stroke-width="1" stroke="#B35047" x1="320" x2="320" y1="0" y2="512"></line><line stroke-width="1" stroke="#B35047" x1="352" x2="352" y1="0" y2="512"></line><line stroke-width="1" stroke="#B35047" x1="384" x2="384" y1="0" y2="512"></line><line stroke-width="1" stroke="#B35047" x1="416" x2="416" y1="0" y2="512"></line><line stroke-width="1" stroke="#B35047" x1="448" x2="448" y1="0" y2="512"></line><line stroke-width="1" stroke="#B35047" x1="480" x2="480" y1="0" y2="512"></line><line stroke-width="1" stroke="#B35047" x1="0" x2="512" y1="32" y2="32"></line><line stroke-width="1" stroke="#B35047" x1="0" x2="512" y1="64" y2="64"></line><line stroke-width="1" stroke="#B35047" x1="0" x2="512" y1="96" y2="96"></line><line stroke-width="1" stroke="#B35047" x1="0" x2="512" y1="128" y2="128"></line><line stroke-width="1" stroke="#B35047" x1="0" x2="512" y1="160" y2="160"></line><line stroke-width="1" stroke="#B35047" x1="0" x2="512" y1="192" y2="192"></line><line stroke-width="1" stroke="#B35047" x1="0" x2="512" y1="224" y2="224"></line><line stroke-width="1" stroke="#B35047" x1="0" x2="512" y1="256" y2="256"></line><line stroke-width="1" stroke="#B35047" x1="0" x2="512" y1="288" y2="288"></line><line stroke-width="1" stroke="#B35047" x1="0" x2="512" y1="320" y2="320"></line><line stroke-width="1" stroke="#B35047" x1="0" x2="512" y1="352" y2="352"></line><line stroke-width="1" stroke="#B35047" x1="0" x2="512" y1="384" y2="384"></line><line stroke-width="1" stroke="#B35047" x1="0" x2="512" y1="416" y2="416"></line><line stroke-width="1" stroke="#B35047" x1="0" x2="512" y1="448" y2="448"></line><line stroke-width="1" stroke="#B35047" x1="0" x2="512" y1="480" y2="480"></line><rect x="0" y="0" width="512" height="512" fill="none" stroke-width="1" stroke="#B35047"></rect></g><path d="M 479.456,256.00c-3.461-52.57-23.85-100.511-55.763-138.432c-3.75,3.247-7.401,6.64-10.943,10.182 c-34.734,34.734-55.393,79.79-59.128,128.25L 479.456,256.00 zM 398.495,91.805C 359.963,57.887, 310.467,36.13, 256.00,32.543L 256.00,256.00 l 61.544,0.00 C 321.845,190.673, 352.276,132.492, 398.495,91.805zM 67.25,127.75c-3.542-3.542-7.194-6.936-10.943-10.182C 24.394,155.489, 4.005,203.43, 0.543,256.00l 125.834,0.00 C 122.643,207.54, 101.984,162.484, 67.25,127.75zM 162.457,256.00L 224.00,256.00 L 224.00,32.543 C 169.534,36.13, 120.037,57.887, 81.505,91.805C 127.724,132.492, 158.155,190.673, 162.457,256.00zM 412.75,416.25c 3.542,3.542, 7.194,6.936, 10.943,10.183c 31.913-37.921, 52.302-85.862, 55.763-138.433L 353.622,288.00 C 357.357,336.46, 378.016,381.516, 412.75,416.25zM 317.544,288.00L 256.00,288.00 l0.00,223.456 c 54.467-3.586, 103.963-25.343, 142.495-59.261C 352.276,411.509, 321.845,353.328, 317.544,288.00zM 0.543,288.00c 3.461,52.57, 23.85,100.512, 55.763,138.432c 3.75-3.246, 7.401-6.64, 10.943-10.182 c 34.734-34.734, 55.393-79.79, 59.128-128.25L 0.543,288.00 zM 81.505,452.195c 38.532,33.918, 88.029,55.675, 142.495,59.261L 224.00,288.00 l-61.543,0.00 C 158.155,353.327, 127.723,411.509, 81.505,452.195z " ></path></svg>