<?xml version="1.0" encoding="utf-8"?> <!-- Generator: IcoMoon.io --> <!DOCTYPE svg PUBLIC "-//W3C//DTD SVG 1.1//EN" "http://www.w3.org/Graphics/SVG/1.1/DTD/svg11.dtd"> <svg width="512" height="512" viewBox="0 0 512 512" xmlns="http://www.w3.org/2000/svg" xmlns:xlink="http://www.w3.org/1999/xlink" fill="#000000"><g class="svgGrid" id="svgGrid"><line stroke-width="1" stroke="#B35047" x1="32" x2="32" y1="0" y2="512"></line><line stroke-width="1" stroke="#B35047" x1="64" x2="64" y1="0" y2="512"></line><line stroke-width="1" stroke="#B35047" x1="96" x2="96" y1="0" y2="512"></line><line stroke-width="1" stroke="#B35047" x1="128" x2="128" y1="0" y2="512"></line><line stroke-width="1" stroke="#B35047" x1="160" x2="160" y1="0" y2="512"></line><line stroke-width="1" stroke="#B35047" x1="192" x2="192" y1="0" y2="512"></line><line stroke-width="1" stroke="#B35047" x1="224" x2="224" y1="0" y2="512"></line><line stroke-width="1" stroke="#B35047" x1="256" x2="256" y1="0" y2="512"></line><line stroke-width="1" stroke="#B35047" x1="288" x2="288" y1="0" y2="512"></line><line stroke-width="1" stroke="#B35047" x1="320" x2="320" y1="0" y2="512"></line><line stroke-width="1" stroke="#B35047" x1="352" x2="352" y1="0" y2="512"></line><line stroke-width="1" stroke="#B35047" x1="384" x2="384" y1="0" y2="512"></line><line stroke-width="1" stroke="#B35047" x1="416" x2="416" y1="0" y2="512"></line><line stroke-width="1" stroke="#B35047" x1="448" x2="448" y1="0" y2="512"></line><line stroke-width="1" stroke="#B35047" x1="480" x2="480" y1="0" y2="512"></line><line stroke-width="1" stroke="#B35047" x1="0" x2="512" y1="32" y2="32"></line><line stroke-width="1" stroke="#B35047" x1="0" x2="512" y1="64" y2="64"></line><line stroke-width="1" stroke="#B35047" x1="0" x2="512" y1="96" y2="96"></line><line stroke-width="1" stroke="#B35047" x1="0" x2="512" y1="128" y2="128"></line><line stroke-width="1" stroke="#B35047" x1="0" x2="512" y1="160" y2="160"></line><line stroke-width="1" stroke="#B35047" x1="0" x2="512" y1="192" y2="192"></line><line stroke-width="1" stroke="#B35047" x1="0" x2="512" y1="224" y2="224"></line><line stroke-width="1" stroke="#B35047" x1="0" x2="512" y1="256" y2="256"></line><line stroke-width="1" stroke="#B35047" x1="0" x2="512" y1="288" y2="288"></line><line stroke-width="1" stroke="#B35047" x1="0" x2="512" y1="320" y2="320"></line><line stroke-width="1" stroke="#B35047" x1="0" x2="512" y1="352" y2="352"></line><line stroke-width="1" stroke="#B35047" x1="0" x2="512" y1="384" y2="384"></line><line stroke-width="1" stroke="#B35047" x1="0" x2="512" y1="416" y2="416"></line><line stroke-width="1" stroke="#B35047" x1="0" x2="512" y1="448" y2="448"></line><line stroke-width="1" stroke="#B35047" x1="0" x2="512" y1="480" y2="480"></line><rect x="0" y="0" width="512" height="512" fill="none" stroke-width="1" stroke="#B35047"></rect></g><path d="M 416.00,224.00c-11.158,0.00-21.869,1.91-31.831,5.411l-26.398-61.213l 24.512-44.698l 19.967,0.00 c 7.456,0.00, 13.50-6.044, 13.50-13.50 s-6.044-13.50-13.50-13.50l-68.785,0.00 c-7.456,0.00-13.50,6.044-13.50,13.50s 6.044,13.50, 13.50,13.50l 21.447,0.00 L 334.895,160.00L 147.485,160.00 l 7.903-36.50l 54.11,0.00 c 7.456,0.00, 13.50-6.044, 13.50-13.50s-6.044-13.50-13.50-13.50l-75.89,0.00 l-27.714,128.004C 102.641,224.171, 99.341,224.00, 96.00,224.00 c-53.02,0.00-96.00,42.98-96.00,96.00s 42.98,96.00, 96.00,96.00s 96.00-42.98, 96.00-96.00c0.00-40.247-24.77-74.702-59.893-88.971l 8.224-37.986l 106.824,144.496 c 2.074,2.806, 5.356,4.461, 8.845,4.461l 66.536,0.00 c 9.946,42.416, 48.015,74.00, 93.464,74.00c 53.02,0.00, 96.00-42.98, 96.00-96.00S 469.02,224.00, 416.00,224.00z M 165.00,320.00c0.00,38.047-30.953,69.00-69.00,69.00s-69.00-30.953-69.00-69.00s 30.953-69.00, 69.00-69.00c 1.387,0.00, 2.761,0.053, 4.128,0.134l-17.323,80.009 c-1.578,7.287, 3.051,14.473, 10.338,16.051c 0.963,0.208, 1.923,0.309, 2.87,0.309c 6.217,0.00, 11.812-4.322, 13.181-10.646l 17.071-78.849 C 149.181,269.242, 165.00,292.805, 165.00,320.00z M 322.83,182.00l-69.546,126.821L 159.526,182.00L 322.83,182.00 z M 274.524,320.00l 69.835-127.346l 20.01,46.40 C 337.689,256.107, 320.00,285.987, 320.00,320.00L 274.524,320.00 z M 375.276,264.346L 399.277,320.00L 347.00,320.00 C 347.00,297.175, 358.147,276.913, 375.276,264.346z M 416.00,389.00c-30.355,0.00-56.176-19.712-65.383-47.00L 416.00,342.00 c 3.702,0.00, 7.155-1.862, 9.19-4.955c 2.034-3.093, 2.376-7.002, 0.91-10.40l-31.194-72.334 C 401.56,252.168, 408.645,251.00, 416.00,251.00c 38.047,0.00, 69.00,30.953, 69.00,69.00S 454.047,389.00, 416.00,389.00z" ></path></svg>