<?xml version="1.0" encoding="utf-8"?> <!-- Generator: IcoMoon.io --> <!DOCTYPE svg PUBLIC "-//W3C//DTD SVG 1.1//EN" "http://www.w3.org/Graphics/SVG/1.1/DTD/svg11.dtd"> <svg width="512" height="512" viewBox="0 0 512 512" xmlns="http://www.w3.org/2000/svg" xmlns:xlink="http://www.w3.org/1999/xlink" fill="#000000"><g class="svgGrid" id="svgGrid"><line stroke-width="1" stroke="#B35047" x1="32" x2="32" y1="0" y2="512"></line><line stroke-width="1" stroke="#B35047" x1="64" x2="64" y1="0" y2="512"></line><line stroke-width="1" stroke="#B35047" x1="96" x2="96" y1="0" y2="512"></line><line stroke-width="1" stroke="#B35047" x1="128" x2="128" y1="0" y2="512"></line><line stroke-width="1" stroke="#B35047" x1="160" x2="160" y1="0" y2="512"></line><line stroke-width="1" stroke="#B35047" x1="192" x2="192" y1="0" y2="512"></line><line stroke-width="1" stroke="#B35047" x1="224" x2="224" y1="0" y2="512"></line><line stroke-width="1" stroke="#B35047" x1="256" x2="256" y1="0" y2="512"></line><line stroke-width="1" stroke="#B35047" x1="288" x2="288" y1="0" y2="512"></line><line stroke-width="1" stroke="#B35047" x1="320" x2="320" y1="0" y2="512"></line><line stroke-width="1" stroke="#B35047" x1="352" x2="352" y1="0" y2="512"></line><line stroke-width="1" stroke="#B35047" x1="384" x2="384" y1="0" y2="512"></line><line stroke-width="1" stroke="#B35047" x1="416" x2="416" y1="0" y2="512"></line><line stroke-width="1" stroke="#B35047" x1="448" x2="448" y1="0" y2="512"></line><line stroke-width="1" stroke="#B35047" x1="480" x2="480" y1="0" y2="512"></line><line stroke-width="1" stroke="#B35047" x1="0" x2="512" y1="32" y2="32"></line><line stroke-width="1" stroke="#B35047" x1="0" x2="512" y1="64" y2="64"></line><line stroke-width="1" stroke="#B35047" x1="0" x2="512" y1="96" y2="96"></line><line stroke-width="1" stroke="#B35047" x1="0" x2="512" y1="128" y2="128"></line><line stroke-width="1" stroke="#B35047" x1="0" x2="512" y1="160" y2="160"></line><line stroke-width="1" stroke="#B35047" x1="0" x2="512" y1="192" y2="192"></line><line stroke-width="1" stroke="#B35047" x1="0" x2="512" y1="224" y2="224"></line><line stroke-width="1" stroke="#B35047" x1="0" x2="512" y1="256" y2="256"></line><line stroke-width="1" stroke="#B35047" x1="0" x2="512" y1="288" y2="288"></line><line stroke-width="1" stroke="#B35047" x1="0" x2="512" y1="320" y2="320"></line><line stroke-width="1" stroke="#B35047" x1="0" x2="512" y1="352" y2="352"></line><line stroke-width="1" stroke="#B35047" x1="0" x2="512" y1="384" y2="384"></line><line stroke-width="1" stroke="#B35047" x1="0" x2="512" y1="416" y2="416"></line><line stroke-width="1" stroke="#B35047" x1="0" x2="512" y1="448" y2="448"></line><line stroke-width="1" stroke="#B35047" x1="0" x2="512" y1="480" y2="480"></line><rect x="0" y="0" width="512" height="512" fill="none" stroke-width="1" stroke="#B35047"></rect></g><path d="M 396.797,384.00L 83.204,384.00 c 14.825,36.516, 79.39,64.00, 156.796,64.00S 381.972,420.516, 396.797,384.00zM0.00,512.00l 45.00,0.00 c0.00-1.29, 1.402-5.613, 5.57-10.059S 58.791,496.00, 60.00,496.00l 135.00,0.00 c 26.719-0.50, 45.00-31.50, 45.00-48.00c0.00,0.00-150.00,0.00-180.00,0.00S0.00,480.00,0.00,512.00zM 420.00,448.00c-30.00,0.00-180.00,0.00-180.00,0.00c0.00,16.50, 18.281,47.50, 45.00,48.00l 135.00,0.00 c 1.209,0.00, 5.263,1.496, 9.43,5.941 c 4.168,4.445, 5.57,8.769, 5.57,10.059l 45.00,0.00 C 480.00,480.00, 450.00,448.00, 420.00,448.00zM 240.00,352.00l 156.797,0.00 c-6.501-16.013-22.567-30.287-45.086-41.271C 362.08,296.723, 368.00,278.706, 368.00,256.00 c0.00-80.469-58.467-132.785-99.354-151.882C 285.024,94.347, 296.00,76.458, 296.00,56.00c0.00-30.928-25.072-56.00-56.00-56.00c-30.928,0.00-56.00,25.072-56.00,56.00 c0.00,20.458, 10.976,38.347, 27.354,48.118C 170.467,123.215, 112.00,175.531, 112.00,256.00c0.00,22.706, 5.92,40.723, 16.289,54.729 C 105.771,321.713, 89.704,335.988, 83.204,352.00L 240.00,352.00 C 240.00,352.00, 240.00,352.00, 240.00,352.00z M 160.00,224.00l0.00-32.00 l 64.00,0.00 l0.00-64.00 l 32.00,0.00 l0.00,64.00 l 64.00,0.00 l0.00,32.00 l-64.00,0.00 l0.00,64.00 l-32.00,0.00 l0.00-64.00 L 160.00,224.00 z" ></path></svg>