<?xml version="1.0" encoding="utf-8"?> <!-- Generator: IcoMoon.io --> <!DOCTYPE svg PUBLIC "-//W3C//DTD SVG 1.1//EN" "http://www.w3.org/Graphics/SVG/1.1/DTD/svg11.dtd"> <svg width="512" height="512" viewBox="0 0 512 512" xmlns="http://www.w3.org/2000/svg" xmlns:xlink="http://www.w3.org/1999/xlink" fill="#000000"><g class="svgGrid" id="svgGrid"><line stroke-width="1" stroke="#B35047" x1="32" x2="32" y1="0" y2="512"></line><line stroke-width="1" stroke="#B35047" x1="64" x2="64" y1="0" y2="512"></line><line stroke-width="1" stroke="#B35047" x1="96" x2="96" y1="0" y2="512"></line><line stroke-width="1" stroke="#B35047" x1="128" x2="128" y1="0" y2="512"></line><line stroke-width="1" stroke="#B35047" x1="160" x2="160" y1="0" y2="512"></line><line stroke-width="1" stroke="#B35047" x1="192" x2="192" y1="0" y2="512"></line><line stroke-width="1" stroke="#B35047" x1="224" x2="224" y1="0" y2="512"></line><line stroke-width="1" stroke="#B35047" x1="256" x2="256" y1="0" y2="512"></line><line stroke-width="1" stroke="#B35047" x1="288" x2="288" y1="0" y2="512"></line><line stroke-width="1" stroke="#B35047" x1="320" x2="320" y1="0" y2="512"></line><line stroke-width="1" stroke="#B35047" x1="352" x2="352" y1="0" y2="512"></line><line stroke-width="1" stroke="#B35047" x1="384" x2="384" y1="0" y2="512"></line><line stroke-width="1" stroke="#B35047" x1="416" x2="416" y1="0" y2="512"></line><line stroke-width="1" stroke="#B35047" x1="448" x2="448" y1="0" y2="512"></line><line stroke-width="1" stroke="#B35047" x1="480" x2="480" y1="0" y2="512"></line><line stroke-width="1" stroke="#B35047" x1="0" x2="512" y1="32" y2="32"></line><line stroke-width="1" stroke="#B35047" x1="0" x2="512" y1="64" y2="64"></line><line stroke-width="1" stroke="#B35047" x1="0" x2="512" y1="96" y2="96"></line><line stroke-width="1" stroke="#B35047" x1="0" x2="512" y1="128" y2="128"></line><line stroke-width="1" stroke="#B35047" x1="0" x2="512" y1="160" y2="160"></line><line stroke-width="1" stroke="#B35047" x1="0" x2="512" y1="192" y2="192"></line><line stroke-width="1" stroke="#B35047" x1="0" x2="512" y1="224" y2="224"></line><line stroke-width="1" stroke="#B35047" x1="0" x2="512" y1="256" y2="256"></line><line stroke-width="1" stroke="#B35047" x1="0" x2="512" y1="288" y2="288"></line><line stroke-width="1" stroke="#B35047" x1="0" x2="512" y1="320" y2="320"></line><line stroke-width="1" stroke="#B35047" x1="0" x2="512" y1="352" y2="352"></line><line stroke-width="1" stroke="#B35047" x1="0" x2="512" y1="384" y2="384"></line><line stroke-width="1" stroke="#B35047" x1="0" x2="512" y1="416" y2="416"></line><line stroke-width="1" stroke="#B35047" x1="0" x2="512" y1="448" y2="448"></line><line stroke-width="1" stroke="#B35047" x1="0" x2="512" y1="480" y2="480"></line><rect x="0" y="0" width="512" height="512" fill="none" stroke-width="1" stroke="#B35047"></rect></g><path d="M 512.00,32.00 L 512.00,45.254 L 493.255,64.00 L 512.00,82.746 L 512.00,96.00 L 480.00,96.00 L 480.00,128.00 L 466.745,128.00 L 448.00,109.255 L 429.254,128.00 L 415.999,128.00 L 415.999,96.00 L 383.999,96.00 L 383.999,95.624 C 377.494,95.395 371.286,94.093 365.348,91.671 C 350.538,85.631 340.384,74.143 330.566,63.034 C 320.893,52.09 311.756,41.753 298.94,37.481 C 282.77,32.09 260.329,27.943 245.27,38.797 C 238.147,43.931 232.748,52.448 229.169,64.00 L 232.00,64.00 C 245.20,64.00 256.00,74.80 256.00,88.00 L 256.00,101.577 C 347.732,123.247 416.00,205.647 416.00,304.00 C 416.00,418.875 322.875,512.00 208.00,512.00 C 93.125,512.00 0.00,418.875 0.00,304.00 C 0.00,205.647 68.268,123.247 160.00,101.577 L 160.00,88.00 C 160.00,74.80 170.80,64.00 184.00,64.00 L 196.08,64.00 C 201.292,40.842 211.481,23.706 226.56,12.837 C 247.174-2.022 275.704-3.996 309.06,7.123 C 330.037,14.115 343.057,28.846 354.543,41.842 C 369.721,59.016 378.284,68.705 399.795,61.05 L 384.00,45.254 L 384.00,32.00 L 416.00,32.00 L 416.00,0.00 L 429.255,0.00 L 448.00,18.745 L 466.745,0.00 L 480.00,0.00 L 480.00,32.00 L 512.00,32.00 Z" ></path></svg>