<?xml version="1.0" encoding="utf-8"?> <!-- Generator: IcoMoon.io --> <!DOCTYPE svg PUBLIC "-//W3C//DTD SVG 1.1//EN" "http://www.w3.org/Graphics/SVG/1.1/DTD/svg11.dtd"> <svg width="512" height="512" viewBox="0 0 512 512" xmlns="http://www.w3.org/2000/svg" xmlns:xlink="http://www.w3.org/1999/xlink" fill="#000000"><g class="svgGrid" id="svgGrid"><line stroke-width="1" stroke="#B35047" x1="32" x2="32" y1="0" y2="512"></line><line stroke-width="1" stroke="#B35047" x1="64" x2="64" y1="0" y2="512"></line><line stroke-width="1" stroke="#B35047" x1="96" x2="96" y1="0" y2="512"></line><line stroke-width="1" stroke="#B35047" x1="128" x2="128" y1="0" y2="512"></line><line stroke-width="1" stroke="#B35047" x1="160" x2="160" y1="0" y2="512"></line><line stroke-width="1" stroke="#B35047" x1="192" x2="192" y1="0" y2="512"></line><line stroke-width="1" stroke="#B35047" x1="224" x2="224" y1="0" y2="512"></line><line stroke-width="1" stroke="#B35047" x1="256" x2="256" y1="0" y2="512"></line><line stroke-width="1" stroke="#B35047" x1="288" x2="288" y1="0" y2="512"></line><line stroke-width="1" stroke="#B35047" x1="320" x2="320" y1="0" y2="512"></line><line stroke-width="1" stroke="#B35047" x1="352" x2="352" y1="0" y2="512"></line><line stroke-width="1" stroke="#B35047" x1="384" x2="384" y1="0" y2="512"></line><line stroke-width="1" stroke="#B35047" x1="416" x2="416" y1="0" y2="512"></line><line stroke-width="1" stroke="#B35047" x1="448" x2="448" y1="0" y2="512"></line><line stroke-width="1" stroke="#B35047" x1="480" x2="480" y1="0" y2="512"></line><line stroke-width="1" stroke="#B35047" x1="0" x2="512" y1="32" y2="32"></line><line stroke-width="1" stroke="#B35047" x1="0" x2="512" y1="64" y2="64"></line><line stroke-width="1" stroke="#B35047" x1="0" x2="512" y1="96" y2="96"></line><line stroke-width="1" stroke="#B35047" x1="0" x2="512" y1="128" y2="128"></line><line stroke-width="1" stroke="#B35047" x1="0" x2="512" y1="160" y2="160"></line><line stroke-width="1" stroke="#B35047" x1="0" x2="512" y1="192" y2="192"></line><line stroke-width="1" stroke="#B35047" x1="0" x2="512" y1="224" y2="224"></line><line stroke-width="1" stroke="#B35047" x1="0" x2="512" y1="256" y2="256"></line><line stroke-width="1" stroke="#B35047" x1="0" x2="512" y1="288" y2="288"></line><line stroke-width="1" stroke="#B35047" x1="0" x2="512" y1="320" y2="320"></line><line stroke-width="1" stroke="#B35047" x1="0" x2="512" y1="352" y2="352"></line><line stroke-width="1" stroke="#B35047" x1="0" x2="512" y1="384" y2="384"></line><line stroke-width="1" stroke="#B35047" x1="0" x2="512" y1="416" y2="416"></line><line stroke-width="1" stroke="#B35047" x1="0" x2="512" y1="448" y2="448"></line><line stroke-width="1" stroke="#B35047" x1="0" x2="512" y1="480" y2="480"></line><rect x="0" y="0" width="512" height="512" fill="none" stroke-width="1" stroke="#B35047"></rect></g><path d="M 307.943,243.345c-12.006-25.346-24.421-51.555-24.421-84.844c0.00-13.231, 2.004-28.615, 4.125-44.903 c 4.822-37.026, 9.808-75.313-8.953-97.388c-6.049-7.117-13.967-11.915-23.637-14.341L 255.057,0.00 l-14.00,0.00 c-0.357,0.00-0.704,0.009-1.051,0.02l-0.012,0.00 C 239.647,0.009, 239.30,0.00, 238.941,0.00l-14.00,0.046l0.00,1.822 c-9.669,2.426-17.587,7.224-23.636,14.341 c-18.761,22.075-13.775,60.362-8.953,97.389c 2.121,16.288, 4.125,31.672, 4.125,44.902c0.00,33.289-12.415,59.498-24.42,84.844 c-11.822,24.958-24.046,50.765-24.046,82.187c0.00,60.911, 25.799,139.836, 32.729,155.582c 6.698,15.214, 23.585,26.13, 44.779,29.65L 225.519,512.00 l 14.00,0.00 c 0.157,0.00, 0.314-0.002, 0.479-0.007c 0.162,0.004, 0.322,0.007, 0.483,0.007l 14.00-0.025l0.00-1.211 c 21.193-3.521, 38.08-14.437, 44.78-29.651 c 6.93-15.748, 32.729-94.678, 32.729-155.581C 331.99,294.109, 319.766,268.303, 307.943,243.345z M 255.54,160.00l-31.08,0.00 c 0.005-0.50, 0.017-0.996, 0.017-1.499c0.00-9.585-0.902-19.971-2.109-30.501l 35.264,0.00 c-1.208,10.53-2.109,20.916-2.109,30.501 C 255.522,159.004, 255.535,159.50, 255.54,160.00z M 222.641,34.342c 2.161-2.542, 6.249-5.962, 16.754-6.303l 0.444-0.016l 0.158,0.002 l 0.131-0.002l 0.476,0.016c 10.506,0.341, 14.594,3.761, 16.755,6.303c 9.06,10.66, 7.361,36.188, 4.298,61.658l-43.313,0.00 C 215.28,70.53, 213.581,45.002, 222.641,34.342z M 273.635,469.831c-2.946,6.689-15.628,13.92-33.331,14.145L 240.00,483.979l-0.304-0.004 c-17.703-0.225-30.385-7.454-33.33-14.143c-6.179-14.038-30.356-88.632-30.356-144.302c0.00-25.126, 10.371-47.021, 21.351-70.20 c 8.872-18.73, 18.564-39.21, 23.612-63.332l 38.053,0.00 c 5.048,24.122, 14.74,44.601, 23.612,63.332c 10.98,23.18, 21.352,45.074, 21.352,70.20 C 303.99,381.193, 279.812,455.793, 273.635,469.831z" ></path></svg>