<?xml version="1.0" encoding="utf-8"?> <!-- Generator: IcoMoon.io --> <!DOCTYPE svg PUBLIC "-//W3C//DTD SVG 1.1//EN" "http://www.w3.org/Graphics/SVG/1.1/DTD/svg11.dtd"> <svg width="512" height="512" viewBox="0 0 512 512" xmlns="http://www.w3.org/2000/svg" xmlns:xlink="http://www.w3.org/1999/xlink" fill="#000000"><g class="svgGrid" id="svgGrid"><line stroke-width="1" stroke="#B35047" x1="32" x2="32" y1="0" y2="512"></line><line stroke-width="1" stroke="#B35047" x1="64" x2="64" y1="0" y2="512"></line><line stroke-width="1" stroke="#B35047" x1="96" x2="96" y1="0" y2="512"></line><line stroke-width="1" stroke="#B35047" x1="128" x2="128" y1="0" y2="512"></line><line stroke-width="1" stroke="#B35047" x1="160" x2="160" y1="0" y2="512"></line><line stroke-width="1" stroke="#B35047" x1="192" x2="192" y1="0" y2="512"></line><line stroke-width="1" stroke="#B35047" x1="224" x2="224" y1="0" y2="512"></line><line stroke-width="1" stroke="#B35047" x1="256" x2="256" y1="0" y2="512"></line><line stroke-width="1" stroke="#B35047" x1="288" x2="288" y1="0" y2="512"></line><line stroke-width="1" stroke="#B35047" x1="320" x2="320" y1="0" y2="512"></line><line stroke-width="1" stroke="#B35047" x1="352" x2="352" y1="0" y2="512"></line><line stroke-width="1" stroke="#B35047" x1="384" x2="384" y1="0" y2="512"></line><line stroke-width="1" stroke="#B35047" x1="416" x2="416" y1="0" y2="512"></line><line stroke-width="1" stroke="#B35047" x1="448" x2="448" y1="0" y2="512"></line><line stroke-width="1" stroke="#B35047" x1="480" x2="480" y1="0" y2="512"></line><line stroke-width="1" stroke="#B35047" x1="0" x2="512" y1="32" y2="32"></line><line stroke-width="1" stroke="#B35047" x1="0" x2="512" y1="64" y2="64"></line><line stroke-width="1" stroke="#B35047" x1="0" x2="512" y1="96" y2="96"></line><line stroke-width="1" stroke="#B35047" x1="0" x2="512" y1="128" y2="128"></line><line stroke-width="1" stroke="#B35047" x1="0" x2="512" y1="160" y2="160"></line><line stroke-width="1" stroke="#B35047" x1="0" x2="512" y1="192" y2="192"></line><line stroke-width="1" stroke="#B35047" x1="0" x2="512" y1="224" y2="224"></line><line stroke-width="1" stroke="#B35047" x1="0" x2="512" y1="256" y2="256"></line><line stroke-width="1" stroke="#B35047" x1="0" x2="512" y1="288" y2="288"></line><line stroke-width="1" stroke="#B35047" x1="0" x2="512" y1="320" y2="320"></line><line stroke-width="1" stroke="#B35047" x1="0" x2="512" y1="352" y2="352"></line><line stroke-width="1" stroke="#B35047" x1="0" x2="512" y1="384" y2="384"></line><line stroke-width="1" stroke="#B35047" x1="0" x2="512" y1="416" y2="416"></line><line stroke-width="1" stroke="#B35047" x1="0" x2="512" y1="448" y2="448"></line><line stroke-width="1" stroke="#B35047" x1="0" x2="512" y1="480" y2="480"></line><rect x="0" y="0" width="512" height="512" fill="none" stroke-width="1" stroke="#B35047"></rect></g><path d="M 459.941,212.927c-10.505-22.178-21.368-45.11-21.368-74.238c0.00-11.577, 1.754-25.039, 3.609-39.29 c 4.22-32.398, 8.582-65.899-7.834-85.215c-5.293-6.228-12.221-10.426-20.683-12.548L 413.665,0.00 l-12.25,0.00 c-0.312,0.00-0.615,0.008-0.919,0.017 l-0.011,0.00 C 400.183,0.008, 399.879,0.00, 399.564,0.00l-12.25,0.041l0.00,1.595 c-8.461,2.123-15.389,6.32-20.682,12.548 C 350.217,33.499, 354.58,67.00, 358.799,99.399c 1.856,14.251, 3.609,27.713, 3.609,39.29c0.00,29.128-10.863,52.061-21.367,74.238 c-8.701,18.367-17.647,37.26-20.272,59.159c-3.886-9.868-8.384-19.365-12.825-28.741c-12.006-25.346-24.421-51.555-24.421-84.844 c0.00-13.231, 2.004-28.615, 4.125-44.903c 4.822-37.026, 9.808-75.313-8.953-97.388c-6.049-7.117-13.967-11.915-23.637-14.341L 255.058,0.00 l-14.00,0.00 c-0.357,0.00-0.704,0.009-1.051,0.02l-0.012,0.00 C 239.647,0.009, 239.30,0.00, 238.941,0.00l-14.00,0.046l0.00,1.822 c-9.669,2.426-17.587,7.224-23.636,14.341 c-18.761,22.075-13.775,60.362-8.953,97.389c 2.121,16.288, 4.125,31.672, 4.125,44.902c0.00,33.289-12.415,59.498-24.42,84.844 c-4.162,8.786-8.372,17.68-12.082,26.884c-2.894-21.113-11.579-39.457-20.033-57.302c-10.505-22.178-21.368-45.11-21.368-74.238 c0.00-11.577, 1.754-25.039, 3.609-39.29c 4.22-32.398, 8.582-65.899-7.834-85.215c-5.293-6.228-12.221-10.426-20.682-12.548L 93.667,0.00 l-12.25,0.00 c-0.312,0.00-0.616,0.008-0.919,0.017l-0.011,0.00 C 80.183,0.008, 79.878,0.00, 79.565,0.00l-12.25,0.041l0.00,1.595 c-8.461,2.123-15.389,6.32-20.682,12.548C 30.217,33.499, 34.58,67.00, 38.799,99.399c 1.856,14.251, 3.609,27.713, 3.609,39.29 c0.00,29.128-10.863,52.061-21.368,74.238C 10.696,234.765,0.00,257.346,0.00,284.84c0.00,53.297, 22.574,122.356, 28.638,136.135 c 5.86,13.312, 20.637,22.863, 39.182,25.943L 67.82,448.00 l 12.25,0.00 c 0.137,0.00, 0.275-0.002, 0.419-0.006c 0.142,0.003, 0.282,0.006, 0.423,0.006 l 12.25-0.022l0.00-1.06 c 18.544-3.08, 33.32-12.632, 39.182-25.944c 3.277-7.446, 11.374-31.038, 18.125-59.557 c 6.611,52.579, 24.647,106.924, 30.27,119.696c 6.698,15.214, 23.585,26.13, 44.779,29.65L 225.518,512.00 l 14.00,0.00 c 0.157,0.00, 0.314-0.002, 0.479-0.007 c 0.162,0.004, 0.322,0.007, 0.483,0.007l 14.00-0.025l0.00-1.211 c 21.193-3.521, 38.08-14.437, 44.78-29.651 c 5.72-12.998, 24.292-69.038, 30.604-122.458c 6.873,29.752, 15.39,54.636, 18.772,62.32c 5.859,13.312, 20.637,22.863, 39.182,25.943L 387.818,448.00 l 12.25,0.00 c 0.137,0.00, 0.274-0.002, 0.419-0.006c 0.142,0.003, 0.282,0.006, 0.423,0.006l 12.25-0.022l0.00-1.06 c 18.545-3.08, 33.32-12.632, 39.183-25.944c 6.064-13.78, 28.638-82.844, 28.638-136.134 C 480.982,257.346, 470.286,234.765, 459.941,212.927z M 222.641,34.342c 2.161-2.542, 6.249-5.962, 16.754-6.303l 0.444-0.016l 0.158,0.002 l 0.131-0.002l 0.476,0.016c 10.506,0.341, 14.594,3.761, 16.755,6.303c 9.06,10.66, 7.361,36.188, 4.298,61.658l-43.313,0.00 C 215.28,70.53, 213.581,45.002, 222.641,34.342z M 255.54,160.00l-31.08,0.00 c 0.005-0.50, 0.017-0.996, 0.017-1.499 c0.00-9.585-0.902-19.971-2.109-30.501l 35.264,0.00 c-1.208,10.53-2.109,20.916-2.109,30.501C 255.522,159.004, 255.535,159.50, 255.54,160.00z M 273.635,469.831c-2.946,6.689-15.628,13.92-33.331,14.145L 240.00,483.979l-0.304-0.004c-17.703-0.225-30.385-7.454-33.33-14.143 c-6.179-14.038-30.356-88.632-30.356-144.302c0.00-25.126, 10.371-47.021, 21.351-70.20c 8.872-18.73, 18.564-39.21, 23.612-63.332l 38.053,0.00 c 5.048,24.122, 14.74,44.601, 23.612,63.332c 10.98,23.18, 21.352,45.074, 21.352,70.20C 303.99,381.193, 279.812,455.793, 273.635,469.831z" ></path></svg>