<?xml version="1.0" encoding="utf-8"?> <!-- Generator: IcoMoon.io --> <!DOCTYPE svg PUBLIC "-//W3C//DTD SVG 1.1//EN" "http://www.w3.org/Graphics/SVG/1.1/DTD/svg11.dtd"> <svg width="512" height="512" viewBox="0 0 512 512" xmlns="http://www.w3.org/2000/svg" xmlns:xlink="http://www.w3.org/1999/xlink" fill="#000000"><g class="svgGrid" id="svgGrid"><line stroke-width="1" stroke="#B35047" x1="32" x2="32" y1="0" y2="512"></line><line stroke-width="1" stroke="#B35047" x1="64" x2="64" y1="0" y2="512"></line><line stroke-width="1" stroke="#B35047" x1="96" x2="96" y1="0" y2="512"></line><line stroke-width="1" stroke="#B35047" x1="128" x2="128" y1="0" y2="512"></line><line stroke-width="1" stroke="#B35047" x1="160" x2="160" y1="0" y2="512"></line><line stroke-width="1" stroke="#B35047" x1="192" x2="192" y1="0" y2="512"></line><line stroke-width="1" stroke="#B35047" x1="224" x2="224" y1="0" y2="512"></line><line stroke-width="1" stroke="#B35047" x1="256" x2="256" y1="0" y2="512"></line><line stroke-width="1" stroke="#B35047" x1="288" x2="288" y1="0" y2="512"></line><line stroke-width="1" stroke="#B35047" x1="320" x2="320" y1="0" y2="512"></line><line stroke-width="1" stroke="#B35047" x1="352" x2="352" y1="0" y2="512"></line><line stroke-width="1" stroke="#B35047" x1="384" x2="384" y1="0" y2="512"></line><line stroke-width="1" stroke="#B35047" x1="416" x2="416" y1="0" y2="512"></line><line stroke-width="1" stroke="#B35047" x1="448" x2="448" y1="0" y2="512"></line><line stroke-width="1" stroke="#B35047" x1="480" x2="480" y1="0" y2="512"></line><line stroke-width="1" stroke="#B35047" x1="0" x2="512" y1="32" y2="32"></line><line stroke-width="1" stroke="#B35047" x1="0" x2="512" y1="64" y2="64"></line><line stroke-width="1" stroke="#B35047" x1="0" x2="512" y1="96" y2="96"></line><line stroke-width="1" stroke="#B35047" x1="0" x2="512" y1="128" y2="128"></line><line stroke-width="1" stroke="#B35047" x1="0" x2="512" y1="160" y2="160"></line><line stroke-width="1" stroke="#B35047" x1="0" x2="512" y1="192" y2="192"></line><line stroke-width="1" stroke="#B35047" x1="0" x2="512" y1="224" y2="224"></line><line stroke-width="1" stroke="#B35047" x1="0" x2="512" y1="256" y2="256"></line><line stroke-width="1" stroke="#B35047" x1="0" x2="512" y1="288" y2="288"></line><line stroke-width="1" stroke="#B35047" x1="0" x2="512" y1="320" y2="320"></line><line stroke-width="1" stroke="#B35047" x1="0" x2="512" y1="352" y2="352"></line><line stroke-width="1" stroke="#B35047" x1="0" x2="512" y1="384" y2="384"></line><line stroke-width="1" stroke="#B35047" x1="0" x2="512" y1="416" y2="416"></line><line stroke-width="1" stroke="#B35047" x1="0" x2="512" y1="448" y2="448"></line><line stroke-width="1" stroke="#B35047" x1="0" x2="512" y1="480" y2="480"></line><rect x="0" y="0" width="512" height="512" fill="none" stroke-width="1" stroke="#B35047"></rect></g><path d="M 409.229,148.523 C 452.646,192.37 435.608,279.131 300.902,247.012 C 267.18,252.108 195.051,262.45 185.942,211.934 C 173.126,220.029 108.311,174.537 160.983,105.677 C 223.19,24.351 377.523,44.979 409.229,148.523 ZM 111.44,430.812 C 87.711,403.741 93.114,341.487 96.304,319.265 L 53.648,319.265 C 42.692,319.265 33.405,313.571 29.409,304.406 C 24.022,292.05 29.236,276.662 43.356,263.245 C 67.044,240.736 77.648,217.417 77.648,204.292 L 77.642,202.88 C 77.588,194.453 77.426,168.812 84.316,138.281 C 93.156,99.105 109.925,67.497 134.156,44.334 C 164.931,14.917 207.05,0.00 259.343,0.00 C 318.367,0.00 398.994,13.861 447.907,79.893 C 467.85,106.816 480.214,139.928 483.662,175.652 C 486.765,207.801 482.43,241.531 471.452,270.63 C 458.384,305.271 432.801,323.771 420.817,340.092 C 400.406,367.891 384.179,415.509 383.376,511.999 L 351.375,511.999 C 352.224,405.889 370.974,354.834 394.573,322.695 C 405.947,307.201 429.703,291.189 441.329,260.371 C 450.765,235.355 454.482,206.254 451.795,178.429 C 448.858,147.997 438.466,119.976 421.739,97.394 C 406.656,77.032 386.504,61.033 361.841,49.843 C 333.413,36.945 298.928,30.405 259.343,30.405 C 235.972,30.405 215.052,33.838 197.165,40.61 C 181.792,46.429 168.229,54.894 156.852,65.769 C 137.015,84.73 123.138,111.271 115.605,144.654 C 109.448,171.939 109.594,195.086 109.642,202.692 C 109.646,203.324 109.649,203.857 109.649,204.291 C 109.649,228.325 92.918,259.153 65.985,284.745 C 64.405,286.245 63.178,287.631 62.233,288.858 L 134.456,288.858 L 129.245,315.787 C 129.213,315.957 125.76,334.303 125.438,355.492 C 124.914,389.908 132.674,407.531 136.035,411.36 C 138.673,414.366 141.402,415.483 146.104,415.483 C 182.333,415.483 194.582,416.019 208.155,428.993 C 224.268,444.395 224.317,490.332 224.183,511.999 L 192.182,511.999 C 192.289,494.863 192.295,456.964 185.46,450.429 C 178.652,443.921 172.287,445.89 146.105,445.89 C 131.873,445.89 120.21,440.817 111.44,430.812 Z" ></path></svg>