<?xml version="1.0" encoding="utf-8"?> <!-- Generator: IcoMoon.io --> <!DOCTYPE svg PUBLIC "-//W3C//DTD SVG 1.1//EN" "http://www.w3.org/Graphics/SVG/1.1/DTD/svg11.dtd"> <svg width="512" height="512" viewBox="0 0 512 512" xmlns="http://www.w3.org/2000/svg" xmlns:xlink="http://www.w3.org/1999/xlink" fill="#000000"><g class="svgGrid" id="svgGrid"><line stroke-width="1" stroke="#B35047" x1="32" x2="32" y1="0" y2="512"></line><line stroke-width="1" stroke="#B35047" x1="64" x2="64" y1="0" y2="512"></line><line stroke-width="1" stroke="#B35047" x1="96" x2="96" y1="0" y2="512"></line><line stroke-width="1" stroke="#B35047" x1="128" x2="128" y1="0" y2="512"></line><line stroke-width="1" stroke="#B35047" x1="160" x2="160" y1="0" y2="512"></line><line stroke-width="1" stroke="#B35047" x1="192" x2="192" y1="0" y2="512"></line><line stroke-width="1" stroke="#B35047" x1="224" x2="224" y1="0" y2="512"></line><line stroke-width="1" stroke="#B35047" x1="256" x2="256" y1="0" y2="512"></line><line stroke-width="1" stroke="#B35047" x1="288" x2="288" y1="0" y2="512"></line><line stroke-width="1" stroke="#B35047" x1="320" x2="320" y1="0" y2="512"></line><line stroke-width="1" stroke="#B35047" x1="352" x2="352" y1="0" y2="512"></line><line stroke-width="1" stroke="#B35047" x1="384" x2="384" y1="0" y2="512"></line><line stroke-width="1" stroke="#B35047" x1="416" x2="416" y1="0" y2="512"></line><line stroke-width="1" stroke="#B35047" x1="448" x2="448" y1="0" y2="512"></line><line stroke-width="1" stroke="#B35047" x1="480" x2="480" y1="0" y2="512"></line><line stroke-width="1" stroke="#B35047" x1="0" x2="512" y1="32" y2="32"></line><line stroke-width="1" stroke="#B35047" x1="0" x2="512" y1="64" y2="64"></line><line stroke-width="1" stroke="#B35047" x1="0" x2="512" y1="96" y2="96"></line><line stroke-width="1" stroke="#B35047" x1="0" x2="512" y1="128" y2="128"></line><line stroke-width="1" stroke="#B35047" x1="0" x2="512" y1="160" y2="160"></line><line stroke-width="1" stroke="#B35047" x1="0" x2="512" y1="192" y2="192"></line><line stroke-width="1" stroke="#B35047" x1="0" x2="512" y1="224" y2="224"></line><line stroke-width="1" stroke="#B35047" x1="0" x2="512" y1="256" y2="256"></line><line stroke-width="1" stroke="#B35047" x1="0" x2="512" y1="288" y2="288"></line><line stroke-width="1" stroke="#B35047" x1="0" x2="512" y1="320" y2="320"></line><line stroke-width="1" stroke="#B35047" x1="0" x2="512" y1="352" y2="352"></line><line stroke-width="1" stroke="#B35047" x1="0" x2="512" y1="384" y2="384"></line><line stroke-width="1" stroke="#B35047" x1="0" x2="512" y1="416" y2="416"></line><line stroke-width="1" stroke="#B35047" x1="0" x2="512" y1="448" y2="448"></line><line stroke-width="1" stroke="#B35047" x1="0" x2="512" y1="480" y2="480"></line><rect x="0" y="0" width="512" height="512" fill="none" stroke-width="1" stroke="#B35047"></rect></g><path d="M 224.00,96.00A32.00,32.00 2160.00 1,0 288.00,96A32.00,32.00 2160.00 1,0 224.00,96zM 96.00,128.00A32.00,32.00 2160.00 1,0 160.00,128A32.00,32.00 2160.00 1,0 96.00,128zM 224.00,416.00A32.00,32.00 2160.00 1,0 288.00,416A32.00,32.00 2160.00 1,0 224.00,416zM 352.00,384.00A32.00,32.00 2160.00 1,0 416.00,384A32.00,32.00 2160.00 1,0 352.00,384zM 64.00,256.00A32.00,32.00 2160.00 1,0 128.00,256A32.00,32.00 2160.00 1,0 64.00,256zM 384.00,256.00A32.00,32.00 2160.00 1,0 448.00,256A32.00,32.00 2160.00 1,0 384.00,256zM 352.00,128.00A32.00,32.00 2160.00 1,0 416.00,128A32.00,32.00 2160.00 1,0 352.00,128zM 96.00,384.00A32.00,32.00 2160.00 1,0 160.00,384A32.00,32.00 2160.00 1,0 96.00,384zM 256.00,160.00c-53.02,0.00-96.00,42.98-96.00,96.00s 42.98,96.00, 96.00,96.00s 96.00-42.98, 96.00-96.00S 309.02,160.00, 256.00,160.00z M 256.00,301.00c-24.813,0.00-45.00-20.187-45.00-45.00 c0.00-24.813, 20.187-45.00, 45.00-45.00c 24.813,0.00, 45.00,20.187, 45.00,45.00C 301.00,280.813, 280.813,301.00, 256.00,301.00z" ></path></svg>