<?xml version="1.0" encoding="utf-8"?> <!-- Generator: IcoMoon.io --> <!DOCTYPE svg PUBLIC "-//W3C//DTD SVG 1.1//EN" "http://www.w3.org/Graphics/SVG/1.1/DTD/svg11.dtd"> <svg width="512" height="512" viewBox="0 0 512 512" xmlns="http://www.w3.org/2000/svg" xmlns:xlink="http://www.w3.org/1999/xlink" fill="#000000"><g class="svgGrid" id="svgGrid"><line stroke-width="1" stroke="#B35047" x1="32" x2="32" y1="0" y2="512"></line><line stroke-width="1" stroke="#B35047" x1="64" x2="64" y1="0" y2="512"></line><line stroke-width="1" stroke="#B35047" x1="96" x2="96" y1="0" y2="512"></line><line stroke-width="1" stroke="#B35047" x1="128" x2="128" y1="0" y2="512"></line><line stroke-width="1" stroke="#B35047" x1="160" x2="160" y1="0" y2="512"></line><line stroke-width="1" stroke="#B35047" x1="192" x2="192" y1="0" y2="512"></line><line stroke-width="1" stroke="#B35047" x1="224" x2="224" y1="0" y2="512"></line><line stroke-width="1" stroke="#B35047" x1="256" x2="256" y1="0" y2="512"></line><line stroke-width="1" stroke="#B35047" x1="288" x2="288" y1="0" y2="512"></line><line stroke-width="1" stroke="#B35047" x1="320" x2="320" y1="0" y2="512"></line><line stroke-width="1" stroke="#B35047" x1="352" x2="352" y1="0" y2="512"></line><line stroke-width="1" stroke="#B35047" x1="384" x2="384" y1="0" y2="512"></line><line stroke-width="1" stroke="#B35047" x1="416" x2="416" y1="0" y2="512"></line><line stroke-width="1" stroke="#B35047" x1="448" x2="448" y1="0" y2="512"></line><line stroke-width="1" stroke="#B35047" x1="480" x2="480" y1="0" y2="512"></line><line stroke-width="1" stroke="#B35047" x1="0" x2="512" y1="32" y2="32"></line><line stroke-width="1" stroke="#B35047" x1="0" x2="512" y1="64" y2="64"></line><line stroke-width="1" stroke="#B35047" x1="0" x2="512" y1="96" y2="96"></line><line stroke-width="1" stroke="#B35047" x1="0" x2="512" y1="128" y2="128"></line><line stroke-width="1" stroke="#B35047" x1="0" x2="512" y1="160" y2="160"></line><line stroke-width="1" stroke="#B35047" x1="0" x2="512" y1="192" y2="192"></line><line stroke-width="1" stroke="#B35047" x1="0" x2="512" y1="224" y2="224"></line><line stroke-width="1" stroke="#B35047" x1="0" x2="512" y1="256" y2="256"></line><line stroke-width="1" stroke="#B35047" x1="0" x2="512" y1="288" y2="288"></line><line stroke-width="1" stroke="#B35047" x1="0" x2="512" y1="320" y2="320"></line><line stroke-width="1" stroke="#B35047" x1="0" x2="512" y1="352" y2="352"></line><line stroke-width="1" stroke="#B35047" x1="0" x2="512" y1="384" y2="384"></line><line stroke-width="1" stroke="#B35047" x1="0" x2="512" y1="416" y2="416"></line><line stroke-width="1" stroke="#B35047" x1="0" x2="512" y1="448" y2="448"></line><line stroke-width="1" stroke="#B35047" x1="0" x2="512" y1="480" y2="480"></line><rect x="0" y="0" width="512" height="512" fill="none" stroke-width="1" stroke="#B35047"></rect></g><path d="M 418.00,32.00L 94.00,32.00 C 42.30,32.00,0.00,74.30,0.00,126.00l0.00,354.00 l 96.00-96.00l 124.75,0.00 L 418.00,384.00 c 51.70,0.00, 94.00-42.30, 94.00-94.00L 512.00,126.00 C 512.00,74.30, 469.70,32.00, 418.00,32.00z M 448.00,126.00l0.00,6.00 L 64.00,132.00 l0.00-6.00 c0.00-0.672, 0.032-1.337, 0.078-2.00l 383.844,0.00 C 447.968,124.663, 448.00,125.328, 448.00,126.00z M 447.922,292.00L 64.00,292.00 l0.00-8.00 l 384.00,0.00 l0.00,6.00 C 448.00,290.672, 447.968,291.338, 447.922,292.00z M 64.00,320.00l0.00-4.00 l 368.708,0.00 c-4.376,2.532-9.406,4.00-14.708,4.00L 64.00,320.00 z M 64.00,308.00l0.00-8.00 l 382.212,0.00 c-1.059,2.887-2.556,5.581-4.406,8.00L 64.00,308.00 z M 64.00,276.00l0.00-8.00 l 384.00,0.00 l0.00,8.00 L 64.00,276.00 z M 64.00,260.00l0.00-8.00 l 384.00,0.00 l0.00,8.00 L 64.00,260.00 z M 64.00,244.00l0.00-8.00 l 384.00,0.00 l0.00,8.00 L 64.00,244.00 z M 64.00,228.00l0.00-8.00 l 384.00,0.00 l0.00,8.00 L 64.00,228.00 z M 64.00,212.00l0.00-8.00 l 384.00,0.00 l0.00,8.00 L 64.00,212.00 z M 64.00,196.00l0.00-8.00 l 384.00,0.00 l0.00,8.00 L 64.00,196.00 z M 64.00,180.00l0.00-8.00 l 384.00,0.00 l0.00,8.00 L 64.00,180.00 z M 64.00,164.00l0.00-8.00 l 384.00,0.00 l0.00,8.00 L 64.00,164.00 z M 64.00,148.00l0.00-8.00 l 384.00,0.00 l0.00,8.00 L 64.00,148.00 z M 418.00,96.00 c 5.302,0.00, 10.332,1.468, 14.709,4.00L 79.291,100.00 c 4.377-2.532, 9.407-4.00, 14.709-4.00L 418.00,96.00 z M 441.806,108.00c 1.852,2.419, 3.348,5.113, 4.406,8.00L 65.788,116.00 c 1.058-2.887, 2.555-5.581, 4.406-8.00L 441.806,108.00 z" ></path></svg>