<?xml version="1.0" encoding="utf-8"?> <!-- Generator: IcoMoon.io --> <!DOCTYPE svg PUBLIC "-//W3C//DTD SVG 1.1//EN" "http://www.w3.org/Graphics/SVG/1.1/DTD/svg11.dtd"> <svg width="512" height="512" viewBox="0 0 512 512" xmlns="http://www.w3.org/2000/svg" xmlns:xlink="http://www.w3.org/1999/xlink" fill="#000000"><g class="svgGrid" id="svgGrid"><line stroke-width="1" stroke="#B35047" x1="32" x2="32" y1="0" y2="512"></line><line stroke-width="1" stroke="#B35047" x1="64" x2="64" y1="0" y2="512"></line><line stroke-width="1" stroke="#B35047" x1="96" x2="96" y1="0" y2="512"></line><line stroke-width="1" stroke="#B35047" x1="128" x2="128" y1="0" y2="512"></line><line stroke-width="1" stroke="#B35047" x1="160" x2="160" y1="0" y2="512"></line><line stroke-width="1" stroke="#B35047" x1="192" x2="192" y1="0" y2="512"></line><line stroke-width="1" stroke="#B35047" x1="224" x2="224" y1="0" y2="512"></line><line stroke-width="1" stroke="#B35047" x1="256" x2="256" y1="0" y2="512"></line><line stroke-width="1" stroke="#B35047" x1="288" x2="288" y1="0" y2="512"></line><line stroke-width="1" stroke="#B35047" x1="320" x2="320" y1="0" y2="512"></line><line stroke-width="1" stroke="#B35047" x1="352" x2="352" y1="0" y2="512"></line><line stroke-width="1" stroke="#B35047" x1="384" x2="384" y1="0" y2="512"></line><line stroke-width="1" stroke="#B35047" x1="416" x2="416" y1="0" y2="512"></line><line stroke-width="1" stroke="#B35047" x1="448" x2="448" y1="0" y2="512"></line><line stroke-width="1" stroke="#B35047" x1="480" x2="480" y1="0" y2="512"></line><line stroke-width="1" stroke="#B35047" x1="0" x2="512" y1="32" y2="32"></line><line stroke-width="1" stroke="#B35047" x1="0" x2="512" y1="64" y2="64"></line><line stroke-width="1" stroke="#B35047" x1="0" x2="512" y1="96" y2="96"></line><line stroke-width="1" stroke="#B35047" x1="0" x2="512" y1="128" y2="128"></line><line stroke-width="1" stroke="#B35047" x1="0" x2="512" y1="160" y2="160"></line><line stroke-width="1" stroke="#B35047" x1="0" x2="512" y1="192" y2="192"></line><line stroke-width="1" stroke="#B35047" x1="0" x2="512" y1="224" y2="224"></line><line stroke-width="1" stroke="#B35047" x1="0" x2="512" y1="256" y2="256"></line><line stroke-width="1" stroke="#B35047" x1="0" x2="512" y1="288" y2="288"></line><line stroke-width="1" stroke="#B35047" x1="0" x2="512" y1="320" y2="320"></line><line stroke-width="1" stroke="#B35047" x1="0" x2="512" y1="352" y2="352"></line><line stroke-width="1" stroke="#B35047" x1="0" x2="512" y1="384" y2="384"></line><line stroke-width="1" stroke="#B35047" x1="0" x2="512" y1="416" y2="416"></line><line stroke-width="1" stroke="#B35047" x1="0" x2="512" y1="448" y2="448"></line><line stroke-width="1" stroke="#B35047" x1="0" x2="512" y1="480" y2="480"></line><rect x="0" y="0" width="512" height="512" fill="none" stroke-width="1" stroke="#B35047"></rect></g><path d="M 480.00,160.00l 32.00-64.00L 512.00,32.00 l-48.00,96.00L 407.11,128.00 c-4.274-4.689-10.553-9.171-19.73-14.311l-70.76-35.377C 300.88,70.439, 273.60,64.00, 256.00,64.00 c-17.602,0.00-44.881,6.439-60.623,14.313l-70.758,35.377c-9.181,5.14-15.457,9.623-19.731,14.311L 48.00,128.001 L0.00,32.00l0.00,64.00 l 32.00,64.00l 64.00,0.00 l0.00,64.00 L0.00,256.00l0.00,32.00 l 96.00-32.00l0.00,96.00 L 64.00,352.00 L0.00,512.00l 32.00,0.00 l 51.199-128.00l 16.712,0.00 c 4.447,12.48, 12.241,24.669, 21.074,31.734l 110.022,88.021 C 237.882,509.253, 246.94,512.00, 256.00,512.00c 9.057,0.00, 18.113-2.747, 24.985-8.245l 110.022-88.021c 8.835-7.065, 16.628-19.254, 21.074-31.734 L 428.80,384.00 L 480.00,512.00l 32.00,0.00 l-64.00-160.00l-32.00,0.00 l0.00-96.00 l 96.00,32.00l0.00-32.00 l-96.00-32.00l0.00-64.00 L 480.00,160.00 z M 272.00,448.00l-32.00,0.00 L 240.00,128.00 l 32.00,0.00 L 272.00,448.00 zM 320.00,62.221L 320.00,32.00 c0.00-17.60-14.40-32.00-32.00-32.00l-64.00,0.00 c-17.602,0.00-32.00,14.40-32.00,32.00l0.00,30.221 C 210.129,54.116, 237.284,48.00, 256.00,48.00 C 274.713,48.00, 301.865,54.116, 320.00,62.221z" ></path></svg>