<?xml version="1.0" encoding="utf-8"?> <!-- Generator: IcoMoon.io --> <!DOCTYPE svg PUBLIC "-//W3C//DTD SVG 1.1//EN" "http://www.w3.org/Graphics/SVG/1.1/DTD/svg11.dtd"> <svg width="512" height="512" viewBox="0 0 512 512" xmlns="http://www.w3.org/2000/svg" xmlns:xlink="http://www.w3.org/1999/xlink" fill="#000000"><g class="svgGrid" id="svgGrid"><line stroke-width="1" stroke="#B35047" x1="32" x2="32" y1="0" y2="512"></line><line stroke-width="1" stroke="#B35047" x1="64" x2="64" y1="0" y2="512"></line><line stroke-width="1" stroke="#B35047" x1="96" x2="96" y1="0" y2="512"></line><line stroke-width="1" stroke="#B35047" x1="128" x2="128" y1="0" y2="512"></line><line stroke-width="1" stroke="#B35047" x1="160" x2="160" y1="0" y2="512"></line><line stroke-width="1" stroke="#B35047" x1="192" x2="192" y1="0" y2="512"></line><line stroke-width="1" stroke="#B35047" x1="224" x2="224" y1="0" y2="512"></line><line stroke-width="1" stroke="#B35047" x1="256" x2="256" y1="0" y2="512"></line><line stroke-width="1" stroke="#B35047" x1="288" x2="288" y1="0" y2="512"></line><line stroke-width="1" stroke="#B35047" x1="320" x2="320" y1="0" y2="512"></line><line stroke-width="1" stroke="#B35047" x1="352" x2="352" y1="0" y2="512"></line><line stroke-width="1" stroke="#B35047" x1="384" x2="384" y1="0" y2="512"></line><line stroke-width="1" stroke="#B35047" x1="416" x2="416" y1="0" y2="512"></line><line stroke-width="1" stroke="#B35047" x1="448" x2="448" y1="0" y2="512"></line><line stroke-width="1" stroke="#B35047" x1="480" x2="480" y1="0" y2="512"></line><line stroke-width="1" stroke="#B35047" x1="0" x2="512" y1="32" y2="32"></line><line stroke-width="1" stroke="#B35047" x1="0" x2="512" y1="64" y2="64"></line><line stroke-width="1" stroke="#B35047" x1="0" x2="512" y1="96" y2="96"></line><line stroke-width="1" stroke="#B35047" x1="0" x2="512" y1="128" y2="128"></line><line stroke-width="1" stroke="#B35047" x1="0" x2="512" y1="160" y2="160"></line><line stroke-width="1" stroke="#B35047" x1="0" x2="512" y1="192" y2="192"></line><line stroke-width="1" stroke="#B35047" x1="0" x2="512" y1="224" y2="224"></line><line stroke-width="1" stroke="#B35047" x1="0" x2="512" y1="256" y2="256"></line><line stroke-width="1" stroke="#B35047" x1="0" x2="512" y1="288" y2="288"></line><line stroke-width="1" stroke="#B35047" x1="0" x2="512" y1="320" y2="320"></line><line stroke-width="1" stroke="#B35047" x1="0" x2="512" y1="352" y2="352"></line><line stroke-width="1" stroke="#B35047" x1="0" x2="512" y1="384" y2="384"></line><line stroke-width="1" stroke="#B35047" x1="0" x2="512" y1="416" y2="416"></line><line stroke-width="1" stroke="#B35047" x1="0" x2="512" y1="448" y2="448"></line><line stroke-width="1" stroke="#B35047" x1="0" x2="512" y1="480" y2="480"></line><rect x="0" y="0" width="512" height="512" fill="none" stroke-width="1" stroke="#B35047"></rect></g><path d="M 288.00,160.621L 288.00,112.00 c0.00-8.80-7.20-16.00-16.00-16.00l-32.00,0.00 c-8.80,0.00-16.00,7.20-16.00,16.00l0.00,48.621 C 97.719,165.542,0.00,199.204,0.00,240.00l0.00,192.00 c0.00,44.183, 114.615,80.00, 256.00,80.00c 141.385,0.00, 256.00-35.817, 256.00-80.00L 512.00,240.00 C 512.00,199.204, 414.281,165.542, 288.00,160.621z M 53.508,232.795 c 12.139-6.375, 28.751-12.408, 48.042-17.445c 34.724-9.067, 77.333-14.832, 122.451-16.692L 224.001,240.00 c0.00,8.80, 7.20,16.00, 16.00,16.00l 32.00,0.00 c 8.80,0.00, 16.00-7.20, 16.00-16.00l0.00-41.342 c 45.117,1.86, 87.727,7.625, 122.45,16.692c 19.291,5.038, 35.903,11.07, 48.042,17.445 c 5.353,2.812, 9.059,5.266, 11.582,7.205c-2.523,1.939-6.229,4.394-11.582,7.205c-12.139,6.375-28.751,12.408-48.042,17.445 C 367.605,275.839, 312.754,282.00, 256.00,282.00s-111.605-6.161-154.451-17.35c-19.291-5.037-35.903-11.07-48.042-17.445 c-5.353-2.812-9.059-5.266-11.582-7.205C 44.449,238.061, 48.155,235.606, 53.508,232.795z M 480.00,381.749 C 436.333,406.348, 352.396,423.00, 256.00,423.00c-96.396,0.00-180.333-16.652-224.00-41.251l0.00-45.00 C 75.667,361.348, 159.604,378.00, 256.00,378.00 c 96.396,0.00, 180.333-16.652, 224.00-41.251L 480.00,381.749 zM 256.00,80.00 C 238.327,80.00 224.00,65.673 224.00,48.00 C 224.00,47.375 224.022,46.756 224.058,46.141 C 225.268,15.388 256.00,0.00 256.00,0.00 C 256.00,0.00 286.732,15.388 287.942,46.141 C 287.978,46.756 288.00,47.375 288.00,48.00 C 288.00,65.673 273.673,80.00 256.00,80.00 Z" ></path></svg>