<?xml version="1.0" encoding="utf-8"?> <!-- Generator: IcoMoon.io --> <!DOCTYPE svg PUBLIC "-//W3C//DTD SVG 1.1//EN" "http://www.w3.org/Graphics/SVG/1.1/DTD/svg11.dtd"> <svg width="512" height="512" viewBox="0 0 512 512" xmlns="http://www.w3.org/2000/svg" xmlns:xlink="http://www.w3.org/1999/xlink" fill="#000000"><g class="svgGrid" id="svgGrid"><line stroke-width="1" stroke="#B35047" x1="32" x2="32" y1="0" y2="512"></line><line stroke-width="1" stroke="#B35047" x1="64" x2="64" y1="0" y2="512"></line><line stroke-width="1" stroke="#B35047" x1="96" x2="96" y1="0" y2="512"></line><line stroke-width="1" stroke="#B35047" x1="128" x2="128" y1="0" y2="512"></line><line stroke-width="1" stroke="#B35047" x1="160" x2="160" y1="0" y2="512"></line><line stroke-width="1" stroke="#B35047" x1="192" x2="192" y1="0" y2="512"></line><line stroke-width="1" stroke="#B35047" x1="224" x2="224" y1="0" y2="512"></line><line stroke-width="1" stroke="#B35047" x1="256" x2="256" y1="0" y2="512"></line><line stroke-width="1" stroke="#B35047" x1="288" x2="288" y1="0" y2="512"></line><line stroke-width="1" stroke="#B35047" x1="320" x2="320" y1="0" y2="512"></line><line stroke-width="1" stroke="#B35047" x1="352" x2="352" y1="0" y2="512"></line><line stroke-width="1" stroke="#B35047" x1="384" x2="384" y1="0" y2="512"></line><line stroke-width="1" stroke="#B35047" x1="416" x2="416" y1="0" y2="512"></line><line stroke-width="1" stroke="#B35047" x1="448" x2="448" y1="0" y2="512"></line><line stroke-width="1" stroke="#B35047" x1="480" x2="480" y1="0" y2="512"></line><line stroke-width="1" stroke="#B35047" x1="0" x2="512" y1="32" y2="32"></line><line stroke-width="1" stroke="#B35047" x1="0" x2="512" y1="64" y2="64"></line><line stroke-width="1" stroke="#B35047" x1="0" x2="512" y1="96" y2="96"></line><line stroke-width="1" stroke="#B35047" x1="0" x2="512" y1="128" y2="128"></line><line stroke-width="1" stroke="#B35047" x1="0" x2="512" y1="160" y2="160"></line><line stroke-width="1" stroke="#B35047" x1="0" x2="512" y1="192" y2="192"></line><line stroke-width="1" stroke="#B35047" x1="0" x2="512" y1="224" y2="224"></line><line stroke-width="1" stroke="#B35047" x1="0" x2="512" y1="256" y2="256"></line><line stroke-width="1" stroke="#B35047" x1="0" x2="512" y1="288" y2="288"></line><line stroke-width="1" stroke="#B35047" x1="0" x2="512" y1="320" y2="320"></line><line stroke-width="1" stroke="#B35047" x1="0" x2="512" y1="352" y2="352"></line><line stroke-width="1" stroke="#B35047" x1="0" x2="512" y1="384" y2="384"></line><line stroke-width="1" stroke="#B35047" x1="0" x2="512" y1="416" y2="416"></line><line stroke-width="1" stroke="#B35047" x1="0" x2="512" y1="448" y2="448"></line><line stroke-width="1" stroke="#B35047" x1="0" x2="512" y1="480" y2="480"></line><rect x="0" y="0" width="512" height="512" fill="none" stroke-width="1" stroke="#B35047"></rect></g><path d="M 291.571,416.00l-199.00,0.00 C 59.172,416.00, 32.00,389.683, 32.00,357.334L 32.00,186.667 C 32.00,154.318, 59.172,128.00, 92.571,128.00l 199.00,0.00 c 33.399,0.00, 60.571,26.318, 60.571,58.667l0.00,21.70 l 69.58-60.266c 9.591-9.084, 19.306-13.69, 28.881-13.69 c 13.561,0.00, 29.396,9.961, 29.396,38.033l0.00,199.111 c0.00,10.083-2.061,18.469-6.124,24.924c-5.244,8.331-13.727,13.109-23.271,13.109 c-0.001,0.00-0.001,0.00-0.003,0.00c-9.574-0.001-19.287-4.605-28.877-13.688l-69.582-60.267l0.00,21.699 C 352.143,389.683, 324.971,416.00, 291.571,416.00z M 92.571,160.00C 76.817,160.00, 64.00,171.963, 64.00,186.667l0.00,170.667 C 64.00,372.038, 76.817,384.00, 92.571,384.00l 199.00,0.00 c 15.754,0.00, 28.571-11.962, 28.571-26.666l0.00-57.005 c0.00-6.58, 4.028-12.489, 10.153-14.894 c 6.124-2.402, 13.098-0.814, 17.573,4.008c 0.328,0.354, 0.625,0.663, 0.902,0.938l 94.188,81.577c 0.20,0.175, 0.396,0.354, 0.589,0.537 c 1.623,1.554, 3.029,2.668, 4.174,3.453c 0.163-1.159, 0.278-2.615, 0.278-4.393L 447.999,172.444 c0.00-1.777-0.115-3.233-0.278-4.392 c-1.145,0.784-2.551,1.899-4.174,3.453c-0.192,0.184-0.389,0.362-0.589,0.536l-94.19,81.581c-0.273,0.271-0.573,0.582-0.908,0.942 c-4.479,4.817-11.445,6.404-17.571,3.996c-6.121-2.406-10.146-8.313-10.146-14.891l0.00-57.004 c0.00-14.704-12.817-26.667-28.571-26.667 L 92.571,159.998 z" ></path></svg>