<?xml version="1.0" encoding="utf-8"?> <!-- Generator: IcoMoon.io --> <!DOCTYPE svg PUBLIC "-//W3C//DTD SVG 1.1//EN" "http://www.w3.org/Graphics/SVG/1.1/DTD/svg11.dtd"> <svg width="512" height="512" viewBox="0 0 512 512" xmlns="http://www.w3.org/2000/svg" xmlns:xlink="http://www.w3.org/1999/xlink" fill="#000000"><g class="svgGrid" id="svgGrid"><line stroke-width="1" stroke="#B35047" x1="32" x2="32" y1="0" y2="512"></line><line stroke-width="1" stroke="#B35047" x1="64" x2="64" y1="0" y2="512"></line><line stroke-width="1" stroke="#B35047" x1="96" x2="96" y1="0" y2="512"></line><line stroke-width="1" stroke="#B35047" x1="128" x2="128" y1="0" y2="512"></line><line stroke-width="1" stroke="#B35047" x1="160" x2="160" y1="0" y2="512"></line><line stroke-width="1" stroke="#B35047" x1="192" x2="192" y1="0" y2="512"></line><line stroke-width="1" stroke="#B35047" x1="224" x2="224" y1="0" y2="512"></line><line stroke-width="1" stroke="#B35047" x1="256" x2="256" y1="0" y2="512"></line><line stroke-width="1" stroke="#B35047" x1="288" x2="288" y1="0" y2="512"></line><line stroke-width="1" stroke="#B35047" x1="320" x2="320" y1="0" y2="512"></line><line stroke-width="1" stroke="#B35047" x1="352" x2="352" y1="0" y2="512"></line><line stroke-width="1" stroke="#B35047" x1="384" x2="384" y1="0" y2="512"></line><line stroke-width="1" stroke="#B35047" x1="416" x2="416" y1="0" y2="512"></line><line stroke-width="1" stroke="#B35047" x1="448" x2="448" y1="0" y2="512"></line><line stroke-width="1" stroke="#B35047" x1="480" x2="480" y1="0" y2="512"></line><line stroke-width="1" stroke="#B35047" x1="0" x2="512" y1="32" y2="32"></line><line stroke-width="1" stroke="#B35047" x1="0" x2="512" y1="64" y2="64"></line><line stroke-width="1" stroke="#B35047" x1="0" x2="512" y1="96" y2="96"></line><line stroke-width="1" stroke="#B35047" x1="0" x2="512" y1="128" y2="128"></line><line stroke-width="1" stroke="#B35047" x1="0" x2="512" y1="160" y2="160"></line><line stroke-width="1" stroke="#B35047" x1="0" x2="512" y1="192" y2="192"></line><line stroke-width="1" stroke="#B35047" x1="0" x2="512" y1="224" y2="224"></line><line stroke-width="1" stroke="#B35047" x1="0" x2="512" y1="256" y2="256"></line><line stroke-width="1" stroke="#B35047" x1="0" x2="512" y1="288" y2="288"></line><line stroke-width="1" stroke="#B35047" x1="0" x2="512" y1="320" y2="320"></line><line stroke-width="1" stroke="#B35047" x1="0" x2="512" y1="352" y2="352"></line><line stroke-width="1" stroke="#B35047" x1="0" x2="512" y1="384" y2="384"></line><line stroke-width="1" stroke="#B35047" x1="0" x2="512" y1="416" y2="416"></line><line stroke-width="1" stroke="#B35047" x1="0" x2="512" y1="448" y2="448"></line><line stroke-width="1" stroke="#B35047" x1="0" x2="512" y1="480" y2="480"></line><rect x="0" y="0" width="512" height="512" fill="none" stroke-width="1" stroke="#B35047"></rect></g><path d="M 256.00,208.248c-26.331,0.00-47.752,21.421-47.752,47.752c0.00,26.331, 21.421,47.752, 47.752,47.752 c 26.331,0.00, 47.752-21.421, 47.752-47.752C 303.752,229.669, 282.331,208.248, 256.00,208.248zM 256.00,0.00C 114.615,0.00,0.00,114.615,0.00,256.00s 114.615,256.00, 256.00,256.00s 256.00-114.615, 256.00-256.00S 397.385,0.00, 256.00,0.00z M 439.442,123.984 c-1.923-2.667-3.90-5.30-5.942-7.887C 435.543,118.684, 437.52,121.316, 439.442,123.984z M 426.758,107.976 c-1.14-1.313-2.296-2.616-3.468-3.906C 424.464,105.359, 425.617,106.663, 426.758,107.976z M 422.93,103.677 c-1.124-1.233-2.26-2.458-3.416-3.669C 420.67,101.218, 421.804,102.444, 422.93,103.677z M 100.511,420.004 c 1.393,1.321, 2.802,2.618, 4.225,3.898C 103.315,422.621, 101.903,421.325, 100.511,420.004z M 104.926,424.078 c 1.468,1.318, 2.952,2.616, 4.449,3.895C 107.878,426.694, 106.393,425.398, 104.926,424.078z M 136.20,447.68 c-1.912-1.196-3.803-2.426-5.678-3.68l 7.978,0.00 L 136.20,447.68z M 143.50,436.00l-24.17,0.00 c 1.799,1.368, 3.616,2.71, 5.452,4.023 c-5.285-3.774-10.411-7.785-15.375-12.023L 148.50,428.00 L 143.50,436.00z M 130.504,443.987c-1.892-1.265-3.762-2.563-5.615-3.886 C 126.741,441.427, 128.612,442.723, 130.504,443.987z M 153.50,420.00l-52.993,0.00 c-1.453-1.379-2.893-2.773-4.313-4.194 c-2.442-2.442-4.805-4.945-7.122-7.481c 1.126,1.236, 2.264,2.464, 3.422,3.676L 158.50,412.001 L 153.50,420.00z M 85.223,404.002 c 1.146,1.32, 2.309,2.629, 3.486,3.927C 87.529,406.633, 86.369,405.322, 85.223,404.002z M 163.50,404.00L 85.221,404.00 c-4.472-5.151-8.695-10.48-12.663-15.982c 1.947,2.701, 3.948,5.365, 6.017,7.982L 168.50,396.00 L 163.50,404.00z M 173.50,388.00L 72.546,388.00 c-2.87-3.982-5.624-8.043-8.226-12.20c 0.884,1.413, 1.797,2.808, 2.713,4.20L 178.50,380.00 L 173.50,388.00z M 183.50,372.00L 70.399,372.00 l 21.051-13.156 L 83.20,364.00l 105.30,0.00 L 183.50,372.00z M 193.50,356.00L 96.00,356.00 l 22.855-14.285L 108.80,348.00l 89.70,0.00 L 193.50,356.00z M 423.956,151.027L 428.80,148.00L 323.50,148.00 l-5.00,8.00L 416.00,156.00 l-12.80,8.00l-89.70,0.00 l-5.00,8.00l 81.899,0.00 l 5.237-3.273l-19.608,12.255L 377.60,180.00l-71.546,0.00 c 3.665,2.418, 7.146,5.092, 10.414,8.00L 364.80,188.00 l-12.80,8.00l-27.593,0.00 c 2.234,2.545, 4.329,5.215, 6.271,8.00l 8.521,0.00 l 4.044-2.527l-10.066,6.292c 8.76,13.985, 13.829,30.517, 13.829,48.236 c0.00,50.26-40.744,91.003-91.006,91.003c-17.718,0.00-34.25-5.068-48.235-13.827L 203.50,340.00l-81.90,0.00 l 24.66-15.413L 134.40,332.00l 71.546,0.00 c-3.665-2.418-7.145-5.092-10.414-8.00L 147.20,324.00 l 31.624-19.765c-8.759-13.984-13.829-30.517-13.829-48.235 c0.00-50.26, 40.744-91.003, 91.005-91.003c 17.719,0.00, 34.25,5.068, 48.234,13.827L 375.80,64.32c 3.849,2.409, 7.617,4.942, 11.315,7.581 c-1.859-1.33-3.738-2.631-5.638-3.901L 373.50,68.00 l-5.00,8.00l 24.17,0.00 c-1.804-1.372-3.626-2.717-5.466-4.034 c 5.29,3.778, 10.421,7.792, 15.39,12.034L 363.50,84.00 l-5.00,8.00l 52.992,0.00 c-1.388-1.317-2.793-2.611-4.211-3.887 c 2.898,2.616, 5.746,5.303, 8.524,8.081c 1.254,1.253, 2.48,2.528, 3.701,3.806L 353.50,100.00 l-5.00,8.00l 78.279,0.00 c 2.276,2.623, 4.499,5.285, 6.646,8.00 L 343.50,116.00 l-5.00,8.00l 100.954,0.00 c 2.87,3.982, 5.623,8.043, 8.226,12.20L 423.956,151.027z M 402.634,84.035c 1.493,1.276, 2.975,2.569, 4.438,3.886 C 405.607,86.605, 404.127,85.311, 402.634,84.035zM 333.50,132.00l-5.00,8.00l 113.10,0.00 l 6.08-3.80c-0.885-1.413-1.797-2.808-2.713-4.20L 333.50,132.00 zM 172.80,308.00l-12.80,8.00l 27.593,0.00 c-2.234-2.545-4.329-5.215-6.272-8.00L 172.80,308.00 z" ></path></svg>