<?xml version="1.0" encoding="utf-8"?> <!-- Generator: IcoMoon.io --> <!DOCTYPE svg PUBLIC "-//W3C//DTD SVG 1.1//EN" "http://www.w3.org/Graphics/SVG/1.1/DTD/svg11.dtd"> <svg width="512" height="512" viewBox="0 0 512 512" xmlns="http://www.w3.org/2000/svg" xmlns:xlink="http://www.w3.org/1999/xlink" fill="#000000"><g class="svgGrid" id="svgGrid"><line stroke-width="1" stroke="#B35047" x1="32" x2="32" y1="0" y2="512"></line><line stroke-width="1" stroke="#B35047" x1="64" x2="64" y1="0" y2="512"></line><line stroke-width="1" stroke="#B35047" x1="96" x2="96" y1="0" y2="512"></line><line stroke-width="1" stroke="#B35047" x1="128" x2="128" y1="0" y2="512"></line><line stroke-width="1" stroke="#B35047" x1="160" x2="160" y1="0" y2="512"></line><line stroke-width="1" stroke="#B35047" x1="192" x2="192" y1="0" y2="512"></line><line stroke-width="1" stroke="#B35047" x1="224" x2="224" y1="0" y2="512"></line><line stroke-width="1" stroke="#B35047" x1="256" x2="256" y1="0" y2="512"></line><line stroke-width="1" stroke="#B35047" x1="288" x2="288" y1="0" y2="512"></line><line stroke-width="1" stroke="#B35047" x1="320" x2="320" y1="0" y2="512"></line><line stroke-width="1" stroke="#B35047" x1="352" x2="352" y1="0" y2="512"></line><line stroke-width="1" stroke="#B35047" x1="384" x2="384" y1="0" y2="512"></line><line stroke-width="1" stroke="#B35047" x1="416" x2="416" y1="0" y2="512"></line><line stroke-width="1" stroke="#B35047" x1="448" x2="448" y1="0" y2="512"></line><line stroke-width="1" stroke="#B35047" x1="480" x2="480" y1="0" y2="512"></line><line stroke-width="1" stroke="#B35047" x1="0" x2="512" y1="32" y2="32"></line><line stroke-width="1" stroke="#B35047" x1="0" x2="512" y1="64" y2="64"></line><line stroke-width="1" stroke="#B35047" x1="0" x2="512" y1="96" y2="96"></line><line stroke-width="1" stroke="#B35047" x1="0" x2="512" y1="128" y2="128"></line><line stroke-width="1" stroke="#B35047" x1="0" x2="512" y1="160" y2="160"></line><line stroke-width="1" stroke="#B35047" x1="0" x2="512" y1="192" y2="192"></line><line stroke-width="1" stroke="#B35047" x1="0" x2="512" y1="224" y2="224"></line><line stroke-width="1" stroke="#B35047" x1="0" x2="512" y1="256" y2="256"></line><line stroke-width="1" stroke="#B35047" x1="0" x2="512" y1="288" y2="288"></line><line stroke-width="1" stroke="#B35047" x1="0" x2="512" y1="320" y2="320"></line><line stroke-width="1" stroke="#B35047" x1="0" x2="512" y1="352" y2="352"></line><line stroke-width="1" stroke="#B35047" x1="0" x2="512" y1="384" y2="384"></line><line stroke-width="1" stroke="#B35047" x1="0" x2="512" y1="416" y2="416"></line><line stroke-width="1" stroke="#B35047" x1="0" x2="512" y1="448" y2="448"></line><line stroke-width="1" stroke="#B35047" x1="0" x2="512" y1="480" y2="480"></line><rect x="0" y="0" width="512" height="512" fill="none" stroke-width="1" stroke="#B35047"></rect></g><path d="M 496.00,480.00L 384.00,480.00L 384.00,464.00L 368.00,464.00L 368.00,480.00L 208.00,480.00L 208.00,464.00L 192.00,464.00L 192.00,480.00L 80.00,480.00L 80.00,464.00L 64.00,464.00L 64.00,480.00L 32.00,480.00L 32.00,336.00L 48.00,336.00L 48.00,320.00L 32.00,320.00L 32.00,208.00L 48.00,208.00L 48.00,192.00L 32.00,192.00L 32.00,80.00L 48.00,80.00L 48.00,64.00L 32.00,64.00L 32.00,0.00L0.00,0.00L0.00,512.00L 512.00,512.00L 512.00,464.00L 496.00,464.00 zM 220.00,196.00L 212.00,204.00L 212.00,330.059L 220.00,322.059 zM 204.00,212.00L 196.00,220.00L 196.00,346.059L 204.00,338.059 zM 188.00,354.059L 188.00,222.00L 180.00,218.00L 180.00,351.167L 187.261,354.798 zM 268.00,148.00L 260.00,156.00L 260.00,282.059L 268.00,274.059 zM 236.00,180.00L 228.00,188.00L 228.00,314.059L 236.00,306.059 zM 172.00,214.00L 164.00,210.00L 164.00,343.167L 172.00,347.167 zM 252.00,164.00L 244.00,172.00L 244.00,298.059L 252.00,290.059 zM 124.00,190.00L 116.00,186.00L 116.00,319.167L 124.00,323.167 zM 92.00,174.00L 84.00,170.00L 84.00,303.167L 92.00,307.167 zM 156.00,206.00L 148.00,202.00L 148.00,335.167L 156.00,339.167 zM 108.00,182.00L 100.00,178.00L 100.00,311.167L 108.00,315.167 zM 76.00,166.00L 68.00,162.00L 68.00,295.167L 76.00,299.167 zM 284.00,132.00L 276.00,140.00L 276.00,266.059L 284.00,258.059 zM 140.00,198.00L 132.00,194.00L 132.00,327.167L 140.00,331.167 zM 412.00,164.00L 404.00,172.00L 404.00,342.733L 412.00,330.733 zM 428.00,148.00L 420.00,156.00L 420.00,318.733L 428.00,306.733 zM 444.00,132.00L 436.00,140.00L 436.00,294.733L 444.00,282.733 zM 476.00,100.00L 468.00,108.00L 468.00,246.733L 476.00,234.733 zM 460.00,116.00L 452.00,124.00L 452.00,270.733L 460.00,258.733 zM 508.00,68.00L 500.00,76.00L 500.00,198.733L 508.00,186.733 zM 492.00,84.00L 484.00,92.00L 484.00,222.733L 492.00,210.733 zM 348.00,168.00L 340.00,162.667L 340.00,317.334L 348.00,328.00 zM 332.00,157.333L 324.00,152.00L 324.00,296.00L 332.00,306.667 zM 300.00,136.00L 292.00,130.667L 292.00,253.333L 300.00,264.00 zM 316.00,146.667L 308.00,141.333L 308.00,274.667L 316.00,285.334 zM 364.00,178.667L 356.00,173.333L 356.00,338.667L 364.00,349.334 zM 396.00,180.00L 388.00,188.00L 388.00,366.732L 396.00,354.733 zM 380.00,189.333L 372.00,184.00L 372.00,360.001L 380.00,370.667 zM 384.00,416.00L 288.00,288.00L 192.00,384.00L 64.00,320.00L 64.00,448.00L 512.00,448.00L 512.00,224.00 z" ></path></svg>