<?xml version="1.0" encoding="utf-8"?> <!-- Generator: IcoMoon.io --> <!DOCTYPE svg PUBLIC "-//W3C//DTD SVG 1.1//EN" "http://www.w3.org/Graphics/SVG/1.1/DTD/svg11.dtd"> <svg width="512" height="512" viewBox="0 0 512 512" xmlns="http://www.w3.org/2000/svg" xmlns:xlink="http://www.w3.org/1999/xlink" fill="#000000"><g class="svgGrid" id="svgGrid"><line stroke-width="1" stroke="#B35047" x1="32" x2="32" y1="0" y2="512"></line><line stroke-width="1" stroke="#B35047" x1="64" x2="64" y1="0" y2="512"></line><line stroke-width="1" stroke="#B35047" x1="96" x2="96" y1="0" y2="512"></line><line stroke-width="1" stroke="#B35047" x1="128" x2="128" y1="0" y2="512"></line><line stroke-width="1" stroke="#B35047" x1="160" x2="160" y1="0" y2="512"></line><line stroke-width="1" stroke="#B35047" x1="192" x2="192" y1="0" y2="512"></line><line stroke-width="1" stroke="#B35047" x1="224" x2="224" y1="0" y2="512"></line><line stroke-width="1" stroke="#B35047" x1="256" x2="256" y1="0" y2="512"></line><line stroke-width="1" stroke="#B35047" x1="288" x2="288" y1="0" y2="512"></line><line stroke-width="1" stroke="#B35047" x1="320" x2="320" y1="0" y2="512"></line><line stroke-width="1" stroke="#B35047" x1="352" x2="352" y1="0" y2="512"></line><line stroke-width="1" stroke="#B35047" x1="384" x2="384" y1="0" y2="512"></line><line stroke-width="1" stroke="#B35047" x1="416" x2="416" y1="0" y2="512"></line><line stroke-width="1" stroke="#B35047" x1="448" x2="448" y1="0" y2="512"></line><line stroke-width="1" stroke="#B35047" x1="480" x2="480" y1="0" y2="512"></line><line stroke-width="1" stroke="#B35047" x1="0" x2="512" y1="32" y2="32"></line><line stroke-width="1" stroke="#B35047" x1="0" x2="512" y1="64" y2="64"></line><line stroke-width="1" stroke="#B35047" x1="0" x2="512" y1="96" y2="96"></line><line stroke-width="1" stroke="#B35047" x1="0" x2="512" y1="128" y2="128"></line><line stroke-width="1" stroke="#B35047" x1="0" x2="512" y1="160" y2="160"></line><line stroke-width="1" stroke="#B35047" x1="0" x2="512" y1="192" y2="192"></line><line stroke-width="1" stroke="#B35047" x1="0" x2="512" y1="224" y2="224"></line><line stroke-width="1" stroke="#B35047" x1="0" x2="512" y1="256" y2="256"></line><line stroke-width="1" stroke="#B35047" x1="0" x2="512" y1="288" y2="288"></line><line stroke-width="1" stroke="#B35047" x1="0" x2="512" y1="320" y2="320"></line><line stroke-width="1" stroke="#B35047" x1="0" x2="512" y1="352" y2="352"></line><line stroke-width="1" stroke="#B35047" x1="0" x2="512" y1="384" y2="384"></line><line stroke-width="1" stroke="#B35047" x1="0" x2="512" y1="416" y2="416"></line><line stroke-width="1" stroke="#B35047" x1="0" x2="512" y1="448" y2="448"></line><line stroke-width="1" stroke="#B35047" x1="0" x2="512" y1="480" y2="480"></line><rect x="0" y="0" width="512" height="512" fill="none" stroke-width="1" stroke="#B35047"></rect></g><path d="M 286.745,180.00 L 278.745,188.00 L 233.255,188.00 L 225.254,180.00 ZM 310.744,156.00 L 201.254,156.00 L 193.254,148.00 L 318.744,148.00 ZM 294.745,172.00 L 217.254,172.00 L 209.254,164.00 L 302.744,164.00 ZM 326.744,140.00 L 185.254,140.00 L 177.254,132.00 L 334.744,132.00 ZM 249.255,204.00 L 241.255,196.00 L 270.745,196.00 L 262.745,204.00 ZM 241.255,316.00 L 249.255,308.00 L 262.745,308.00 L 270.745,316.00 ZM 209.254,348.00 L 217.254,340.00 L 294.745,340.00 L 302.744,348.00 ZM 185.254,372.00 L 326.744,372.00 L 334.744,380.00 L 177.254,380.00 ZM 201.254,356.00 L 310.744,356.00 L 318.744,364.00 L 193.254,364.00 ZM 233.255,324.00 L 278.745,324.00 L 286.745,332.00 L 225.254,332.00 ZM 256.00,32.00C 132.289,32.00, 32.00,132.288, 32.00,256.00s 100.289,224.00, 224.00,224.00c 123.712,0.00, 224.00-100.288, 224.00-224.00S 379.712,32.00, 256.00,32.00z M 448.00,256.00 c0.00,1.336-0.021,2.668-0.049,4.00L 305.255,260.00 l 8.00,8.00l 134.364,0.00 c-0.164,2.678-0.378,5.345-0.65,8.00L 321.255,276.00 l 8.00,8.00L 445.98,284.00 c-0.389,2.682-0.843,5.347-1.343,8.00L 337.255,292.00 l 8.001,8.00l 97.694,0.00 c-0.626,2.684-1.303,5.353-2.043,8.00l-87.651,0.00 l 8.00,8.00l 77.226,0.00 c-0.882,2.689-1.828,5.355-2.828,8.00l-66.397,0.00 l 8.00,8.00l 55.16,0.00 c-1.161,2.694-2.386,5.361-3.671,8.00l-43.489,0.00 l 5.372,5.372L 388.00,348.00l 36.609,0.00 c-1.479,2.701-3.023,5.368-4.636,8.00L 380.00,356.00 l-8.00,8.00l 42.796,0.00 c-1.852,2.71-3.776,5.377-5.773,8.00L 364.00,372.00 l-8.00,8.00l 46.591,0.00 c-2.31,2.721-4.694,5.392-7.167,8.00L 348.00,388.00 l-2.628,2.628L 342.744,388.00l-173.49,0.00 l-2.627,2.627L 164.00,388.00l-47.423,0.00 c-2.473-2.608-4.858-5.279-7.167-8.00L 156.00,380.00 l-8.00-8.00l-45.022,0.00 c-1.997-2.623-3.922-5.29-5.773-8.00L 140.00,364.00 l-8.00-8.00L 92.026,356.00 c-1.612-2.632-3.157-5.299-4.636-8.00L 124.00,348.00 l-2.628-2.628l 5.372-5.372L 83.255,340.00 c-1.286-2.639-2.51-5.306-3.671-8.00l 55.16,0.00 l 8.00-8.00L 76.347,324.00 c-1.00-2.645-1.947-5.311-2.828-8.00l 77.226,0.00 l 8.00-8.00L 71.093,308.00 c-0.74-2.647-1.417-5.316-2.043-8.00l 97.695,0.00 l 8.00-8.00L 67.362,292.00 c-0.50-2.653-0.954-5.318-1.343-8.00l 116.726,0.00 l 8.00-8.00L 65.032,276.00 c-0.273-2.655-0.487-5.322-0.651-8.00l 134.364,0.00 l 8.00-8.00L 64.049,260.00 c-0.027-1.332-0.049-2.664-0.049-4.00s 0.021-2.668, 0.049-4.00l 142.696,0.00 l-8.00-8.00L 64.381,244.00 c 0.164-2.677, 0.377-5.345, 0.651-8.00l 125.713,0.00 l-8.00-8.00L 66.019,228.00 c 0.39-2.682, 0.843-5.347, 1.343-8.00l 107.383,0.00 l-8.00-8.00L 69.049,212.00 c 0.626-2.684, 1.303-5.352, 2.043-8.00l 87.653,0.00 l-8.00-8.00L 73.519,196.00 c 0.881-2.689, 1.829-5.355, 2.829-8.00l 66.399,0.00 l-8.00-8.00L 79.584,180.00 c 1.162-2.694, 2.386-5.361, 3.671-8.00l 43.491,0.00 l-5.373-5.373L 124.00,164.00L 87.391,164.00 c 1.479-2.701, 3.024-5.368, 4.636-8.00L 132.00,156.00 l 8.00-8.00L 97.205,148.00 c 1.851-2.71, 3.776-5.377, 5.773-8.00L 148.00,140.00 l 8.00-8.00l-46.59,0.00 c 2.309-2.721, 4.694-5.392, 7.167-8.00 L 164.00,124.00 l 2.627-2.627l 2.627,2.627l 173.49,0.00 l 2.628-2.628L 348.00,124.00l 47.424,0.00 c 2.473,2.608, 4.857,5.279, 7.167,8.00L 356.00,132.00 l 8.00,8.00l 45.021,0.00 c 1.997,2.623, 3.923,5.29, 5.773,8.00l-42.794,0.00 l 8.00,8.00l 39.973,0.00 c 1.612,2.632, 3.157,5.299, 4.636,8.00l-36.608,0.00 l 2.627,2.627L 385.255,172.00l 43.489,0.00 c 1.286,2.639, 2.511,5.306, 3.672,8.00l-55.161,0.00 l-8.00,8.00l 66.398,0.00 c 1.00,2.645, 1.946,5.311, 2.828,8.00l-77.227,0.00 l-8.00,8.00l 87.652,0.00 c 0.74,2.648, 1.417,5.316, 2.043,8.00l-97.695,0.00 l-8.00,8.00l 107.383,0.00 c 0.50,2.653, 0.954,5.318, 1.343,8.00L 329.255,228.00 l-8.00,8.00l 125.714,0.00 c 0.272,2.655, 0.486,5.323, 0.65,8.00L 313.255,244.00 l-8.00,8.00l 142.696,0.00 C 447.979,253.332, 448.00,254.664, 448.00,256.00z M 188.934,436.00 c-6.289-2.34-12.45-5.005-18.459-8.00l 171.05,0.00 c-6.01,2.995-12.171,5.66-18.459,8.00L 188.934,436.00 z M 295.231,444.00 c-12.767,2.637-25.894,4.00-39.231,4.00s-26.465-1.363-39.231-4.00L 295.231,444.00 z M 156.042,420.00c-4.096-2.507-8.106-5.176-12.024-8.00l 223.963,0.00 c-3.917,2.824-7.927,5.493-12.023,8.00L 156.042,420.00 z M 133.674,404.00c-3.088-2.562-6.106-5.23-9.053-8.00L 387.38,396.00 c-2.947,2.77-5.965,5.438-9.054,8.00L 133.674,404.00 z M 323.066,76.00c 6.288,2.339, 12.449,5.005, 18.459,8.00l-171.05,0.00 c 6.009-2.995, 12.17-5.661, 18.459-8.00L 323.066,76.00 z M 216.769,68.00c 12.767-2.637, 25.894-4.00, 39.231-4.00s 26.465,1.363, 39.231,4.00L 216.769,68.00 z M 355.958,92.00c 4.097,2.507, 8.106,5.175, 12.023,8.00L 144.019,100.00 c 3.918-2.825, 7.928-5.493, 12.024-8.00L 355.958,92.00 z M 378.326,108.00 c 3.089,2.562, 6.106,5.23, 9.054,8.00L 124.621,116.00 c 2.947-2.77, 5.965-5.438, 9.053-8.00L 378.326,108.00 z" ></path></svg>