<?xml version="1.0" encoding="utf-8"?> <!-- Generator: IcoMoon.io --> <!DOCTYPE svg PUBLIC "-//W3C//DTD SVG 1.1//EN" "http://www.w3.org/Graphics/SVG/1.1/DTD/svg11.dtd"> <svg width="512" height="512" viewBox="0 0 512 512" xmlns="http://www.w3.org/2000/svg" xmlns:xlink="http://www.w3.org/1999/xlink" fill="#000000"><g class="svgGrid" id="svgGrid"><line stroke-width="1" stroke="#B35047" x1="32" x2="32" y1="0" y2="512"></line><line stroke-width="1" stroke="#B35047" x1="64" x2="64" y1="0" y2="512"></line><line stroke-width="1" stroke="#B35047" x1="96" x2="96" y1="0" y2="512"></line><line stroke-width="1" stroke="#B35047" x1="128" x2="128" y1="0" y2="512"></line><line stroke-width="1" stroke="#B35047" x1="160" x2="160" y1="0" y2="512"></line><line stroke-width="1" stroke="#B35047" x1="192" x2="192" y1="0" y2="512"></line><line stroke-width="1" stroke="#B35047" x1="224" x2="224" y1="0" y2="512"></line><line stroke-width="1" stroke="#B35047" x1="256" x2="256" y1="0" y2="512"></line><line stroke-width="1" stroke="#B35047" x1="288" x2="288" y1="0" y2="512"></line><line stroke-width="1" stroke="#B35047" x1="320" x2="320" y1="0" y2="512"></line><line stroke-width="1" stroke="#B35047" x1="352" x2="352" y1="0" y2="512"></line><line stroke-width="1" stroke="#B35047" x1="384" x2="384" y1="0" y2="512"></line><line stroke-width="1" stroke="#B35047" x1="416" x2="416" y1="0" y2="512"></line><line stroke-width="1" stroke="#B35047" x1="448" x2="448" y1="0" y2="512"></line><line stroke-width="1" stroke="#B35047" x1="480" x2="480" y1="0" y2="512"></line><line stroke-width="1" stroke="#B35047" x1="0" x2="512" y1="32" y2="32"></line><line stroke-width="1" stroke="#B35047" x1="0" x2="512" y1="64" y2="64"></line><line stroke-width="1" stroke="#B35047" x1="0" x2="512" y1="96" y2="96"></line><line stroke-width="1" stroke="#B35047" x1="0" x2="512" y1="128" y2="128"></line><line stroke-width="1" stroke="#B35047" x1="0" x2="512" y1="160" y2="160"></line><line stroke-width="1" stroke="#B35047" x1="0" x2="512" y1="192" y2="192"></line><line stroke-width="1" stroke="#B35047" x1="0" x2="512" y1="224" y2="224"></line><line stroke-width="1" stroke="#B35047" x1="0" x2="512" y1="256" y2="256"></line><line stroke-width="1" stroke="#B35047" x1="0" x2="512" y1="288" y2="288"></line><line stroke-width="1" stroke="#B35047" x1="0" x2="512" y1="320" y2="320"></line><line stroke-width="1" stroke="#B35047" x1="0" x2="512" y1="352" y2="352"></line><line stroke-width="1" stroke="#B35047" x1="0" x2="512" y1="384" y2="384"></line><line stroke-width="1" stroke="#B35047" x1="0" x2="512" y1="416" y2="416"></line><line stroke-width="1" stroke="#B35047" x1="0" x2="512" y1="448" y2="448"></line><line stroke-width="1" stroke="#B35047" x1="0" x2="512" y1="480" y2="480"></line><rect x="0" y="0" width="512" height="512" fill="none" stroke-width="1" stroke="#B35047"></rect></g><path d="M 446.133,257.245C 447.356,251.691, 448.00,245.922, 448.00,240.00c0.00-44.183-35.817-80.00-80.00-80.00c-7.112,0.00-14.008,0.934-20.568,2.676 C 335.035,124.00, 298.789,96.00, 256.00,96.00c-43.674,0.00-80.527,29.168-92.164,69.085C 152.465,161.775, 140.44,160.00, 128.00,160.00 C 57.307,160.00,0.00,217.308,0.00,288.00c0.00,70.693, 57.307,128.00, 128.00,128.00l 304.00,0.00 c 44.182,0.00, 80.00-35.816, 80.00-80.00C 512.00,296.641, 483.573,263.92, 446.133,257.245 z M 432.00,384.077L 432.00,384.00 L 128.00,384.00 c-53.021,0.00-96.00-42.98-96.00-96.00c0.00-53.019, 42.979-96.00, 96.00-96.00c 31.404,0.00, 59.288,15.083, 76.803,38.398l 25.601-19.201 c-9.993-13.305-22.521-24.596-36.864-33.163C 199.911,149.406, 225.452,128.00, 256.00,128.00c 35.346,0.00, 64.00,28.654, 64.00,64.00 c0.00,8.942-1.839,17.454-5.148,25.184l 29.426,12.593c 4.627-10.799, 7.33-22.615, 7.68-35.021C 356.975,192.976, 362.371,192.00, 368.00,192.00 c 26.51,0.00, 48.00,21.49, 48.00,48.00c0.00,6.541-1.316,12.773-3.688,18.455c-8.925,2.261-17.256,6.009-24.701,10.982l 17.70,26.567 c 7.635-5.104, 16.813-8.083, 26.688-8.083c 26.554,0.00, 48.075,21.523, 48.075,48.076C 480.074,362.553, 458.553,384.077, 432.00,384.077z" ></path></svg>