<?xml version="1.0" encoding="utf-8"?> <!-- Generator: IcoMoon.io --> <!DOCTYPE svg PUBLIC "-//W3C//DTD SVG 1.1//EN" "http://www.w3.org/Graphics/SVG/1.1/DTD/svg11.dtd"> <svg width="512" height="512" viewBox="0 0 512 512" xmlns="http://www.w3.org/2000/svg" xmlns:xlink="http://www.w3.org/1999/xlink" fill="#000000"><g class="svgGrid" id="svgGrid"><line stroke-width="1" stroke="#B35047" x1="32" x2="32" y1="0" y2="512"></line><line stroke-width="1" stroke="#B35047" x1="64" x2="64" y1="0" y2="512"></line><line stroke-width="1" stroke="#B35047" x1="96" x2="96" y1="0" y2="512"></line><line stroke-width="1" stroke="#B35047" x1="128" x2="128" y1="0" y2="512"></line><line stroke-width="1" stroke="#B35047" x1="160" x2="160" y1="0" y2="512"></line><line stroke-width="1" stroke="#B35047" x1="192" x2="192" y1="0" y2="512"></line><line stroke-width="1" stroke="#B35047" x1="224" x2="224" y1="0" y2="512"></line><line stroke-width="1" stroke="#B35047" x1="256" x2="256" y1="0" y2="512"></line><line stroke-width="1" stroke="#B35047" x1="288" x2="288" y1="0" y2="512"></line><line stroke-width="1" stroke="#B35047" x1="320" x2="320" y1="0" y2="512"></line><line stroke-width="1" stroke="#B35047" x1="352" x2="352" y1="0" y2="512"></line><line stroke-width="1" stroke="#B35047" x1="384" x2="384" y1="0" y2="512"></line><line stroke-width="1" stroke="#B35047" x1="416" x2="416" y1="0" y2="512"></line><line stroke-width="1" stroke="#B35047" x1="448" x2="448" y1="0" y2="512"></line><line stroke-width="1" stroke="#B35047" x1="480" x2="480" y1="0" y2="512"></line><line stroke-width="1" stroke="#B35047" x1="0" x2="512" y1="32" y2="32"></line><line stroke-width="1" stroke="#B35047" x1="0" x2="512" y1="64" y2="64"></line><line stroke-width="1" stroke="#B35047" x1="0" x2="512" y1="96" y2="96"></line><line stroke-width="1" stroke="#B35047" x1="0" x2="512" y1="128" y2="128"></line><line stroke-width="1" stroke="#B35047" x1="0" x2="512" y1="160" y2="160"></line><line stroke-width="1" stroke="#B35047" x1="0" x2="512" y1="192" y2="192"></line><line stroke-width="1" stroke="#B35047" x1="0" x2="512" y1="224" y2="224"></line><line stroke-width="1" stroke="#B35047" x1="0" x2="512" y1="256" y2="256"></line><line stroke-width="1" stroke="#B35047" x1="0" x2="512" y1="288" y2="288"></line><line stroke-width="1" stroke="#B35047" x1="0" x2="512" y1="320" y2="320"></line><line stroke-width="1" stroke="#B35047" x1="0" x2="512" y1="352" y2="352"></line><line stroke-width="1" stroke="#B35047" x1="0" x2="512" y1="384" y2="384"></line><line stroke-width="1" stroke="#B35047" x1="0" x2="512" y1="416" y2="416"></line><line stroke-width="1" stroke="#B35047" x1="0" x2="512" y1="448" y2="448"></line><line stroke-width="1" stroke="#B35047" x1="0" x2="512" y1="480" y2="480"></line><rect x="0" y="0" width="512" height="512" fill="none" stroke-width="1" stroke="#B35047"></rect></g><path d="M 316.576,512.00L 195.423,512.00 l-12.202-73.212c-1.679-0.669-3.35-1.36-5.01-2.075l-60.396,43.141l-85.669-85.667l 43.058-60.281 c-0.738-1.707-1.453-3.425-2.142-5.152L0.00,316.575L0.00,195.423 l 72.868-12.144c 0.711-1.795, 1.45-3.582, 2.213-5.355l-42.935-60.108 l 85.669-85.669l 59.991,42.851c 1.821-0.788, 3.654-1.549, 5.499-2.282L 195.423,0.00l 121.153,0.00 l 12.119,72.715 c 1.845,0.733, 3.679,1.494, 5.499,2.282l 59.991-42.851l 85.668,85.669l-42.936,60.107c 0.765,1.774, 1.503,3.561, 2.214,5.357 L 512.00,195.423l0.00,121.152 l-73.062,12.178c-0.689,1.728-1.403,3.445-2.142,5.151l 43.058,60.281l-85.668,85.668l-60.397-43.141 c-1.661,0.714-3.331,1.405-5.011,2.074L 316.576,512.00z M 227.615,474.00l 56.77,0.00 l 10.617-63.705l 10.894-3.60 c 7.31-2.416, 14.506-5.396, 21.389-8.856l 10.246-5.151l 52.548,37.533l 40.143-40.143l-37.479-52.472l 5.184-10.26 c 3.493-6.913, 6.502-14.146, 8.941-21.499l 3.608-10.874L 474.00,284.385l0.00-56.771 l-63.402-10.567l-3.589-10.92 c-2.438-7.423-5.454-14.721-8.963-21.69l-5.158-10.25l 37.333-52.265l-40.143-40.144l-52.191,37.279l-10.262-5.192 c-6.998-3.541-14.333-6.584-21.801-9.048l-10.902-3.596L 284.385,38.00l-56.77,0.00 l-10.537,63.222l-10.902,3.596 c-7.465,2.463-14.799,5.507-21.799,9.049l-10.262,5.192l-52.192-37.28l-40.144,40.144l 37.333,52.266l-5.158,10.249 c-3.508,6.971-6.523,14.268-8.962,21.69l-3.588,10.921L 38.00,227.615l0.00,56.77 l 63.526,10.589l 3.607,10.876 c 2.437,7.346, 5.445,14.578, 8.941,21.496l 5.185,10.26l-37.481,52.474l 40.144,40.142l 52.549-37.534l 10.247,5.154 c 6.877,3.459, 14.073,6.438, 21.385,8.855l 10.894,3.60L 227.615,474.00zM 272.00,192.00l-32.00,0.00 c-26.40,0.00-48.00,21.60-48.00,48.00l0.00,32.00 c0.00,26.40, 21.60,48.00, 48.00,48.00l 32.00,0.00 c 26.40,0.00, 48.00-21.60, 48.00-48.00l0.00-32.00 C 320.00,213.60, 298.40,192.00, 272.00,192.00z M 288.00,272.00c0.00,8.80-7.20,16.00-16.00,16.00l-32.00,0.00 c-8.80,0.00-16.00-7.20-16.00-16.00l0.00-32.00 c0.00-8.80, 7.20-16.00, 16.00-16.00l 32.00,0.00 c 8.80,0.00, 16.00,7.20, 16.00,16.00L 288.00,272.00 z" ></path></svg>