<?xml version="1.0" encoding="utf-8"?> <!-- Generator: IcoMoon.io --> <!DOCTYPE svg PUBLIC "-//W3C//DTD SVG 1.1//EN" "http://www.w3.org/Graphics/SVG/1.1/DTD/svg11.dtd"> <svg width="512" height="512" viewBox="0 0 512 512" xmlns="http://www.w3.org/2000/svg" xmlns:xlink="http://www.w3.org/1999/xlink" fill="#000000"><g class="svgGrid" id="svgGrid"><line stroke-width="1" stroke="#B35047" x1="32" x2="32" y1="0" y2="512"></line><line stroke-width="1" stroke="#B35047" x1="64" x2="64" y1="0" y2="512"></line><line stroke-width="1" stroke="#B35047" x1="96" x2="96" y1="0" y2="512"></line><line stroke-width="1" stroke="#B35047" x1="128" x2="128" y1="0" y2="512"></line><line stroke-width="1" stroke="#B35047" x1="160" x2="160" y1="0" y2="512"></line><line stroke-width="1" stroke="#B35047" x1="192" x2="192" y1="0" y2="512"></line><line stroke-width="1" stroke="#B35047" x1="224" x2="224" y1="0" y2="512"></line><line stroke-width="1" stroke="#B35047" x1="256" x2="256" y1="0" y2="512"></line><line stroke-width="1" stroke="#B35047" x1="288" x2="288" y1="0" y2="512"></line><line stroke-width="1" stroke="#B35047" x1="320" x2="320" y1="0" y2="512"></line><line stroke-width="1" stroke="#B35047" x1="352" x2="352" y1="0" y2="512"></line><line stroke-width="1" stroke="#B35047" x1="384" x2="384" y1="0" y2="512"></line><line stroke-width="1" stroke="#B35047" x1="416" x2="416" y1="0" y2="512"></line><line stroke-width="1" stroke="#B35047" x1="448" x2="448" y1="0" y2="512"></line><line stroke-width="1" stroke="#B35047" x1="480" x2="480" y1="0" y2="512"></line><line stroke-width="1" stroke="#B35047" x1="0" x2="512" y1="32" y2="32"></line><line stroke-width="1" stroke="#B35047" x1="0" x2="512" y1="64" y2="64"></line><line stroke-width="1" stroke="#B35047" x1="0" x2="512" y1="96" y2="96"></line><line stroke-width="1" stroke="#B35047" x1="0" x2="512" y1="128" y2="128"></line><line stroke-width="1" stroke="#B35047" x1="0" x2="512" y1="160" y2="160"></line><line stroke-width="1" stroke="#B35047" x1="0" x2="512" y1="192" y2="192"></line><line stroke-width="1" stroke="#B35047" x1="0" x2="512" y1="224" y2="224"></line><line stroke-width="1" stroke="#B35047" x1="0" x2="512" y1="256" y2="256"></line><line stroke-width="1" stroke="#B35047" x1="0" x2="512" y1="288" y2="288"></line><line stroke-width="1" stroke="#B35047" x1="0" x2="512" y1="320" y2="320"></line><line stroke-width="1" stroke="#B35047" x1="0" x2="512" y1="352" y2="352"></line><line stroke-width="1" stroke="#B35047" x1="0" x2="512" y1="384" y2="384"></line><line stroke-width="1" stroke="#B35047" x1="0" x2="512" y1="416" y2="416"></line><line stroke-width="1" stroke="#B35047" x1="0" x2="512" y1="448" y2="448"></line><line stroke-width="1" stroke="#B35047" x1="0" x2="512" y1="480" y2="480"></line><rect x="0" y="0" width="512" height="512" fill="none" stroke-width="1" stroke="#B35047"></rect></g><path d="M 335.333,158.667c-11.648,0.00-23.03,1.14-34.049,3.292c-0.873-0.659-1.763-1.314-2.694-1.958 c 13.614-9.414, 21.41-20.342, 21.41-32.00L 320.00,96.00 c0.00-35.346-71.634-64.00-160.00-64.00S0.00,60.654,0.00,96.00l0.00,32.00 c0.00,11.658, 7.796,22.586, 21.41,32.00 C 7.796,169.414,0.00,180.342,0.00,192.00l0.00,32.00 c0.00,11.658, 7.796,22.586, 21.411,32.00C 7.796,265.414,0.00,276.343,0.00,288.00l0.00,32.00 c0.00,11.658, 7.796,22.586, 21.41,32.00C 7.796,361.414,0.00,372.343,0.00,384.00l0.00,32.00 c0.00,35.347, 71.634,64.00, 160.00,64.00c 23.616,0.00, 46.021-2.057, 66.20-5.73 C 256.244,497.902, 294.143,512.00, 335.333,512.00C 432.904,512.00, 512.00,432.903, 512.00,335.333C 512.00,237.763, 432.904,158.667, 335.333,158.667z M 16.00,96.00c0.00-9.523, 14.447-21.456, 36.805-30.399C 81.18,54.251, 119.25,48.00, 160.00,48.00s 78.82,6.251, 107.195,17.601 C 289.553,74.544, 304.00,86.477, 304.00,96.00s-14.447,21.456-36.805,30.399c-9.23,3.692-19.492,6.841-30.533,9.414 C 213.763,141.15, 187.495,144.00, 160.00,144.00s-53.763-2.85-76.663-8.187c-11.041-2.573-21.302-5.722-30.532-9.414 C 30.447,117.456, 16.00,105.523, 16.00,96.00z M 16.00,288.00c0.00-7.067, 7.961-15.46, 21.203-22.975C 66.553,279.066, 110.666,288.00, 160.00,288.00 c 1.71,0.00, 3.406-0.023, 5.102-0.047c-4.188,15.08-6.436,30.967-6.436,47.38c0.00,0.22, 0.007,0.438, 0.008,0.658 c-27.013-0.09-52.808-2.927-75.339-8.178c-11.04-2.573-21.301-5.722-30.531-9.413C 30.447,309.457, 16.00,297.523, 16.00,288.00z M 160.00,432.00 c-40.75,0.00-78.82-6.25-107.195-17.60C 30.447,405.457, 16.00,393.523, 16.00,384.00c0.00-7.067, 7.961-15.46, 21.203-22.975 C 66.553,375.066, 110.666,384.00, 160.00,384.00c 1.824,0.00, 3.635-0.023, 5.443-0.05c 4.82,16.873, 12.088,32.713, 21.391,47.114 C 178.073,431.677, 169.108,432.00, 160.00,432.00z M 160.00,240.00c-27.494,0.00-53.763-2.85-76.662-8.187c-11.041-2.573-21.303-5.722-30.533-9.414 C 30.447,213.456, 16.00,201.523, 16.00,192.00c0.00-7.067, 7.961-15.46, 21.202-22.975C 66.552,183.066, 110.665,192.00, 160.00,192.00 c 32.961,0.00, 63.569-4.001, 89.022-10.836c-24.988,14.02-46.22,33.935-61.811,57.865C 178.33,239.66, 169.241,240.00, 160.00,240.00z M 335.333,479.879c-79.83,0.00-144.545-64.715-144.545-144.546c0.00-79.83, 64.715-144.545, 144.545-144.545 c 79.831,0.00, 144.546,64.715, 144.546,144.545C 479.879,415.164, 415.164,479.879, 335.333,479.879zM 352.00,224.00l-32.00,0.00 l0.00,32.00 l-64.00,0.00 l0.00,96.00 l 64.00,0.00 l0.00,32.00 l-64.00,0.00 l0.00,32.00 l 64.00,0.00 l0.00,32.00 l 32.00,0.00 l0.00-32.00 l 64.00,0.00 l0.00-96.00 l-64.00,0.00 l0.00-32.00 l 64.00,0.00 l0.00-32.00 l-64.00,0.00 L 352.00,224.00 z M 320.00,320.00l-32.00,0.00 l0.00-32.00 l 32.00,0.00 L 320.00,320.00 z M 384.00,352.00l0.00,32.00 l-32.00,0.00 l0.00-32.00 L 384.00,352.00 z" ></path></svg>