<?xml version="1.0" encoding="utf-8"?> <!-- Generator: IcoMoon.io --> <!DOCTYPE svg PUBLIC "-//W3C//DTD SVG 1.1//EN" "http://www.w3.org/Graphics/SVG/1.1/DTD/svg11.dtd"> <svg width="512" height="512" viewBox="0 0 512 512" xmlns="http://www.w3.org/2000/svg" xmlns:xlink="http://www.w3.org/1999/xlink" fill="#000000"><g class="svgGrid" id="svgGrid"><line stroke-width="1" stroke="#B35047" x1="32" x2="32" y1="0" y2="512"></line><line stroke-width="1" stroke="#B35047" x1="64" x2="64" y1="0" y2="512"></line><line stroke-width="1" stroke="#B35047" x1="96" x2="96" y1="0" y2="512"></line><line stroke-width="1" stroke="#B35047" x1="128" x2="128" y1="0" y2="512"></line><line stroke-width="1" stroke="#B35047" x1="160" x2="160" y1="0" y2="512"></line><line stroke-width="1" stroke="#B35047" x1="192" x2="192" y1="0" y2="512"></line><line stroke-width="1" stroke="#B35047" x1="224" x2="224" y1="0" y2="512"></line><line stroke-width="1" stroke="#B35047" x1="256" x2="256" y1="0" y2="512"></line><line stroke-width="1" stroke="#B35047" x1="288" x2="288" y1="0" y2="512"></line><line stroke-width="1" stroke="#B35047" x1="320" x2="320" y1="0" y2="512"></line><line stroke-width="1" stroke="#B35047" x1="352" x2="352" y1="0" y2="512"></line><line stroke-width="1" stroke="#B35047" x1="384" x2="384" y1="0" y2="512"></line><line stroke-width="1" stroke="#B35047" x1="416" x2="416" y1="0" y2="512"></line><line stroke-width="1" stroke="#B35047" x1="448" x2="448" y1="0" y2="512"></line><line stroke-width="1" stroke="#B35047" x1="480" x2="480" y1="0" y2="512"></line><line stroke-width="1" stroke="#B35047" x1="0" x2="512" y1="32" y2="32"></line><line stroke-width="1" stroke="#B35047" x1="0" x2="512" y1="64" y2="64"></line><line stroke-width="1" stroke="#B35047" x1="0" x2="512" y1="96" y2="96"></line><line stroke-width="1" stroke="#B35047" x1="0" x2="512" y1="128" y2="128"></line><line stroke-width="1" stroke="#B35047" x1="0" x2="512" y1="160" y2="160"></line><line stroke-width="1" stroke="#B35047" x1="0" x2="512" y1="192" y2="192"></line><line stroke-width="1" stroke="#B35047" x1="0" x2="512" y1="224" y2="224"></line><line stroke-width="1" stroke="#B35047" x1="0" x2="512" y1="256" y2="256"></line><line stroke-width="1" stroke="#B35047" x1="0" x2="512" y1="288" y2="288"></line><line stroke-width="1" stroke="#B35047" x1="0" x2="512" y1="320" y2="320"></line><line stroke-width="1" stroke="#B35047" x1="0" x2="512" y1="352" y2="352"></line><line stroke-width="1" stroke="#B35047" x1="0" x2="512" y1="384" y2="384"></line><line stroke-width="1" stroke="#B35047" x1="0" x2="512" y1="416" y2="416"></line><line stroke-width="1" stroke="#B35047" x1="0" x2="512" y1="448" y2="448"></line><line stroke-width="1" stroke="#B35047" x1="0" x2="512" y1="480" y2="480"></line><rect x="0" y="0" width="512" height="512" fill="none" stroke-width="1" stroke="#B35047"></rect></g><path d="M 432.00,256.00l-16.104,0.00 c 0.062-2.658, 0.104-5.323, 0.104-8.00c0.00-1.927-0.026-3.846-0.062-5.762c 0.037-0.744, 0.062-1.49, 0.062-2.238 c0.00-41.61-57.363-77.033-137.579-90.353c-2.896-5.198-6.102-10.012-9.108-14.522C 262.169,124.41, 256.00,115.156, 256.00,105.00 c0.00-12.191, 9.189-27.562, 27.313-45.687c 6.249-6.248, 6.249-16.379,0.00-22.627c-6.248-6.249-16.379-6.249-22.627,0.00 c-51.436,51.435-38.372,84.139-23.169,108.28C 227.874,144.334, 218.022,144.00, 208.00,144.00c-9.622,0.00-19.086,0.309-28.361,0.892 c-2.092-3.417-4.257-6.664-6.326-9.767C 166.169,124.41, 160.00,115.156, 160.00,105.00c0.00-12.191, 9.189-27.562, 27.313-45.687 c 6.249-6.248, 6.249-16.379,0.00-22.627c-6.248-6.249-16.379-6.249-22.627,0.00c-54.103,54.102-36.845,87.48-20.796,111.968 C 60.39,161.129,0.00,197.307,0.00,240.00c0.00,0.749, 0.024,1.494, 0.062,2.238C 0.026,244.154,0.00,246.073,0.00,248.00c0.00,145.803, 93.125,264.00, 208.00,264.00 c 64.591,0.00, 122.305-37.368, 160.455-96.00L 432.00,416.00 c 44.183,0.00, 80.00-35.817, 80.00-80.00S 476.183,256.00, 432.00,256.00z M 208.00,288.00c-79.529,0.00-144.00-21.49-144.00-48.00 c0.00-20.577, 38.848-38.127, 93.427-44.953c-3.882,9.791-12.15,21.049-24.74,33.64c-6.249,6.248-6.249,16.379,0.00,22.627 C 135.811,254.438, 139.905,256.00, 144.00,256.00s 8.189-1.562, 11.313-4.687c 23.148-23.148, 33.229-42.501, 35.935-58.988 C 196.745,192.113, 202.333,192.00, 208.00,192.00c 15.954,0.00, 31.299,0.867, 45.642,2.463c-3.779,9.926-12.112,21.379-24.956,34.223 c-6.249,6.248-6.249,16.379,0.00,22.627C 231.811,254.438, 235.905,256.00, 240.00,256.00s 8.189-1.562, 11.313-4.687 c 19.844-19.844, 30.083-36.898, 34.307-51.75C 325.544,208.096, 352.00,223.018, 352.00,240.00C 352.00,266.51, 287.529,288.00, 208.00,288.00z M 432.00,384.00l-45.697,0.00 c 13.696-28.864, 23.17-61.321, 27.323-96.00L 432.00,288.00 c 23.159,0.00, 42.00,24.841, 42.00,48.00S 455.159,384.00, 432.00,384.00z" ></path></svg>