<?xml version="1.0" encoding="utf-8"?> <!-- Generator: IcoMoon.io --> <!DOCTYPE svg PUBLIC "-//W3C//DTD SVG 1.1//EN" "http://www.w3.org/Graphics/SVG/1.1/DTD/svg11.dtd"> <svg width="512" height="512" viewBox="0 0 512 512" xmlns="http://www.w3.org/2000/svg" xmlns:xlink="http://www.w3.org/1999/xlink" fill="#000000"><g class="svgGrid" id="svgGrid"><line stroke-width="1" stroke="#B35047" x1="32" x2="32" y1="0" y2="512"></line><line stroke-width="1" stroke="#B35047" x1="64" x2="64" y1="0" y2="512"></line><line stroke-width="1" stroke="#B35047" x1="96" x2="96" y1="0" y2="512"></line><line stroke-width="1" stroke="#B35047" x1="128" x2="128" y1="0" y2="512"></line><line stroke-width="1" stroke="#B35047" x1="160" x2="160" y1="0" y2="512"></line><line stroke-width="1" stroke="#B35047" x1="192" x2="192" y1="0" y2="512"></line><line stroke-width="1" stroke="#B35047" x1="224" x2="224" y1="0" y2="512"></line><line stroke-width="1" stroke="#B35047" x1="256" x2="256" y1="0" y2="512"></line><line stroke-width="1" stroke="#B35047" x1="288" x2="288" y1="0" y2="512"></line><line stroke-width="1" stroke="#B35047" x1="320" x2="320" y1="0" y2="512"></line><line stroke-width="1" stroke="#B35047" x1="352" x2="352" y1="0" y2="512"></line><line stroke-width="1" stroke="#B35047" x1="384" x2="384" y1="0" y2="512"></line><line stroke-width="1" stroke="#B35047" x1="416" x2="416" y1="0" y2="512"></line><line stroke-width="1" stroke="#B35047" x1="448" x2="448" y1="0" y2="512"></line><line stroke-width="1" stroke="#B35047" x1="480" x2="480" y1="0" y2="512"></line><line stroke-width="1" stroke="#B35047" x1="0" x2="512" y1="32" y2="32"></line><line stroke-width="1" stroke="#B35047" x1="0" x2="512" y1="64" y2="64"></line><line stroke-width="1" stroke="#B35047" x1="0" x2="512" y1="96" y2="96"></line><line stroke-width="1" stroke="#B35047" x1="0" x2="512" y1="128" y2="128"></line><line stroke-width="1" stroke="#B35047" x1="0" x2="512" y1="160" y2="160"></line><line stroke-width="1" stroke="#B35047" x1="0" x2="512" y1="192" y2="192"></line><line stroke-width="1" stroke="#B35047" x1="0" x2="512" y1="224" y2="224"></line><line stroke-width="1" stroke="#B35047" x1="0" x2="512" y1="256" y2="256"></line><line stroke-width="1" stroke="#B35047" x1="0" x2="512" y1="288" y2="288"></line><line stroke-width="1" stroke="#B35047" x1="0" x2="512" y1="320" y2="320"></line><line stroke-width="1" stroke="#B35047" x1="0" x2="512" y1="352" y2="352"></line><line stroke-width="1" stroke="#B35047" x1="0" x2="512" y1="384" y2="384"></line><line stroke-width="1" stroke="#B35047" x1="0" x2="512" y1="416" y2="416"></line><line stroke-width="1" stroke="#B35047" x1="0" x2="512" y1="448" y2="448"></line><line stroke-width="1" stroke="#B35047" x1="0" x2="512" y1="480" y2="480"></line><rect x="0" y="0" width="512" height="512" fill="none" stroke-width="1" stroke="#B35047"></rect></g><path d="M 448.18,80.00l-0.184,0.114C 447.997,80.076, 448.00,80.038, 448.00,80.00c0.00-44.183-85.961-80.00-192.00-80.00C 149.961,0.00, 64.00,35.817, 64.00,80.00 c0.00,0.039, 0.003,0.076, 0.003,0.115L 63.82,80.00l0.00,348.00 l 0.456-0.285C 64.096,429.134, 64.00,430.562, 64.00,432.00c0.00,44.183, 85.961,80.00, 192.00,80.00 c 106.039,0.00, 192.00-35.817, 192.00-80.00c0.00-1.438-0.096-2.865-0.275-4.284L 448.18,428.00L 448.18,80.00 z M 416.00,432.00c0.00,0.658-0.446,2.035-1.806,4.00L 97.807,436.00 c-1.36-1.965-1.807-3.342-1.807-4.00s 0.446-2.035, 1.807-4.00l 316.388,0.00 C 415.554,429.965, 416.00,431.342, 416.00,432.00z M 159.058,468.00 c-8.613-2.354-16.697-5.029-24.126-8.00l 242.136,0.00 c-7.429,2.971-15.514,5.646-24.126,8.00L 159.058,468.00 z M 313.593,476.00 c-18.341,2.613-37.831,4.00-57.593,4.00s-39.252-1.387-57.593-4.00L 313.593,476.00 z M 117.876,452.00c-5.219-2.896-9.191-5.618-12.176-8.00L 406.30,444.00 c-2.985,2.382-6.957,5.104-12.177,8.00L 117.876,452.00 z M 95.82,124.114c 4.375,2.752, 9.145,5.386, 14.282,7.886L 95.82,132.00 L 95.82,124.114 z M 95.82,140.00 l 33.201,0.00 c 8.035,2.955, 16.667,5.633, 25.813,8.00L 95.82,148.00 L 95.82,140.00 z M 95.82,364.00l 59.014,0.00 c-9.146,2.367-17.778,5.045-25.813,8.00L 95.82,372.00 L 95.82,364.00 z M 198.407,388.00c 18.341-2.613, 37.831-4.00, 57.593-4.00s 39.252,1.387, 57.593,4.00L 198.407,388.00 z M 352.942,396.00c 8.612,2.354, 16.697,5.029, 24.126,8.00 L 134.932,404.00 c 7.429-2.971, 15.513-5.646, 24.126-8.00L 352.942,396.00 z M 95.82,387.886L 95.82,380.00 l 14.282,0.00 C 104.965,382.50, 100.195,385.133, 95.82,387.886z M 105.701,420.00c 2.985-2.382, 6.957-5.104, 12.176-8.00l 276.247,0.00 c 5.22,2.896, 9.191,5.618, 12.177,8.00L 105.701,420.00 z M 416.18,387.886 c-4.375-2.753-9.145-5.386-14.281-7.886l 14.281,0.00 L 416.18,387.886 z M 416.18,372.00L 382.98,372.00 c-8.036-2.955-16.668-5.633-25.813-8.00l 59.013,0.00 L 416.18,372.00 z M 416.18,356.00L 316.077,356.00 c-18.901-2.593-39.094-4.00-60.077-4.00c-20.984,0.00-41.176,1.407-60.077,4.00L 95.82,356.00 l0.00-8.00 l 320.36,0.00 L 416.18,356.00 z M 416.18,340.00L 95.82,340.00 l0.00-8.00 l 320.36,0.00 L 416.18,340.00 z M 416.18,324.00L 95.82,324.00 l0.00-8.00 l 320.36,0.00 L 416.18,324.00 z M 416.18,308.00L 95.82,308.00 l0.00-8.00 l 320.36,0.00 L 416.18,308.00 z M 416.18,292.00L 95.82,292.00 l0.00-8.00 l 320.36,0.00 L 416.18,292.00 z M 416.18,276.00 L 95.82,276.00 l0.00-8.00 l 320.36,0.00 L 416.18,276.00 z M 416.18,260.00L 95.82,260.00 l0.00-8.00 l 320.36,0.00 L 416.18,260.00 z M 416.18,244.00L 95.82,244.00 l0.00-8.00 l 320.36,0.00 L 416.18,244.00 z M 416.18,228.00L 95.82,228.00 l0.00-8.00 l 320.36,0.00 L 416.18,228.00 z M 416.18,212.00L 95.82,212.00 l0.00-8.00 l 320.36,0.00 L 416.18,212.00 z M 416.18,196.00L 95.82,196.00 l0.00-8.00 l 320.36,0.00 L 416.18,196.00 z M 416.18,180.00L 95.82,180.00 l0.00-8.00 l 320.36,0.00 L 416.18,180.00 z M 416.18,164.00L 95.82,164.00 l0.00-8.00 l 100.104,0.00 c 18.901,2.592, 39.093,4.00, 60.077,4.00c 20.983,0.00, 41.176-1.408, 60.077-4.00L 416.18,156.00 L 416.18,164.00 z M 416.18,148.00l-59.013,0.00 c 9.146-2.367, 17.777-5.045, 25.813-8.00l 33.199,0.00 L 416.179,148.00 z M 416.18,124.115L 416.18,132.00 l-14.281,0.00 C 407.035,129.50, 411.805,126.867, 416.18,124.115z M 101.545,71.657c 4.631-4.563, 13.769-11.509, 30.998-18.687C 164.527,39.643, 209.525,32.00, 256.00,32.00s 91.473,7.643, 123.457,20.97 c 17.229,7.178, 26.366,14.124, 30.998,18.687C 414.832,75.969, 416.00,78.93, 416.00,80.00s-1.168,4.031-5.545,8.343 c-4.632,4.562-13.77,11.508-30.998,18.687C 347.473,120.357, 302.475,128.00, 256.00,128.00s-91.473-7.643-123.457-20.97 c-17.229-7.178-26.367-14.124-30.998-18.687C 97.168,84.031, 96.00,81.07, 96.00,80.00S 97.168,75.969, 101.545,71.657z" ></path></svg>