<?xml version="1.0" encoding="utf-8"?> <!-- Generator: IcoMoon.io --> <!DOCTYPE svg PUBLIC "-//W3C//DTD SVG 1.1//EN" "http://www.w3.org/Graphics/SVG/1.1/DTD/svg11.dtd"> <svg width="512" height="512" viewBox="0 0 512 512" xmlns="http://www.w3.org/2000/svg" xmlns:xlink="http://www.w3.org/1999/xlink" fill="#000000"><g class="svgGrid" id="svgGrid"><line stroke-width="1" stroke="#B35047" x1="32" x2="32" y1="0" y2="512"></line><line stroke-width="1" stroke="#B35047" x1="64" x2="64" y1="0" y2="512"></line><line stroke-width="1" stroke="#B35047" x1="96" x2="96" y1="0" y2="512"></line><line stroke-width="1" stroke="#B35047" x1="128" x2="128" y1="0" y2="512"></line><line stroke-width="1" stroke="#B35047" x1="160" x2="160" y1="0" y2="512"></line><line stroke-width="1" stroke="#B35047" x1="192" x2="192" y1="0" y2="512"></line><line stroke-width="1" stroke="#B35047" x1="224" x2="224" y1="0" y2="512"></line><line stroke-width="1" stroke="#B35047" x1="256" x2="256" y1="0" y2="512"></line><line stroke-width="1" stroke="#B35047" x1="288" x2="288" y1="0" y2="512"></line><line stroke-width="1" stroke="#B35047" x1="320" x2="320" y1="0" y2="512"></line><line stroke-width="1" stroke="#B35047" x1="352" x2="352" y1="0" y2="512"></line><line stroke-width="1" stroke="#B35047" x1="384" x2="384" y1="0" y2="512"></line><line stroke-width="1" stroke="#B35047" x1="416" x2="416" y1="0" y2="512"></line><line stroke-width="1" stroke="#B35047" x1="448" x2="448" y1="0" y2="512"></line><line stroke-width="1" stroke="#B35047" x1="480" x2="480" y1="0" y2="512"></line><line stroke-width="1" stroke="#B35047" x1="0" x2="512" y1="32" y2="32"></line><line stroke-width="1" stroke="#B35047" x1="0" x2="512" y1="64" y2="64"></line><line stroke-width="1" stroke="#B35047" x1="0" x2="512" y1="96" y2="96"></line><line stroke-width="1" stroke="#B35047" x1="0" x2="512" y1="128" y2="128"></line><line stroke-width="1" stroke="#B35047" x1="0" x2="512" y1="160" y2="160"></line><line stroke-width="1" stroke="#B35047" x1="0" x2="512" y1="192" y2="192"></line><line stroke-width="1" stroke="#B35047" x1="0" x2="512" y1="224" y2="224"></line><line stroke-width="1" stroke="#B35047" x1="0" x2="512" y1="256" y2="256"></line><line stroke-width="1" stroke="#B35047" x1="0" x2="512" y1="288" y2="288"></line><line stroke-width="1" stroke="#B35047" x1="0" x2="512" y1="320" y2="320"></line><line stroke-width="1" stroke="#B35047" x1="0" x2="512" y1="352" y2="352"></line><line stroke-width="1" stroke="#B35047" x1="0" x2="512" y1="384" y2="384"></line><line stroke-width="1" stroke="#B35047" x1="0" x2="512" y1="416" y2="416"></line><line stroke-width="1" stroke="#B35047" x1="0" x2="512" y1="448" y2="448"></line><line stroke-width="1" stroke="#B35047" x1="0" x2="512" y1="480" y2="480"></line><rect x="0" y="0" width="512" height="512" fill="none" stroke-width="1" stroke="#B35047"></rect></g><path d="M 512.00,112.00c0.00-14.205-5.024-35.38-28.958-55.589c-14.22-12.006-33.695-22.475-57.888-31.115C 379.48,8.983, 319.407,0.00, 256.00,0.00 S 132.52,8.983, 86.845,25.295c-24.192,8.64-43.668,19.109-57.887,31.115C 5.024,76.62,0.00,97.795,0.00,112.00l-0.086,0.00 l0.00,144.00 L0.00,256.00 l0.00,0.00 l-0.086,0.00 l0.00,144.00 L0.00,400.00 c0.00,14.205, 5.024,35.381, 28.958,55.59c 14.219,12.006, 33.695,22.475, 57.887,31.115C 132.519,503.018, 192.593,512.00, 256.00,512.00 s 123.48-8.982, 169.154-25.295c 24.192-8.641, 43.669-19.109, 57.888-31.115C 506.976,435.381, 512.00,414.205, 512.00,400.00L 512.00,256.00 l0.00,0.00l0.00,0.00 L 512.00,112.00 z M 115.588,83.115C 153.728,70.789, 203.593,64.00, 256.00,64.00c 52.406,0.00, 102.272,6.789, 140.411,19.115 c 37.277,12.048, 49.46,24.998, 51.416,28.885c-1.956,3.887-14.139,16.837-51.416,28.885C 358.272,153.211, 308.406,160.00, 256.00,160.00 c-52.407,0.00-102.272-6.789-140.412-19.115C 78.312,128.837, 66.129,115.887, 64.173,112.00C 66.129,108.113, 78.312,95.163, 115.588,83.115z M 396.412,428.885C 358.272,441.213, 308.407,448.00, 256.00,448.00c-52.407,0.00-102.273-6.787-140.412-19.115 C 78.311,416.838, 66.129,403.887, 64.173,400.00l-0.087,0.00 l0.00-66.62 c 7.044,3.307, 14.628,6.421, 22.759,9.325 C 132.519,359.017, 192.593,368.00, 256.00,368.00s 123.48-8.983, 169.154-25.295c 8.097-2.892, 15.652-5.993, 22.673-9.284L 447.827,400.00 C 445.871,403.887, 433.689,416.838, 396.412,428.885z M 396.412,284.885C 358.272,297.212, 308.407,304.00, 256.00,304.00 c-52.407,0.00-102.273-6.788-140.412-19.115C 78.311,272.837, 66.129,259.887, 64.173,256.00l-0.087,0.00 l0.00-66.62 c 7.044,3.306, 14.628,6.421, 22.759,9.325C 132.52,215.017, 192.593,224.00, 256.00,224.00s 123.48-8.983, 169.154-25.295 c 8.097-2.892, 15.652-5.993, 22.673-9.284L 447.827,256.00 C 445.871,259.887, 433.689,272.837, 396.412,284.885z" ></path></svg>