<?xml version="1.0" encoding="utf-8"?> <!-- Generator: IcoMoon.io --> <!DOCTYPE svg PUBLIC "-//W3C//DTD SVG 1.1//EN" "http://www.w3.org/Graphics/SVG/1.1/DTD/svg11.dtd"> <svg width="512" height="512" viewBox="0 0 512 512" xmlns="http://www.w3.org/2000/svg" xmlns:xlink="http://www.w3.org/1999/xlink" fill="#000000"><g class="svgGrid" id="svgGrid"><line stroke-width="1" stroke="#B35047" x1="32" x2="32" y1="0" y2="512"></line><line stroke-width="1" stroke="#B35047" x1="64" x2="64" y1="0" y2="512"></line><line stroke-width="1" stroke="#B35047" x1="96" x2="96" y1="0" y2="512"></line><line stroke-width="1" stroke="#B35047" x1="128" x2="128" y1="0" y2="512"></line><line stroke-width="1" stroke="#B35047" x1="160" x2="160" y1="0" y2="512"></line><line stroke-width="1" stroke="#B35047" x1="192" x2="192" y1="0" y2="512"></line><line stroke-width="1" stroke="#B35047" x1="224" x2="224" y1="0" y2="512"></line><line stroke-width="1" stroke="#B35047" x1="256" x2="256" y1="0" y2="512"></line><line stroke-width="1" stroke="#B35047" x1="288" x2="288" y1="0" y2="512"></line><line stroke-width="1" stroke="#B35047" x1="320" x2="320" y1="0" y2="512"></line><line stroke-width="1" stroke="#B35047" x1="352" x2="352" y1="0" y2="512"></line><line stroke-width="1" stroke="#B35047" x1="384" x2="384" y1="0" y2="512"></line><line stroke-width="1" stroke="#B35047" x1="416" x2="416" y1="0" y2="512"></line><line stroke-width="1" stroke="#B35047" x1="448" x2="448" y1="0" y2="512"></line><line stroke-width="1" stroke="#B35047" x1="480" x2="480" y1="0" y2="512"></line><line stroke-width="1" stroke="#B35047" x1="0" x2="512" y1="32" y2="32"></line><line stroke-width="1" stroke="#B35047" x1="0" x2="512" y1="64" y2="64"></line><line stroke-width="1" stroke="#B35047" x1="0" x2="512" y1="96" y2="96"></line><line stroke-width="1" stroke="#B35047" x1="0" x2="512" y1="128" y2="128"></line><line stroke-width="1" stroke="#B35047" x1="0" x2="512" y1="160" y2="160"></line><line stroke-width="1" stroke="#B35047" x1="0" x2="512" y1="192" y2="192"></line><line stroke-width="1" stroke="#B35047" x1="0" x2="512" y1="224" y2="224"></line><line stroke-width="1" stroke="#B35047" x1="0" x2="512" y1="256" y2="256"></line><line stroke-width="1" stroke="#B35047" x1="0" x2="512" y1="288" y2="288"></line><line stroke-width="1" stroke="#B35047" x1="0" x2="512" y1="320" y2="320"></line><line stroke-width="1" stroke="#B35047" x1="0" x2="512" y1="352" y2="352"></line><line stroke-width="1" stroke="#B35047" x1="0" x2="512" y1="384" y2="384"></line><line stroke-width="1" stroke="#B35047" x1="0" x2="512" y1="416" y2="416"></line><line stroke-width="1" stroke="#B35047" x1="0" x2="512" y1="448" y2="448"></line><line stroke-width="1" stroke="#B35047" x1="0" x2="512" y1="480" y2="480"></line><rect x="0" y="0" width="512" height="512" fill="none" stroke-width="1" stroke="#B35047"></rect></g><path d="M 384.00,64.00L 128.00,64.00 L0.00,192.00l 256.00,288.00l 256.00-288.00L 384.00,64.00z M 256.00,389.333L 256.00,388.00 l-1.185,0.00 l-7.111-8.00L 256.00,380.00 l0.00-8.00 l-15.407,0.00 l-7.111-8.00L 256.00,364.00 l0.00-8.00 l-29.629,0.00 l-7.111-8.00L 256.00,348.00 l0.00-8.00 l-43.852,0.00 l-7.111-8.00L 256.00,332.00 l0.00-8.00 l-58.074,0.00 l-7.111-8.00L 256.00,316.00 l0.00-8.00 l-72.296,0.00 l-7.111-8.00L 256.00,300.00 l0.00-8.00 l-86.519,0.00 l-7.111-8.00L 256.00,284.00 l0.00-8.00 L 155.259,276.00 l-7.111-8.00L 256.00,268.00 l0.00-8.00 L 141.037,260.00 l-7.111-8.00L 256.00,252.00 l0.00-8.00 L 126.814,244.00 l-7.111-8.00L 256.00,236.00 l0.00-8.00 L 112.592,228.00 l-7.111-8.00L 256.00,220.00 l0.00-8.00 L 98.37,212.00 l-7.111-8.00L 256.00,204.00 l0.00-8.00 L 84.147,196.00 l-3.672-4.131l 69.536-69.536L 256.00,122.333 L 256.00,124.00 l 107.657,0.00 l 8.00,8.00L 256.00,132.00 l0.00,8.00 l 123.657,0.00 l 8.00,8.00L 256.00,148.00 l0.00,8.00 l 139.657,0.00 l 8.00,8.00L 256.00,164.00 l0.00,8.00 l 155.657,0.00 l 8.00,8.00L 256.00,180.00 l0.00,8.00 l 171.656,0.00 l 3.869,3.869 L 256.00,389.333z" ></path></svg>