<?xml version="1.0" encoding="utf-8"?> <!-- Generator: IcoMoon.io --> <!DOCTYPE svg PUBLIC "-//W3C//DTD SVG 1.1//EN" "http://www.w3.org/Graphics/SVG/1.1/DTD/svg11.dtd"> <svg width="512" height="512" viewBox="0 0 512 512" xmlns="http://www.w3.org/2000/svg" xmlns:xlink="http://www.w3.org/1999/xlink" fill="#000000"><g class="svgGrid" id="svgGrid"><line stroke-width="1" stroke="#B35047" x1="32" x2="32" y1="0" y2="512"></line><line stroke-width="1" stroke="#B35047" x1="64" x2="64" y1="0" y2="512"></line><line stroke-width="1" stroke="#B35047" x1="96" x2="96" y1="0" y2="512"></line><line stroke-width="1" stroke="#B35047" x1="128" x2="128" y1="0" y2="512"></line><line stroke-width="1" stroke="#B35047" x1="160" x2="160" y1="0" y2="512"></line><line stroke-width="1" stroke="#B35047" x1="192" x2="192" y1="0" y2="512"></line><line stroke-width="1" stroke="#B35047" x1="224" x2="224" y1="0" y2="512"></line><line stroke-width="1" stroke="#B35047" x1="256" x2="256" y1="0" y2="512"></line><line stroke-width="1" stroke="#B35047" x1="288" x2="288" y1="0" y2="512"></line><line stroke-width="1" stroke="#B35047" x1="320" x2="320" y1="0" y2="512"></line><line stroke-width="1" stroke="#B35047" x1="352" x2="352" y1="0" y2="512"></line><line stroke-width="1" stroke="#B35047" x1="384" x2="384" y1="0" y2="512"></line><line stroke-width="1" stroke="#B35047" x1="416" x2="416" y1="0" y2="512"></line><line stroke-width="1" stroke="#B35047" x1="448" x2="448" y1="0" y2="512"></line><line stroke-width="1" stroke="#B35047" x1="480" x2="480" y1="0" y2="512"></line><line stroke-width="1" stroke="#B35047" x1="0" x2="512" y1="32" y2="32"></line><line stroke-width="1" stroke="#B35047" x1="0" x2="512" y1="64" y2="64"></line><line stroke-width="1" stroke="#B35047" x1="0" x2="512" y1="96" y2="96"></line><line stroke-width="1" stroke="#B35047" x1="0" x2="512" y1="128" y2="128"></line><line stroke-width="1" stroke="#B35047" x1="0" x2="512" y1="160" y2="160"></line><line stroke-width="1" stroke="#B35047" x1="0" x2="512" y1="192" y2="192"></line><line stroke-width="1" stroke="#B35047" x1="0" x2="512" y1="224" y2="224"></line><line stroke-width="1" stroke="#B35047" x1="0" x2="512" y1="256" y2="256"></line><line stroke-width="1" stroke="#B35047" x1="0" x2="512" y1="288" y2="288"></line><line stroke-width="1" stroke="#B35047" x1="0" x2="512" y1="320" y2="320"></line><line stroke-width="1" stroke="#B35047" x1="0" x2="512" y1="352" y2="352"></line><line stroke-width="1" stroke="#B35047" x1="0" x2="512" y1="384" y2="384"></line><line stroke-width="1" stroke="#B35047" x1="0" x2="512" y1="416" y2="416"></line><line stroke-width="1" stroke="#B35047" x1="0" x2="512" y1="448" y2="448"></line><line stroke-width="1" stroke="#B35047" x1="0" x2="512" y1="480" y2="480"></line><rect x="0" y="0" width="512" height="512" fill="none" stroke-width="1" stroke="#B35047"></rect></g><path d="M 256.00,65.328 C 239.761,81.321 218.94,103.259 198.21,129.082 C 143.571,197.139 113.79,261.458 112.087,315.085 C 112.069,315.643 112.052,316.20 112.039,316.762 L 112.031,317.147 L 112.022,317.59 C 112.009,318.393 112.001,319.197 112.001,320.004 C 112.001,320.796 112.01,321.582 112.023,322.369 L 112.024,322.393 L 112.034,322.897 C 112.774,360.741 128.079,396.208 155.129,422.766 C 182.213,449.355 218.037,464.00 256.00,464.00 C 293.963,464.00 329.785,449.355 356.87,422.764 C 383.917,396.21 399.223,360.745 399.968,322.904 L 399.969,322.831 L 399.972,322.665 C 399.988,321.778 400.00,320.89 400.00,320.00 C 400.00,319.189 399.99,318.381 399.977,317.573 L 399.97,317.23 L 399.961,316.763 C 399.949,316.244 399.936,315.727 399.918,315.208 L 399.916,315.145 L 399.914,315.082 C 398.21,261.455 368.429,197.136 313.79,129.08 C 293.059,103.259 272.238,81.321 256.00,65.328 Z M 256.00,0.00 L 256.00,0.00 C 256.00,0.00 442.875,155.734 447.889,313.558 C 447.914,314.271 447.932,314.984 447.949,315.698 C 447.955,316.05 447.964,316.398 447.97,316.751 C 447.988,317.832 448.00,318.914 448.00,320.00 C 448.00,321.182 447.985,322.361 447.964,323.539 C 447.963,323.636 447.961,323.734 447.959,323.832 C 445.916,428.101 360.758,512.00 256.00,512.00 C 151.241,512.00 66.082,428.101 64.043,323.836 C 64.039,323.737 64.038,323.642 64.036,323.543 C 64.015,322.364 64.001,321.189 64.001,320.004 C 64.001,318.918 64.011,317.836 64.029,316.756 C 64.035,316.403 64.043,316.056 64.05,315.703 C 64.066,314.987 64.088,314.276 64.11,313.561 C 69.123,155.734 256.00,0.00 256.00,0.00 ZM 361.981,312.116 C 361.992,312.743 362.00,313.37 362.00,314.00 C 362.00,314.688 361.99,315.377 361.977,316.103 L 361.974,316.269 L 361.973,316.345 C 361.376,345.741 349.473,373.292 328.452,393.93 C 307.387,414.61 279.525,426.00 250.00,426.00 C 226.519,426.00 204.094,418.79 185.299,405.439 C 189.50,405.805 193.736,406.00 198.00,406.00 C 235.963,406.00 271.785,391.355 298.87,364.764 C 325.917,338.21 341.223,302.745 341.968,264.904 L 341.969,264.831 L 341.972,264.665 C 341.988,263.778 342.00,262.89 342.00,262.00 C 342.00,261.189 341.99,260.381 341.977,259.572 L 341.97,259.229 L 341.961,258.762 C 341.949,258.243 341.936,257.726 341.918,257.207 L 341.916,257.144 L 341.914,257.081 C 341.616,247.70 340.439,237.986 338.44,227.988 C 353.169,257.842 361.149,285.535 361.931,310.153 L 361.935,310.255 L 361.936,310.294 C 361.948,310.675 361.958,311.056 361.967,311.438 L 361.975,311.869 L 361.981,312.116 Z" ></path></svg>