<?xml version="1.0" encoding="utf-8"?> <!-- Generator: IcoMoon.io --> <!DOCTYPE svg PUBLIC "-//W3C//DTD SVG 1.1//EN" "http://www.w3.org/Graphics/SVG/1.1/DTD/svg11.dtd"> <svg width="512" height="512" viewBox="0 0 512 512" xmlns="http://www.w3.org/2000/svg" xmlns:xlink="http://www.w3.org/1999/xlink" fill="#000000"><g class="svgGrid" id="svgGrid"><line stroke-width="1" stroke="#B35047" x1="32" x2="32" y1="0" y2="512"></line><line stroke-width="1" stroke="#B35047" x1="64" x2="64" y1="0" y2="512"></line><line stroke-width="1" stroke="#B35047" x1="96" x2="96" y1="0" y2="512"></line><line stroke-width="1" stroke="#B35047" x1="128" x2="128" y1="0" y2="512"></line><line stroke-width="1" stroke="#B35047" x1="160" x2="160" y1="0" y2="512"></line><line stroke-width="1" stroke="#B35047" x1="192" x2="192" y1="0" y2="512"></line><line stroke-width="1" stroke="#B35047" x1="224" x2="224" y1="0" y2="512"></line><line stroke-width="1" stroke="#B35047" x1="256" x2="256" y1="0" y2="512"></line><line stroke-width="1" stroke="#B35047" x1="288" x2="288" y1="0" y2="512"></line><line stroke-width="1" stroke="#B35047" x1="320" x2="320" y1="0" y2="512"></line><line stroke-width="1" stroke="#B35047" x1="352" x2="352" y1="0" y2="512"></line><line stroke-width="1" stroke="#B35047" x1="384" x2="384" y1="0" y2="512"></line><line stroke-width="1" stroke="#B35047" x1="416" x2="416" y1="0" y2="512"></line><line stroke-width="1" stroke="#B35047" x1="448" x2="448" y1="0" y2="512"></line><line stroke-width="1" stroke="#B35047" x1="480" x2="480" y1="0" y2="512"></line><line stroke-width="1" stroke="#B35047" x1="0" x2="512" y1="32" y2="32"></line><line stroke-width="1" stroke="#B35047" x1="0" x2="512" y1="64" y2="64"></line><line stroke-width="1" stroke="#B35047" x1="0" x2="512" y1="96" y2="96"></line><line stroke-width="1" stroke="#B35047" x1="0" x2="512" y1="128" y2="128"></line><line stroke-width="1" stroke="#B35047" x1="0" x2="512" y1="160" y2="160"></line><line stroke-width="1" stroke="#B35047" x1="0" x2="512" y1="192" y2="192"></line><line stroke-width="1" stroke="#B35047" x1="0" x2="512" y1="224" y2="224"></line><line stroke-width="1" stroke="#B35047" x1="0" x2="512" y1="256" y2="256"></line><line stroke-width="1" stroke="#B35047" x1="0" x2="512" y1="288" y2="288"></line><line stroke-width="1" stroke="#B35047" x1="0" x2="512" y1="320" y2="320"></line><line stroke-width="1" stroke="#B35047" x1="0" x2="512" y1="352" y2="352"></line><line stroke-width="1" stroke="#B35047" x1="0" x2="512" y1="384" y2="384"></line><line stroke-width="1" stroke="#B35047" x1="0" x2="512" y1="416" y2="416"></line><line stroke-width="1" stroke="#B35047" x1="0" x2="512" y1="448" y2="448"></line><line stroke-width="1" stroke="#B35047" x1="0" x2="512" y1="480" y2="480"></line><rect x="0" y="0" width="512" height="512" fill="none" stroke-width="1" stroke="#B35047"></rect></g><path d="M 72.00,128.00L 56.00,128.00 c-4.40,0.00-8.00,3.60-8.00,8.00l0.00,240.00 c0.00,4.40, 3.60,8.00, 8.00,8.00l 16.00,0.00 c 4.40,0.00, 8.00-3.60, 8.00-8.00L 80.00,136.00 C 80.00,131.60, 76.40,128.00, 72.00,128.00zM 24.00,192.00L 8.00,192.00 c-4.40,0.00-8.00,2.40-8.00,5.333l0.00,117.333 C0.00,317.601, 3.60,320.00, 8.00,320.00l 16.00,0.00 c 4.40,0.00, 8.00-2.399, 8.00-5.333L 32.00,197.333 C 32.00,194.40, 28.40,192.00, 24.00,192.00zM 400.00,96.00l-32.00,0.00 c-8.80,0.00-16.00,7.20-16.00,16.00l0.00,112.00 L 160.00,224.00 L 160.00,112.00 c0.00-8.80-7.20-16.00-16.00-16.00l-32.00,0.00 c-8.80,0.00-16.00,7.20-16.00,16.00l0.00,288.00 c0.00,8.80, 7.20,16.00, 16.00,16.00l 32.00,0.00 c 8.80,0.00, 16.00-7.20, 16.00-16.00L 160.00,288.00 l 192.00,0.00 l0.00,112.00 c0.00,8.80, 7.20,16.00, 16.00,16.00l 32.00,0.00 c 8.80,0.00, 16.00-7.20, 16.00-16.00L 416.00,112.00 C 416.00,103.20, 408.80,96.00, 400.00,96.00zM 456.00,128.00l-16.00,0.00 c-4.40,0.00-8.00,3.60-8.00,8.00l0.00,240.00 c0.00,4.40, 3.60,8.00, 8.00,8.00l 16.00,0.00 c 4.40,0.00, 8.00-3.60, 8.00-8.00L 464.00,136.00 C 464.00,131.60, 460.40,128.00, 456.00,128.00zM 504.00,192.00l-16.00,0.00 c-4.40,0.00-8.00,2.40-8.00,5.333l0.00,117.333 c0.00,2.934, 3.60,5.333, 8.00,5.333l 16.00,0.00 c 4.40,0.00, 8.00-2.399, 8.00-5.333L 512.00,197.333 C 512.00,194.40, 508.40,192.00, 504.00,192.00z" ></path></svg>