<?xml version="1.0" encoding="utf-8"?> <!-- Generator: IcoMoon.io --> <!DOCTYPE svg PUBLIC "-//W3C//DTD SVG 1.1//EN" "http://www.w3.org/Graphics/SVG/1.1/DTD/svg11.dtd"> <svg width="512" height="512" viewBox="0 0 512 512" xmlns="http://www.w3.org/2000/svg" xmlns:xlink="http://www.w3.org/1999/xlink" fill="#000000"><g class="svgGrid" id="svgGrid"><line stroke-width="1" stroke="#B35047" x1="32" x2="32" y1="0" y2="512"></line><line stroke-width="1" stroke="#B35047" x1="64" x2="64" y1="0" y2="512"></line><line stroke-width="1" stroke="#B35047" x1="96" x2="96" y1="0" y2="512"></line><line stroke-width="1" stroke="#B35047" x1="128" x2="128" y1="0" y2="512"></line><line stroke-width="1" stroke="#B35047" x1="160" x2="160" y1="0" y2="512"></line><line stroke-width="1" stroke="#B35047" x1="192" x2="192" y1="0" y2="512"></line><line stroke-width="1" stroke="#B35047" x1="224" x2="224" y1="0" y2="512"></line><line stroke-width="1" stroke="#B35047" x1="256" x2="256" y1="0" y2="512"></line><line stroke-width="1" stroke="#B35047" x1="288" x2="288" y1="0" y2="512"></line><line stroke-width="1" stroke="#B35047" x1="320" x2="320" y1="0" y2="512"></line><line stroke-width="1" stroke="#B35047" x1="352" x2="352" y1="0" y2="512"></line><line stroke-width="1" stroke="#B35047" x1="384" x2="384" y1="0" y2="512"></line><line stroke-width="1" stroke="#B35047" x1="416" x2="416" y1="0" y2="512"></line><line stroke-width="1" stroke="#B35047" x1="448" x2="448" y1="0" y2="512"></line><line stroke-width="1" stroke="#B35047" x1="480" x2="480" y1="0" y2="512"></line><line stroke-width="1" stroke="#B35047" x1="0" x2="512" y1="32" y2="32"></line><line stroke-width="1" stroke="#B35047" x1="0" x2="512" y1="64" y2="64"></line><line stroke-width="1" stroke="#B35047" x1="0" x2="512" y1="96" y2="96"></line><line stroke-width="1" stroke="#B35047" x1="0" x2="512" y1="128" y2="128"></line><line stroke-width="1" stroke="#B35047" x1="0" x2="512" y1="160" y2="160"></line><line stroke-width="1" stroke="#B35047" x1="0" x2="512" y1="192" y2="192"></line><line stroke-width="1" stroke="#B35047" x1="0" x2="512" y1="224" y2="224"></line><line stroke-width="1" stroke="#B35047" x1="0" x2="512" y1="256" y2="256"></line><line stroke-width="1" stroke="#B35047" x1="0" x2="512" y1="288" y2="288"></line><line stroke-width="1" stroke="#B35047" x1="0" x2="512" y1="320" y2="320"></line><line stroke-width="1" stroke="#B35047" x1="0" x2="512" y1="352" y2="352"></line><line stroke-width="1" stroke="#B35047" x1="0" x2="512" y1="384" y2="384"></line><line stroke-width="1" stroke="#B35047" x1="0" x2="512" y1="416" y2="416"></line><line stroke-width="1" stroke="#B35047" x1="0" x2="512" y1="448" y2="448"></line><line stroke-width="1" stroke="#B35047" x1="0" x2="512" y1="480" y2="480"></line><rect x="0" y="0" width="512" height="512" fill="none" stroke-width="1" stroke="#B35047"></rect></g><path d="M 92.959,357.768 C 89.468,355.604 86.223,353.52 83.259,351.558 C 61.338,337.056 41.165,320.458 26.456,304.818 C 8.654,285.892 0.00,269.924 0.00,256.001 C 0.00,242.077 8.654,226.109 26.454,207.183 C 41.163,191.544 61.336,174.945 83.257,160.443 C 115.967,138.804 181.905,102.501 255.999,102.501 C 262.311,102.501 268.558,102.783 274.737,103.279 L 240.534,151.163 C 187.991,155.534 140.63,180.865 115.842,196.531 C 77.072,221.035 54.327,245.859 48.816,256.002 C 54.327,266.145 77.071,290.969 115.841,315.472 C 117.44,316.482 119.141,317.536 120.923,318.619 L 92.959,357.768 ZM 485.544,207.182c-14.71-15.639-34.883-32.238-56.803-46.74c-16.325-10.80-40.938-25.242-70.702-37.007l 57.422-80.392 l-30.922-22.087l-320.00,448.00l 30.922,22.088l 70.088-98.124c 27.191,9.628, 58.037,16.58, 90.451,16.58 c 74.095,0.00, 140.031-36.302, 172.741-57.941c 21.921-14.502, 42.094-31.101, 56.803-46.739c 17.801-18.927, 26.455-34.895, 26.456-48.822 C 511.999,242.076, 503.345,226.108, 485.544,207.182z M 396.158,315.47C 368.959,332.661, 314.582,361.50, 256.00,361.50 c-21.332,0.00-42.102-3.827-61.207-9.521l 29.037-40.651c 9.453,5.51, 20.44,8.673, 32.17,8.673c 35.347,0.00, 64.00-28.653, 64.00-64.00 c0.00-19.321-8.572-36.626-22.11-48.357l 31.258-43.76c 28.146,9.813, 51.818,23.046, 67.01,32.647 c 38.771,24.504, 61.514,49.327, 67.025,59.47C 457.672,266.144, 434.928,290.967, 396.158,315.47z" ></path></svg>