<?xml version="1.0" encoding="utf-8"?> <!-- Generator: IcoMoon.io --> <!DOCTYPE svg PUBLIC "-//W3C//DTD SVG 1.1//EN" "http://www.w3.org/Graphics/SVG/1.1/DTD/svg11.dtd"> <svg width="512" height="512" viewBox="0 0 512 512" xmlns="http://www.w3.org/2000/svg" xmlns:xlink="http://www.w3.org/1999/xlink" fill="#000000"><g class="svgGrid" id="svgGrid"><line stroke-width="1" stroke="#B35047" x1="32" x2="32" y1="0" y2="512"></line><line stroke-width="1" stroke="#B35047" x1="64" x2="64" y1="0" y2="512"></line><line stroke-width="1" stroke="#B35047" x1="96" x2="96" y1="0" y2="512"></line><line stroke-width="1" stroke="#B35047" x1="128" x2="128" y1="0" y2="512"></line><line stroke-width="1" stroke="#B35047" x1="160" x2="160" y1="0" y2="512"></line><line stroke-width="1" stroke="#B35047" x1="192" x2="192" y1="0" y2="512"></line><line stroke-width="1" stroke="#B35047" x1="224" x2="224" y1="0" y2="512"></line><line stroke-width="1" stroke="#B35047" x1="256" x2="256" y1="0" y2="512"></line><line stroke-width="1" stroke="#B35047" x1="288" x2="288" y1="0" y2="512"></line><line stroke-width="1" stroke="#B35047" x1="320" x2="320" y1="0" y2="512"></line><line stroke-width="1" stroke="#B35047" x1="352" x2="352" y1="0" y2="512"></line><line stroke-width="1" stroke="#B35047" x1="384" x2="384" y1="0" y2="512"></line><line stroke-width="1" stroke="#B35047" x1="416" x2="416" y1="0" y2="512"></line><line stroke-width="1" stroke="#B35047" x1="448" x2="448" y1="0" y2="512"></line><line stroke-width="1" stroke="#B35047" x1="480" x2="480" y1="0" y2="512"></line><line stroke-width="1" stroke="#B35047" x1="0" x2="512" y1="32" y2="32"></line><line stroke-width="1" stroke="#B35047" x1="0" x2="512" y1="64" y2="64"></line><line stroke-width="1" stroke="#B35047" x1="0" x2="512" y1="96" y2="96"></line><line stroke-width="1" stroke="#B35047" x1="0" x2="512" y1="128" y2="128"></line><line stroke-width="1" stroke="#B35047" x1="0" x2="512" y1="160" y2="160"></line><line stroke-width="1" stroke="#B35047" x1="0" x2="512" y1="192" y2="192"></line><line stroke-width="1" stroke="#B35047" x1="0" x2="512" y1="224" y2="224"></line><line stroke-width="1" stroke="#B35047" x1="0" x2="512" y1="256" y2="256"></line><line stroke-width="1" stroke="#B35047" x1="0" x2="512" y1="288" y2="288"></line><line stroke-width="1" stroke="#B35047" x1="0" x2="512" y1="320" y2="320"></line><line stroke-width="1" stroke="#B35047" x1="0" x2="512" y1="352" y2="352"></line><line stroke-width="1" stroke="#B35047" x1="0" x2="512" y1="384" y2="384"></line><line stroke-width="1" stroke="#B35047" x1="0" x2="512" y1="416" y2="416"></line><line stroke-width="1" stroke="#B35047" x1="0" x2="512" y1="448" y2="448"></line><line stroke-width="1" stroke="#B35047" x1="0" x2="512" y1="480" y2="480"></line><rect x="0" y="0" width="512" height="512" fill="none" stroke-width="1" stroke="#B35047"></rect></g><path d="M 512.00,112.00C 512.00,50.144, 397.385,0.00, 256.00,0.00S0.00,50.144,0.00,112.00c0.00,19.688, 11.626,38.185, 32.016,54.261L 32.00,166.261 l 160.00,146.242L 192.00,480.00 c0.00,17.673, 28.654,32.00, 64.00,32.00c 35.348,0.00, 64.00-14.327, 64.00-32.00L 320.00,312.503 l 160.00-146.242l-0.016,0.00 C 500.374,150.185, 512.00,131.688, 512.00,112.00z M 460.172,142.132L 288.00,298.398l0.00,175.105 c-5.088,2.806-16.152,6.494-32.00,6.494c-15.848,0.00-26.912-3.688-32.00-6.494L 224.00,298.398 L 51.828,142.132 C 44.423,136.293, 32.00,123.745, 32.00,112.00c0.00-6.534, 3.743-13.718, 11.124-21.354c 9.839-10.177, 25.29-20.041, 44.683-28.525 c 21.27-9.305, 46.291-17.658, 74.369-22.854C 191.821,33.782, 223.388,30.00, 256.00,30.00c 32.611,0.00, 64.179,3.782, 93.824,9.267 c 28.078,5.196, 53.10,13.549, 74.369,22.854c 19.393,8.484, 34.844,18.348, 44.683,28.525C 476.257,98.282, 480.00,105.466, 480.00,112.00 C 480.00,123.745, 467.577,136.293, 460.172,142.132zM 96.00,116.25A160.00,43.75 2160.00 1,0 416.00,116.25A160.00,43.75 2160.00 1,0 96.00,116.25z" ></path></svg>