<?xml version="1.0" encoding="utf-8"?> <!-- Generator: IcoMoon.io --> <!DOCTYPE svg PUBLIC "-//W3C//DTD SVG 1.1//EN" "http://www.w3.org/Graphics/SVG/1.1/DTD/svg11.dtd"> <svg width="512" height="512" viewBox="0 0 512 512" xmlns="http://www.w3.org/2000/svg" xmlns:xlink="http://www.w3.org/1999/xlink" fill="#000000"><g class="svgGrid" id="svgGrid"><line stroke-width="1" stroke="#B35047" x1="32" x2="32" y1="0" y2="512"></line><line stroke-width="1" stroke="#B35047" x1="64" x2="64" y1="0" y2="512"></line><line stroke-width="1" stroke="#B35047" x1="96" x2="96" y1="0" y2="512"></line><line stroke-width="1" stroke="#B35047" x1="128" x2="128" y1="0" y2="512"></line><line stroke-width="1" stroke="#B35047" x1="160" x2="160" y1="0" y2="512"></line><line stroke-width="1" stroke="#B35047" x1="192" x2="192" y1="0" y2="512"></line><line stroke-width="1" stroke="#B35047" x1="224" x2="224" y1="0" y2="512"></line><line stroke-width="1" stroke="#B35047" x1="256" x2="256" y1="0" y2="512"></line><line stroke-width="1" stroke="#B35047" x1="288" x2="288" y1="0" y2="512"></line><line stroke-width="1" stroke="#B35047" x1="320" x2="320" y1="0" y2="512"></line><line stroke-width="1" stroke="#B35047" x1="352" x2="352" y1="0" y2="512"></line><line stroke-width="1" stroke="#B35047" x1="384" x2="384" y1="0" y2="512"></line><line stroke-width="1" stroke="#B35047" x1="416" x2="416" y1="0" y2="512"></line><line stroke-width="1" stroke="#B35047" x1="448" x2="448" y1="0" y2="512"></line><line stroke-width="1" stroke="#B35047" x1="480" x2="480" y1="0" y2="512"></line><line stroke-width="1" stroke="#B35047" x1="0" x2="512" y1="32" y2="32"></line><line stroke-width="1" stroke="#B35047" x1="0" x2="512" y1="64" y2="64"></line><line stroke-width="1" stroke="#B35047" x1="0" x2="512" y1="96" y2="96"></line><line stroke-width="1" stroke="#B35047" x1="0" x2="512" y1="128" y2="128"></line><line stroke-width="1" stroke="#B35047" x1="0" x2="512" y1="160" y2="160"></line><line stroke-width="1" stroke="#B35047" x1="0" x2="512" y1="192" y2="192"></line><line stroke-width="1" stroke="#B35047" x1="0" x2="512" y1="224" y2="224"></line><line stroke-width="1" stroke="#B35047" x1="0" x2="512" y1="256" y2="256"></line><line stroke-width="1" stroke="#B35047" x1="0" x2="512" y1="288" y2="288"></line><line stroke-width="1" stroke="#B35047" x1="0" x2="512" y1="320" y2="320"></line><line stroke-width="1" stroke="#B35047" x1="0" x2="512" y1="352" y2="352"></line><line stroke-width="1" stroke="#B35047" x1="0" x2="512" y1="384" y2="384"></line><line stroke-width="1" stroke="#B35047" x1="0" x2="512" y1="416" y2="416"></line><line stroke-width="1" stroke="#B35047" x1="0" x2="512" y1="448" y2="448"></line><line stroke-width="1" stroke="#B35047" x1="0" x2="512" y1="480" y2="480"></line><rect x="0" y="0" width="512" height="512" fill="none" stroke-width="1" stroke="#B35047"></rect></g><path d="M 288.00,128.00l-64.00-64.00L0.00,64.00 l0.00,416.00 l 512.00,0.00 L 512.00,128.00 L 288.00,128.00 z M 274.745,160.00L 288.00,160.00 l 192.00,0.00 l0.00,4.00 L 32.00,164.00 l0.00-8.00 l 238.745,0.00 L 274.745,160.00z M 32.00,448.00l0.00-4.00 l 448.00,0.00 l0.00,4.00 L 32.00,448.00 z M 32.00,436.00l0.00-8.00 l 448.00,0.00 l0.00,8.00 L 32.00,436.00 z M 32.00,420.00l0.00-8.00 l 448.00,0.00 l0.00,8.00 L 32.00,420.00 z M 32.00,404.00l0.00-8.00 l 448.00,0.00 l0.00,8.00 L 32.00,404.00 z M 32.00,388.00l0.00-8.00 l 448.00,0.00 l0.00,8.00 L 32.00,388.00 z M 32.00,372.00l0.00-8.00 l 448.00,0.00 l0.00,8.00 L 32.00,372.00 z M 32.00,356.00l0.00-8.00 l 448.00,0.00 l0.00,8.00 L 32.00,356.00 z M 32.00,340.00l0.00-8.00 l 448.00,0.00 l0.00,8.00 L 32.00,340.00 z M 32.00,324.00l0.00-8.00 l 448.00,0.00 l0.00,8.00 L 32.00,324.00 z M 32.00,308.00l0.00-8.00 l 448.00,0.00 l0.00,8.00 L 32.00,308.00 z M 32.00,292.00l0.00-8.00 l 448.00,0.00 l0.00,8.00 L 32.00,292.00 z M 32.00,276.00l0.00-8.00 l 448.00,0.00 l0.00,8.00 L 32.00,276.00 z M 32.00,260.00l0.00-8.00 l 448.00,0.00 l0.00,8.00 L 32.00,260.00 z M 32.00,244.00l0.00-8.00 l 448.00,0.00 l0.00,8.00 L 32.00,244.00 z M 32.00,228.00l0.00-8.00 l 448.00,0.00 l0.00,8.00 L 32.00,228.00 z M 32.00,212.00l0.00-8.00 l 448.00,0.00 l0.00,8.00 L 32.00,212.00 z M 32.00,196.00l0.00-8.00 l 448.00,0.00 l0.00,8.00 L 32.00,196.00 z M 32.00,180.00l0.00-8.00 l 448.00,0.00 l0.00,8.00 L 32.00,180.00 z M 210.745,96.00l 4.00,4.00L 32.00,100.00 l0.00-4.00 L 210.745,96.00 z M 222.745,108.00l 8.00,8.00L 32.00,116.00 l0.00-8.00 L 222.745,108.00 z M 238.745,124.00l 8.00,8.00L 32.00,132.00 l0.00-8.00 L 238.745,124.00 z M 254.746,140.00l 8.00,8.00L 32.00,148.00 l0.00-8.00 L 254.746,140.00 z" ></path></svg>