<?xml version="1.0" encoding="utf-8"?> <!-- Generator: IcoMoon.io --> <!DOCTYPE svg PUBLIC "-//W3C//DTD SVG 1.1//EN" "http://www.w3.org/Graphics/SVG/1.1/DTD/svg11.dtd"> <svg width="512" height="512" viewBox="0 0 512 512" xmlns="http://www.w3.org/2000/svg" xmlns:xlink="http://www.w3.org/1999/xlink" fill="#000000"><g class="svgGrid" id="svgGrid"><line stroke-width="1" stroke="#B35047" x1="32" x2="32" y1="0" y2="512"></line><line stroke-width="1" stroke="#B35047" x1="64" x2="64" y1="0" y2="512"></line><line stroke-width="1" stroke="#B35047" x1="96" x2="96" y1="0" y2="512"></line><line stroke-width="1" stroke="#B35047" x1="128" x2="128" y1="0" y2="512"></line><line stroke-width="1" stroke="#B35047" x1="160" x2="160" y1="0" y2="512"></line><line stroke-width="1" stroke="#B35047" x1="192" x2="192" y1="0" y2="512"></line><line stroke-width="1" stroke="#B35047" x1="224" x2="224" y1="0" y2="512"></line><line stroke-width="1" stroke="#B35047" x1="256" x2="256" y1="0" y2="512"></line><line stroke-width="1" stroke="#B35047" x1="288" x2="288" y1="0" y2="512"></line><line stroke-width="1" stroke="#B35047" x1="320" x2="320" y1="0" y2="512"></line><line stroke-width="1" stroke="#B35047" x1="352" x2="352" y1="0" y2="512"></line><line stroke-width="1" stroke="#B35047" x1="384" x2="384" y1="0" y2="512"></line><line stroke-width="1" stroke="#B35047" x1="416" x2="416" y1="0" y2="512"></line><line stroke-width="1" stroke="#B35047" x1="448" x2="448" y1="0" y2="512"></line><line stroke-width="1" stroke="#B35047" x1="480" x2="480" y1="0" y2="512"></line><line stroke-width="1" stroke="#B35047" x1="0" x2="512" y1="32" y2="32"></line><line stroke-width="1" stroke="#B35047" x1="0" x2="512" y1="64" y2="64"></line><line stroke-width="1" stroke="#B35047" x1="0" x2="512" y1="96" y2="96"></line><line stroke-width="1" stroke="#B35047" x1="0" x2="512" y1="128" y2="128"></line><line stroke-width="1" stroke="#B35047" x1="0" x2="512" y1="160" y2="160"></line><line stroke-width="1" stroke="#B35047" x1="0" x2="512" y1="192" y2="192"></line><line stroke-width="1" stroke="#B35047" x1="0" x2="512" y1="224" y2="224"></line><line stroke-width="1" stroke="#B35047" x1="0" x2="512" y1="256" y2="256"></line><line stroke-width="1" stroke="#B35047" x1="0" x2="512" y1="288" y2="288"></line><line stroke-width="1" stroke="#B35047" x1="0" x2="512" y1="320" y2="320"></line><line stroke-width="1" stroke="#B35047" x1="0" x2="512" y1="352" y2="352"></line><line stroke-width="1" stroke="#B35047" x1="0" x2="512" y1="384" y2="384"></line><line stroke-width="1" stroke="#B35047" x1="0" x2="512" y1="416" y2="416"></line><line stroke-width="1" stroke="#B35047" x1="0" x2="512" y1="448" y2="448"></line><line stroke-width="1" stroke="#B35047" x1="0" x2="512" y1="480" y2="480"></line><rect x="0" y="0" width="512" height="512" fill="none" stroke-width="1" stroke="#B35047"></rect></g><path d="M 509.052,79.515c-4.199-38.088-38.479-72.367-76.566-76.566c-103.448-11.402-237.574,7.875-329.617,99.919 C 10.824,194.91-8.452,329.039, 2.948,432.484c 4.199,38.088, 38.479,72.368, 76.566,76.566c 103.445,11.401, 237.573-7.877, 329.616-99.918 C 501.175,317.089, 520.454,182.962, 509.052,79.515z M 162.565,290.565c 7.42-7.422, 19.45-7.422, 26.87,0.00l 32.00,32.00 c 7.42,7.42, 7.42,19.449,0.00,26.869C 217.725,353.146, 212.862,355.00, 208.00,355.00s-9.725-1.854-13.435-5.565l-32.00-32.00 C 155.145,310.015, 155.145,297.985, 162.565,290.565z M 170.898,478.433c-29.015-14.741-55.835-34.136-79.515-57.815 c-23.707-23.706-43.119-50.561-57.867-79.613c 1.802-21.906, 5.369-45.418, 11.594-69.638c 2.121-8.25, 4.489-16.306, 7.085-24.178 c 9.431,52.555, 34.577,100.935, 73.13,139.487c 38.523,38.523, 86.859,63.66, 139.368,73.107 C 231.16,470.827, 198.56,476.124, 170.898,478.433z M 285.435,285.435C 281.725,289.146, 276.862,291.00, 272.00,291.00s-9.725-1.854-13.435-5.565 l-32.00-32.00c-7.42-7.42-7.42-19.45,0.00-26.87s 19.45-7.42, 26.87,0.00l 32.00,32.00C 292.855,265.985, 292.855,278.015, 285.435,285.435z M 349.435,221.435c-3.71,3.71-8.572,5.565-13.435,5.565s-9.725-1.855-13.435-5.565l-32.00-32.00c-7.421-7.42-7.421-19.45,0.00-26.87 c 7.42-7.42, 19.449-7.42, 26.869,0.00l 32.00,32.00C 356.855,201.985, 356.855,214.015, 349.435,221.435z M 466.891,240.634 c-2.12,8.25-4.488,16.306-7.085,24.178c-9.432-52.555-34.577-100.935-73.13-139.487c-38.523-38.523-86.858-63.66-139.367-73.107 c 33.533-11.044, 66.132-16.341, 93.793-18.649c 29.015,14.742, 55.835,34.136, 79.515,57.815c 23.707,23.707, 43.119,50.562, 57.867,79.615 C 476.683,192.903, 473.116,216.415, 466.891,240.634z" ></path></svg>