<?xml version="1.0" encoding="utf-8"?> <!-- Generator: IcoMoon.io --> <!DOCTYPE svg PUBLIC "-//W3C//DTD SVG 1.1//EN" "http://www.w3.org/Graphics/SVG/1.1/DTD/svg11.dtd"> <svg width="512" height="512" viewBox="0 0 512 512" xmlns="http://www.w3.org/2000/svg" xmlns:xlink="http://www.w3.org/1999/xlink" fill="#000000"><g class="svgGrid" id="svgGrid"><line stroke-width="1" stroke="#B35047" x1="32" x2="32" y1="0" y2="512"></line><line stroke-width="1" stroke="#B35047" x1="64" x2="64" y1="0" y2="512"></line><line stroke-width="1" stroke="#B35047" x1="96" x2="96" y1="0" y2="512"></line><line stroke-width="1" stroke="#B35047" x1="128" x2="128" y1="0" y2="512"></line><line stroke-width="1" stroke="#B35047" x1="160" x2="160" y1="0" y2="512"></line><line stroke-width="1" stroke="#B35047" x1="192" x2="192" y1="0" y2="512"></line><line stroke-width="1" stroke="#B35047" x1="224" x2="224" y1="0" y2="512"></line><line stroke-width="1" stroke="#B35047" x1="256" x2="256" y1="0" y2="512"></line><line stroke-width="1" stroke="#B35047" x1="288" x2="288" y1="0" y2="512"></line><line stroke-width="1" stroke="#B35047" x1="320" x2="320" y1="0" y2="512"></line><line stroke-width="1" stroke="#B35047" x1="352" x2="352" y1="0" y2="512"></line><line stroke-width="1" stroke="#B35047" x1="384" x2="384" y1="0" y2="512"></line><line stroke-width="1" stroke="#B35047" x1="416" x2="416" y1="0" y2="512"></line><line stroke-width="1" stroke="#B35047" x1="448" x2="448" y1="0" y2="512"></line><line stroke-width="1" stroke="#B35047" x1="480" x2="480" y1="0" y2="512"></line><line stroke-width="1" stroke="#B35047" x1="0" x2="512" y1="32" y2="32"></line><line stroke-width="1" stroke="#B35047" x1="0" x2="512" y1="64" y2="64"></line><line stroke-width="1" stroke="#B35047" x1="0" x2="512" y1="96" y2="96"></line><line stroke-width="1" stroke="#B35047" x1="0" x2="512" y1="128" y2="128"></line><line stroke-width="1" stroke="#B35047" x1="0" x2="512" y1="160" y2="160"></line><line stroke-width="1" stroke="#B35047" x1="0" x2="512" y1="192" y2="192"></line><line stroke-width="1" stroke="#B35047" x1="0" x2="512" y1="224" y2="224"></line><line stroke-width="1" stroke="#B35047" x1="0" x2="512" y1="256" y2="256"></line><line stroke-width="1" stroke="#B35047" x1="0" x2="512" y1="288" y2="288"></line><line stroke-width="1" stroke="#B35047" x1="0" x2="512" y1="320" y2="320"></line><line stroke-width="1" stroke="#B35047" x1="0" x2="512" y1="352" y2="352"></line><line stroke-width="1" stroke="#B35047" x1="0" x2="512" y1="384" y2="384"></line><line stroke-width="1" stroke="#B35047" x1="0" x2="512" y1="416" y2="416"></line><line stroke-width="1" stroke="#B35047" x1="0" x2="512" y1="448" y2="448"></line><line stroke-width="1" stroke="#B35047" x1="0" x2="512" y1="480" y2="480"></line><rect x="0" y="0" width="512" height="512" fill="none" stroke-width="1" stroke="#B35047"></rect></g><path d="M 160.00,160.00L 128.00,160.00L 128.00,192.00L 96.00,192.00L 96.00,224.00L 128.00,224.00L 128.00,256.00L 160.00,256.00L 160.00,224.00L 192.00,224.00L 192.00,192.00L 160.00,192.00 zM 320.00,184.00A24.00,24.00 12240.00 1,0 368.00,184A24.00,24.00 12240.00 1,0 320.00,184zM 368.00,232.00A24.00,24.00 12240.00 1,0 416.00,232A24.00,24.00 12240.00 1,0 368.00,232zM 369.736,85.926c-58.11,0.00-67.181,34.417-113.735,34.421c-46.555-0.004-55.625-34.421-113.735-34.421 C 48.53,85.926,0.00,200.663,0.00,282.739c0.00,77.651, 7.296,134.155, 36.344,142.085c 29.063,7.958, 66.085-23.379, 102.175-57.36 c 36.081-33.981, 42.174-31.771, 71.229-31.771L 256.00,336.715l 46.252-1.021c 29.056,0.00, 35.148-2.211, 71.229,31.771 c 36.09,33.981, 73.111,65.318, 102.175,57.36C 504.704,416.895, 512.00,360.391, 512.00,282.739C 512.00,200.663, 463.471,85.926, 369.736,85.926z M 144.00,288.00c-44.183,0.00-80.00-35.817-80.00-80.00s 35.817-80.00, 80.00-80.00s 80.00,35.817, 80.00,80.00S 188.183,288.00, 144.00,288.00z M 368.00,288.00c-44.183,0.00-80.00-35.817-80.00-80.00 s 35.817-80.00, 80.00-80.00s 80.00,35.817, 80.00,80.00S 412.183,288.00, 368.00,288.00z" ></path></svg>