<?xml version="1.0" encoding="utf-8"?> <!-- Generator: IcoMoon.io --> <!DOCTYPE svg PUBLIC "-//W3C//DTD SVG 1.1//EN" "http://www.w3.org/Graphics/SVG/1.1/DTD/svg11.dtd"> <svg width="512" height="512" viewBox="0 0 512 512" xmlns="http://www.w3.org/2000/svg" xmlns:xlink="http://www.w3.org/1999/xlink" fill="#000000"><g class="svgGrid" id="svgGrid"><line stroke-width="1" stroke="#B35047" x1="32" x2="32" y1="0" y2="512"></line><line stroke-width="1" stroke="#B35047" x1="64" x2="64" y1="0" y2="512"></line><line stroke-width="1" stroke="#B35047" x1="96" x2="96" y1="0" y2="512"></line><line stroke-width="1" stroke="#B35047" x1="128" x2="128" y1="0" y2="512"></line><line stroke-width="1" stroke="#B35047" x1="160" x2="160" y1="0" y2="512"></line><line stroke-width="1" stroke="#B35047" x1="192" x2="192" y1="0" y2="512"></line><line stroke-width="1" stroke="#B35047" x1="224" x2="224" y1="0" y2="512"></line><line stroke-width="1" stroke="#B35047" x1="256" x2="256" y1="0" y2="512"></line><line stroke-width="1" stroke="#B35047" x1="288" x2="288" y1="0" y2="512"></line><line stroke-width="1" stroke="#B35047" x1="320" x2="320" y1="0" y2="512"></line><line stroke-width="1" stroke="#B35047" x1="352" x2="352" y1="0" y2="512"></line><line stroke-width="1" stroke="#B35047" x1="384" x2="384" y1="0" y2="512"></line><line stroke-width="1" stroke="#B35047" x1="416" x2="416" y1="0" y2="512"></line><line stroke-width="1" stroke="#B35047" x1="448" x2="448" y1="0" y2="512"></line><line stroke-width="1" stroke="#B35047" x1="480" x2="480" y1="0" y2="512"></line><line stroke-width="1" stroke="#B35047" x1="0" x2="512" y1="32" y2="32"></line><line stroke-width="1" stroke="#B35047" x1="0" x2="512" y1="64" y2="64"></line><line stroke-width="1" stroke="#B35047" x1="0" x2="512" y1="96" y2="96"></line><line stroke-width="1" stroke="#B35047" x1="0" x2="512" y1="128" y2="128"></line><line stroke-width="1" stroke="#B35047" x1="0" x2="512" y1="160" y2="160"></line><line stroke-width="1" stroke="#B35047" x1="0" x2="512" y1="192" y2="192"></line><line stroke-width="1" stroke="#B35047" x1="0" x2="512" y1="224" y2="224"></line><line stroke-width="1" stroke="#B35047" x1="0" x2="512" y1="256" y2="256"></line><line stroke-width="1" stroke="#B35047" x1="0" x2="512" y1="288" y2="288"></line><line stroke-width="1" stroke="#B35047" x1="0" x2="512" y1="320" y2="320"></line><line stroke-width="1" stroke="#B35047" x1="0" x2="512" y1="352" y2="352"></line><line stroke-width="1" stroke="#B35047" x1="0" x2="512" y1="384" y2="384"></line><line stroke-width="1" stroke="#B35047" x1="0" x2="512" y1="416" y2="416"></line><line stroke-width="1" stroke="#B35047" x1="0" x2="512" y1="448" y2="448"></line><line stroke-width="1" stroke="#B35047" x1="0" x2="512" y1="480" y2="480"></line><rect x="0" y="0" width="512" height="512" fill="none" stroke-width="1" stroke="#B35047"></rect></g><path d="M 475.931,157.934c-12.993-21.217-28.493-38.025-46.064-49.957C 409.825,94.37, 387.61,87.47, 363.839,87.47 c-32.558,0.00-50.831,10.297-66.954,19.382c-13.141,7.404-23.52,13.253-40.882,13.255c-17.366-0.001-27.746-5.851-40.887-13.255 c-16.122-9.084-34.395-19.381-66.952-19.381c-23.772,0.00-45.987,6.899-66.027,20.506c-17.574,11.932-33.072,28.74-46.066,49.957 C 13.484,194.814,0.00,243.195,0.00,287.354c0.00,42.424, 2.291,72.609, 7.21,94.996c 6.673,30.364, 18.785,47.547, 37.017,52.523 c 4.014,1.10, 8.24,1.656, 12.562,1.656c 31.438,0.00, 65.118-29.235, 96.922-59.182c 28.18-26.541, 33.171-26.541, 49.708-26.541 c 1.258,0.00, 2.563,0.006, 3.925,0.014c 1.483,0.008, 3.031,0.015, 4.653,0.015L 256.00,351.809l 44.002-0.974c 1.622,0.00, 3.169-0.007, 4.652-0.015 c 1.361-0.008, 2.669-0.014, 3.926-0.014c 16.537,0.00, 21.529,0.00, 49.71,26.541c 31.803,29.946, 65.482,59.182, 96.92,59.183 c 0.001,0.00, 0.001,0.00, 0.002,0.00c 4.32,0.00, 8.547-0.558, 12.551-1.653c 18.243-4.979, 30.354-22.162, 37.026-52.525 c 4.919-22.389, 7.211-52.574, 7.211-94.998C 512.00,243.195, 498.516,194.814, 475.931,157.934z M 473.534,375.483 c-3.554,16.173-8.993,27.103-14.218,28.528c-1.257,0.344-2.638,0.519-4.105,0.519c-21.375-0.001-57.583-34.095-74.981-50.478 c-17.039-16.048-27.119-23.831-37.192-28.719c-13.453-6.527-24.612-6.527-34.457-6.527c-1.314,0.00-2.683,0.006-4.096,0.014 c-1.429,0.008-2.92,0.015-4.482,0.015l-0.354,0.00 l-0.354,0.008L 256.00,319.801l-43.295-0.958l-0.354-0.008l-0.354,0.00 c-1.563,0.00-3.054-0.007-4.472-0.014c-1.425-0.009-2.791-0.015-4.106-0.015c-9.845,0.00-21.004,0.00-34.457,6.528 c-10.072,4.887-20.152,12.67-37.188,28.715c-17.401,16.385-53.61,50.479-74.985,50.479c-1.468,0.00-2.85-0.175-4.136-0.526 c-5.198-1.419-10.635-12.348-14.189-28.521C 34.054,355.411, 32.00,327.407, 32.00,287.354c0.00-18.804, 2.901-39.153, 8.391-58.848 c 5.472-19.634, 13.415-38.258, 22.969-53.859c 10.603-17.312, 22.968-30.836, 36.753-40.195c 14.639-9.94, 30.805-14.98, 48.051-14.98 c 24.161,0.00, 36.71,7.071, 51.251,15.264c 14.451,8.142, 30.83,17.37, 56.592,17.372c 25.752-0.003, 42.13-9.23, 56.588-17.376 c 14.531-8.188, 27.082-15.26, 51.244-15.26c 17.244,0.00, 33.411,5.041, 48.05,14.98c 13.787,9.362, 26.152,22.886, 36.753,40.196 c 9.554,15.601, 17.496,34.225, 22.968,53.859c 5.489,19.695, 8.391,40.044, 8.391,58.848C 480.00,327.403, 477.945,355.408, 473.534,375.483zM 320.00,192.00A32.00,32.00 5760.00 1,0 384.00,192A32.00,32.00 5760.00 1,0 320.00,192zM 384.00,256.00A32.00,32.00 5760.00 1,0 448.00,256A32.00,32.00 5760.00 1,0 384.00,256zM 128.00,192.00c 17.645,0.00, 32.00,14.355, 32.00,32.00s-14.355,32.00-32.00,32.00s-32.00-14.355-32.00-32.00S 110.355,192.00, 128.00,192.00 M 128.00,160.00 c-35.29,0.00-64.00,28.71-64.00,64.00c0.00,35.29, 28.71,64.00, 64.00,64.00s 64.00-28.71, 64.00-64.00C 192.00,188.71, 163.29,160.00, 128.00,160.00L 128.00,160.00z" ></path></svg>