<?xml version="1.0" encoding="utf-8"?> <!-- Generator: IcoMoon.io --> <!DOCTYPE svg PUBLIC "-//W3C//DTD SVG 1.1//EN" "http://www.w3.org/Graphics/SVG/1.1/DTD/svg11.dtd"> <svg width="512" height="512" viewBox="0 0 512 512" xmlns="http://www.w3.org/2000/svg" xmlns:xlink="http://www.w3.org/1999/xlink" fill="#000000"><g class="svgGrid" id="svgGrid"><line stroke-width="1" stroke="#B35047" x1="32" x2="32" y1="0" y2="512"></line><line stroke-width="1" stroke="#B35047" x1="64" x2="64" y1="0" y2="512"></line><line stroke-width="1" stroke="#B35047" x1="96" x2="96" y1="0" y2="512"></line><line stroke-width="1" stroke="#B35047" x1="128" x2="128" y1="0" y2="512"></line><line stroke-width="1" stroke="#B35047" x1="160" x2="160" y1="0" y2="512"></line><line stroke-width="1" stroke="#B35047" x1="192" x2="192" y1="0" y2="512"></line><line stroke-width="1" stroke="#B35047" x1="224" x2="224" y1="0" y2="512"></line><line stroke-width="1" stroke="#B35047" x1="256" x2="256" y1="0" y2="512"></line><line stroke-width="1" stroke="#B35047" x1="288" x2="288" y1="0" y2="512"></line><line stroke-width="1" stroke="#B35047" x1="320" x2="320" y1="0" y2="512"></line><line stroke-width="1" stroke="#B35047" x1="352" x2="352" y1="0" y2="512"></line><line stroke-width="1" stroke="#B35047" x1="384" x2="384" y1="0" y2="512"></line><line stroke-width="1" stroke="#B35047" x1="416" x2="416" y1="0" y2="512"></line><line stroke-width="1" stroke="#B35047" x1="448" x2="448" y1="0" y2="512"></line><line stroke-width="1" stroke="#B35047" x1="480" x2="480" y1="0" y2="512"></line><line stroke-width="1" stroke="#B35047" x1="0" x2="512" y1="32" y2="32"></line><line stroke-width="1" stroke="#B35047" x1="0" x2="512" y1="64" y2="64"></line><line stroke-width="1" stroke="#B35047" x1="0" x2="512" y1="96" y2="96"></line><line stroke-width="1" stroke="#B35047" x1="0" x2="512" y1="128" y2="128"></line><line stroke-width="1" stroke="#B35047" x1="0" x2="512" y1="160" y2="160"></line><line stroke-width="1" stroke="#B35047" x1="0" x2="512" y1="192" y2="192"></line><line stroke-width="1" stroke="#B35047" x1="0" x2="512" y1="224" y2="224"></line><line stroke-width="1" stroke="#B35047" x1="0" x2="512" y1="256" y2="256"></line><line stroke-width="1" stroke="#B35047" x1="0" x2="512" y1="288" y2="288"></line><line stroke-width="1" stroke="#B35047" x1="0" x2="512" y1="320" y2="320"></line><line stroke-width="1" stroke="#B35047" x1="0" x2="512" y1="352" y2="352"></line><line stroke-width="1" stroke="#B35047" x1="0" x2="512" y1="384" y2="384"></line><line stroke-width="1" stroke="#B35047" x1="0" x2="512" y1="416" y2="416"></line><line stroke-width="1" stroke="#B35047" x1="0" x2="512" y1="448" y2="448"></line><line stroke-width="1" stroke="#B35047" x1="0" x2="512" y1="480" y2="480"></line><rect x="0" y="0" width="512" height="512" fill="none" stroke-width="1" stroke="#B35047"></rect></g><path d="M 364.556,349.662c-16.559,0.00-40.228-1.143-54.553-11.025c-17.946-12.381-32.25-62.186-39.18-90.771 c-1.225-5.048-4.669-7.367-8.378-8.329l-6.442-0.545l-6.526,0.564c-3.678,0.975-7.083,3.297-8.298,8.309 c-6.932,28.588-21.239,78.395-39.178,90.772c-14.328,9.883-37.997,11.025-54.554,11.025c-3.699,0.00-7.116-0.06-10.131-0.111 c-2.295-0.04-4.345-0.076-6.076-0.076c-68.958,0.00-91.864-23.347-98.936-42.932c-5.459-15.116-8.929-31.13-11.99-45.259 c-4.019-18.546-8.175-37.724-14.898-41.701l-2.263-1.34l-0.982-2.439c-4.185-10.392-1.149-36.057-0.498-41.097l 0.776-6.01 l 6.019-0.701c 30.069-3.506, 75.116-5.658, 94.174-5.658c 0.735,0.00, 74.489,0.472, 96.149,10.97c 2.973,1.44, 5.97,3.002, 8.869,4.512 c 13.646,7.108, 27.757,14.459, 48.385,14.585c 20.533-0.127, 34.642-7.477, 48.288-14.585c 2.897-1.51, 5.895-3.071, 8.866-4.512 c 21.663-10.498, 95.417-10.97, 96.152-10.97c 19.063,0.00, 64.113,2.152, 94.175,5.658l 6.019,0.701l 0.776,6.01 c 0.651,5.039, 3.69,30.704-0.489,41.095l-0.981,2.441l-2.266,1.34c-6.724,3.979-10.879,23.156-14.898,41.703 c-3.061,14.128-6.53,30.142-11.988,45.257c-7.074,19.586-29.98,42.932-98.937,42.932c-1.734,0.00-3.784,0.036-6.078,0.076 C 371.671,349.603, 368.255,349.662, 364.556,349.662z M 413.927,195.488c-50.501,0.00-85.259,6.76-96.183,13.041 c-12.664,7.281-15.064,14.673-15.064,25.766c0.00,8.89, 9.907,48.147, 17.364,63.063c 6.573,13.144, 14.895,19.464, 26.982,20.491 c 4.684,0.398, 11.674,0.627, 19.176,0.627c 29.55,0.00, 54.92-2.995, 64.635-7.631c 12.679-6.051, 25.789-12.308, 30.033-69.774 c 0.19-2.574, 0.438-5.146, 0.679-7.635c 1.175-12.159, 2.19-22.661-3.359-28.91c-4.925-5.546-15.666-8.54-31.923-8.90 C 422.157,195.534, 418.006,195.488, 413.927,195.488z M 98.067,195.485c-4.079,0.00-8.231,0.046-12.34,0.137 c-16.256,0.36-26.996,3.355-31.92,8.901c-5.551,6.251-4.535,16.754-3.359,28.916c 0.241,2.486, 0.489,5.058, 0.679,7.631 c 4.244,57.468, 17.353,63.725, 30.032,69.775c 9.712,4.636, 35.08,7.631, 64.626,7.631c 7.505,0.00, 14.496-0.229, 19.18-0.628 c 12.093-1.026, 20.415-7.346, 26.985-20.491c 5.45-10.899, 17.361-50.897, 17.36-63.066c0.00-11.093-2.40-18.485-15.062-25.766 C 183.325,202.244, 148.566,195.485, 98.067,195.485z" ></path></svg>