<?xml version="1.0" encoding="utf-8"?> <!-- Generator: IcoMoon.io --> <!DOCTYPE svg PUBLIC "-//W3C//DTD SVG 1.1//EN" "http://www.w3.org/Graphics/SVG/1.1/DTD/svg11.dtd"> <svg width="512" height="512" viewBox="0 0 512 512" xmlns="http://www.w3.org/2000/svg" xmlns:xlink="http://www.w3.org/1999/xlink" fill="#000000"><g class="svgGrid" id="svgGrid"><line stroke-width="1" stroke="#B35047" x1="32" x2="32" y1="0" y2="512"></line><line stroke-width="1" stroke="#B35047" x1="64" x2="64" y1="0" y2="512"></line><line stroke-width="1" stroke="#B35047" x1="96" x2="96" y1="0" y2="512"></line><line stroke-width="1" stroke="#B35047" x1="128" x2="128" y1="0" y2="512"></line><line stroke-width="1" stroke="#B35047" x1="160" x2="160" y1="0" y2="512"></line><line stroke-width="1" stroke="#B35047" x1="192" x2="192" y1="0" y2="512"></line><line stroke-width="1" stroke="#B35047" x1="224" x2="224" y1="0" y2="512"></line><line stroke-width="1" stroke="#B35047" x1="256" x2="256" y1="0" y2="512"></line><line stroke-width="1" stroke="#B35047" x1="288" x2="288" y1="0" y2="512"></line><line stroke-width="1" stroke="#B35047" x1="320" x2="320" y1="0" y2="512"></line><line stroke-width="1" stroke="#B35047" x1="352" x2="352" y1="0" y2="512"></line><line stroke-width="1" stroke="#B35047" x1="384" x2="384" y1="0" y2="512"></line><line stroke-width="1" stroke="#B35047" x1="416" x2="416" y1="0" y2="512"></line><line stroke-width="1" stroke="#B35047" x1="448" x2="448" y1="0" y2="512"></line><line stroke-width="1" stroke="#B35047" x1="480" x2="480" y1="0" y2="512"></line><line stroke-width="1" stroke="#B35047" x1="0" x2="512" y1="32" y2="32"></line><line stroke-width="1" stroke="#B35047" x1="0" x2="512" y1="64" y2="64"></line><line stroke-width="1" stroke="#B35047" x1="0" x2="512" y1="96" y2="96"></line><line stroke-width="1" stroke="#B35047" x1="0" x2="512" y1="128" y2="128"></line><line stroke-width="1" stroke="#B35047" x1="0" x2="512" y1="160" y2="160"></line><line stroke-width="1" stroke="#B35047" x1="0" x2="512" y1="192" y2="192"></line><line stroke-width="1" stroke="#B35047" x1="0" x2="512" y1="224" y2="224"></line><line stroke-width="1" stroke="#B35047" x1="0" x2="512" y1="256" y2="256"></line><line stroke-width="1" stroke="#B35047" x1="0" x2="512" y1="288" y2="288"></line><line stroke-width="1" stroke="#B35047" x1="0" x2="512" y1="320" y2="320"></line><line stroke-width="1" stroke="#B35047" x1="0" x2="512" y1="352" y2="352"></line><line stroke-width="1" stroke="#B35047" x1="0" x2="512" y1="384" y2="384"></line><line stroke-width="1" stroke="#B35047" x1="0" x2="512" y1="416" y2="416"></line><line stroke-width="1" stroke="#B35047" x1="0" x2="512" y1="448" y2="448"></line><line stroke-width="1" stroke="#B35047" x1="0" x2="512" y1="480" y2="480"></line><rect x="0" y="0" width="512" height="512" fill="none" stroke-width="1" stroke="#B35047"></rect></g><path d="M 256.00,0.00C 114.615,0.00,0.00,114.615,0.00,256.00s 114.615,256.00, 256.00,256.00s 256.00-114.615, 256.00-256.00S 397.385,0.00, 256.00,0.00z M 265.035,470.342 c-3.771,8.332-6.934,12.994-9.035,15.516c-2.102-2.521-5.265-7.184-9.036-15.516c-5.792-12.799-11.245-30.529-15.768-51.273 c-0.278-1.276-0.552-2.566-0.823-3.864C 238.802,415.728, 247.35,416.00, 256.00,416.00c 8.65,0.00, 17.198-0.272, 25.628-0.796 c-0.271,1.298-0.545,2.588-0.823,3.864C 276.281,439.812, 270.828,457.543, 265.035,470.342z M 256.00,392.00 c-10.145,0.00-20.19-0.387-30.108-1.155c-3.553-22.027-6.201-46.185-7.858-71.546C 230.423,319.759, 243.098,320.00, 256.00,320.00 c 12.901,0.00, 25.577-0.241, 37.967-0.702c-1.657,25.362-4.306,49.52-7.858,71.546C 276.19,391.613, 266.146,392.00, 256.00,392.00z M 256.00,296.00 c-13.225,0.00-26.339-0.261-39.229-0.771C 216.261,282.339, 216.00,269.225, 216.00,256.00s 0.261-26.339, 0.771-39.229 C 229.661,216.261, 242.775,216.00, 256.00,216.00c 13.225,0.00, 26.339,0.261, 39.229,0.771C 295.739,229.661, 296.00,242.775, 296.00,256.00 c0.00,13.225-0.261,26.339-0.771,39.229C 282.339,295.739, 269.225,296.00, 256.00,296.00z M 120.00,256.00c0.00-10.145, 0.387-20.19, 1.156-30.108 c 22.027-3.553, 46.184-6.201, 71.546-7.858C 192.241,230.423, 192.00,243.098, 192.00,256.00c0.00,12.901, 0.241,25.577, 0.702,37.967 c-25.362-1.657-49.519-4.306-71.546-7.857C 120.387,276.19, 120.00,266.146, 120.00,256.00z M 96.796,281.628 c-1.298-0.271-2.588-0.545-3.865-0.823c-20.745-4.523-38.475-9.977-51.274-15.77c-8.332-3.771-12.995-6.934-15.515-9.035 c 2.52-2.101, 7.183-5.264, 15.515-9.035c 12.799-5.793, 30.53-11.245, 51.274-15.768c 1.277-0.278, 2.567-0.552, 3.865-0.823 C 96.272,238.803, 96.00,247.351, 96.00,256.00C 96.00,264.65, 96.272,273.198, 96.796,281.628z M 246.964,41.657 c 3.771-8.332, 6.934-12.994, 9.036-15.514c 2.102,2.52, 5.266,7.183, 9.035,15.515c 5.793,12.799, 11.244,30.53, 15.77,51.274 c 0.278,1.276, 0.552,2.566, 0.823,3.864C 273.198,96.272, 264.65,96.00, 256.00,96.00c-8.65,0.00-17.198,0.272-25.627,0.796 c 0.271-1.298, 0.545-2.588, 0.823-3.865C 235.719,72.186, 241.172,54.456, 246.964,41.657z M 256.00,120.00c 10.146,0.00, 20.19,0.387, 30.108,1.156 c 3.553,22.027, 6.201,46.184, 7.858,71.546C 281.577,192.241, 268.901,192.00, 256.00,192.00c-12.902,0.00-25.577,0.241-37.966,0.702 c 1.657-25.362, 4.305-49.519, 7.858-71.546C 235.81,120.386, 245.854,120.00, 256.00,120.00z M 319.298,218.034 c 25.362,1.658, 49.52,4.305, 71.546,7.858C 391.613,235.81, 392.00,245.855, 392.00,256.00c0.00,10.146-0.387,20.19-1.156,30.108 c-22.026,3.553-46.184,6.201-71.546,7.858C 319.759,281.577, 320.00,268.901, 320.00,256.00C 320.00,243.098, 319.759,230.423, 319.298,218.034z M 415.204,230.374c 1.298,0.271, 2.588,0.545, 3.864,0.823c 20.744,4.523, 38.475,9.975, 51.273,15.768 c 8.332,3.771, 12.994,6.934, 15.516,9.035c-2.521,2.102-7.184,5.266-15.516,9.035c-12.80,5.793-30.529,11.244-51.273,15.77 c-1.276,0.278-2.566,0.552-3.864,0.823C 415.728,273.198, 416.00,264.65, 416.00,256.00C 416.00,247.351, 415.728,238.803, 415.204,230.374z M 412.871,205.424c-2.382-19.014-6.075-37.269-10.931-54.507c 7.833,3.788, 15.299,7.885, 22.358,12.297 c 20.652,12.907, 36.703,27.697, 47.707,43.958c 4.164,6.152, 7.51,12.42, 10.054,18.775C 464.994,217.941, 441.329,210.949, 412.871,205.424 z M 380.223,162.488c 3.323,12.571, 5.943,25.489, 7.865,38.681c-21.474-3.24-45.006-5.712-69.988-7.268 c-1.557-24.982-4.028-48.515-7.268-69.988c 13.191,1.921, 26.109,4.541, 38.681,7.864c 8.094,2.14, 15.931,4.547, 23.513,7.197 C 375.676,146.557, 378.083,154.394, 380.223,162.488z M 306.576,99.129c-5.525-28.458-12.518-52.124-20.524-69.189 c 6.355,2.544, 12.624,5.89, 18.776,10.054c 16.261,11.004, 31.05,27.055, 43.957,47.707c 4.412,7.06, 8.511,14.526, 12.298,22.359 C 343.845,105.204, 325.59,101.51, 306.576,99.129z M 207.173,39.993c 6.152-4.164, 12.42-7.509, 18.775-10.053 c-8.006,17.065-14.999,40.73-20.523,69.189c-19.014,2.381-37.269,6.075-54.507,10.931c 3.787-7.833, 7.885-15.30, 12.297-22.36 C 176.122,67.049, 190.912,50.997, 207.173,39.993z M 162.488,131.776c 12.571-3.323, 25.489-5.942, 38.681-7.864 c-3.24,21.474-5.712,45.006-7.268,69.988c-24.982,1.556-48.515,4.028-69.988,7.268c 1.921-13.192, 4.541-26.11, 7.864-38.682 c 2.14-8.094, 4.547-15.931, 7.198-23.514C 146.557,136.322, 154.394,133.916, 162.488,131.776z M 99.129,205.424 c-28.458,5.525-52.124,12.517-69.189,20.523c 2.544-6.355, 5.89-12.624, 10.054-18.776c 11.004-16.261, 27.055-31.05, 47.707-43.958 c 7.06-4.412, 14.526-8.51, 22.359-12.297C 105.204,168.155, 101.51,186.41, 99.129,205.424z M 29.94,286.053 c 17.065,8.007, 40.73,14.999, 69.189,20.523c 2.382,19.015, 6.075,37.27, 10.931,54.508c-7.833-3.787-15.30-7.886-22.36-12.298 c-20.651-12.907-36.703-27.696-47.707-43.957C 35.83,298.677, 32.484,292.407, 29.94,286.053z M 131.776,349.514 c-3.323-12.571-5.942-25.49-7.864-38.682c 21.474,3.24, 45.006,5.711, 69.988,7.268c 1.556,24.982, 4.028,48.515, 7.268,69.988 c-13.192-1.921-26.11-4.54-38.682-7.863c-8.094-2.14-15.931-4.547-23.513-7.197C 136.323,365.444, 133.916,357.607, 131.776,349.514z M 205.424,412.871c 5.525,28.458, 12.517,52.124, 20.523,69.188c-6.355-2.544-12.624-5.89-18.776-10.054 c-16.261-11.004-31.05-27.055-43.958-47.707c-4.412-7.06-8.51-14.525-12.298-22.359C 168.154,406.796, 186.41,410.489, 205.424,412.871 z M 304.829,472.006c-6.153,4.164-12.422,7.51-18.777,10.055c 8.007-17.065, 14.999-40.73, 20.524-69.189 c 19.014-2.382, 37.27-6.075, 54.508-10.932c-3.787,7.834-7.886,15.30-12.298,22.359C 335.879,444.951, 321.09,461.002, 304.829,472.006z M 349.513,380.223c-12.571,3.323-25.489,5.943-38.681,7.864c 3.239-21.473, 5.711-45.005, 7.268-69.987 c 24.982-1.557, 48.515-4.028, 69.988-7.268c-1.922,13.191-4.541,26.109-7.864,38.682c-2.14,8.093-4.546,15.93-7.196,23.512 C 365.444,375.676, 357.606,378.083, 349.513,380.223z M 412.871,306.576c 28.458-5.525, 52.124-12.518, 69.189-20.524 c-2.545,6.355-5.891,12.624-10.055,18.776c-11.004,16.261-27.055,31.05-47.707,43.957c-7.06,4.412-14.525,8.511-22.358,12.298 C 406.796,343.845, 410.489,325.59, 412.871,306.576z M 420.049,91.951c 21.314,21.314, 38.046,46.128, 49.729,73.751 c 0.52,1.228, 1.013,2.463, 1.51,3.698c-20.423-19.792-47.646-36.58-79.60-49.088c-12.509-31.953-29.296-59.176-49.088-79.60 c 1.234,0.498, 2.47,0.991, 3.697,1.51C 373.921,53.906, 398.735,70.638, 420.049,91.951z M 91.951,91.952 c 21.314-21.314, 46.128-38.045, 73.751-49.729c 1.227-0.519, 2.462-1.012, 3.695-1.509c-19.791,20.423-36.578,47.646-49.085,79.598 c-31.953,12.508-59.176,29.295-79.599,49.086c 0.497-1.233, 0.99-2.468, 1.509-3.695C 53.906,138.079, 70.638,113.266, 91.951,91.952z M 91.952,420.049c-21.314-21.313-38.045-46.128-49.729-73.751c-0.519-1.228-1.012-2.462-1.509-3.695 c 20.423,19.791, 47.646,36.578, 79.598,49.086c 12.508,31.952, 29.295,59.176, 49.087,79.599c-1.234-0.496-2.469-0.989-3.696-1.509 C 138.079,458.094, 113.266,441.363, 91.952,420.049z M 420.049,420.049c-21.313,21.314-46.128,38.046-73.751,49.729 c-1.228,0.52-2.463,1.013-3.697,1.51c 19.792-20.423, 36.579-47.646, 49.088-79.60c 31.953-12.509, 59.177-29.296, 79.60-49.088 c-0.497,1.234-0.99,2.47-1.51,3.697C 458.094,373.921, 441.363,398.735, 420.049,420.049z" ></path></svg>