<?xml version="1.0" encoding="utf-8"?> <!-- Generator: IcoMoon.io --> <!DOCTYPE svg PUBLIC "-//W3C//DTD SVG 1.1//EN" "http://www.w3.org/Graphics/SVG/1.1/DTD/svg11.dtd"> <svg width="512" height="512" viewBox="0 0 512 512" xmlns="http://www.w3.org/2000/svg" xmlns:xlink="http://www.w3.org/1999/xlink" fill="#000000"><g class="svgGrid" id="svgGrid"><line stroke-width="1" stroke="#B35047" x1="32" x2="32" y1="0" y2="512"></line><line stroke-width="1" stroke="#B35047" x1="64" x2="64" y1="0" y2="512"></line><line stroke-width="1" stroke="#B35047" x1="96" x2="96" y1="0" y2="512"></line><line stroke-width="1" stroke="#B35047" x1="128" x2="128" y1="0" y2="512"></line><line stroke-width="1" stroke="#B35047" x1="160" x2="160" y1="0" y2="512"></line><line stroke-width="1" stroke="#B35047" x1="192" x2="192" y1="0" y2="512"></line><line stroke-width="1" stroke="#B35047" x1="224" x2="224" y1="0" y2="512"></line><line stroke-width="1" stroke="#B35047" x1="256" x2="256" y1="0" y2="512"></line><line stroke-width="1" stroke="#B35047" x1="288" x2="288" y1="0" y2="512"></line><line stroke-width="1" stroke="#B35047" x1="320" x2="320" y1="0" y2="512"></line><line stroke-width="1" stroke="#B35047" x1="352" x2="352" y1="0" y2="512"></line><line stroke-width="1" stroke="#B35047" x1="384" x2="384" y1="0" y2="512"></line><line stroke-width="1" stroke="#B35047" x1="416" x2="416" y1="0" y2="512"></line><line stroke-width="1" stroke="#B35047" x1="448" x2="448" y1="0" y2="512"></line><line stroke-width="1" stroke="#B35047" x1="480" x2="480" y1="0" y2="512"></line><line stroke-width="1" stroke="#B35047" x1="0" x2="512" y1="32" y2="32"></line><line stroke-width="1" stroke="#B35047" x1="0" x2="512" y1="64" y2="64"></line><line stroke-width="1" stroke="#B35047" x1="0" x2="512" y1="96" y2="96"></line><line stroke-width="1" stroke="#B35047" x1="0" x2="512" y1="128" y2="128"></line><line stroke-width="1" stroke="#B35047" x1="0" x2="512" y1="160" y2="160"></line><line stroke-width="1" stroke="#B35047" x1="0" x2="512" y1="192" y2="192"></line><line stroke-width="1" stroke="#B35047" x1="0" x2="512" y1="224" y2="224"></line><line stroke-width="1" stroke="#B35047" x1="0" x2="512" y1="256" y2="256"></line><line stroke-width="1" stroke="#B35047" x1="0" x2="512" y1="288" y2="288"></line><line stroke-width="1" stroke="#B35047" x1="0" x2="512" y1="320" y2="320"></line><line stroke-width="1" stroke="#B35047" x1="0" x2="512" y1="352" y2="352"></line><line stroke-width="1" stroke="#B35047" x1="0" x2="512" y1="384" y2="384"></line><line stroke-width="1" stroke="#B35047" x1="0" x2="512" y1="416" y2="416"></line><line stroke-width="1" stroke="#B35047" x1="0" x2="512" y1="448" y2="448"></line><line stroke-width="1" stroke="#B35047" x1="0" x2="512" y1="480" y2="480"></line><rect x="0" y="0" width="512" height="512" fill="none" stroke-width="1" stroke="#B35047"></rect></g><path d="M 96.00,32.00 L 96.00,32.00 C 131.346,32.00 160.00,60.654 160.00,96.00 C 160.00,131.346 131.346,160.00 96.00,160.00 C 60.654,160.00 32.00,131.346 32.00,96.00 C 32.00,60.654 60.654,32.00 96.00,32.00 ZM 256.00,32.00 L 256.00,32.00 C 291.346,32.00 320.00,60.654 320.00,96.00 C 320.00,131.346 291.346,160.00 256.00,160.00 C 220.654,160.00 192.00,131.346 192.00,96.00 C 192.00,60.654 220.654,32.00 256.00,32.00 ZM 416.00,32.00 L 416.00,32.00 C 451.346,32.00 480.00,60.654 480.00,96.00 C 480.00,131.346 451.346,160.00 416.00,160.00 C 380.654,160.00 352.00,131.346 352.00,96.00 C 352.00,60.654 380.654,32.00 416.00,32.00 ZM 96.00,192.00 L 96.00,192.00 C 131.346,192.00 160.00,220.654 160.00,256.00 C 160.00,291.346 131.346,320.00 96.00,320.00 C 60.654,320.00 32.00,291.346 32.00,256.00 C 32.00,220.654 60.654,192.00 96.00,192.00 ZM 256.00,192.00 L 256.00,192.00 C 291.346,192.00 320.00,220.654 320.00,256.00 C 320.00,291.346 291.346,320.00 256.00,320.00 C 220.654,320.00 192.00,291.346 192.00,256.00 C 192.00,220.654 220.654,192.00 256.00,192.00 ZM 416.00,192.00 L 416.00,192.00 C 451.346,192.00 480.00,220.654 480.00,256.00 C 480.00,291.346 451.346,320.00 416.00,320.00 C 380.654,320.00 352.00,291.346 352.00,256.00 C 352.00,220.654 380.654,192.00 416.00,192.00 ZM 96.00,352.00 L 96.00,352.00 C 131.346,352.00 160.00,380.654 160.00,416.00 C 160.00,451.346 131.346,480.00 96.00,480.00 C 60.654,480.00 32.00,451.346 32.00,416.00 C 32.00,380.654 60.654,352.00 96.00,352.00 ZM 256.00,352.00 L 256.00,352.00 C 291.346,352.00 320.00,380.654 320.00,416.00 C 320.00,451.346 291.346,480.00 256.00,480.00 C 220.654,480.00 192.00,451.346 192.00,416.00 C 192.00,380.654 220.654,352.00 256.00,352.00 ZM 416.00,352.00 L 416.00,352.00 C 451.346,352.00 480.00,380.654 480.00,416.00 C 480.00,451.346 451.346,480.00 416.00,480.00 C 380.654,480.00 352.00,451.346 352.00,416.00 C 352.00,380.654 380.654,352.00 416.00,352.00 Z" ></path></svg>