<?xml version="1.0" encoding="utf-8"?> <!-- Generator: IcoMoon.io --> <!DOCTYPE svg PUBLIC "-//W3C//DTD SVG 1.1//EN" "http://www.w3.org/Graphics/SVG/1.1/DTD/svg11.dtd"> <svg width="512" height="512" viewBox="0 0 512 512" xmlns="http://www.w3.org/2000/svg" xmlns:xlink="http://www.w3.org/1999/xlink" fill="#000000"><g class="svgGrid" id="svgGrid"><line stroke-width="1" stroke="#B35047" x1="32" x2="32" y1="0" y2="512"></line><line stroke-width="1" stroke="#B35047" x1="64" x2="64" y1="0" y2="512"></line><line stroke-width="1" stroke="#B35047" x1="96" x2="96" y1="0" y2="512"></line><line stroke-width="1" stroke="#B35047" x1="128" x2="128" y1="0" y2="512"></line><line stroke-width="1" stroke="#B35047" x1="160" x2="160" y1="0" y2="512"></line><line stroke-width="1" stroke="#B35047" x1="192" x2="192" y1="0" y2="512"></line><line stroke-width="1" stroke="#B35047" x1="224" x2="224" y1="0" y2="512"></line><line stroke-width="1" stroke="#B35047" x1="256" x2="256" y1="0" y2="512"></line><line stroke-width="1" stroke="#B35047" x1="288" x2="288" y1="0" y2="512"></line><line stroke-width="1" stroke="#B35047" x1="320" x2="320" y1="0" y2="512"></line><line stroke-width="1" stroke="#B35047" x1="352" x2="352" y1="0" y2="512"></line><line stroke-width="1" stroke="#B35047" x1="384" x2="384" y1="0" y2="512"></line><line stroke-width="1" stroke="#B35047" x1="416" x2="416" y1="0" y2="512"></line><line stroke-width="1" stroke="#B35047" x1="448" x2="448" y1="0" y2="512"></line><line stroke-width="1" stroke="#B35047" x1="480" x2="480" y1="0" y2="512"></line><line stroke-width="1" stroke="#B35047" x1="0" x2="512" y1="32" y2="32"></line><line stroke-width="1" stroke="#B35047" x1="0" x2="512" y1="64" y2="64"></line><line stroke-width="1" stroke="#B35047" x1="0" x2="512" y1="96" y2="96"></line><line stroke-width="1" stroke="#B35047" x1="0" x2="512" y1="128" y2="128"></line><line stroke-width="1" stroke="#B35047" x1="0" x2="512" y1="160" y2="160"></line><line stroke-width="1" stroke="#B35047" x1="0" x2="512" y1="192" y2="192"></line><line stroke-width="1" stroke="#B35047" x1="0" x2="512" y1="224" y2="224"></line><line stroke-width="1" stroke="#B35047" x1="0" x2="512" y1="256" y2="256"></line><line stroke-width="1" stroke="#B35047" x1="0" x2="512" y1="288" y2="288"></line><line stroke-width="1" stroke="#B35047" x1="0" x2="512" y1="320" y2="320"></line><line stroke-width="1" stroke="#B35047" x1="0" x2="512" y1="352" y2="352"></line><line stroke-width="1" stroke="#B35047" x1="0" x2="512" y1="384" y2="384"></line><line stroke-width="1" stroke="#B35047" x1="0" x2="512" y1="416" y2="416"></line><line stroke-width="1" stroke="#B35047" x1="0" x2="512" y1="448" y2="448"></line><line stroke-width="1" stroke="#B35047" x1="0" x2="512" y1="480" y2="480"></line><rect x="0" y="0" width="512" height="512" fill="none" stroke-width="1" stroke="#B35047"></rect></g><path d="M 496.00,192.00l 16.00-64.00L 384.00,0.00l-64.00,16.00l 31.515,31.515l-52.201,52.201l-71.515-71.515l-39.598,39.598l 48.185,48.185 c-1.045,0.811-2.055,1.686-3.013,2.644L 54.627,297.373c-12.445,12.444-12.445,32.81,0.00,45.254L 64.00,352.00l0.00,0.00 l0.00,32.00 l 20.687,20.687L0.00,489.373l0.00,0.00 L 22.627,512.00l 84.687-84.687L 128.00,448.00l 32.00,0.00 l 9.373,9.373c 6.223,6.223, 14.425,9.333, 22.627,9.333s 16.405-3.11, 22.627-9.333l 178.746-178.746 c 0.958-0.958, 1.833-1.968, 2.644-3.013l 48.185,48.185l 39.598-39.598l-71.515-71.515l 52.201-52.201L 496.00,192.00z M 123.34,268.258 l 0.917-0.918l 127.484,113.32l-15.082,15.082L 123.34,268.258z M 235.742,396.66l-15.082,15.082L 107.34,284.258l 0.917-0.918 L 235.742,396.66z M 139.34,252.258l 0.917-0.917l 127.484,113.32l-15.082,15.082L 139.34,252.258z M 155.34,236.258l 0.917-0.917 l 127.484,113.32l-15.082,15.082L 155.34,236.258z M 171.34,220.258l 0.917-0.917l 127.484,113.32l-15.082,15.082L 171.34,220.258z M 187.34,204.258l 0.917-0.917l 127.484,113.32l-15.082,15.082L 187.34,204.258z M 203.34,188.258l 0.917-0.917l 127.484,113.32 l-15.082,15.082L 203.34,188.258z M 219.34,172.258l 0.918-0.918l 127.484,113.32l-15.082,15.082L 219.34,172.258z M 235.34,156.258 l 0.918-0.918l 127.484,113.32l-15.082,15.082L 235.34,156.258z M 192.00,438.706c-0.774,0.00-1.893-0.196-2.828-1.132L 74.426,322.827 c-0.936-0.936-1.132-2.054-1.132-2.827s 0.196-1.892, 1.133-2.828l 1.832-1.832l 127.484,113.32l-8.913,8.913 C 193.893,438.51, 192.774,438.706, 192.00,438.706z M 204.66,427.742L 91.34,300.258l 0.917-0.918l 127.484,113.32L 204.66,427.742z M 373.574,258.828l-8.914,8.914L 251.34,140.258l 1.832-1.832c 0.937-0.936, 2.055-1.133, 2.829-1.133s 1.892,0.196, 2.828,1.133 l 114.745,114.745C 375.08,254.678, 375.081,257.321, 373.574,258.828z M 395.313,195.716l-79.029-79.029l 52.201-52.201l 79.029,79.029 L 395.313,195.716z" ></path></svg>