<?xml version="1.0" encoding="utf-8"?> <!-- Generator: IcoMoon.io --> <!DOCTYPE svg PUBLIC "-//W3C//DTD SVG 1.1//EN" "http://www.w3.org/Graphics/SVG/1.1/DTD/svg11.dtd"> <svg width="512" height="512" viewBox="0 0 512 512" xmlns="http://www.w3.org/2000/svg" xmlns:xlink="http://www.w3.org/1999/xlink" fill="#000000"><g class="svgGrid" id="svgGrid"><line stroke-width="1" stroke="#B35047" x1="32" x2="32" y1="0" y2="512"></line><line stroke-width="1" stroke="#B35047" x1="64" x2="64" y1="0" y2="512"></line><line stroke-width="1" stroke="#B35047" x1="96" x2="96" y1="0" y2="512"></line><line stroke-width="1" stroke="#B35047" x1="128" x2="128" y1="0" y2="512"></line><line stroke-width="1" stroke="#B35047" x1="160" x2="160" y1="0" y2="512"></line><line stroke-width="1" stroke="#B35047" x1="192" x2="192" y1="0" y2="512"></line><line stroke-width="1" stroke="#B35047" x1="224" x2="224" y1="0" y2="512"></line><line stroke-width="1" stroke="#B35047" x1="256" x2="256" y1="0" y2="512"></line><line stroke-width="1" stroke="#B35047" x1="288" x2="288" y1="0" y2="512"></line><line stroke-width="1" stroke="#B35047" x1="320" x2="320" y1="0" y2="512"></line><line stroke-width="1" stroke="#B35047" x1="352" x2="352" y1="0" y2="512"></line><line stroke-width="1" stroke="#B35047" x1="384" x2="384" y1="0" y2="512"></line><line stroke-width="1" stroke="#B35047" x1="416" x2="416" y1="0" y2="512"></line><line stroke-width="1" stroke="#B35047" x1="448" x2="448" y1="0" y2="512"></line><line stroke-width="1" stroke="#B35047" x1="480" x2="480" y1="0" y2="512"></line><line stroke-width="1" stroke="#B35047" x1="0" x2="512" y1="32" y2="32"></line><line stroke-width="1" stroke="#B35047" x1="0" x2="512" y1="64" y2="64"></line><line stroke-width="1" stroke="#B35047" x1="0" x2="512" y1="96" y2="96"></line><line stroke-width="1" stroke="#B35047" x1="0" x2="512" y1="128" y2="128"></line><line stroke-width="1" stroke="#B35047" x1="0" x2="512" y1="160" y2="160"></line><line stroke-width="1" stroke="#B35047" x1="0" x2="512" y1="192" y2="192"></line><line stroke-width="1" stroke="#B35047" x1="0" x2="512" y1="224" y2="224"></line><line stroke-width="1" stroke="#B35047" x1="0" x2="512" y1="256" y2="256"></line><line stroke-width="1" stroke="#B35047" x1="0" x2="512" y1="288" y2="288"></line><line stroke-width="1" stroke="#B35047" x1="0" x2="512" y1="320" y2="320"></line><line stroke-width="1" stroke="#B35047" x1="0" x2="512" y1="352" y2="352"></line><line stroke-width="1" stroke="#B35047" x1="0" x2="512" y1="384" y2="384"></line><line stroke-width="1" stroke="#B35047" x1="0" x2="512" y1="416" y2="416"></line><line stroke-width="1" stroke="#B35047" x1="0" x2="512" y1="448" y2="448"></line><line stroke-width="1" stroke="#B35047" x1="0" x2="512" y1="480" y2="480"></line><rect x="0" y="0" width="512" height="512" fill="none" stroke-width="1" stroke="#B35047"></rect></g><path d="M 448.00,0.00L 64.00,0.00 C 28.80,0.00,0.00,28.80,0.00,64.00l0.00,384.00 c0.00,35.20, 28.80,64.00, 64.00,64.00l 384.00,0.00 c 35.20,0.00, 64.00-28.80, 64.00-64.00L 512.00,64.00 C 512.00,28.80, 483.20,0.00, 448.00,0.00z M 488.00,436.00 l-78.014,0.00 c-0.001,0.00-0.001,0.001-0.002,0.001c 3.811-2.367, 7.405-5.049, 10.758-8.002L 420.741,428.00L 488.00,428.00 L 488.00,436.00 z M 407.529,407.529 C 396.908,418.15, 382.87,424.00, 368.00,424.00L 144.00,424.00 c-14.87,0.00-28.908-5.85-39.529-16.471C 93.849,396.908, 88.00,382.87, 88.00,368.00L 88.00,144.00 c0.00-14.87, 5.849-28.908, 16.471-39.529C 115.092,93.849, 129.13,88.00, 144.00,88.00l 224.00,0.00 c 14.87,0.00, 28.908,5.849, 39.529,16.471 C 418.15,115.092, 424.00,129.13, 424.00,144.00l0.00,224.00 C 424.00,382.87, 418.15,396.908, 407.529,407.529z M 488.00,420.00l-59.357,0.00 c-0.001,0.001-0.001,0.002-0.002,0.002c 2.184-2.541, 4.216-5.214, 6.073-8.015c-0.003,0.005-0.005,0.009-0.008,0.013L 488.00,412.00 L 488.00,420.00 z M 488.00,404.00l-48.637,0.00 c 1.316-2.592, 2.504-5.258, 3.537-8.00L 488.00,396.00 L 488.00,404.00 z M 488.00,388.00l-42.549,0.00 c-0.009,0.033-0.021,0.065-0.029,0.10 c 0.692-2.65, 1.252-5.353, 1.67-8.10L 488.00,380.00 L 488.00,388.00 z M 488.00,372.00l-40.102,0.00 c0.00,0.003-0.001,0.007-0.001,0.01c 0.066-1.329, 0.103-2.665, 0.103-4.01l0.00-4.00 l 40.00,0.00 L 488.00,372.00 z M 488.00,356.00l-40.00,0.00 l0.00-8.00 l 40.00,0.00 L 488.00,356.00 z M 488.00,340.00l-40.00,0.00 l0.00-8.00 l 40.00,0.00 L 488.00,340.00 z M 488.00,324.00l-40.00,0.00 l0.00-8.00 l 40.00,0.00 L 488.00,324.00 z M 488.00,308.00l-40.00,0.00 l0.00-8.00 l 40.00,0.00 L 488.00,308.00 z M 488.00,292.00l-40.00,0.00 l0.00-8.00 l 40.00,0.00 L 488.00,292.00 z M 488.00,276.00l-40.00,0.00 l0.00-8.00 l 40.00,0.00 L 488.00,276.00 z M 488.00,260.00l-40.00,0.00 l0.00-8.00 l 40.00,0.00 L 488.00,260.00 z M 488.00,244.00l-40.00,0.00 l0.00-8.00 l 40.00,0.00 L 488.00,244.00 z M 488.00,228.00l-40.00,0.00 l0.00-8.00 l 40.00,0.00 L 488.00,228.00 z M 488.00,212.00l-40.00,0.00 l0.00-8.00 l 40.00,0.00 L 488.00,212.00 z M 488.00,196.00l-40.00,0.00 l0.00-8.00 l 40.00,0.00 L 488.00,196.00 z M 488.00,180.00l-40.00,0.00 l0.00-8.00 l 40.00,0.00 L 488.00,180.00 z M 488.00,164.00l-40.00,0.00 l0.00-8.00 l 40.00,0.00 L 488.00,164.00 z M 488.00,148.00l-40.00,0.00 l0.00-4.00 c0.00-1.345-0.036-2.681-0.103-4.01 c0.00,0.003, 0.001,0.006, 0.001,0.01L 488.00,140.00 L 488.00,148.00 z M 488.00,132.00l-40.908,0.00 c-0.418-2.747-0.978-5.449-1.67-8.099 c 0.009,0.033, 0.021,0.066, 0.029,0.099L 488.00,124.00 L 488.00,132.00 z M 488.00,116.00l-45.10,0.00 c-1.033-2.742-2.221-5.408-3.537-8.00L 488.00,108.00 L 488.00,116.00 z M 488.00,100.00l-53.294,0.00 c 0.003,0.004, 0.005,0.008, 0.008,0.012c-1.856-2.80-3.888-5.472-6.071-8.012L 488.00,92.00 L 488.00,100.00 z M 488.00,68.00l-44.00,0.00 l-8.00,8.00l 52.00,0.00 l0.00,8.00 l-60.00,0.00 l-3.50,3.50 C 410.00,73.00, 390.00,64.00, 368.00,64.00L 144.00,64.00 c-44.00,0.00-80.00,36.00-80.00,80.00l0.00,224.00 c0.00,22.00, 9.00,42.00, 23.50,56.50L 84.00,428.00l 7.258,0.00 c 3.353,2.953, 6.947,5.634, 10.757,8.001 c0.00,0.00-0.001-0.001-0.002-0.001L 76.00,436.00 l-8.00,8.00l 51.139,0.00 c 7.836,2.583, 16.189,4.00, 24.861,4.00l 224.00,0.00 c 8.672,0.00, 17.025-1.417, 24.861-4.00L 488.00,444.00 l0.00,4.00 c0.00,2.032-0.156,4.042-0.457,6.019c 0.103-0.669, 0.188-1.342, 0.256-2.019L 60.00,452.00 l-8.00,8.00l 434.143,0.00 c-1.38,4.349-3.512,8.441-6.33,12.126 c 1.013-1.325, 1.938-2.702, 2.771-4.126L 44.00,468.00 l-8.00,8.00l 440.448,0.00 c-0.074,0.075-0.144,0.154-0.219,0.229c-3.443,3.444-7.393,6.178-11.667,8.146 L 47.438,484.375 c-4.274-1.968-8.223-4.701-11.667-8.146C 28.18,468.64, 24.00,458.613, 24.00,448.00L 24.00,64.00 c0.00-10.614, 4.18-20.639, 11.771-28.229 S 53.386,24.00, 64.00,24.00l 384.00,0.00 c 10.613,0.00, 20.64,4.18, 28.229,11.771c 0.075,0.075, 0.145,0.154, 0.219,0.229L 476.00,36.00 l-8.00,8.00l 14.583,0.00 c-0.833-1.424-1.758-2.801-2.771-4.126c 2.818,3.685, 4.95,7.778, 6.33,12.126L 460.00,52.00 l-8.00,8.00l 35.799,0.00 c-0.067-0.677-0.153-1.35-0.256-2.02 C 487.844,59.957, 488.00,61.967, 488.00,64.00L 488.00,68.00 z M 486.144,459.998c 0.402-1.27, 0.74-2.561, 1.015-3.868 C 486.886,457.438, 486.546,458.729, 486.144,459.998z M 487.179,456.04c 0.126-0.607, 0.234-1.219, 0.331-1.833 C 487.413,454.821, 487.304,455.433, 487.179,456.04z M 476.449,475.999c 0.565-0.574, 1.107-1.164, 1.634-1.765 C 477.557,474.835, 477.015,475.425, 476.449,475.999z M 478.297,473.986c 0.494-0.573, 0.973-1.156, 1.431-1.752 C 479.27,472.83, 478.792,473.414, 478.297,473.986z M 476.449,36.001c 0.565,0.574, 1.108,1.165, 1.635,1.765 C 477.558,37.166, 477.015,36.576, 476.449,36.001z M 478.297,38.013c 0.494,0.574, 0.973,1.158, 1.432,1.754 C 479.271,39.17, 478.791,38.586, 478.297,38.013z M 486.143,52.001c 0.404,1.272, 0.745,2.566, 1.018,3.877 C 486.886,54.568, 486.547,53.274, 486.143,52.001z M 487.179,55.958c 0.126,0.611, 0.235,1.226, 0.333,1.844 C 487.414,57.184, 487.305,56.569, 487.179,55.958zM 345.137,384.00l 48.399,0.00 L 276.00,127.501l-40.00,0.00 L 118.464,384.00l 48.399,0.00 l 29.327-64.00L 315.81,320.00 L 345.137,384.00z M 210.854,288.00L 256.00,189.477 L 301.146,288.00L 210.854,288.00 z" ></path></svg>