<?xml version="1.0" encoding="utf-8"?> <!-- Generator: IcoMoon.io --> <!DOCTYPE svg PUBLIC "-//W3C//DTD SVG 1.1//EN" "http://www.w3.org/Graphics/SVG/1.1/DTD/svg11.dtd"> <svg width="512" height="512" viewBox="0 0 512 512" xmlns="http://www.w3.org/2000/svg" xmlns:xlink="http://www.w3.org/1999/xlink" fill="#000000"><g class="svgGrid" id="svgGrid"><line stroke-width="1" stroke="#B35047" x1="32" x2="32" y1="0" y2="512"></line><line stroke-width="1" stroke="#B35047" x1="64" x2="64" y1="0" y2="512"></line><line stroke-width="1" stroke="#B35047" x1="96" x2="96" y1="0" y2="512"></line><line stroke-width="1" stroke="#B35047" x1="128" x2="128" y1="0" y2="512"></line><line stroke-width="1" stroke="#B35047" x1="160" x2="160" y1="0" y2="512"></line><line stroke-width="1" stroke="#B35047" x1="192" x2="192" y1="0" y2="512"></line><line stroke-width="1" stroke="#B35047" x1="224" x2="224" y1="0" y2="512"></line><line stroke-width="1" stroke="#B35047" x1="256" x2="256" y1="0" y2="512"></line><line stroke-width="1" stroke="#B35047" x1="288" x2="288" y1="0" y2="512"></line><line stroke-width="1" stroke="#B35047" x1="320" x2="320" y1="0" y2="512"></line><line stroke-width="1" stroke="#B35047" x1="352" x2="352" y1="0" y2="512"></line><line stroke-width="1" stroke="#B35047" x1="384" x2="384" y1="0" y2="512"></line><line stroke-width="1" stroke="#B35047" x1="416" x2="416" y1="0" y2="512"></line><line stroke-width="1" stroke="#B35047" x1="448" x2="448" y1="0" y2="512"></line><line stroke-width="1" stroke="#B35047" x1="480" x2="480" y1="0" y2="512"></line><line stroke-width="1" stroke="#B35047" x1="0" x2="512" y1="32" y2="32"></line><line stroke-width="1" stroke="#B35047" x1="0" x2="512" y1="64" y2="64"></line><line stroke-width="1" stroke="#B35047" x1="0" x2="512" y1="96" y2="96"></line><line stroke-width="1" stroke="#B35047" x1="0" x2="512" y1="128" y2="128"></line><line stroke-width="1" stroke="#B35047" x1="0" x2="512" y1="160" y2="160"></line><line stroke-width="1" stroke="#B35047" x1="0" x2="512" y1="192" y2="192"></line><line stroke-width="1" stroke="#B35047" x1="0" x2="512" y1="224" y2="224"></line><line stroke-width="1" stroke="#B35047" x1="0" x2="512" y1="256" y2="256"></line><line stroke-width="1" stroke="#B35047" x1="0" x2="512" y1="288" y2="288"></line><line stroke-width="1" stroke="#B35047" x1="0" x2="512" y1="320" y2="320"></line><line stroke-width="1" stroke="#B35047" x1="0" x2="512" y1="352" y2="352"></line><line stroke-width="1" stroke="#B35047" x1="0" x2="512" y1="384" y2="384"></line><line stroke-width="1" stroke="#B35047" x1="0" x2="512" y1="416" y2="416"></line><line stroke-width="1" stroke="#B35047" x1="0" x2="512" y1="448" y2="448"></line><line stroke-width="1" stroke="#B35047" x1="0" x2="512" y1="480" y2="480"></line><rect x="0" y="0" width="512" height="512" fill="none" stroke-width="1" stroke="#B35047"></rect></g><path d="M 496.00,480.00L 128.00,480.00L 112.00,512.00L 512.00,512.00 zM 283.746,256.00c 6.724,103.949-84.766,144.757-116.334,208.00L 480.00,464.00 c0.00-35.797,0.00-92.966,0.00-176.00 c0.00-111.17-43.536-191.427-94.956-230.07c-2.373-10.093-5.959-21.243-9.954-30.304l-6.18-14.013 c-7.102-16.104-22.144-18.229-33.426-4.722l-19.313,23.118C 316.03,32.008, 315.888,32.00, 315.746,32.00 c-8.234,0.00-15.821,0.257-22.854,0.745L 250.626,4.567C 235.981-5.196, 224.00,1.216, 224.00,18.816l0.00,32.592 c-12.982,7.351-23.863,16.243-36.254,25.691c-32.00,24.399-108.926,121.066-160.00,178.901c-47.246,53.50-21.725,96.00, 23.00,86.00 c-2.246,42.00, 32.754,28.50, 57.00,10.00C 163.653,309.343, 288.50,329.50, 283.746,256.00z M 387.463,86.538c 17.253,17.466, 32.154,39.811, 43.73,65.751 C 448.981,192.146, 458.00,237.806, 458.00,288.00l0.00,144.00 l-48.00-48.00l0.00-96.00 c0.00-43.411-7.617-82.489-22.64-116.149 c-9.204-20.625-20.739-38.084-33.835-51.375L 387.463,86.538z M 80.00,294.628c-12.497,0.00-22.628-10.13-22.628-22.628 c0.00-12.497, 10.131-22.627, 22.628-22.627c 12.496,0.00, 22.627,10.13, 22.627,22.627C 102.627,284.498, 92.496,294.628, 80.00,294.628z M 240.971,143.971c-18.746,18.745-41.539,26.343-50.912,16.971c-9.373-9.373-1.775-32.167, 16.97-50.912 c 18.745-18.745, 41.539-26.343, 50.913-16.97C 267.312,102.432, 259.716,125.226, 240.971,143.971z" ></path></svg>