<?xml version="1.0" encoding="utf-8"?> <!-- Generator: IcoMoon.io --> <!DOCTYPE svg PUBLIC "-//W3C//DTD SVG 1.1//EN" "http://www.w3.org/Graphics/SVG/1.1/DTD/svg11.dtd"> <svg width="512" height="512" viewBox="0 0 512 512" xmlns="http://www.w3.org/2000/svg" xmlns:xlink="http://www.w3.org/1999/xlink" fill="#000000"><g class="svgGrid" id="svgGrid"><line stroke-width="1" stroke="#B35047" x1="32" x2="32" y1="0" y2="512"></line><line stroke-width="1" stroke="#B35047" x1="64" x2="64" y1="0" y2="512"></line><line stroke-width="1" stroke="#B35047" x1="96" x2="96" y1="0" y2="512"></line><line stroke-width="1" stroke="#B35047" x1="128" x2="128" y1="0" y2="512"></line><line stroke-width="1" stroke="#B35047" x1="160" x2="160" y1="0" y2="512"></line><line stroke-width="1" stroke="#B35047" x1="192" x2="192" y1="0" y2="512"></line><line stroke-width="1" stroke="#B35047" x1="224" x2="224" y1="0" y2="512"></line><line stroke-width="1" stroke="#B35047" x1="256" x2="256" y1="0" y2="512"></line><line stroke-width="1" stroke="#B35047" x1="288" x2="288" y1="0" y2="512"></line><line stroke-width="1" stroke="#B35047" x1="320" x2="320" y1="0" y2="512"></line><line stroke-width="1" stroke="#B35047" x1="352" x2="352" y1="0" y2="512"></line><line stroke-width="1" stroke="#B35047" x1="384" x2="384" y1="0" y2="512"></line><line stroke-width="1" stroke="#B35047" x1="416" x2="416" y1="0" y2="512"></line><line stroke-width="1" stroke="#B35047" x1="448" x2="448" y1="0" y2="512"></line><line stroke-width="1" stroke="#B35047" x1="480" x2="480" y1="0" y2="512"></line><line stroke-width="1" stroke="#B35047" x1="0" x2="512" y1="32" y2="32"></line><line stroke-width="1" stroke="#B35047" x1="0" x2="512" y1="64" y2="64"></line><line stroke-width="1" stroke="#B35047" x1="0" x2="512" y1="96" y2="96"></line><line stroke-width="1" stroke="#B35047" x1="0" x2="512" y1="128" y2="128"></line><line stroke-width="1" stroke="#B35047" x1="0" x2="512" y1="160" y2="160"></line><line stroke-width="1" stroke="#B35047" x1="0" x2="512" y1="192" y2="192"></line><line stroke-width="1" stroke="#B35047" x1="0" x2="512" y1="224" y2="224"></line><line stroke-width="1" stroke="#B35047" x1="0" x2="512" y1="256" y2="256"></line><line stroke-width="1" stroke="#B35047" x1="0" x2="512" y1="288" y2="288"></line><line stroke-width="1" stroke="#B35047" x1="0" x2="512" y1="320" y2="320"></line><line stroke-width="1" stroke="#B35047" x1="0" x2="512" y1="352" y2="352"></line><line stroke-width="1" stroke="#B35047" x1="0" x2="512" y1="384" y2="384"></line><line stroke-width="1" stroke="#B35047" x1="0" x2="512" y1="416" y2="416"></line><line stroke-width="1" stroke="#B35047" x1="0" x2="512" y1="448" y2="448"></line><line stroke-width="1" stroke="#B35047" x1="0" x2="512" y1="480" y2="480"></line><rect x="0" y="0" width="512" height="512" fill="none" stroke-width="1" stroke="#B35047"></rect></g><path d="M 256.00,0.00C 149.961,0.00, 64.00,85.961, 64.00,192.00c0.00,71.066, 38.613,133.109, 96.00,166.309L 160.00,448.00 l 64.00,64.00l 64.00,0.00 l 64.00-64.00l0.00-89.691 c 57.388-33.199, 96.00-95.242, 96.00-166.309C 448.00,85.961, 362.039,0.00, 256.00,0.00z M 224.00,340.00l0.00-8.00 l 64.00,0.00 l0.00,8.00 L 224.00,340.00 z M 288.00,348.00l0.00,0.812 c-10.42,2.104-21.127,3.188-32.00,3.188c-10.874,0.00-21.58-1.083-32.00-3.188L 224.00,348.00 L 288.00,348.00 z M 224.00,324.00l0.00-8.00 l 64.00,0.00 l0.00,8.00 L 224.00,324.00 z M 224.00,308.00l0.00-8.00 l 64.00,0.00 l0.00,8.00 L 224.00,308.00 z M 224.00,292.00l0.00-8.00 l 64.00,0.00 l0.00,8.00 L 224.00,292.00 z M 224.00,276.00l0.00-8.00 l 64.00,0.00 l0.00,8.00 L 224.00,276.00 z M 224.00,260.00l0.00-8.00 l 64.00,0.00 l0.00,8.00 L 224.00,260.00 z M 224.00,244.00l0.00-8.00 l 64.00,0.00 l0.00,8.00 L 224.00,244.00 z M 224.00,228.00l0.00-8.00 l 64.00,0.00 l0.00,8.00 L 224.00,228.00 z M 224.00,212.00l0.00-8.00 l 64.00,0.00 l0.00,8.00 L 224.00,212.00 z M 224.00,196.00l0.00-8.00 l 64.00,0.00 l0.00,8.00 L 224.00,196.00 z M 224.00,180.00l0.00-8.00 l 64.00,0.00 l0.00,8.00 L 224.00,180.00 z M 224.00,164.00l0.00-4.00 c0.00-1.355-0.094-2.688-0.258-4.00l 64.516,0.00 c-0.164,1.312-0.258,2.645-0.258,4.00l0.00,4.00 L 224.00,164.00 z M 290.335,148.00l-68.67,0.00 c0.00,0.001, 0.001,0.003, 0.001,0.004 c-1.176-2.906-2.765-5.598-4.697-8.006c0.00,0.001, 0.001,0.001, 0.002,0.002l 78.057,0.00 C 293.099,142.407, 291.511,145.097, 290.335,148.00z M 289.636,149.901c-0.004,0.011-0.008,0.022-0.012,0.034C 289.628,149.924, 289.632,149.913, 289.636,149.901z M 222.376,149.937 c-0.004-0.013-0.009-0.025-0.013-0.039C 222.367,149.911, 222.372,149.924, 222.376,149.937z M 207.493,132.00 c 0.003,0.002, 0.006,0.004, 0.01,0.006C 202.909,129.457, 197.625,128.00, 192.00,128.00s-10.909,1.457-15.502,4.006 c 0.003-0.002, 0.006-0.004, 0.01-0.006l-68.913,0.00 c 2.208-5.463, 4.718-10.802, 7.528-15.995c-1.423,2.629-2.772,5.294-4.041,7.995L 400.92,124.00 c 1.237,2.634, 2.396,5.303, 3.486,8.00l-68.913,0.00 c 0.004,0.002, 0.009,0.005, 0.013,0.007C 330.912,129.457, 325.627,128.00, 320.00,128.00 s-10.912,1.457-15.506,4.007c 0.004-0.002, 0.009-0.005, 0.013-0.007L 207.493,132.00 z M 303.164,132.789c-0.014,0.008-0.027,0.018-0.041,0.026 C 303.137,132.806, 303.15,132.797, 303.164,132.789z M 301.858,133.643c-0.017,0.011-0.032,0.023-0.048,0.034 C 301.826,133.666, 301.842,133.654, 301.858,133.643z M 300.595,134.561c-0.014,0.011-0.027,0.021-0.041,0.032 C 300.567,134.582, 300.581,134.571, 300.595,134.561z M 299.376,135.54c-0.007,0.006-0.014,0.012-0.021,0.019 C 299.362,135.552, 299.369,135.546, 299.376,135.54z M 298.206,136.578c-0.001,0.001-0.002,0.001-0.003,0.002 C 298.204,136.579, 298.205,136.579, 298.206,136.578z M 215.968,138.809C 215.968,138.809, 215.968,138.808, 215.968,138.809 C 215.968,138.808, 215.968,138.809, 215.968,138.809z M 214.911,137.67c-0.001-0.001-0.003-0.003-0.004-0.004 C 214.908,137.667, 214.909,137.668, 214.911,137.67z M 213.804,136.587c-0.004-0.004-0.009-0.008-0.013-0.012 C 213.795,136.579, 213.799,136.583, 213.804,136.587z M 212.652,135.564c-0.01-0.009-0.02-0.018-0.03-0.026 C 212.632,135.547, 212.642,135.556, 212.652,135.564z M 211.451,134.597c-0.016-0.012-0.032-0.025-0.048-0.038 C 211.419,134.572, 211.435,134.585, 211.451,134.597z M 210.189,133.677c-0.016-0.011-0.032-0.023-0.048-0.034 C 210.158,133.654, 210.173,133.666, 210.189,133.677z M 208.874,132.813c-0.013-0.008-0.025-0.016-0.038-0.024 C 208.849,132.797, 208.861,132.805, 208.874,132.813z M 160.258,164.00L 98.431,164.00 c-0.231,1.318-0.447,2.64-0.646,3.966 c 0.604-4.028, 1.362-8.019, 2.265-11.966l 60.208,0.00 c-0.164,1.312-0.258,2.645-0.258,4.00S 160.094,162.688, 160.258,164.00z M 102.104,148.00 c-0.372,1.307-0.727,2.62-1.066,3.938c 1.387-5.403, 3.057-10.716, 4.999-15.925c-0.493,1.322-0.968,2.651-1.426,3.987l 62.417,0.00 c0.00-0.001, 0.001-0.001, 0.002-0.002c-1.932,2.408-3.521,5.101-4.697,8.006c0.00-0.001, 0.001-0.002, 0.001-0.004L 102.104,148.00 z M 161.637,149.898 c-0.004,0.013-0.009,0.025-0.013,0.039C 161.628,149.924, 161.633,149.911, 161.637,149.898z M 100.059,155.962 c 0.304-1.326, 0.625-2.646, 0.962-3.96C 100.684,153.316, 100.363,154.636, 100.059,155.962z M 175.164,132.789 c-0.013,0.008-0.025,0.016-0.038,0.024C 175.139,132.805, 175.151,132.797, 175.164,132.789z M 173.858,133.643 c-0.016,0.011-0.032,0.023-0.048,0.034C 173.827,133.666, 173.842,133.654, 173.858,133.643z M 172.597,134.56 c-0.017,0.012-0.032,0.025-0.048,0.038C 172.565,134.585, 172.581,134.572, 172.597,134.56z M 171.378,135.538 c-0.01,0.009-0.02,0.018-0.03,0.026C 171.358,135.556, 171.368,135.547, 171.378,135.538z M 170.209,136.575 c-0.004,0.004-0.008,0.008-0.013,0.012C 170.201,136.583, 170.205,136.579, 170.209,136.575z M 169.093,137.666 c-0.001,0.001-0.003,0.003-0.004,0.004C 169.091,137.668, 169.092,137.667, 169.093,137.666z M 168.033,138.808 C 168.032,138.808, 168.032,138.809, 168.033,138.808C 168.032,138.809, 168.032,138.808, 168.033,138.808z M 106.06,135.951 c 0.494-1.323, 1.004-2.639, 1.533-3.948C 107.064,133.312, 106.553,134.628, 106.06,135.951z M 350.376,170.065 c-0.004,0.011-0.008,0.022-0.012,0.034C 350.368,170.087, 350.372,170.076, 350.376,170.065z M 350.364,149.901 c 0.004,0.011, 0.008,0.022, 0.012,0.034C 350.372,149.924, 350.368,149.913, 350.364,149.901z M 349.665,172.00l 65.103,0.00 c-0.332-2.679-0.732-5.342-1.196-7.989c 0.924,5.267, 1.591,10.601, 1.988,15.989l-70.588,0.00 C 346.901,177.593, 348.489,174.903, 349.665,172.00 z M 351.742,164.00c 0.164-1.312, 0.258-2.645, 0.258-4.00s-0.094-2.688-0.258-4.00l 60.208,0.00 c 0.605,2.648, 1.147,5.314, 1.619,8.00L 351.742,164.00 z M 349.665,148.00c-1.176-2.903-2.764-5.593-4.693-8.00l 62.418,0.00 c 0.904,2.642, 1.741,5.309, 2.507,8.00L 349.665,148.00 z M 409.897,148.004 c 0.373,1.313, 0.731,2.632, 1.07,3.956C 410.628,150.636, 410.271,149.317, 409.897,148.004z M 410.977,151.993 c 0.341,1.331, 0.667,2.666, 0.974,4.006C 411.643,154.658, 411.318,153.323, 410.977,151.993z M 404.41,132.01 c 0.525,1.301, 1.033,2.609, 1.524,3.924C 405.443,134.619, 404.936,133.312, 404.41,132.01z M 405.972,136.034 c 0.486,1.307, 0.956,2.619, 1.408,3.938C 406.928,138.653, 406.458,137.34, 405.972,136.034z M 341.797,136.58 c-0.001-0.001-0.002-0.001-0.003-0.002C 341.795,136.579, 341.796,136.579, 341.797,136.58z M 340.646,135.559 c-0.008-0.006-0.015-0.013-0.021-0.019C 340.631,135.546, 340.638,135.552, 340.646,135.559z M 339.446,134.593 c-0.014-0.011-0.027-0.021-0.041-0.032C 339.419,134.571, 339.433,134.582, 339.446,134.593z M 338.189,133.677 c-0.016-0.011-0.031-0.022-0.048-0.034C 338.158,133.654, 338.174,133.666, 338.189,133.677z M 336.877,132.814 c-0.014-0.008-0.027-0.018-0.041-0.026C 336.85,132.797, 336.863,132.806, 336.877,132.814z M 320.00,284.00l 66.955,0.00 c-1.922,2.723-3.943,5.387-6.043,8.00L 320.00,292.00 L 320.00,284.00 z M 320.00,268.00l 76.875,0.00 c 1.423-2.629, 2.771-5.292, 4.041-7.993 c-2.577,5.482-5.479,10.819-8.682,15.993L 320.00,276.00 L 320.00,268.00 z M 320.00,260.00l0.00-8.00 l 84.406,0.00 c-1.09,2.697-2.249,5.366-3.486,8.00L 320.00,260.00 z M 320.00,244.00l0.00-8.00 l 89.896,0.00 c-0.766,2.691-1.603,5.358-2.507,8.00L 320.00,244.00 z M 407.381,244.025c-0.453,1.321-0.923,2.636-1.411,3.944 C 406.457,246.661, 406.928,245.347, 407.381,244.025z M 405.936,248.063c-0.492,1.317-1.001,2.628-1.527,3.932 C 404.935,250.691, 405.443,249.381, 405.936,248.063z M 320.00,228.00l0.00-8.00 l 93.569,0.00 c-0.71,4.046-1.578,8.05-2.593,12.008 c 0.342-1.331, 0.667-2.667, 0.974-4.008L 320.00,228.00 z M 410.969,232.038c-0.34,1.325-0.698,2.645-1.071,3.959 C 410.271,234.683, 410.628,233.363, 410.969,232.038z M 320.00,212.00l0.00-8.00 l 95.56,0.00 c-0.397,5.388-1.064,10.722-1.988,15.989 c 0.464-2.646, 0.864-5.31, 1.196-7.989L 320.00,212.00 z M 320.00,196.00l0.00-4.00 c 5.627,0.00, 10.912-1.457, 15.506-4.007c-0.004,0.002-0.009,0.005-0.013,0.007 l 80.458,0.00 c-0.033-1.339-0.082-2.675-0.147-4.008C 415.935,186.65, 416.00,189.32, 416.00,192.00s-0.065,5.35-0.196,8.008 c 0.065-1.333, 0.114-2.669, 0.147-4.008L 320.00,196.00 z M 415.798,200.118c-0.064,1.291-0.143,2.58-0.237,3.865 C 415.655,202.697, 415.733,201.409, 415.798,200.118z M 341.797,183.42c-0.001,0.001-0.002,0.001-0.003,0.002 C 341.795,183.421, 341.796,183.421, 341.797,183.42z M 340.646,184.441c-0.008,0.006-0.015,0.013-0.021,0.019 C 340.631,184.454, 340.638,184.448, 340.646,184.441z M 339.446,185.407c-0.014,0.011-0.027,0.021-0.041,0.032 C 339.419,185.429, 339.433,185.418, 339.446,185.407z M 338.189,186.323c-0.016,0.011-0.031,0.022-0.048,0.034 C 338.158,186.346, 338.174,186.334, 338.189,186.323z M 336.877,187.186c-0.014,0.008-0.027,0.018-0.041,0.026 C 336.85,187.203, 336.863,187.194, 336.877,187.186z M 415.561,180.018c 0.095,1.285, 0.173,2.574, 0.237,3.865 C 415.733,182.591, 415.655,181.303, 415.561,180.018z M 392.222,107.98c-0.807-1.302-1.632-2.594-2.476-3.875 C 390.592,105.386, 391.415,106.678, 392.222,107.98z M 346.479,60.00c-2.087-1.437-4.204-2.822-6.35-4.153 c 7.441,4.617, 14.539,9.872, 21.225,15.738c-1.39-1.219-2.793-2.418-4.218-3.585L 154.863,68.00 c 3.453-2.827, 7.011-5.489, 10.657-8.00L 346.479,60.00 z M 165.524,59.998c 1.043-0.719, 2.094-1.424, 3.153-2.117C 167.619,58.574, 166.567,59.279, 165.524,59.998z M 168.681,57.879 c 1.055-0.69, 2.117-1.367, 3.187-2.031C 170.798,56.512, 169.735,57.189, 168.681,57.879z M 171.901,55.828 c 1.062-0.659, 2.13-1.305, 3.206-1.937C 174.032,54.523, 172.963,55.169, 171.901,55.828z M 175.158,53.861 c 6.452-3.791, 13.144-7.115, 20.041-9.947c-0.071,0.029-0.143,0.056-0.213,0.085l 122.029,0.00 c 6.822,2.812, 13.443,6.11, 19.829,9.862 c-1.078-0.634-2.164-1.255-3.256-1.862L 178.412,51.999 C 177.32,52.607, 176.236,53.228, 175.158,53.861z M 336.892,53.89 c 1.078,0.633, 2.148,1.28, 3.212,1.94C 339.04,55.17, 337.97,54.523, 336.892,53.89z M 366.169,75.97c-1.318-1.253-2.66-2.474-4.014-3.676 C 363.509,73.497, 364.851,74.717, 366.169,75.97z M 313.924,42.764c-0.599-0.232-1.202-0.453-1.804-0.678 C 312.722,42.311, 313.325,42.532, 313.924,42.764z M 310.57,41.51c-0.627-0.227-1.258-0.445-1.888-0.665 C 309.312,41.065, 309.943,41.283, 310.57,41.51z M 307.203,40.337c-0.652-0.219-1.306-0.434-1.961-0.645 C 305.897,39.903, 306.551,40.118, 307.203,40.337z M 303.841,39.249c-0.684-0.213-1.368-0.424-2.056-0.628 C 302.473,38.825, 303.157,39.036, 303.841,39.249z M 300.524,38.256c-0.735-0.212-1.47-0.424-2.208-0.625 C 299.055,37.832, 299.789,38.044, 300.524,38.256z M 297.558,37.431c-1.89-0.504-3.789-0.979-5.70-1.415 C 293.769,36.452, 295.668,36.927, 297.558,37.431z M 291.789,36.00l-71.578,0.00 c 11.607-2.639, 23.593-4.00, 35.789-4.00 C 268.195,32.00, 280.182,33.361, 291.789,36.00z M 198.074,42.765c 0.604-0.234, 1.213-0.457, 1.82-0.684 C 199.287,42.308, 198.678,42.531, 198.074,42.765z M 201.427,41.512c 0.63-0.229, 1.264-0.448, 1.897-0.668 C 202.69,41.063, 202.057,41.284, 201.427,41.512z M 204.793,40.338c 0.655-0.22, 1.311-0.436, 1.969-0.647 C 206.105,39.903, 205.448,40.118, 204.793,40.338z M 208.153,39.251c 0.687-0.214, 1.375-0.426, 2.064-0.631 C 209.528,38.825, 208.84,39.037, 208.153,39.251z M 211.467,38.258c 0.739-0.213, 1.478-0.426, 2.22-0.628 C 212.944,37.832, 212.206,38.045, 211.467,38.258z M 214.418,37.438c 1.907-0.51, 3.825-0.989, 5.753-1.428 C 218.243,36.448, 216.326,36.928, 214.418,37.438z M 149.845,72.294c-1.364,1.212-2.716,2.442-4.045,3.706l 220.401,0.00 c 0.988,0.94, 1.968,1.894, 2.937,2.863c 1.681,1.68, 3.312,3.396, 4.908,5.137L 137.955,84.00 c-2.385,2.602-4.672,5.271-6.866,8.00l 249.822,0.00 c-2.19-2.726-4.476-5.392-6.856-7.99c 5.747,6.27, 10.942,12.92, 15.562,19.896c-0.867-1.314-1.753-2.617-2.663-3.906L 125.046,100.00 c-0.907,1.286-1.791,2.585-2.656,3.895c 5.903-8.913, 12.74-17.30, 20.472-25.032C 145.133,76.593, 147.466,74.409, 149.845,72.294z M 154.861,68.002c-1.423,1.165-2.825,2.364-4.213,3.582C 152.036,70.365, 153.438,69.167, 154.861,68.002z M 122.238,104.13 c-0.841,1.28-1.666,2.57-2.471,3.87l 272.468,0.00 c 3.202,5.173, 6.104,10.508, 8.68,15.989c-1.269-2.699-2.617-5.362-4.039-7.989l-281.75,0.00 C 117.316,111.951, 119.69,107.991, 122.238,104.13z M 97.781,167.99c-0.199,1.326-0.381,2.656-0.547,3.991 C 97.40,170.646, 97.583,169.316, 97.781,167.99z M 97.232,172.00l 65.103,0.00 c0.00-0.001-0.001-0.003-0.001-0.004 c 1.176,2.906, 2.765,5.598, 4.697,8.006c0.00-0.001-0.001-0.001-0.002-0.002L 96.441,180.00 c-0.196,2.654-0.327,5.322-0.392,8.00l 80.458,0.00 c-0.003-0.002-0.006-0.004-0.01-0.006C 181.091,190.543, 186.375,192.00, 192.00,192.00l0.00,4.00 L 96.049,196.00 c 0.065,2.678, 0.196,5.346, 0.392,8.00L 192.00,204.00 l0.00,8.00 L 97.232,212.00 c 0.333,2.683, 0.734,5.35, 1.199,8.00L 192.00,220.00 l0.00,8.00 l-91.95,0.00 C 97.379,216.327, 96.00,204.27, 96.00,192.00C 96.00,185.26, 96.416,178.584, 97.232,172.00z M 161.624,170.063c 0.004,0.013, 0.009,0.025, 0.013,0.039C 161.633,170.089, 161.628,170.076, 161.624,170.063z M 168.032,181.191 C 168.032,181.191, 168.032,181.192, 168.032,181.191C 168.032,181.192, 168.032,181.191, 168.032,181.191z M 169.089,182.33 c 0.001,0.001, 0.003,0.003, 0.004,0.004C 169.092,182.333, 169.091,182.332, 169.089,182.33z M 170.196,183.413 c 0.004,0.004, 0.009,0.008, 0.013,0.012C 170.205,183.421, 170.201,183.417, 170.196,183.413z M 171.348,184.436 c 0.01,0.009, 0.02,0.018, 0.03,0.026C 171.368,184.453, 171.358,184.444, 171.348,184.436z M 172.549,185.403 c 0.016,0.012, 0.032,0.025, 0.048,0.038C 172.581,185.428, 172.565,185.415, 172.549,185.403z M 173.811,186.323 c 0.016,0.011, 0.032,0.023, 0.048,0.034C 173.842,186.346, 173.827,186.334, 173.811,186.323z M 175.126,187.187 c 0.013,0.008, 0.025,0.016, 0.038,0.024C 175.151,187.203, 175.139,187.195, 175.126,187.187z M 192.00,236.00l0.00,8.00 l-87.389,0.00 c-0.905-2.642-1.742-5.309-2.507-8.00L 192.00,236.00 z M 102.101,235.99c-0.371-1.307-0.727-2.618-1.065-3.936 C 101.375,233.371, 101.729,234.683, 102.101,235.99z M 101.022,232.002c-0.339-1.322-0.663-2.65-0.967-3.983 C 100.36,229.352, 100.683,230.68, 101.022,232.002z M 106.059,248.047c 0.494,1.324, 1.005,2.642, 1.535,3.953L 192.00,252.00 l0.00,8.00 l-80.919,0.00 c 1.27,2.703, 2.621,5.369, 4.044,8.00L 192.00,268.00 l0.00,8.00 l-72.234,0.00 c 0.803,1.298, 1.626,2.585, 2.466,3.863 C 115.634,269.861, 110.221,259.198, 106.059,248.047z M 104.612,244.003c 0.457,1.335, 0.933,2.664, 1.425,3.985 C 105.544,246.667, 105.069,245.339, 104.612,244.003z M 192.00,284.00l0.00,8.00 l-60.912,0.00 c-3.091-3.847-5.994-7.812-8.696-11.892 c 0.864,1.309, 1.747,2.607, 2.653,3.892L 192.00,284.00 z M 131.093,292.006c 2.192,2.728, 4.478,5.395, 6.861,7.994L 192.00,300.00 l0.00,8.00 l-46.199,0.00 c 1.406,1.337, 2.835,2.641, 4.281,3.919c-2.462-2.18-4.874-4.435-7.22-6.78C 138.672,300.948, 134.753,296.56, 131.093,292.006z M 150.393,312.195c 1.474,1.297, 2.967,2.566, 4.48,3.805L 192.00,316.00 l0.00,8.00 l-26.484,0.00 c 3.123,2.149, 6.312,4.182, 9.564,6.095 C 166.369,324.973, 158.106,318.99, 150.393,312.195z M 192.00,332.00l0.00,6.729 c-5.782-2.523-11.413-5.397-16.872-8.604 c 1.087,0.639, 2.181,1.264, 3.281,1.876L 192.00,332.001 z M 304.00,448.00l-96.00,0.00 c-8.80,0.00-16.00-7.20-16.00-16.00s 7.20-16.00, 16.00-16.00l 96.00,0.00 c 8.80,0.00, 16.00,7.20, 16.00,16.00S 312.80,448.00, 304.00,448.00 z M 320.00,332.00l 13.589,0.00 c 1.10-0.611, 2.192-1.236, 3.278-1.874c-5.457,3.206-11.087,6.079-16.867,8.603L 320.00,332.00 z M 336.939,330.082 c 3.244-1.909, 6.427-3.938, 9.543-6.082L 320.00,324.00 l0.00-8.00 l 37.126,0.00 C 350.725,321.238, 343.979,325.941, 336.939,330.082z M 357.126,316.00 c 1.514-1.239, 3.008-2.509, 4.482-3.807C 360.135,313.492, 358.64,314.761, 357.126,316.00z M 361.915,311.921 c 1.439-1.272, 2.862-2.57, 4.262-3.90C 364.777,309.351, 363.354,310.647, 361.915,311.921z M 366.199,308.00L 320.00,308.00 l0.00-8.00 l 54.047,0.00 c-1.597,1.741-3.229,3.458-4.909,5.139C 368.169,306.107, 367.188,307.06, 366.199,308.00z M 380.906,292.007 c-2.19,2.726-4.474,5.391-6.854,7.988C 376.433,297.397, 378.716,294.732, 380.906,292.007z M 389.774,279.853 c 0.837-1.272, 1.656-2.555, 2.456-3.847C 391.431,277.298, 390.613,278.581, 389.774,279.853z M 386.961,283.991 c 0.903-1.28, 1.783-2.574, 2.644-3.878C 388.742,281.416, 387.864,282.711, 386.961,283.991z" ></path></svg>