<?xml version="1.0" encoding="utf-8"?> <!-- Generator: IcoMoon.io --> <!DOCTYPE svg PUBLIC "-//W3C//DTD SVG 1.1//EN" "http://www.w3.org/Graphics/SVG/1.1/DTD/svg11.dtd"> <svg width="512" height="512" viewBox="0 0 512 512" xmlns="http://www.w3.org/2000/svg" xmlns:xlink="http://www.w3.org/1999/xlink" fill="#000000"><g class="svgGrid" id="svgGrid"><line stroke-width="1" stroke="#B35047" x1="32" x2="32" y1="0" y2="512"></line><line stroke-width="1" stroke="#B35047" x1="64" x2="64" y1="0" y2="512"></line><line stroke-width="1" stroke="#B35047" x1="96" x2="96" y1="0" y2="512"></line><line stroke-width="1" stroke="#B35047" x1="128" x2="128" y1="0" y2="512"></line><line stroke-width="1" stroke="#B35047" x1="160" x2="160" y1="0" y2="512"></line><line stroke-width="1" stroke="#B35047" x1="192" x2="192" y1="0" y2="512"></line><line stroke-width="1" stroke="#B35047" x1="224" x2="224" y1="0" y2="512"></line><line stroke-width="1" stroke="#B35047" x1="256" x2="256" y1="0" y2="512"></line><line stroke-width="1" stroke="#B35047" x1="288" x2="288" y1="0" y2="512"></line><line stroke-width="1" stroke="#B35047" x1="320" x2="320" y1="0" y2="512"></line><line stroke-width="1" stroke="#B35047" x1="352" x2="352" y1="0" y2="512"></line><line stroke-width="1" stroke="#B35047" x1="384" x2="384" y1="0" y2="512"></line><line stroke-width="1" stroke="#B35047" x1="416" x2="416" y1="0" y2="512"></line><line stroke-width="1" stroke="#B35047" x1="448" x2="448" y1="0" y2="512"></line><line stroke-width="1" stroke="#B35047" x1="480" x2="480" y1="0" y2="512"></line><line stroke-width="1" stroke="#B35047" x1="0" x2="512" y1="32" y2="32"></line><line stroke-width="1" stroke="#B35047" x1="0" x2="512" y1="64" y2="64"></line><line stroke-width="1" stroke="#B35047" x1="0" x2="512" y1="96" y2="96"></line><line stroke-width="1" stroke="#B35047" x1="0" x2="512" y1="128" y2="128"></line><line stroke-width="1" stroke="#B35047" x1="0" x2="512" y1="160" y2="160"></line><line stroke-width="1" stroke="#B35047" x1="0" x2="512" y1="192" y2="192"></line><line stroke-width="1" stroke="#B35047" x1="0" x2="512" y1="224" y2="224"></line><line stroke-width="1" stroke="#B35047" x1="0" x2="512" y1="256" y2="256"></line><line stroke-width="1" stroke="#B35047" x1="0" x2="512" y1="288" y2="288"></line><line stroke-width="1" stroke="#B35047" x1="0" x2="512" y1="320" y2="320"></line><line stroke-width="1" stroke="#B35047" x1="0" x2="512" y1="352" y2="352"></line><line stroke-width="1" stroke="#B35047" x1="0" x2="512" y1="384" y2="384"></line><line stroke-width="1" stroke="#B35047" x1="0" x2="512" y1="416" y2="416"></line><line stroke-width="1" stroke="#B35047" x1="0" x2="512" y1="448" y2="448"></line><line stroke-width="1" stroke="#B35047" x1="0" x2="512" y1="480" y2="480"></line><rect x="0" y="0" width="512" height="512" fill="none" stroke-width="1" stroke="#B35047"></rect></g><path d="M 357.722,57.524c 16.267,26.877, 33.118,58.46, 46.958,94.158c 27.229,70.232, 33.754,134.454, 19.393,190.877 c-7.805,30.667-23.158,55.555-44.399,71.973c-19.013,14.696-42.097,22.464-66.758,22.464c-34.216,0.00-66.683-15.044-89.079-41.274 l-17.479-20.473l-19.723,11.68c-0.414,0.025-0.921,0.043-1.525,0.043c-4.953,0.00-19.333-1.277-45.82-13.104 c-24.112-10.768-41.896-34.861-47.57-64.45c-3.432-17.895-2.157-37.114, 3.688-55.583c 6.773-21.403, 19.392-41.691, 37.505-60.301 c 37.296-38.319, 68.56-47.973, 101.659-58.194c 23.814-7.354, 48.439-14.958, 74.26-32.279 C 326.399,91.273, 342.422,76.402, 357.722,57.524 M 358.774,0.00c-84.382,139.493-151.15,70.891-248.795,171.215 c-86.168,88.533-54.834,200.125, 16.262,231.872c 28.755,12.84, 47.531,15.885, 58.867,15.885c 10.218,0.00, 14.392-2.472, 14.392-2.472 c 29.521,34.577, 71.58,52.496, 113.415,52.496c 61.097,0.00, 121.721-38.207, 142.169-118.543C 492.533,203.316, 394.89,53.505, 358.774,0.00 L 358.774,0.00zM 48.506,483.121C 48.564,484.574, 50.217,512.00, 86.189,512.00C 132.597,512.00, 288.00,384.00, 352.00,160.00C 281.089,336.00, 81.50,477.50, 48.506,483.121z " ></path></svg>