<?xml version="1.0" encoding="utf-8"?> <!-- Generator: IcoMoon.io --> <!DOCTYPE svg PUBLIC "-//W3C//DTD SVG 1.1//EN" "http://www.w3.org/Graphics/SVG/1.1/DTD/svg11.dtd"> <svg width="512" height="512" viewBox="0 0 512 512" xmlns="http://www.w3.org/2000/svg" xmlns:xlink="http://www.w3.org/1999/xlink" fill="#000000"><g class="svgGrid" id="svgGrid"><line stroke-width="1" stroke="#B35047" x1="32" x2="32" y1="0" y2="512"></line><line stroke-width="1" stroke="#B35047" x1="64" x2="64" y1="0" y2="512"></line><line stroke-width="1" stroke="#B35047" x1="96" x2="96" y1="0" y2="512"></line><line stroke-width="1" stroke="#B35047" x1="128" x2="128" y1="0" y2="512"></line><line stroke-width="1" stroke="#B35047" x1="160" x2="160" y1="0" y2="512"></line><line stroke-width="1" stroke="#B35047" x1="192" x2="192" y1="0" y2="512"></line><line stroke-width="1" stroke="#B35047" x1="224" x2="224" y1="0" y2="512"></line><line stroke-width="1" stroke="#B35047" x1="256" x2="256" y1="0" y2="512"></line><line stroke-width="1" stroke="#B35047" x1="288" x2="288" y1="0" y2="512"></line><line stroke-width="1" stroke="#B35047" x1="320" x2="320" y1="0" y2="512"></line><line stroke-width="1" stroke="#B35047" x1="352" x2="352" y1="0" y2="512"></line><line stroke-width="1" stroke="#B35047" x1="384" x2="384" y1="0" y2="512"></line><line stroke-width="1" stroke="#B35047" x1="416" x2="416" y1="0" y2="512"></line><line stroke-width="1" stroke="#B35047" x1="448" x2="448" y1="0" y2="512"></line><line stroke-width="1" stroke="#B35047" x1="480" x2="480" y1="0" y2="512"></line><line stroke-width="1" stroke="#B35047" x1="0" x2="512" y1="32" y2="32"></line><line stroke-width="1" stroke="#B35047" x1="0" x2="512" y1="64" y2="64"></line><line stroke-width="1" stroke="#B35047" x1="0" x2="512" y1="96" y2="96"></line><line stroke-width="1" stroke="#B35047" x1="0" x2="512" y1="128" y2="128"></line><line stroke-width="1" stroke="#B35047" x1="0" x2="512" y1="160" y2="160"></line><line stroke-width="1" stroke="#B35047" x1="0" x2="512" y1="192" y2="192"></line><line stroke-width="1" stroke="#B35047" x1="0" x2="512" y1="224" y2="224"></line><line stroke-width="1" stroke="#B35047" x1="0" x2="512" y1="256" y2="256"></line><line stroke-width="1" stroke="#B35047" x1="0" x2="512" y1="288" y2="288"></line><line stroke-width="1" stroke="#B35047" x1="0" x2="512" y1="320" y2="320"></line><line stroke-width="1" stroke="#B35047" x1="0" x2="512" y1="352" y2="352"></line><line stroke-width="1" stroke="#B35047" x1="0" x2="512" y1="384" y2="384"></line><line stroke-width="1" stroke="#B35047" x1="0" x2="512" y1="416" y2="416"></line><line stroke-width="1" stroke="#B35047" x1="0" x2="512" y1="448" y2="448"></line><line stroke-width="1" stroke="#B35047" x1="0" x2="512" y1="480" y2="480"></line><rect x="0" y="0" width="512" height="512" fill="none" stroke-width="1" stroke="#B35047"></rect></g><path d="M 490.745,154.745l-69.49-69.49C 408.81,72.809, 392.404,66.587, 376.00,66.587s-32.81,6.222-45.255,18.667l-133.49,133.49 c-24.891,24.89-24.891,65.62,0.00,90.509L 200.00,312.00l 31.819-31.82l-2.745-2.745c-4.774-4.774-5.487-10.467-5.487-13.435 c0.00-2.969, 0.713-8.661, 5.487-13.436l 133.49-133.49c 4.775-4.775, 10.468-5.488, 13.436-5.488s 8.66,0.713, 13.435,5.488l 69.491,69.491 c 4.774,4.774, 5.487,10.466, 5.487,13.435s-0.713,8.66-5.487,13.435l-133.491,133.49c-4.774,4.775-10.467,5.488-13.435,5.488 s-8.66-0.713-13.435-5.488l-2.745-2.746L 264.00,375.999l 2.745,2.746c 12.445,12.445, 28.851,18.668, 45.255,18.668 s 32.81-6.223, 45.255-18.668l 133.49-133.491C 515.636,220.364, 515.636,179.635, 490.745,154.745zM 314.745,202.745L 312.00,200.00l-31.82,31.82l 2.746,2.746c 4.774,4.774, 5.487,10.466, 5.487,13.435s-0.713,8.661-5.487,13.435 l-133.491,133.49c-4.774,4.775-10.467,5.488-13.435,5.488c-2.969,0.00-8.66-0.713-13.436-5.488l-69.489-69.49 c-7.283-7.282-7.283-19.587-0.001-26.87l 133.49-133.49c 4.775-4.774, 10.467-5.487, 13.436-5.487c 2.968,0.00, 8.66,0.713, 13.435,5.487 l 2.745,2.745L 248.00,136.00l-2.745-2.745c-12.445-12.445-28.851-18.667-45.255-18.667c-16.405,0.00-32.81,6.222-45.255,18.667 l-133.49,133.49c-24.891,24.891-24.891,65.62,0.00,90.511l 69.49,69.49c 12.445,12.445, 28.85,18.668, 45.255,18.668 c 16.404,0.00, 32.81-6.223, 45.255-18.668l 133.49-133.491C 339.636,268.364, 339.636,227.635, 314.745,202.745z" ></path></svg>