<?xml version="1.0" encoding="utf-8"?> <!-- Generator: IcoMoon.io --> <!DOCTYPE svg PUBLIC "-//W3C//DTD SVG 1.1//EN" "http://www.w3.org/Graphics/SVG/1.1/DTD/svg11.dtd"> <svg width="512" height="512" viewBox="0 0 512 512" xmlns="http://www.w3.org/2000/svg" xmlns:xlink="http://www.w3.org/1999/xlink" fill="#000000"><g class="svgGrid" id="svgGrid"><line stroke-width="1" stroke="#B35047" x1="32" x2="32" y1="0" y2="512"></line><line stroke-width="1" stroke="#B35047" x1="64" x2="64" y1="0" y2="512"></line><line stroke-width="1" stroke="#B35047" x1="96" x2="96" y1="0" y2="512"></line><line stroke-width="1" stroke="#B35047" x1="128" x2="128" y1="0" y2="512"></line><line stroke-width="1" stroke="#B35047" x1="160" x2="160" y1="0" y2="512"></line><line stroke-width="1" stroke="#B35047" x1="192" x2="192" y1="0" y2="512"></line><line stroke-width="1" stroke="#B35047" x1="224" x2="224" y1="0" y2="512"></line><line stroke-width="1" stroke="#B35047" x1="256" x2="256" y1="0" y2="512"></line><line stroke-width="1" stroke="#B35047" x1="288" x2="288" y1="0" y2="512"></line><line stroke-width="1" stroke="#B35047" x1="320" x2="320" y1="0" y2="512"></line><line stroke-width="1" stroke="#B35047" x1="352" x2="352" y1="0" y2="512"></line><line stroke-width="1" stroke="#B35047" x1="384" x2="384" y1="0" y2="512"></line><line stroke-width="1" stroke="#B35047" x1="416" x2="416" y1="0" y2="512"></line><line stroke-width="1" stroke="#B35047" x1="448" x2="448" y1="0" y2="512"></line><line stroke-width="1" stroke="#B35047" x1="480" x2="480" y1="0" y2="512"></line><line stroke-width="1" stroke="#B35047" x1="0" x2="512" y1="32" y2="32"></line><line stroke-width="1" stroke="#B35047" x1="0" x2="512" y1="64" y2="64"></line><line stroke-width="1" stroke="#B35047" x1="0" x2="512" y1="96" y2="96"></line><line stroke-width="1" stroke="#B35047" x1="0" x2="512" y1="128" y2="128"></line><line stroke-width="1" stroke="#B35047" x1="0" x2="512" y1="160" y2="160"></line><line stroke-width="1" stroke="#B35047" x1="0" x2="512" y1="192" y2="192"></line><line stroke-width="1" stroke="#B35047" x1="0" x2="512" y1="224" y2="224"></line><line stroke-width="1" stroke="#B35047" x1="0" x2="512" y1="256" y2="256"></line><line stroke-width="1" stroke="#B35047" x1="0" x2="512" y1="288" y2="288"></line><line stroke-width="1" stroke="#B35047" x1="0" x2="512" y1="320" y2="320"></line><line stroke-width="1" stroke="#B35047" x1="0" x2="512" y1="352" y2="352"></line><line stroke-width="1" stroke="#B35047" x1="0" x2="512" y1="384" y2="384"></line><line stroke-width="1" stroke="#B35047" x1="0" x2="512" y1="416" y2="416"></line><line stroke-width="1" stroke="#B35047" x1="0" x2="512" y1="448" y2="448"></line><line stroke-width="1" stroke="#B35047" x1="0" x2="512" y1="480" y2="480"></line><rect x="0" y="0" width="512" height="512" fill="none" stroke-width="1" stroke="#B35047"></rect></g><path d="M 482.257,185.558c-14.605,0.00-64.466-26.681-64.466-26.681c-28.426-15.856-60.645-33.828-96.991-33.828 c-26.883,0.00-48.65,4.256-64.80,12.659c-16.149-8.403-37.917-12.659-64.801-12.659c-36.347,0.00-68.565,17.972-96.991,33.828 c0.00,0.00-49.86,26.681-64.466,26.681c-22.295,0.00-45.304,29.652-15.688,57.387c 15.905,12.17, 31.108,27.354, 47.204,43.429 c 23.498,23.469, 47.796,47.735, 78.253,66.891c 36.043,22.668, 74.146,33.688, 116.489,33.688c 42.342,0.00, 80.445-11.02, 116.489-33.688 c 30.456-19.155, 54.755-43.422, 78.252-66.891c 16.096-16.075, 31.30-31.259, 47.204-43.429 C 527.562,215.21, 504.552,185.558, 482.257,185.558z M 256.00,358.151c-112.285,0.00-159.638-88.491-224.444-138.08 C 54.398,237.55, 180.04,286.65, 256.00,286.65s 201.602-49.101, 224.443-66.579C 415.637,269.66, 368.284,358.151, 256.00,358.151z M 256.00,240.25 c-86.401,0.00-230.402-26.03-230.402-26.03l 4.512-0.141c 55.732-3.22, 104.998-60.229, 161.09-60.229c 57.601,0.00, 64.801,21.60, 64.801,21.60 s 7.20-21.60, 64.80-21.60c 56.092,0.00, 105.357,57.01, 161.091,60.229l 4.511,0.141C 486.401,214.22, 342.40,240.25, 256.00,240.25z" ></path></svg>