<?xml version="1.0" encoding="utf-8"?> <!-- Generator: IcoMoon.io --> <!DOCTYPE svg PUBLIC "-//W3C//DTD SVG 1.1//EN" "http://www.w3.org/Graphics/SVG/1.1/DTD/svg11.dtd"> <svg width="512" height="512" viewBox="0 0 512 512" xmlns="http://www.w3.org/2000/svg" xmlns:xlink="http://www.w3.org/1999/xlink" fill="#000000"><g class="svgGrid" id="svgGrid"><line stroke-width="1" stroke="#B35047" x1="32" x2="32" y1="0" y2="512"></line><line stroke-width="1" stroke="#B35047" x1="64" x2="64" y1="0" y2="512"></line><line stroke-width="1" stroke="#B35047" x1="96" x2="96" y1="0" y2="512"></line><line stroke-width="1" stroke="#B35047" x1="128" x2="128" y1="0" y2="512"></line><line stroke-width="1" stroke="#B35047" x1="160" x2="160" y1="0" y2="512"></line><line stroke-width="1" stroke="#B35047" x1="192" x2="192" y1="0" y2="512"></line><line stroke-width="1" stroke="#B35047" x1="224" x2="224" y1="0" y2="512"></line><line stroke-width="1" stroke="#B35047" x1="256" x2="256" y1="0" y2="512"></line><line stroke-width="1" stroke="#B35047" x1="288" x2="288" y1="0" y2="512"></line><line stroke-width="1" stroke="#B35047" x1="320" x2="320" y1="0" y2="512"></line><line stroke-width="1" stroke="#B35047" x1="352" x2="352" y1="0" y2="512"></line><line stroke-width="1" stroke="#B35047" x1="384" x2="384" y1="0" y2="512"></line><line stroke-width="1" stroke="#B35047" x1="416" x2="416" y1="0" y2="512"></line><line stroke-width="1" stroke="#B35047" x1="448" x2="448" y1="0" y2="512"></line><line stroke-width="1" stroke="#B35047" x1="480" x2="480" y1="0" y2="512"></line><line stroke-width="1" stroke="#B35047" x1="0" x2="512" y1="32" y2="32"></line><line stroke-width="1" stroke="#B35047" x1="0" x2="512" y1="64" y2="64"></line><line stroke-width="1" stroke="#B35047" x1="0" x2="512" y1="96" y2="96"></line><line stroke-width="1" stroke="#B35047" x1="0" x2="512" y1="128" y2="128"></line><line stroke-width="1" stroke="#B35047" x1="0" x2="512" y1="160" y2="160"></line><line stroke-width="1" stroke="#B35047" x1="0" x2="512" y1="192" y2="192"></line><line stroke-width="1" stroke="#B35047" x1="0" x2="512" y1="224" y2="224"></line><line stroke-width="1" stroke="#B35047" x1="0" x2="512" y1="256" y2="256"></line><line stroke-width="1" stroke="#B35047" x1="0" x2="512" y1="288" y2="288"></line><line stroke-width="1" stroke="#B35047" x1="0" x2="512" y1="320" y2="320"></line><line stroke-width="1" stroke="#B35047" x1="0" x2="512" y1="352" y2="352"></line><line stroke-width="1" stroke="#B35047" x1="0" x2="512" y1="384" y2="384"></line><line stroke-width="1" stroke="#B35047" x1="0" x2="512" y1="416" y2="416"></line><line stroke-width="1" stroke="#B35047" x1="0" x2="512" y1="448" y2="448"></line><line stroke-width="1" stroke="#B35047" x1="0" x2="512" y1="480" y2="480"></line><rect x="0" y="0" width="512" height="512" fill="none" stroke-width="1" stroke="#B35047"></rect></g><path d="M 256.00,0.00C 167.634,0.00, 96.00,71.634, 96.00,160.00c0.00,160.00, 160.00,288.00, 160.00,288.00s 160.00-128.00, 160.00-288.00C 416.00,71.634, 344.365,0.00, 256.00,0.00z M 256.00,258.00 c-54.124,0.00-98.00-43.876-98.00-98.00s 43.876-98.00, 98.00-98.00s 98.00,43.876, 98.00,98.00S 310.124,258.00, 256.00,258.00z M 194.00,160.00c0.00,34.242, 27.758,62.00, 62.00,62.00 c 34.242,0.00, 62.00-27.758, 62.00-62.00s-27.758-62.00-62.00-62.00C 221.758,98.00, 194.00,125.758, 194.00,160.00zM 393.128,348.815c-7.091,11.137-14.438,21.69-21.828,31.613c 1.173,0.551, 2.333,1.108, 3.471,1.677 C 399.106,394.274, 410.00,407.896, 410.00,416.00s-10.894,21.726-35.229,33.895C 344.131,465.214, 300.841,474.00, 256.00,474.00 s-88.131-8.786-118.771-24.105C 112.893,437.726, 102.00,424.104, 102.00,416.00s 10.893-21.726, 35.229-33.895 c 1.138-0.568, 2.298-1.126, 3.47-1.677c-7.39-9.923-14.737-20.477-21.827-31.613C 84.935,366.131, 64.00,389.841, 64.00,416.00 c0.00,53.02, 85.961,96.00, 192.00,96.00c 106.039,0.00, 192.00-42.98, 192.00-96.00C 448.00,389.841, 427.065,366.131, 393.128,348.815z" ></path></svg>