<?xml version="1.0" encoding="utf-8"?> <!-- Generator: IcoMoon.io --> <!DOCTYPE svg PUBLIC "-//W3C//DTD SVG 1.1//EN" "http://www.w3.org/Graphics/SVG/1.1/DTD/svg11.dtd"> <svg width="512" height="512" viewBox="0 0 512 512" xmlns="http://www.w3.org/2000/svg" xmlns:xlink="http://www.w3.org/1999/xlink" fill="#000000"><g class="svgGrid" id="svgGrid"><line stroke-width="1" stroke="#B35047" x1="32" x2="32" y1="0" y2="512"></line><line stroke-width="1" stroke="#B35047" x1="64" x2="64" y1="0" y2="512"></line><line stroke-width="1" stroke="#B35047" x1="96" x2="96" y1="0" y2="512"></line><line stroke-width="1" stroke="#B35047" x1="128" x2="128" y1="0" y2="512"></line><line stroke-width="1" stroke="#B35047" x1="160" x2="160" y1="0" y2="512"></line><line stroke-width="1" stroke="#B35047" x1="192" x2="192" y1="0" y2="512"></line><line stroke-width="1" stroke="#B35047" x1="224" x2="224" y1="0" y2="512"></line><line stroke-width="1" stroke="#B35047" x1="256" x2="256" y1="0" y2="512"></line><line stroke-width="1" stroke="#B35047" x1="288" x2="288" y1="0" y2="512"></line><line stroke-width="1" stroke="#B35047" x1="320" x2="320" y1="0" y2="512"></line><line stroke-width="1" stroke="#B35047" x1="352" x2="352" y1="0" y2="512"></line><line stroke-width="1" stroke="#B35047" x1="384" x2="384" y1="0" y2="512"></line><line stroke-width="1" stroke="#B35047" x1="416" x2="416" y1="0" y2="512"></line><line stroke-width="1" stroke="#B35047" x1="448" x2="448" y1="0" y2="512"></line><line stroke-width="1" stroke="#B35047" x1="480" x2="480" y1="0" y2="512"></line><line stroke-width="1" stroke="#B35047" x1="0" x2="512" y1="32" y2="32"></line><line stroke-width="1" stroke="#B35047" x1="0" x2="512" y1="64" y2="64"></line><line stroke-width="1" stroke="#B35047" x1="0" x2="512" y1="96" y2="96"></line><line stroke-width="1" stroke="#B35047" x1="0" x2="512" y1="128" y2="128"></line><line stroke-width="1" stroke="#B35047" x1="0" x2="512" y1="160" y2="160"></line><line stroke-width="1" stroke="#B35047" x1="0" x2="512" y1="192" y2="192"></line><line stroke-width="1" stroke="#B35047" x1="0" x2="512" y1="224" y2="224"></line><line stroke-width="1" stroke="#B35047" x1="0" x2="512" y1="256" y2="256"></line><line stroke-width="1" stroke="#B35047" x1="0" x2="512" y1="288" y2="288"></line><line stroke-width="1" stroke="#B35047" x1="0" x2="512" y1="320" y2="320"></line><line stroke-width="1" stroke="#B35047" x1="0" x2="512" y1="352" y2="352"></line><line stroke-width="1" stroke="#B35047" x1="0" x2="512" y1="384" y2="384"></line><line stroke-width="1" stroke="#B35047" x1="0" x2="512" y1="416" y2="416"></line><line stroke-width="1" stroke="#B35047" x1="0" x2="512" y1="448" y2="448"></line><line stroke-width="1" stroke="#B35047" x1="0" x2="512" y1="480" y2="480"></line><rect x="0" y="0" width="512" height="512" fill="none" stroke-width="1" stroke="#B35047"></rect></g><path d="M 429.751,13.271L 427.454,0.00L 304.00,0.00 l 3.301,18.771c 11.173,63.55, 37.161,218.268, 37.161,282.229c0.00,49.075-39.684,89.00-88.462,89.00 c-48.778,0.00-88.461-39.925-88.461-89.00c0.00-63.963, 25.988-218.68, 37.162-282.229L 208.00,0.00L 84.546,0.00 l-2.297,13.271 C 68.711,91.482, 46.00,232.864, 46.00,301.00c0.00,116.346, 94.206,211.00, 210.00,211.00c 115.794,0.00, 210.00-94.654, 210.00-211.00 C 466.00,232.867, 443.289,91.484, 429.751,13.271z M 434.00,301.00c0.00,2.346-0.06,4.677-0.148,7.00l-57.597,0.00 c 0.133-2.317, 0.207-4.65, 0.207-7.00 c0.00-0.326-0.006-0.67-0.007-1.00l 57.539,0.00 C 433.995,300.33, 434.00,300.674, 434.00,301.00z M 191.935,468.00c-6.042-2.353-11.927-5.023-17.631-8.00l 163.393,0.00 c-5.704,2.977-11.589,5.647-17.631,8.00L 191.935,468.00 z M 293.454,476.00c-12.081,2.612-24.608,4.00-37.454,4.00s-25.373-1.388-37.454-4.00L 293.454,476.00 z M 160.51,452.00c-3.924-2.519-7.744-5.188-11.451-8.00l 213.883,0.00 c-3.708,2.812-7.526,5.481-11.451,8.00L 160.51,452.00 z M 139.243,436.00 c-2.938-2.572-5.789-5.242-8.553-8.00l 250.621,0.00 c-2.765,2.758-5.616,5.428-8.554,8.00L 139.243,436.00 z M 78.00,301.00c0.00-0.326, 0.005-0.67, 0.006-1.00l 57.539,0.00 c-0.001,0.33-0.007,0.674-0.007,1.00c0.00,2.35, 0.074,4.683, 0.207,7.00L 78.149,308.00 C 78.06,305.677, 78.00,303.346, 78.00,301.00z M 154.256,128.00 c-0.203,1.332-0.404,2.666-0.606,4.00L 95.489,132.00 c 0.198-1.334, 0.395-2.669, 0.594-4.00L 154.256,128.00 z M 152.447,140.00c-0.397,2.666-0.791,5.333-1.182,8.00 L 93.156,148.00 c 0.382-2.668, 0.767-5.335, 1.156-8.00L 152.447,140.00 z M 150.102,156.00c-0.385,2.67-0.767,5.338-1.144,8.00L 90.902,164.00 c 0.368-2.664, 0.741-5.331, 1.117-8.00L 150.102,156.00 z M 147.836,172.00c-0.371,2.676-0.736,5.341-1.097,8.00L 88.741,180.00 c 0.351-2.66, 0.707-5.326, 1.069-8.00 L 147.836,172.00 z M 145.665,188.00c-0.355,2.679-0.705,5.348-1.047,8.00L 86.682,196.00 c 0.333-2.655, 0.67-5.321, 1.015-8.00L 145.665,188.00 z M 143.603,204.00 c-0.336,2.685-0.666,5.354-0.986,8.00L 84.743,212.00 c 0.309-2.647, 0.629-5.318, 0.955-8.00L 143.603,204.00 z M 141.667,220.00c-0.313,2.693-0.617,5.358-0.911,8.00 L 82.949,228.00 c 0.283-2.642, 0.576-5.311, 0.878-8.00L 141.667,220.00 z M 139.886,236.00c-0.286,2.704-0.557,5.365-0.818,8.00L 81.329,244.00 c 0.25-2.635, 0.512-5.301, 0.786-8.00L 139.886,236.00 z M 138.299,252.00c-0.25,2.716-0.482,5.377-0.701,8.00L 79.929,260.00 c 0.208-2.623, 0.431-5.291, 0.668-8.00 L 138.299,252.00 z M 136.968,268.00c-0.201,2.727-0.386,5.40-0.546,8.00L 78.82,276.00 c 0.151-2.604, 0.324-5.278, 0.514-8.00L 136.968,268.00 z M 135.986,284.00 c-0.13,2.76-0.232,5.427-0.306,8.00L 78.129,292.00 c 0.068-2.583, 0.162-5.248, 0.282-8.00L 135.986,284.00 z M 136.464,316.00c 0.333,2.695, 0.76,5.362, 1.267,8.00 L 79.465,324.00 c-0.339-2.648-0.612-5.317-0.835-8.00L 136.464,316.00 z M 139.553,332.00c 0.714,2.704, 1.515,5.373, 2.408,8.00L 82.268,340.00 c-0.587-2.646-1.12-5.312-1.589-8.00L 139.553,332.00 z M 144.998,348.00c 1.146,2.719, 2.387,5.387, 3.72,8.00l-62.11,0.00 c-0.85-2.641-1.64-5.308-2.369-8.00 L 144.998,348.00 z M 153.192,364.00c 1.671,2.741, 3.451,5.408, 5.328,8.00L 92.617,372.00 c-1.137-2.635-2.211-5.302-3.224-8.00L 153.192,364.00 z M 164.83,380.00 c 2.392,2.781, 4.91,5.448, 7.541,8.00l-71.882,0.00 c-1.459-2.627-2.854-5.294-4.184-8.00L 164.83,380.00 z M 181.477,396.00c 3.63,2.879, 7.43,5.549, 11.378,8.00 l-82.352,0.00 c-1.836-2.615-3.60-5.284-5.297-8.00L 181.477,396.00 z M 208.074,412.00c 8.256,3.61, 16.989,6.32, 26.077,8.00L 123.155,420.00 c-2.307-2.602-4.543-5.267-6.697-8.00L 208.074,412.00 z M 277.849,420.00c 9.089-1.68, 17.821-4.39, 26.077-8.00l 91.616,0.00 c-2.154,2.733-4.391,5.398-6.697,8.00 L 277.849,420.00 z M 319.146,404.00c 3.948-2.451, 7.749-5.121, 11.378-8.00l 76.271,0.00 c-1.697,2.716-3.461,5.385-5.297,8.00L 319.146,404.00 z M 339.631,388.00 c 2.63-2.552, 5.148-5.219, 7.54-8.00l 68.524,0.00 c-1.329,2.706-2.725,5.373-4.184,8.00L 339.631,388.00 z M 353.48,372.00c 1.876-2.592, 3.656-5.259, 5.327-8.00 l 63.799,0.00 c-1.012,2.698-2.087,5.365-3.224,8.00L 353.48,372.00 z M 376.015,284.00l 57.574,0.00 c 0.121,2.752, 0.214,5.417, 0.282,8.00L 376.32,292.00 C 376.247,289.426, 376.146,286.76, 376.015,284.00z M 375.579,276.00c-0.161-2.60-0.346-5.273-0.546-8.00l 57.633,0.00 c 0.189,2.722, 0.363,5.396, 0.514,8.00 L 375.579,276.00 z M 374.402,260.00c-0.22-2.623-0.451-5.284-0.701-8.00l 57.701,0.00 c 0.237,2.709, 0.461,5.377, 0.669,8.00L 374.402,260.00 z M 372.933,244.00 c-0.262-2.635-0.532-5.296-0.818-8.00l 57.771,0.00 c 0.273,2.699, 0.536,5.365, 0.786,8.00L 372.933,244.00 z M 371.244,228.00c-0.294-2.642-0.598-5.307-0.911-8.00 l 57.839,0.00 c 0.303,2.689, 0.596,5.358, 0.879,8.00L 371.244,228.00 z M 369.384,212.00c-0.32-2.646-0.65-5.315-0.986-8.00l 57.905,0.00 c 0.325,2.682, 0.646,5.353, 0.955,8.00L 369.384,212.00 z M 367.382,196.00c-0.342-2.652-0.691-5.321-1.047-8.00l 57.968,0.00 c 0.346,2.679, 0.683,5.345, 1.015,8.00 L 367.382,196.00 z M 365.262,180.00c-0.361-2.659-0.727-5.324-1.098-8.00l 58.026,0.00 c 0.361,2.674, 0.717,5.34, 1.068,8.00L 365.262,180.00 z M 363.043,164.00 c-0.377-2.662-0.76-5.33-1.145-8.00l 58.082,0.00 c 0.376,2.669, 0.749,5.336, 1.117,8.00L 363.043,164.00 z M 360.735,148.00c-0.392-2.667-0.785-5.334-1.183-8.00 l 58.135,0.00 c 0.389,2.665, 0.773,5.332, 1.156,8.00L 360.735,148.00 z M 358.351,132.00c-0.202-1.334-0.403-2.668-0.606-4.00l 58.173,0.00 c 0.198,1.331, 0.396,2.666, 0.594,4.00L 358.351,132.00 z M 363.283,356.00c 1.333-2.613, 2.574-5.281, 3.719-8.00l 60.76,0.00 c-0.729,2.692-1.52,5.359-2.369,8.00 L 363.283,356.00 z M 370.04,340.00c 0.893-2.627, 1.694-5.296, 2.408-8.00l 58.873,0.00 c-0.469,2.688-1.002,5.354-1.589,8.00L 370.04,340.00 z M 374.27,324.00 c 0.508-2.638, 0.934-5.305, 1.268-8.00l 57.832,0.00 c-0.222,2.683-0.495,5.352-0.834,8.00L 374.27,324.00 z" ></path></svg>