<?xml version="1.0" encoding="utf-8"?> <!-- Generator: IcoMoon.io --> <!DOCTYPE svg PUBLIC "-//W3C//DTD SVG 1.1//EN" "http://www.w3.org/Graphics/SVG/1.1/DTD/svg11.dtd"> <svg width="512" height="512" viewBox="0 0 512 512" xmlns="http://www.w3.org/2000/svg" xmlns:xlink="http://www.w3.org/1999/xlink" fill="#000000"><g class="svgGrid" id="svgGrid"><line stroke-width="1" stroke="#B35047" x1="32" x2="32" y1="0" y2="512"></line><line stroke-width="1" stroke="#B35047" x1="64" x2="64" y1="0" y2="512"></line><line stroke-width="1" stroke="#B35047" x1="96" x2="96" y1="0" y2="512"></line><line stroke-width="1" stroke="#B35047" x1="128" x2="128" y1="0" y2="512"></line><line stroke-width="1" stroke="#B35047" x1="160" x2="160" y1="0" y2="512"></line><line stroke-width="1" stroke="#B35047" x1="192" x2="192" y1="0" y2="512"></line><line stroke-width="1" stroke="#B35047" x1="224" x2="224" y1="0" y2="512"></line><line stroke-width="1" stroke="#B35047" x1="256" x2="256" y1="0" y2="512"></line><line stroke-width="1" stroke="#B35047" x1="288" x2="288" y1="0" y2="512"></line><line stroke-width="1" stroke="#B35047" x1="320" x2="320" y1="0" y2="512"></line><line stroke-width="1" stroke="#B35047" x1="352" x2="352" y1="0" y2="512"></line><line stroke-width="1" stroke="#B35047" x1="384" x2="384" y1="0" y2="512"></line><line stroke-width="1" stroke="#B35047" x1="416" x2="416" y1="0" y2="512"></line><line stroke-width="1" stroke="#B35047" x1="448" x2="448" y1="0" y2="512"></line><line stroke-width="1" stroke="#B35047" x1="480" x2="480" y1="0" y2="512"></line><line stroke-width="1" stroke="#B35047" x1="0" x2="512" y1="32" y2="32"></line><line stroke-width="1" stroke="#B35047" x1="0" x2="512" y1="64" y2="64"></line><line stroke-width="1" stroke="#B35047" x1="0" x2="512" y1="96" y2="96"></line><line stroke-width="1" stroke="#B35047" x1="0" x2="512" y1="128" y2="128"></line><line stroke-width="1" stroke="#B35047" x1="0" x2="512" y1="160" y2="160"></line><line stroke-width="1" stroke="#B35047" x1="0" x2="512" y1="192" y2="192"></line><line stroke-width="1" stroke="#B35047" x1="0" x2="512" y1="224" y2="224"></line><line stroke-width="1" stroke="#B35047" x1="0" x2="512" y1="256" y2="256"></line><line stroke-width="1" stroke="#B35047" x1="0" x2="512" y1="288" y2="288"></line><line stroke-width="1" stroke="#B35047" x1="0" x2="512" y1="320" y2="320"></line><line stroke-width="1" stroke="#B35047" x1="0" x2="512" y1="352" y2="352"></line><line stroke-width="1" stroke="#B35047" x1="0" x2="512" y1="384" y2="384"></line><line stroke-width="1" stroke="#B35047" x1="0" x2="512" y1="416" y2="416"></line><line stroke-width="1" stroke="#B35047" x1="0" x2="512" y1="448" y2="448"></line><line stroke-width="1" stroke="#B35047" x1="0" x2="512" y1="480" y2="480"></line><rect x="0" y="0" width="512" height="512" fill="none" stroke-width="1" stroke="#B35047"></rect></g><path d="M 384.00,80.00L 128.00,16.00L0.00,96.00l0.00,416.00 l 128.00-80.00l 256.00,64.00l 128.00-80.00L 512.00,0.00 L 384.00,80.00z M 160.00,407.016L 160.00,56.985 l 4.00,1.00l0.00,350.031 L 160.00,407.016z M 172.00,410.016L 172.00,59.985 l 8.00,2.00l0.00,350.031 L 172.00,410.016z M 188.00,414.016L 188.00,63.985 l 8.00,2.00l0.00,350.031 L 188.00,414.016z M 204.00,418.016L 204.00,67.985 l 8.00,2.00l0.00,350.031 L 204.00,418.016z M 220.00,422.016L 220.00,71.985 l 8.00,2.00l0.00,350.031 L 220.00,422.016z M 236.00,426.016L 236.00,75.985 l 8.00,2.00l0.00,350.031 L 236.00,426.016z M 252.00,430.016L 252.00,79.985 l 8.00,2.00l0.00,350.031 L 252.00,430.016z M 268.00,434.016L 268.00,83.985 l 8.00,2.00l0.00,350.031 L 268.00,434.016z M 284.00,438.016L 284.00,87.985 l 8.00,2.00l0.00,350.031 L 284.00,438.016z M 300.00,442.016L 300.00,91.985 l 8.00,2.00 l0.00,350.031 L 300.00,442.016z M 316.00,446.016L 316.00,95.985 l 8.00,2.00l0.00,350.031 L 316.00,446.016z M 332.00,450.016L 332.00,99.985 l 8.00,2.00l0.00,350.031 L 332.00,450.016z M 352.00,455.016 l-4.00-1.00L 348.00,103.985 l 4.00,1.00L 352.00,455.016 z" ></path></svg>