<?xml version="1.0" encoding="utf-8"?> <!-- Generator: IcoMoon.io --> <!DOCTYPE svg PUBLIC "-//W3C//DTD SVG 1.1//EN" "http://www.w3.org/Graphics/SVG/1.1/DTD/svg11.dtd"> <svg width="512" height="512" viewBox="0 0 512 512" xmlns="http://www.w3.org/2000/svg" xmlns:xlink="http://www.w3.org/1999/xlink" fill="#000000"><g class="svgGrid" id="svgGrid"><line stroke-width="1" stroke="#B35047" x1="32" x2="32" y1="0" y2="512"></line><line stroke-width="1" stroke="#B35047" x1="64" x2="64" y1="0" y2="512"></line><line stroke-width="1" stroke="#B35047" x1="96" x2="96" y1="0" y2="512"></line><line stroke-width="1" stroke="#B35047" x1="128" x2="128" y1="0" y2="512"></line><line stroke-width="1" stroke="#B35047" x1="160" x2="160" y1="0" y2="512"></line><line stroke-width="1" stroke="#B35047" x1="192" x2="192" y1="0" y2="512"></line><line stroke-width="1" stroke="#B35047" x1="224" x2="224" y1="0" y2="512"></line><line stroke-width="1" stroke="#B35047" x1="256" x2="256" y1="0" y2="512"></line><line stroke-width="1" stroke="#B35047" x1="288" x2="288" y1="0" y2="512"></line><line stroke-width="1" stroke="#B35047" x1="320" x2="320" y1="0" y2="512"></line><line stroke-width="1" stroke="#B35047" x1="352" x2="352" y1="0" y2="512"></line><line stroke-width="1" stroke="#B35047" x1="384" x2="384" y1="0" y2="512"></line><line stroke-width="1" stroke="#B35047" x1="416" x2="416" y1="0" y2="512"></line><line stroke-width="1" stroke="#B35047" x1="448" x2="448" y1="0" y2="512"></line><line stroke-width="1" stroke="#B35047" x1="480" x2="480" y1="0" y2="512"></line><line stroke-width="1" stroke="#B35047" x1="0" x2="512" y1="32" y2="32"></line><line stroke-width="1" stroke="#B35047" x1="0" x2="512" y1="64" y2="64"></line><line stroke-width="1" stroke="#B35047" x1="0" x2="512" y1="96" y2="96"></line><line stroke-width="1" stroke="#B35047" x1="0" x2="512" y1="128" y2="128"></line><line stroke-width="1" stroke="#B35047" x1="0" x2="512" y1="160" y2="160"></line><line stroke-width="1" stroke="#B35047" x1="0" x2="512" y1="192" y2="192"></line><line stroke-width="1" stroke="#B35047" x1="0" x2="512" y1="224" y2="224"></line><line stroke-width="1" stroke="#B35047" x1="0" x2="512" y1="256" y2="256"></line><line stroke-width="1" stroke="#B35047" x1="0" x2="512" y1="288" y2="288"></line><line stroke-width="1" stroke="#B35047" x1="0" x2="512" y1="320" y2="320"></line><line stroke-width="1" stroke="#B35047" x1="0" x2="512" y1="352" y2="352"></line><line stroke-width="1" stroke="#B35047" x1="0" x2="512" y1="384" y2="384"></line><line stroke-width="1" stroke="#B35047" x1="0" x2="512" y1="416" y2="416"></line><line stroke-width="1" stroke="#B35047" x1="0" x2="512" y1="448" y2="448"></line><line stroke-width="1" stroke="#B35047" x1="0" x2="512" y1="480" y2="480"></line><rect x="0" y="0" width="512" height="512" fill="none" stroke-width="1" stroke="#B35047"></rect></g><path d="M 416.00,96.00L 416.00,64.00 c0.00-17.60-14.40-32.00-32.00-32.00L 32.00,32.00 C 14.40,32.00,0.00,46.40,0.00,64.00l0.00,96.00 c0.00,17.60, 14.40,32.00, 32.00,32.00l 352.00,0.00 c 17.60,0.00, 32.00-14.40, 32.00-32.00l0.00-32.00 l 64.00,0.00 l0.00,128.00 L 192.00,256.00 l0.00,64.00 l-16.00,0.00 c-8.837,0.00-16.00,7.163-16.00,16.00l0.00,160.00 c0.00,8.837, 7.163,16.00, 16.00,16.00l 64.00,0.00 c 8.837,0.00, 16.00-7.163, 16.00-16.00L 256.00,336.00 c0.00-8.837-7.163-16.00-16.00-16.00l-16.00,0.00 l0.00-32.00 l 288.00,0.00 L 512.00,96.00 L 416.00,96.00 z M 35.00,96.00l-3.00,0.00 L 32.00,64.00 l 3.00,0.00 L 35.00,96.00 z M 51.00,96.00l-8.00,0.00 L 43.00,64.00 l 8.00,0.00 L 51.00,96.00 z M 67.00,96.00l-8.00,0.00 L 59.00,64.00 l 8.00,0.00 L 67.00,96.00 z M 83.00,96.00l-8.00,0.00 L 75.00,64.00 l 8.00,0.00 L 83.00,96.00 z M 99.00,96.00l-8.00,0.00 L 91.00,64.00 l 8.00,0.00 L 99.00,96.00 z M 115.00,96.00l-8.00,0.00 L 107.00,64.00 l 8.00,0.00 L 115.00,96.00 z M 131.00,96.00l-8.00,0.00 L 123.00,64.00 l 8.00,0.00 L 131.00,96.00 z M 147.00,96.00l-8.00,0.00 L 139.00,64.00 l 8.00,0.00 L 147.00,96.00 z M 163.00,96.00l-8.00,0.00 L 155.00,64.00 l 8.00,0.00 L 163.00,96.00 z M 179.00,96.00l-8.00,0.00 L 171.00,64.00 l 8.00,0.00 L 179.00,96.00 z M 195.00,96.00l-8.00,0.00 L 187.00,64.00 l 8.00,0.00 L 195.00,96.00 z M 211.00,96.00l-8.00,0.00 L 203.00,64.00 l 8.00,0.00 L 211.00,96.00 z M 227.00,96.00l-8.00,0.00 L 219.00,64.00 l 8.00,0.00 L 227.00,96.00 z M 243.00,96.00l-8.00,0.00 L 235.00,64.00 l 8.00,0.00 L 243.00,96.00 z M 259.00,96.00l-8.00,0.00 L 251.00,64.00 l 8.00,0.00 L 259.00,96.00 z M 275.00,96.00l-8.00,0.00 L 267.00,64.00 l 8.00,0.00 L 275.00,96.00 z M 291.00,96.00l-8.00,0.00 L 283.00,64.00 l 8.00,0.00 L 291.00,96.00 z M 307.00,96.00l-8.00,0.00 L 299.00,64.00 l 8.00,0.00 L 307.00,96.00 z M 323.00,96.00l-8.00,0.00 L 315.00,64.00 l 8.00,0.00 L 323.00,96.00 z M 339.00,96.00l-8.00,0.00 L 331.00,64.00 l 8.00,0.00 L 339.00,96.00 z M 355.00,96.00l-8.00,0.00 L 347.00,64.00 l 8.00,0.00 L 355.00,96.00 z M 371.00,96.00l-8.00,0.00 L 363.00,64.00 l 8.00,0.00 L 371.00,96.00 z M 384.00,96.00l-5.00,0.00 L 379.00,64.00 l 5.00,0.00 L 384.00,96.00 z" ></path></svg>