<?xml version="1.0" encoding="utf-8"?> <!-- Generator: IcoMoon.io --> <!DOCTYPE svg PUBLIC "-//W3C//DTD SVG 1.1//EN" "http://www.w3.org/Graphics/SVG/1.1/DTD/svg11.dtd"> <svg width="512" height="512" viewBox="0 0 512 512" xmlns="http://www.w3.org/2000/svg" xmlns:xlink="http://www.w3.org/1999/xlink" fill="#000000"><g class="svgGrid" id="svgGrid"><line stroke-width="1" stroke="#B35047" x1="32" x2="32" y1="0" y2="512"></line><line stroke-width="1" stroke="#B35047" x1="64" x2="64" y1="0" y2="512"></line><line stroke-width="1" stroke="#B35047" x1="96" x2="96" y1="0" y2="512"></line><line stroke-width="1" stroke="#B35047" x1="128" x2="128" y1="0" y2="512"></line><line stroke-width="1" stroke="#B35047" x1="160" x2="160" y1="0" y2="512"></line><line stroke-width="1" stroke="#B35047" x1="192" x2="192" y1="0" y2="512"></line><line stroke-width="1" stroke="#B35047" x1="224" x2="224" y1="0" y2="512"></line><line stroke-width="1" stroke="#B35047" x1="256" x2="256" y1="0" y2="512"></line><line stroke-width="1" stroke="#B35047" x1="288" x2="288" y1="0" y2="512"></line><line stroke-width="1" stroke="#B35047" x1="320" x2="320" y1="0" y2="512"></line><line stroke-width="1" stroke="#B35047" x1="352" x2="352" y1="0" y2="512"></line><line stroke-width="1" stroke="#B35047" x1="384" x2="384" y1="0" y2="512"></line><line stroke-width="1" stroke="#B35047" x1="416" x2="416" y1="0" y2="512"></line><line stroke-width="1" stroke="#B35047" x1="448" x2="448" y1="0" y2="512"></line><line stroke-width="1" stroke="#B35047" x1="480" x2="480" y1="0" y2="512"></line><line stroke-width="1" stroke="#B35047" x1="0" x2="512" y1="32" y2="32"></line><line stroke-width="1" stroke="#B35047" x1="0" x2="512" y1="64" y2="64"></line><line stroke-width="1" stroke="#B35047" x1="0" x2="512" y1="96" y2="96"></line><line stroke-width="1" stroke="#B35047" x1="0" x2="512" y1="128" y2="128"></line><line stroke-width="1" stroke="#B35047" x1="0" x2="512" y1="160" y2="160"></line><line stroke-width="1" stroke="#B35047" x1="0" x2="512" y1="192" y2="192"></line><line stroke-width="1" stroke="#B35047" x1="0" x2="512" y1="224" y2="224"></line><line stroke-width="1" stroke="#B35047" x1="0" x2="512" y1="256" y2="256"></line><line stroke-width="1" stroke="#B35047" x1="0" x2="512" y1="288" y2="288"></line><line stroke-width="1" stroke="#B35047" x1="0" x2="512" y1="320" y2="320"></line><line stroke-width="1" stroke="#B35047" x1="0" x2="512" y1="352" y2="352"></line><line stroke-width="1" stroke="#B35047" x1="0" x2="512" y1="384" y2="384"></line><line stroke-width="1" stroke="#B35047" x1="0" x2="512" y1="416" y2="416"></line><line stroke-width="1" stroke="#B35047" x1="0" x2="512" y1="448" y2="448"></line><line stroke-width="1" stroke="#B35047" x1="0" x2="512" y1="480" y2="480"></line><rect x="0" y="0" width="512" height="512" fill="none" stroke-width="1" stroke="#B35047"></rect></g><path d="M 256.00,64.00C 114.615,64.00,0.00,164.288,0.00,288.00c0.00,82.947, 51.529,155.359, 128.101,194.078c 43.186,21.34, 80.116,5.816, 54.146-30.87 C 168.359,437.333, 160.00,419.48, 160.00,400.00c0.00-44.183, 42.98-80.00, 96.00-80.00s 96.00,35.817, 96.00,80.00c0.00,19.48-8.359,37.332-22.246,51.207 c-25.97,36.685, 10.955,52.209, 54.139,30.874C 460.469,443.363, 512.00,370.949, 512.00,288.00C 512.00,164.288, 397.385,64.00, 256.00,64.00z M 64.00,320.00 c-17.673,0.00-32.00-14.326-32.00-32.00s 14.327-32.00, 32.00-32.00s 32.00,14.326, 32.00,32.00S 81.673,320.00, 64.00,320.00z M 128.00,219.713 c-22.958,13.255-48.732,11.593-57.569-3.713c-8.836-15.306, 2.611-38.458, 25.569-51.713s 48.732-11.593, 57.569,3.713 C 162.406,183.306, 150.958,206.458, 128.00,219.713z M 256.00,192.00c-35.346,0.00-64.00-21.49-64.00-48.00s 28.654-48.00, 64.00-48.00c 35.347,0.00, 64.00,21.49, 64.00,48.00 S 291.347,192.00, 256.00,192.00z M 384.00,219.713c-22.958-13.255-34.406-36.407-25.569-51.713s 34.611-16.968, 57.569-3.713 s 34.406,36.407, 25.569,51.713S 406.958,232.968, 384.00,219.713z M 448.00,320.00c-17.673,0.00-32.00-14.326-32.00-32.00s 14.327-32.00, 32.00-32.00s 32.00,14.326, 32.00,32.00 S 465.673,320.00, 448.00,320.00z" ></path></svg>