<?xml version="1.0" encoding="utf-8"?> <!-- Generator: IcoMoon.io --> <!DOCTYPE svg PUBLIC "-//W3C//DTD SVG 1.1//EN" "http://www.w3.org/Graphics/SVG/1.1/DTD/svg11.dtd"> <svg width="512" height="512" viewBox="0 0 512 512" xmlns="http://www.w3.org/2000/svg" xmlns:xlink="http://www.w3.org/1999/xlink" fill="#000000"><g class="svgGrid" id="svgGrid"><line stroke-width="1" stroke="#B35047" x1="32" x2="32" y1="0" y2="512"></line><line stroke-width="1" stroke="#B35047" x1="64" x2="64" y1="0" y2="512"></line><line stroke-width="1" stroke="#B35047" x1="96" x2="96" y1="0" y2="512"></line><line stroke-width="1" stroke="#B35047" x1="128" x2="128" y1="0" y2="512"></line><line stroke-width="1" stroke="#B35047" x1="160" x2="160" y1="0" y2="512"></line><line stroke-width="1" stroke="#B35047" x1="192" x2="192" y1="0" y2="512"></line><line stroke-width="1" stroke="#B35047" x1="224" x2="224" y1="0" y2="512"></line><line stroke-width="1" stroke="#B35047" x1="256" x2="256" y1="0" y2="512"></line><line stroke-width="1" stroke="#B35047" x1="288" x2="288" y1="0" y2="512"></line><line stroke-width="1" stroke="#B35047" x1="320" x2="320" y1="0" y2="512"></line><line stroke-width="1" stroke="#B35047" x1="352" x2="352" y1="0" y2="512"></line><line stroke-width="1" stroke="#B35047" x1="384" x2="384" y1="0" y2="512"></line><line stroke-width="1" stroke="#B35047" x1="416" x2="416" y1="0" y2="512"></line><line stroke-width="1" stroke="#B35047" x1="448" x2="448" y1="0" y2="512"></line><line stroke-width="1" stroke="#B35047" x1="480" x2="480" y1="0" y2="512"></line><line stroke-width="1" stroke="#B35047" x1="0" x2="512" y1="32" y2="32"></line><line stroke-width="1" stroke="#B35047" x1="0" x2="512" y1="64" y2="64"></line><line stroke-width="1" stroke="#B35047" x1="0" x2="512" y1="96" y2="96"></line><line stroke-width="1" stroke="#B35047" x1="0" x2="512" y1="128" y2="128"></line><line stroke-width="1" stroke="#B35047" x1="0" x2="512" y1="160" y2="160"></line><line stroke-width="1" stroke="#B35047" x1="0" x2="512" y1="192" y2="192"></line><line stroke-width="1" stroke="#B35047" x1="0" x2="512" y1="224" y2="224"></line><line stroke-width="1" stroke="#B35047" x1="0" x2="512" y1="256" y2="256"></line><line stroke-width="1" stroke="#B35047" x1="0" x2="512" y1="288" y2="288"></line><line stroke-width="1" stroke="#B35047" x1="0" x2="512" y1="320" y2="320"></line><line stroke-width="1" stroke="#B35047" x1="0" x2="512" y1="352" y2="352"></line><line stroke-width="1" stroke="#B35047" x1="0" x2="512" y1="384" y2="384"></line><line stroke-width="1" stroke="#B35047" x1="0" x2="512" y1="416" y2="416"></line><line stroke-width="1" stroke="#B35047" x1="0" x2="512" y1="448" y2="448"></line><line stroke-width="1" stroke="#B35047" x1="0" x2="512" y1="480" y2="480"></line><rect x="0" y="0" width="512" height="512" fill="none" stroke-width="1" stroke="#B35047"></rect></g><path d="M 64.00,416.00L 96.00,416.00L 96.00,448.00L 64.00,448.00zM 384.00,96.00L 416.00,96.00L 416.00,128.00L 384.00,128.00zM 352.00,64.00L 384.00,64.00L 384.00,96.00L 352.00,96.00zM 64.00,352.00L 96.00,352.00L 96.00,384.00L 64.00,384.00zM 128.00,416.00L 160.00,416.00L 160.00,448.00L 128.00,448.00zM 416.00,128.00L 448.00,128.00L 448.00,160.00L 416.00,160.00zM 416.00,64.00L 448.00,64.00L 448.00,96.00L 416.00,96.00zM 478.864,33.137C 458.39,12.664, 430.105,0.00, 398.864,0.00c-13.969,0.00-27.344,2.538-39.695,7.167 c-15.27,5.723-28.975,14.644-40.292,25.957l-0.025,0.025L 33.15,318.851l-0.025,0.025c-11.313,11.317-20.234,25.022-25.957,40.292 C 2.538,371.52,0.00,384.895,0.00,398.863c0.00,31.241, 12.663,59.526, 33.137,80.00S 81.896,512.00, 113.137,512.00c 13.969,0.00, 27.344-2.538, 39.695-7.167 c 15.27-5.723, 28.975-14.644, 40.292-25.957l 0.025-0.025l 285.701-285.701l 0.025-0.025c 11.313-11.317, 20.234-25.022, 25.957-40.292 c 4.629-12.352, 7.167-25.727, 7.167-39.695C 512.00,81.896, 499.337,53.611, 478.864,33.137z M 192.00,448.00l-32.00,0.00 l0.00,32.00 l-32.00,0.00 l0.00-32.00 L 96.00,448.00 l0.00,32.00 L 64.00,480.00 l0.00-32.00 L 32.00,448.00 l0.00-32.00 l 32.00,0.00 l0.00-32.00 L 32.00,384.00 l0.00-32.00 l 32.00,0.00 l0.00-32.00 l 32.00,0.00 l0.00,32.00 l 32.00,0.00 l0.00,32.00 l 32.00,0.00 l0.00,32.00 l 32.00,0.00 L 192.00,448.00 z M 224.00,384.00l-96.00-96.00l 32.00-32.00l 96.00,96.00L 224.00,384.00z M 352.00,256.00l-96.00-96.00l 32.00-32.00l 96.00,96.00L 352.00,256.00z M 480.00,96.00l-32.00,0.00 l0.00,32.00 l 32.00,0.00 l0.00,32.00 l-32.00,0.00 l0.00,32.00 l-32.00,0.00 l0.00-32.00 l-32.00,0.00 l0.00-32.00 l-32.00,0.00 L 352.00,96.00 l-32.00,0.00 L 320.00,64.00 l 32.00,0.00 L 352.00,32.00 l 32.00,0.00 l0.00,32.00 l 32.00,0.00 L 416.00,32.00 l 32.00,0.00 l0.00,32.00 l 32.00,0.00 L 480.00,96.00 zM 96.00,384.00L 128.00,384.00L 128.00,416.00L 96.00,416.00z" ></path></svg>