<?xml version="1.0" encoding="utf-8"?> <!-- Generator: IcoMoon.io --> <!DOCTYPE svg PUBLIC "-//W3C//DTD SVG 1.1//EN" "http://www.w3.org/Graphics/SVG/1.1/DTD/svg11.dtd"> <svg width="512" height="512" viewBox="0 0 512 512" xmlns="http://www.w3.org/2000/svg" xmlns:xlink="http://www.w3.org/1999/xlink" fill="#000000"><g class="svgGrid" id="svgGrid"><line stroke-width="1" stroke="#B35047" x1="32" x2="32" y1="0" y2="512"></line><line stroke-width="1" stroke="#B35047" x1="64" x2="64" y1="0" y2="512"></line><line stroke-width="1" stroke="#B35047" x1="96" x2="96" y1="0" y2="512"></line><line stroke-width="1" stroke="#B35047" x1="128" x2="128" y1="0" y2="512"></line><line stroke-width="1" stroke="#B35047" x1="160" x2="160" y1="0" y2="512"></line><line stroke-width="1" stroke="#B35047" x1="192" x2="192" y1="0" y2="512"></line><line stroke-width="1" stroke="#B35047" x1="224" x2="224" y1="0" y2="512"></line><line stroke-width="1" stroke="#B35047" x1="256" x2="256" y1="0" y2="512"></line><line stroke-width="1" stroke="#B35047" x1="288" x2="288" y1="0" y2="512"></line><line stroke-width="1" stroke="#B35047" x1="320" x2="320" y1="0" y2="512"></line><line stroke-width="1" stroke="#B35047" x1="352" x2="352" y1="0" y2="512"></line><line stroke-width="1" stroke="#B35047" x1="384" x2="384" y1="0" y2="512"></line><line stroke-width="1" stroke="#B35047" x1="416" x2="416" y1="0" y2="512"></line><line stroke-width="1" stroke="#B35047" x1="448" x2="448" y1="0" y2="512"></line><line stroke-width="1" stroke="#B35047" x1="480" x2="480" y1="0" y2="512"></line><line stroke-width="1" stroke="#B35047" x1="0" x2="512" y1="32" y2="32"></line><line stroke-width="1" stroke="#B35047" x1="0" x2="512" y1="64" y2="64"></line><line stroke-width="1" stroke="#B35047" x1="0" x2="512" y1="96" y2="96"></line><line stroke-width="1" stroke="#B35047" x1="0" x2="512" y1="128" y2="128"></line><line stroke-width="1" stroke="#B35047" x1="0" x2="512" y1="160" y2="160"></line><line stroke-width="1" stroke="#B35047" x1="0" x2="512" y1="192" y2="192"></line><line stroke-width="1" stroke="#B35047" x1="0" x2="512" y1="224" y2="224"></line><line stroke-width="1" stroke="#B35047" x1="0" x2="512" y1="256" y2="256"></line><line stroke-width="1" stroke="#B35047" x1="0" x2="512" y1="288" y2="288"></line><line stroke-width="1" stroke="#B35047" x1="0" x2="512" y1="320" y2="320"></line><line stroke-width="1" stroke="#B35047" x1="0" x2="512" y1="352" y2="352"></line><line stroke-width="1" stroke="#B35047" x1="0" x2="512" y1="384" y2="384"></line><line stroke-width="1" stroke="#B35047" x1="0" x2="512" y1="416" y2="416"></line><line stroke-width="1" stroke="#B35047" x1="0" x2="512" y1="448" y2="448"></line><line stroke-width="1" stroke="#B35047" x1="0" x2="512" y1="480" y2="480"></line><rect x="0" y="0" width="512" height="512" fill="none" stroke-width="1" stroke="#B35047"></rect></g><path d="M 267.169,275.999c-62.664,0.00-122.669,28.036-161.386,140.869C 67.066,529.701, 152.499,520.707, 206.42,497.39 c 52.206-22.573, 72.079-26.017, 134.958,3.874c 59.195,28.141, 109.789-1.229, 88.681-62.868 C 408.951,376.757, 337.833,275.999, 267.169,275.999z M 148.636,21.786c-35.721,8.537-54.605,57.079-42.18,108.42 c 12.425,51.341, 51.455,86.041, 87.176,77.503c 0.165-0.04, 0.33-0.08, 0.494-0.121c 35.721-8.537, 54.605-57.079, 42.18-108.42 c-5.349-22.10-15.626-41.116-28.448-54.927c-16.965-18.275-38.383-27.438-58.728-22.576C 148.965,21.705, 148.80,21.745, 148.636,21.786z M 355.568,19.996c-35.95-7.521-73.771,28.318-84.474,80.048c-6.152,29.733-2.007,58.244, 9.457,78.543 c 8.481,15.019, 20.969,25.542, 36.256,28.741c 0.129,0.027, 0.258,0.053, 0.388,0.08c 35.949,7.521, 73.77-28.318, 84.473-80.048 c 10.704-51.73-9.763-99.763-45.713-107.284C 355.826,20.048, 355.697,20.022, 355.568,19.996z M 10.295,286.861 c 19.751,45.678, 61.375,71.645, 92.969,57.996c 18.079-7.81, 28.957-26.896, 31.254-50.356c 1.718-17.539-1.36-37.521-9.81-57.063 c-0.011-0.026-0.022-0.052-0.034-0.078c-19.751-45.678-61.375-71.645-92.969-57.997C 0.111,193.011-9.49,241.104, 10.261,286.783 C 10.272,286.809, 10.284,286.835, 10.295,286.861z M 408.774,336.787c 17.982,7.893, 39.269,2.891, 57.926-11.336 c 14.041-10.705, 26.594-26.635, 35.13-46.226c 19.879-45.623, 10.446-93.821-21.069-107.654c-0.136-0.06-0.272-0.119-0.41-0.177 c-31.515-13.833-73.177,11.938-93.056,57.562c-19.879,45.623-10.446,93.822, 21.069,107.654 C 408.50,336.67, 408.637,336.729, 408.774,336.787z" ></path></svg>