<?xml version="1.0" encoding="utf-8"?> <!-- Generator: IcoMoon.io --> <!DOCTYPE svg PUBLIC "-//W3C//DTD SVG 1.1//EN" "http://www.w3.org/Graphics/SVG/1.1/DTD/svg11.dtd"> <svg width="512" height="512" viewBox="0 0 512 512" xmlns="http://www.w3.org/2000/svg" xmlns:xlink="http://www.w3.org/1999/xlink" fill="#000000"><path d="M 397.042,114.956C 356.341,74.43, 338.388,26.228, 356.943,7.293c 18.556-18.935, 66.592-1.432, 107.293,39.095 c 0.23,0.229, 0.459,0.458, 0.688,0.688c 40.701,40.526, 58.654,88.729, 40.099,107.663c-18.555,18.935-66.592,1.431-107.293-39.095 C 397.50,115.415, 397.271,115.186, 397.042,114.956z M 195.896,406.974l 225.637-225.637c 13.607,7.621, 27.189,13.07, 40.16,16.048 L 224.00,435.078L0.00,512.00l 76.922-224.00l 237.69-237.691c 1.169,5.179, 2.738,10.47, 4.718,15.841c 2.948,8.001, 6.768,16.154, 11.348,24.302 l-225.65,225.653l 26.869,26.869l 220.66-220.661c 5.448,6.685, 11.333,13.223, 17.62,19.511c 6.339,6.339, 12.858,12.233, 19.485,17.645 L 169.027,380.105L 195.896,406.974z" ></path></svg>