<?xml version="1.0" encoding="utf-8"?> <!-- Generator: IcoMoon.io --> <!DOCTYPE svg PUBLIC "-//W3C//DTD SVG 1.1//EN" "http://www.w3.org/Graphics/SVG/1.1/DTD/svg11.dtd"> <svg width="512" height="512" viewBox="0 0 512 512" xmlns="http://www.w3.org/2000/svg" xmlns:xlink="http://www.w3.org/1999/xlink" fill="#000000"><g class="svgGrid" id="svgGrid"><line stroke-width="1" stroke="#B35047" x1="32" x2="32" y1="0" y2="512"></line><line stroke-width="1" stroke="#B35047" x1="64" x2="64" y1="0" y2="512"></line><line stroke-width="1" stroke="#B35047" x1="96" x2="96" y1="0" y2="512"></line><line stroke-width="1" stroke="#B35047" x1="128" x2="128" y1="0" y2="512"></line><line stroke-width="1" stroke="#B35047" x1="160" x2="160" y1="0" y2="512"></line><line stroke-width="1" stroke="#B35047" x1="192" x2="192" y1="0" y2="512"></line><line stroke-width="1" stroke="#B35047" x1="224" x2="224" y1="0" y2="512"></line><line stroke-width="1" stroke="#B35047" x1="256" x2="256" y1="0" y2="512"></line><line stroke-width="1" stroke="#B35047" x1="288" x2="288" y1="0" y2="512"></line><line stroke-width="1" stroke="#B35047" x1="320" x2="320" y1="0" y2="512"></line><line stroke-width="1" stroke="#B35047" x1="352" x2="352" y1="0" y2="512"></line><line stroke-width="1" stroke="#B35047" x1="384" x2="384" y1="0" y2="512"></line><line stroke-width="1" stroke="#B35047" x1="416" x2="416" y1="0" y2="512"></line><line stroke-width="1" stroke="#B35047" x1="448" x2="448" y1="0" y2="512"></line><line stroke-width="1" stroke="#B35047" x1="480" x2="480" y1="0" y2="512"></line><line stroke-width="1" stroke="#B35047" x1="0" x2="512" y1="32" y2="32"></line><line stroke-width="1" stroke="#B35047" x1="0" x2="512" y1="64" y2="64"></line><line stroke-width="1" stroke="#B35047" x1="0" x2="512" y1="96" y2="96"></line><line stroke-width="1" stroke="#B35047" x1="0" x2="512" y1="128" y2="128"></line><line stroke-width="1" stroke="#B35047" x1="0" x2="512" y1="160" y2="160"></line><line stroke-width="1" stroke="#B35047" x1="0" x2="512" y1="192" y2="192"></line><line stroke-width="1" stroke="#B35047" x1="0" x2="512" y1="224" y2="224"></line><line stroke-width="1" stroke="#B35047" x1="0" x2="512" y1="256" y2="256"></line><line stroke-width="1" stroke="#B35047" x1="0" x2="512" y1="288" y2="288"></line><line stroke-width="1" stroke="#B35047" x1="0" x2="512" y1="320" y2="320"></line><line stroke-width="1" stroke="#B35047" x1="0" x2="512" y1="352" y2="352"></line><line stroke-width="1" stroke="#B35047" x1="0" x2="512" y1="384" y2="384"></line><line stroke-width="1" stroke="#B35047" x1="0" x2="512" y1="416" y2="416"></line><line stroke-width="1" stroke="#B35047" x1="0" x2="512" y1="448" y2="448"></line><line stroke-width="1" stroke="#B35047" x1="0" x2="512" y1="480" y2="480"></line><rect x="0" y="0" width="512" height="512" fill="none" stroke-width="1" stroke="#B35047"></rect></g><path d="M 424.382,388.799 C 441.311,388.799 482.44,386.766 498.852,367.945 C 507.097,358.495 511.376,344.13 511.936,324.03 C 512.285,311.501 511.208,296.612 508.733,279.777 L 508.669,279.366 C 504.458,254.51 492.619,233.415 470.282,210.968 L 469.649,210.361 C 439.541,182.778 390.517,151.251 276.851,147.563 L 276.851,147.201 L 257.851,147.201 L 256.03,147.208 L 254.148,147.201 L 235.148,147.215 L 235.148,147.564 C 121.482,151.252 72.458,182.779 42.35,210.362 L 41.716,210.971 C 19.381,233.415 7.542,254.509 3.331,279.367 L 3.266,279.778 C 0.792,296.612 -0.285,311.501 0.063,324.031 C 0.623,344.13 4.902,358.495 13.145,367.945 C 29.561,386.767 70.697,388.799 87.621,388.799 C 110.601,388.799 132.23,385.328 148.522,379.025 C 181.239,366.368 186.124,345.147 186.124,333.625 C 186.124,322.556 182.829,313.434 180.182,306.105 C 176.106,294.823 175.82,293.398 180.649,287.862 C 194.004,272.552 224.119,272.546 255.996,272.54 C 287.879,272.546 317.995,272.551 331.349,287.863 C 336.179,293.399 335.893,294.824 331.818,306.105 C 329.17,313.435 325.875,322.557 325.875,333.625 C 325.875,345.146 330.761,366.366 363.479,379.023 C 379.772,385.326 401.399,388.798 424.378,388.799 C 424.38,388.799 424.38,388.799 424.382,388.799 Z M 255.997,234.539 C 217.023,234.546 176.723,234.553 152.013,262.882 C 132.321,285.459 139.909,306.464 144.443,319.014 C 146.418,324.484 148.125,329.208 148.125,333.623 C 148.125,339.452 126.77,350.798 87.622,350.798 C 62.053,350.798 45.257,345.651 41.646,342.793 C 39.379,339.74 35.172,324.195 40.833,285.514 C 42.858,273.715 47.768,258.857 68.355,238.075 C 95.091,213.693 140.475,185.782 254.244,185.215 L 255.654,185.207 L 256.031,185.208 L 256.249,185.207 L 257.757,185.215 C 371.541,185.782 416.921,213.70 443.654,238.085 C 464.237,258.866 469.144,273.719 471.169,285.517 C 476.831,324.20 472.622,339.742 470.353,342.795 C 466.744,345.653 449.95,350.799 424.379,350.799 C 385.23,350.798 363.875,339.453 363.875,333.624 C 363.875,329.209 365.582,324.486 367.558,319.016 C 372.092,306.465 379.681,285.459 359.987,262.883 C 335.277,234.553 294.977,234.546 255.997,234.539 Z" ></path></svg>