<?xml version="1.0" encoding="utf-8"?> <!-- Generator: IcoMoon.io --> <!DOCTYPE svg PUBLIC "-//W3C//DTD SVG 1.1//EN" "http://www.w3.org/Graphics/SVG/1.1/DTD/svg11.dtd"> <svg width="512" height="512" viewBox="0 0 512 512" xmlns="http://www.w3.org/2000/svg" xmlns:xlink="http://www.w3.org/1999/xlink" fill="#000000"><g class="svgGrid" id="svgGrid"><line stroke-width="1" stroke="#B35047" x1="32" x2="32" y1="0" y2="512"></line><line stroke-width="1" stroke="#B35047" x1="64" x2="64" y1="0" y2="512"></line><line stroke-width="1" stroke="#B35047" x1="96" x2="96" y1="0" y2="512"></line><line stroke-width="1" stroke="#B35047" x1="128" x2="128" y1="0" y2="512"></line><line stroke-width="1" stroke="#B35047" x1="160" x2="160" y1="0" y2="512"></line><line stroke-width="1" stroke="#B35047" x1="192" x2="192" y1="0" y2="512"></line><line stroke-width="1" stroke="#B35047" x1="224" x2="224" y1="0" y2="512"></line><line stroke-width="1" stroke="#B35047" x1="256" x2="256" y1="0" y2="512"></line><line stroke-width="1" stroke="#B35047" x1="288" x2="288" y1="0" y2="512"></line><line stroke-width="1" stroke="#B35047" x1="320" x2="320" y1="0" y2="512"></line><line stroke-width="1" stroke="#B35047" x1="352" x2="352" y1="0" y2="512"></line><line stroke-width="1" stroke="#B35047" x1="384" x2="384" y1="0" y2="512"></line><line stroke-width="1" stroke="#B35047" x1="416" x2="416" y1="0" y2="512"></line><line stroke-width="1" stroke="#B35047" x1="448" x2="448" y1="0" y2="512"></line><line stroke-width="1" stroke="#B35047" x1="480" x2="480" y1="0" y2="512"></line><line stroke-width="1" stroke="#B35047" x1="0" x2="512" y1="32" y2="32"></line><line stroke-width="1" stroke="#B35047" x1="0" x2="512" y1="64" y2="64"></line><line stroke-width="1" stroke="#B35047" x1="0" x2="512" y1="96" y2="96"></line><line stroke-width="1" stroke="#B35047" x1="0" x2="512" y1="128" y2="128"></line><line stroke-width="1" stroke="#B35047" x1="0" x2="512" y1="160" y2="160"></line><line stroke-width="1" stroke="#B35047" x1="0" x2="512" y1="192" y2="192"></line><line stroke-width="1" stroke="#B35047" x1="0" x2="512" y1="224" y2="224"></line><line stroke-width="1" stroke="#B35047" x1="0" x2="512" y1="256" y2="256"></line><line stroke-width="1" stroke="#B35047" x1="0" x2="512" y1="288" y2="288"></line><line stroke-width="1" stroke="#B35047" x1="0" x2="512" y1="320" y2="320"></line><line stroke-width="1" stroke="#B35047" x1="0" x2="512" y1="352" y2="352"></line><line stroke-width="1" stroke="#B35047" x1="0" x2="512" y1="384" y2="384"></line><line stroke-width="1" stroke="#B35047" x1="0" x2="512" y1="416" y2="416"></line><line stroke-width="1" stroke="#B35047" x1="0" x2="512" y1="448" y2="448"></line><line stroke-width="1" stroke="#B35047" x1="0" x2="512" y1="480" y2="480"></line><rect x="0" y="0" width="512" height="512" fill="none" stroke-width="1" stroke="#B35047"></rect></g><path d="M 352.00,320.00 C 384.00,288.00 480.00,384.00 480.00,416.00 C 480.00,448.00 384.00,512.00 384.00,512.00 C 320.00,512.00 190.25,446.25 128.00,384.00 C 65.75,321.75 0.00,192.00 0.00,128.00 C 0.00,128.00 64.00,32.00 96.00,32.00 C 128.00,32.00 224.00,128.00 192.00,160.00 C 160.00,192.00 128.00,192.00 128.00,224.00 C 128.00,256.00 160.00,288.00 192.00,320.00 C 224.00,352.00 256.00,384.00 288.00,384.00 C 320.00,384.00 320.00,352.00 352.00,320.00 ZM 320.00,128.00c-22.419,0.00-42.133,11.536-53.563,28.987C 274.33,153.781, 282.955,152.00, 292.00,152.00c 37.556,0.00, 68.00,30.445, 68.00,68.00 c0.00,9.045-1.781,17.669-4.987,25.563C 372.464,234.133, 384.00,214.419, 384.00,192.00C 384.00,156.654, 355.347,128.00, 320.00,128.00zM 336.00,64.00c-33.896,0.00-64.273,15.059-84.812,38.85C 267.98,93.398, 287.358,88.00, 308.00,88.00c 64.064,0.00, 116.00,51.935, 116.00,116.00 c0.00,20.642-5.398,40.02-14.85,56.812C 432.941,240.273, 448.00,209.896, 448.00,176.00C 448.00,114.144, 397.855,64.00, 336.00,64.00zM 368.00,0.00c-41.519,0.00-78.926,17.578-105.206,45.689C 285.271,31.917, 311.707,23.972, 340.00,23.972c 81.738,0.00, 148.00,66.269, 148.00,148.014 c0.00,28.326-7.962,54.79-21.761,77.286C 494.393,222.989, 512.00,185.554, 512.00,144.00C 512.00,64.471, 447.529,0.00, 368.00,0.00z" ></path></svg>