<?xml version="1.0" encoding="utf-8"?> <!-- Generator: IcoMoon.io --> <!DOCTYPE svg PUBLIC "-//W3C//DTD SVG 1.1//EN" "http://www.w3.org/Graphics/SVG/1.1/DTD/svg11.dtd"> <svg width="512" height="512" viewBox="0 0 512 512" xmlns="http://www.w3.org/2000/svg" xmlns:xlink="http://www.w3.org/1999/xlink" fill="#000000"><g class="svgGrid" id="svgGrid"><line stroke-width="1" stroke="#B35047" x1="32" x2="32" y1="0" y2="512"></line><line stroke-width="1" stroke="#B35047" x1="64" x2="64" y1="0" y2="512"></line><line stroke-width="1" stroke="#B35047" x1="96" x2="96" y1="0" y2="512"></line><line stroke-width="1" stroke="#B35047" x1="128" x2="128" y1="0" y2="512"></line><line stroke-width="1" stroke="#B35047" x1="160" x2="160" y1="0" y2="512"></line><line stroke-width="1" stroke="#B35047" x1="192" x2="192" y1="0" y2="512"></line><line stroke-width="1" stroke="#B35047" x1="224" x2="224" y1="0" y2="512"></line><line stroke-width="1" stroke="#B35047" x1="256" x2="256" y1="0" y2="512"></line><line stroke-width="1" stroke="#B35047" x1="288" x2="288" y1="0" y2="512"></line><line stroke-width="1" stroke="#B35047" x1="320" x2="320" y1="0" y2="512"></line><line stroke-width="1" stroke="#B35047" x1="352" x2="352" y1="0" y2="512"></line><line stroke-width="1" stroke="#B35047" x1="384" x2="384" y1="0" y2="512"></line><line stroke-width="1" stroke="#B35047" x1="416" x2="416" y1="0" y2="512"></line><line stroke-width="1" stroke="#B35047" x1="448" x2="448" y1="0" y2="512"></line><line stroke-width="1" stroke="#B35047" x1="480" x2="480" y1="0" y2="512"></line><line stroke-width="1" stroke="#B35047" x1="0" x2="512" y1="32" y2="32"></line><line stroke-width="1" stroke="#B35047" x1="0" x2="512" y1="64" y2="64"></line><line stroke-width="1" stroke="#B35047" x1="0" x2="512" y1="96" y2="96"></line><line stroke-width="1" stroke="#B35047" x1="0" x2="512" y1="128" y2="128"></line><line stroke-width="1" stroke="#B35047" x1="0" x2="512" y1="160" y2="160"></line><line stroke-width="1" stroke="#B35047" x1="0" x2="512" y1="192" y2="192"></line><line stroke-width="1" stroke="#B35047" x1="0" x2="512" y1="224" y2="224"></line><line stroke-width="1" stroke="#B35047" x1="0" x2="512" y1="256" y2="256"></line><line stroke-width="1" stroke="#B35047" x1="0" x2="512" y1="288" y2="288"></line><line stroke-width="1" stroke="#B35047" x1="0" x2="512" y1="320" y2="320"></line><line stroke-width="1" stroke="#B35047" x1="0" x2="512" y1="352" y2="352"></line><line stroke-width="1" stroke="#B35047" x1="0" x2="512" y1="384" y2="384"></line><line stroke-width="1" stroke="#B35047" x1="0" x2="512" y1="416" y2="416"></line><line stroke-width="1" stroke="#B35047" x1="0" x2="512" y1="448" y2="448"></line><line stroke-width="1" stroke="#B35047" x1="0" x2="512" y1="480" y2="480"></line><rect x="0" y="0" width="512" height="512" fill="none" stroke-width="1" stroke="#B35047"></rect></g><path d="M 403.655,512.00L 397.60,512.00 c-32.828,0.00-82.212-15.348-135.488-42.106c-52.054-26.146-99.579-58.811-130.387-89.619 c-30.809-30.808-63.473-78.332-89.618-130.386C 15.347,196.612,0.00,147.228,0.00,114.399l0.00-6.056 l 3.359-5.038 c 0.667-1.00, 16.557-24.767, 36.677-48.91C 61.141,29.07, 88.666,0.00, 114.40,0.00c 22.215,0.00, 49.753,22.282, 64.191,35.564 c 11.086,10.199, 38.206,37.139, 50.555,66.953c 13.07,31.554, 1.723,49.564-6.205,57.491c-13.666,13.666-27.12,21.981-37.931,28.663 c-16.997,10.505-19.144,12.762-19.144,20.128c0.00,23.18, 29.012,52.193, 57.068,80.252c 28.069,28.067, 57.083,57.081, 80.265,57.081 c 7.366,0.00, 9.624-2.147, 20.128-19.144c 6.682-10.812, 14.998-24.266, 28.664-37.932c 7.975-7.975, 18.547-12.191, 30.574-12.191 c 13.033,0.00, 27.884,4.986, 44.139,14.821c 12.849,7.772, 26.457,18.512, 39.355,31.056C 476.837,333.225, 512.00,369.599, 512.00,397.60 c0.00,25.734-29.07,53.26-54.396,74.364c-24.144,20.12-47.91,36.011-48.91,36.677L 403.655,512.00z M 40.212,120.282 c 1.845,26.779, 15.62,67.814, 37.639,111.653c 23.947,47.677, 54.66,92.558, 82.158,120.055c 27.498,27.498, 72.378,58.212, 120.056,82.158 c 43.839,22.02, 84.871,35.795, 111.649,37.64c 7.785-5.418, 23.196-16.44, 38.681-29.225c 36.434-30.08, 41.072-43.227, 41.569-45.081 c-0.911-5.818-11.776-24.986-35.052-47.28c-23.913-22.904-44.934-33.336-54.346-33.336c-1.204,0.00-1.975,0.16-2.29,0.476 c-10.373,10.373-16.753,20.695-22.922,30.677c-11.041,17.865-23.557,38.114-54.154,38.114c-39.75,0.00-74.721-34.97-108.54-68.787 c-33.827-33.828-68.794-68.797-68.794-108.546c0.00-30.598, 20.249-43.113, 38.115-54.154c 9.982-6.169, 20.304-12.549, 30.676-22.921 c 0.598-0.598, 1.055-4.287-1.481-11.354c-5.294-14.753-20.189-34.967-38.872-52.752c-20.225-19.252-35.43-26.847-39.793-27.58 c-1.88,0.507-15.083,5.192-45.267,41.80C 56.506,97.286, 45.591,112.55, 40.212,120.282zM 320.00,128.00c-22.419,0.00-42.133,11.536-53.563,28.987C 274.33,153.781, 282.955,152.00, 292.00,152.00c 37.556,0.00, 68.00,30.445, 68.00,68.00 c0.00,9.045-1.781,17.669-4.987,25.563C 372.464,234.133, 384.00,214.419, 384.00,192.00C 384.00,156.654, 355.347,128.00, 320.00,128.00zM 336.00,64.00c-33.896,0.00-64.273,15.059-84.812,38.85C 267.98,93.398, 287.358,88.00, 308.00,88.00c 64.064,0.00, 116.00,51.935, 116.00,116.00 c0.00,20.642-5.398,40.02-14.85,56.812C 432.941,240.273, 448.00,209.896, 448.00,176.00C 448.00,114.144, 397.855,64.00, 336.00,64.00zM 368.00,0.00c-41.519,0.00-78.926,17.578-105.206,45.689C 285.271,31.917, 311.707,23.972, 340.00,23.972c 81.738,0.00, 148.00,66.269, 148.00,148.014 c0.00,28.326-7.962,54.79-21.761,77.286C 494.393,222.989, 512.00,185.554, 512.00,144.00C 512.00,64.471, 447.529,0.00, 368.00,0.00z" ></path></svg>