<?xml version="1.0" encoding="utf-8"?> <!-- Generator: IcoMoon.io --> <!DOCTYPE svg PUBLIC "-//W3C//DTD SVG 1.1//EN" "http://www.w3.org/Graphics/SVG/1.1/DTD/svg11.dtd"> <svg width="512" height="512" viewBox="0 0 512 512" xmlns="http://www.w3.org/2000/svg" xmlns:xlink="http://www.w3.org/1999/xlink" fill="#000000"><g class="svgGrid" id="svgGrid"><line stroke-width="1" stroke="#B35047" x1="32" x2="32" y1="0" y2="512"></line><line stroke-width="1" stroke="#B35047" x1="64" x2="64" y1="0" y2="512"></line><line stroke-width="1" stroke="#B35047" x1="96" x2="96" y1="0" y2="512"></line><line stroke-width="1" stroke="#B35047" x1="128" x2="128" y1="0" y2="512"></line><line stroke-width="1" stroke="#B35047" x1="160" x2="160" y1="0" y2="512"></line><line stroke-width="1" stroke="#B35047" x1="192" x2="192" y1="0" y2="512"></line><line stroke-width="1" stroke="#B35047" x1="224" x2="224" y1="0" y2="512"></line><line stroke-width="1" stroke="#B35047" x1="256" x2="256" y1="0" y2="512"></line><line stroke-width="1" stroke="#B35047" x1="288" x2="288" y1="0" y2="512"></line><line stroke-width="1" stroke="#B35047" x1="320" x2="320" y1="0" y2="512"></line><line stroke-width="1" stroke="#B35047" x1="352" x2="352" y1="0" y2="512"></line><line stroke-width="1" stroke="#B35047" x1="384" x2="384" y1="0" y2="512"></line><line stroke-width="1" stroke="#B35047" x1="416" x2="416" y1="0" y2="512"></line><line stroke-width="1" stroke="#B35047" x1="448" x2="448" y1="0" y2="512"></line><line stroke-width="1" stroke="#B35047" x1="480" x2="480" y1="0" y2="512"></line><line stroke-width="1" stroke="#B35047" x1="0" x2="512" y1="32" y2="32"></line><line stroke-width="1" stroke="#B35047" x1="0" x2="512" y1="64" y2="64"></line><line stroke-width="1" stroke="#B35047" x1="0" x2="512" y1="96" y2="96"></line><line stroke-width="1" stroke="#B35047" x1="0" x2="512" y1="128" y2="128"></line><line stroke-width="1" stroke="#B35047" x1="0" x2="512" y1="160" y2="160"></line><line stroke-width="1" stroke="#B35047" x1="0" x2="512" y1="192" y2="192"></line><line stroke-width="1" stroke="#B35047" x1="0" x2="512" y1="224" y2="224"></line><line stroke-width="1" stroke="#B35047" x1="0" x2="512" y1="256" y2="256"></line><line stroke-width="1" stroke="#B35047" x1="0" x2="512" y1="288" y2="288"></line><line stroke-width="1" stroke="#B35047" x1="0" x2="512" y1="320" y2="320"></line><line stroke-width="1" stroke="#B35047" x1="0" x2="512" y1="352" y2="352"></line><line stroke-width="1" stroke="#B35047" x1="0" x2="512" y1="384" y2="384"></line><line stroke-width="1" stroke="#B35047" x1="0" x2="512" y1="416" y2="416"></line><line stroke-width="1" stroke="#B35047" x1="0" x2="512" y1="448" y2="448"></line><line stroke-width="1" stroke="#B35047" x1="0" x2="512" y1="480" y2="480"></line><rect x="0" y="0" width="512" height="512" fill="none" stroke-width="1" stroke="#B35047"></rect></g><path d="M 256.00,0.00 C 397.385,0.00 512.00,114.615 512.00,256.00 L 256.00,256.00 L 256.00,0.00 ZM 224.00,1.988C 97.719,17.736,0.00,125.453,0.00,256.00c0.00,141.385, 114.615,256.00, 256.00,256.00c 130.547,0.00, 238.265-97.719, 254.013-224.00L 224.00,288.00 L 224.00,1.988 z M 183.534,44.00L 192.00,44.00 l0.00,8.00 l-28.617,0.00 C 169.96,49.01, 176.686,46.342, 183.534,44.00z M 147.509,60.00L 192.00,60.00 l0.00,8.00 l-57.808,0.00 C 138.541,65.178, 142.982,62.51, 147.509,60.00z M 122.664,76.00L 192.00,76.00 l0.00,8.00 l-79.49,0.00 C 115.823,81.233, 119.208,78.563, 122.664,76.00z M 103.438,92.00L 192.00,92.00 l0.00,8.00 L 95.268,100.00 C 97.929,97.259, 100.653,94.592, 103.438,92.00z M 87.87,108.00L 192.00,108.00 l0.00,8.00 L 81.147,116.00 C 83.322,113.288, 85.562,110.62, 87.87,108.00z M 75.024,124.00 L 192.00,124.00 l0.00,8.00 L 69.442,132.00 C 71.241,129.296, 73.104,126.63, 75.024,124.00z M 64.354,140.00L 192.00,140.00 l0.00,8.00 L 59.74,148.00 C 61.224,145.305, 62.757,142.636, 64.354,140.00z M 55.549,156.00L 192.00,156.00 l0.00,8.00 L 51.751,164.00 C 52.963,161.31, 54.23,158.643, 55.549,156.00z M 48.323,172.00L 192.00,172.00 l0.00,8.00 L 45.272,180.00 C 46.24,177.314, 47.253,174.646, 48.323,172.00z M 42.562,188.00L 192.00,188.00 l0.00,8.00 L 40.169,196.00 C 40.914,193.316, 41.718,190.651, 42.562,188.00z M 38.113,204.00L 192.00,204.00 l0.00,8.00 L 36.362,212.00 C 36.898,209.321, 37.481,206.654, 38.113,204.00z M 34.905,220.00L 192.00,220.00 l0.00,8.00 L 33.764,228.00 C 34.10,225.324, 34.473,222.656, 34.905,220.00z M 32.896,236.00 L 192.00,236.00 l0.00,8.00 L 32.333,244.00 C 32.476,241.327, 32.658,238.659, 32.896,236.00z M 32.00,256.00c0.00-1.335, 0.022-2.667, 0.046-4.00L 192.00,252.00 l0.00,8.00 L 32.049,260.00 C 32.026,258.668, 32.00,257.336, 32.00,256.00z M 32.32,268.00L 192.00,268.00 l0.00,8.00 L 32.89,276.00 C 32.657,273.342, 32.46,270.676, 32.32,268.00z M 33.721,284.00L 192.00,284.00 l0.00,8.00 L 34.878,292.00 C 34.45,289.342, 34.054,286.678, 33.721,284.00z M 36.307,300.00L 192.00,300.00 l0.00,8.00 L 38.063,308.00 C 37.432,305.344, 36.84,302.679, 36.307,300.00z M 256.00,480.00 c-14.362,0.00-28.513-1.351-42.373-4.00l 84.523,0.00 C 284.354,478.638, 270.249,480.00, 256.00,480.00z M 328.362,468.00L 183.472,468.00 c-4.934-1.689-9.821-3.546-14.653-5.59c-1.84-0.778-3.665-1.585-5.479-2.41l 185.218,0.00 C 341.96,462.994, 335.22,465.661, 328.362,468.00z M 364.466,452.00L 147.465,452.00 c-4.536-2.514-8.978-5.18-13.32-8.00l 243.649,0.00 C 373.438,446.824, 368.993,449.493, 364.466,452.00z M 389.334,436.00 L 122.625,436.00 c-3.449-2.562-6.824-5.233-10.13-8.00l 286.988,0.00 C 396.168,430.769, 392.787,433.439, 389.334,436.00z M 408.565,420.00L 103.441,420.00 c-1.97-1.835-3.921-3.696-5.833-5.608c-0.789-0.789-1.56-1.593-2.335-2.392l 321.464,0.00 C 414.088,414.729, 411.362,417.396, 408.565,420.00z M 424.144,404.00L 87.865,404.00 c-2.311-2.619-4.556-5.286-6.734-8.00l 349.727,0.00 C 428.684,398.713, 426.448,401.383, 424.144,404.00z M 436.981,388.00L 74.999,388.00 c-1.921-2.628-3.788-5.293-5.59-8.00l 373.155,0.00 C 440.763,382.705, 438.901,385.371, 436.981,388.00z M 447.647,372.00L 64.31,372.00 c-1.594-2.631-3.123-5.302-4.608-8.00l 392.572,0.00 C 450.786,366.697, 449.245,369.364, 447.647,372.00z M 456.481,356.00L 55.508,356.00 c-1.317-2.64-2.596-5.302-3.812-8.00l 408.58,0.00 C 459.062,350.69, 457.801,353.359, 456.481,356.00z M 463.696,340.00L 48.291,340.00 c-1.074-2.652-2.104-5.317-3.072-8.00L 466.76,332.00 C 465.79,334.688, 464.768,337.354, 463.696,340.00z M 470.715,320.00 c-0.398,1.338-0.812,2.671-1.235,4.00L 42.508,324.00 c-0.846-2.654-1.647-5.319-2.392-8.00L 192.00,316.00 l0.00,4.00 L 470.715,320.00 z" ></path></svg>