<?xml version="1.0" encoding="utf-8"?> <!-- Generator: IcoMoon.io --> <!DOCTYPE svg PUBLIC "-//W3C//DTD SVG 1.1//EN" "http://www.w3.org/Graphics/SVG/1.1/DTD/svg11.dtd"> <svg width="512" height="512" viewBox="0 0 512 512" xmlns="http://www.w3.org/2000/svg" xmlns:xlink="http://www.w3.org/1999/xlink" fill="#000000"><g class="svgGrid" id="svgGrid"><line stroke-width="1" stroke="#B35047" x1="32" x2="32" y1="0" y2="512"></line><line stroke-width="1" stroke="#B35047" x1="64" x2="64" y1="0" y2="512"></line><line stroke-width="1" stroke="#B35047" x1="96" x2="96" y1="0" y2="512"></line><line stroke-width="1" stroke="#B35047" x1="128" x2="128" y1="0" y2="512"></line><line stroke-width="1" stroke="#B35047" x1="160" x2="160" y1="0" y2="512"></line><line stroke-width="1" stroke="#B35047" x1="192" x2="192" y1="0" y2="512"></line><line stroke-width="1" stroke="#B35047" x1="224" x2="224" y1="0" y2="512"></line><line stroke-width="1" stroke="#B35047" x1="256" x2="256" y1="0" y2="512"></line><line stroke-width="1" stroke="#B35047" x1="288" x2="288" y1="0" y2="512"></line><line stroke-width="1" stroke="#B35047" x1="320" x2="320" y1="0" y2="512"></line><line stroke-width="1" stroke="#B35047" x1="352" x2="352" y1="0" y2="512"></line><line stroke-width="1" stroke="#B35047" x1="384" x2="384" y1="0" y2="512"></line><line stroke-width="1" stroke="#B35047" x1="416" x2="416" y1="0" y2="512"></line><line stroke-width="1" stroke="#B35047" x1="448" x2="448" y1="0" y2="512"></line><line stroke-width="1" stroke="#B35047" x1="480" x2="480" y1="0" y2="512"></line><line stroke-width="1" stroke="#B35047" x1="0" x2="512" y1="32" y2="32"></line><line stroke-width="1" stroke="#B35047" x1="0" x2="512" y1="64" y2="64"></line><line stroke-width="1" stroke="#B35047" x1="0" x2="512" y1="96" y2="96"></line><line stroke-width="1" stroke="#B35047" x1="0" x2="512" y1="128" y2="128"></line><line stroke-width="1" stroke="#B35047" x1="0" x2="512" y1="160" y2="160"></line><line stroke-width="1" stroke="#B35047" x1="0" x2="512" y1="192" y2="192"></line><line stroke-width="1" stroke="#B35047" x1="0" x2="512" y1="224" y2="224"></line><line stroke-width="1" stroke="#B35047" x1="0" x2="512" y1="256" y2="256"></line><line stroke-width="1" stroke="#B35047" x1="0" x2="512" y1="288" y2="288"></line><line stroke-width="1" stroke="#B35047" x1="0" x2="512" y1="320" y2="320"></line><line stroke-width="1" stroke="#B35047" x1="0" x2="512" y1="352" y2="352"></line><line stroke-width="1" stroke="#B35047" x1="0" x2="512" y1="384" y2="384"></line><line stroke-width="1" stroke="#B35047" x1="0" x2="512" y1="416" y2="416"></line><line stroke-width="1" stroke="#B35047" x1="0" x2="512" y1="448" y2="448"></line><line stroke-width="1" stroke="#B35047" x1="0" x2="512" y1="480" y2="480"></line><rect x="0" y="0" width="512" height="512" fill="none" stroke-width="1" stroke="#B35047"></rect></g><path d="M 224.00,1.988 L 224.00,288.00 L 510.013,288.00 C 494.265,414.281 386.547,512.00 256.00,512.00 C 114.615,512.00 0.00,397.385 0.00,256.00 C 0.00,125.453 97.719,17.736 224.00,1.988 ZM 256.00,0.00l0.00,256.00 l 256.00,0.00 C 512.00,114.615, 397.385,0.00, 256.00,0.00z M 288.00,220.00l 189.136,0.00 c 0.214,1.331, 0.42,2.664, 0.61,4.00L 288.00,224.00 L 288.00,220.00 z M 328.542,44.00 c 4.929,1.689, 9.812,3.548, 14.639,5.59c 1.841,0.778, 3.665,1.585, 5.479,2.41L 288.00,52.00 l0.00-8.00 L 328.542,44.00 z M 288.00,36.00l0.00-1.747 c 3.503,0.499, 6.988,1.083, 10.455,1.747L 288.00,36.00 z M 364.535,60.00c 4.535,2.514, 8.978,5.18, 13.32,8.00L 288.00,68.00 l0.00-8.00 L 364.535,60.00 z M 389.375,76.00 c 3.448,2.562, 6.823,5.233, 10.13,8.00L 288.00,84.00 l0.00-8.00 L 389.375,76.00 z M 408.559,92.00c 1.97,1.835, 3.921,3.696, 5.833,5.608 c 0.789,0.79, 1.56,1.593, 2.336,2.392L 288.00,100.00 l0.00-8.00 L 408.559,92.00 z M 424.135,108.00c 2.312,2.619, 4.556,5.287, 6.734,8.00L 288.00,116.00 l0.00-8.00 L 424.135,108.00 z M 437.001,124.00 c 1.922,2.628, 3.788,5.293, 5.591,8.00L 288.00,132.00 l0.00-8.00 L 437.001,124.00 z M 447.69,140.00c 1.594,2.631, 3.122,5.302, 4.608,8.00L 288.00,148.00 l0.00-8.00 L 447.69,140.00 z M 456.492,156.00 c 1.317,2.64, 2.596,5.302, 3.812,8.00L 288.00,164.00 l0.00-8.00 L 456.492,156.00 z M 463.726,172.00c 1.074,2.651, 2.09,5.319, 3.058,8.00L 288.00,180.00 l0.00-8.00 L 463.726,172.00 z M 469.502,188.00 c 0.846,2.654, 1.646,5.32, 2.391,8.00L 288.00,196.00 l0.00-8.00 L 469.502,188.00 z M 473.947,204.00c 0.631,2.655, 1.212,5.322, 1.745,8.00L 288.00,212.00 l0.00-8.00 L 473.947,204.00 z" ></path></svg>