<?xml version="1.0" encoding="utf-8"?> <!-- Generator: IcoMoon.io --> <!DOCTYPE svg PUBLIC "-//W3C//DTD SVG 1.1//EN" "http://www.w3.org/Graphics/SVG/1.1/DTD/svg11.dtd"> <svg width="512" height="512" viewBox="0 0 512 512" xmlns="http://www.w3.org/2000/svg" xmlns:xlink="http://www.w3.org/1999/xlink" fill="#000000"><g class="svgGrid" id="svgGrid"><line stroke-width="1" stroke="#B35047" x1="32" x2="32" y1="0" y2="512"></line><line stroke-width="1" stroke="#B35047" x1="64" x2="64" y1="0" y2="512"></line><line stroke-width="1" stroke="#B35047" x1="96" x2="96" y1="0" y2="512"></line><line stroke-width="1" stroke="#B35047" x1="128" x2="128" y1="0" y2="512"></line><line stroke-width="1" stroke="#B35047" x1="160" x2="160" y1="0" y2="512"></line><line stroke-width="1" stroke="#B35047" x1="192" x2="192" y1="0" y2="512"></line><line stroke-width="1" stroke="#B35047" x1="224" x2="224" y1="0" y2="512"></line><line stroke-width="1" stroke="#B35047" x1="256" x2="256" y1="0" y2="512"></line><line stroke-width="1" stroke="#B35047" x1="288" x2="288" y1="0" y2="512"></line><line stroke-width="1" stroke="#B35047" x1="320" x2="320" y1="0" y2="512"></line><line stroke-width="1" stroke="#B35047" x1="352" x2="352" y1="0" y2="512"></line><line stroke-width="1" stroke="#B35047" x1="384" x2="384" y1="0" y2="512"></line><line stroke-width="1" stroke="#B35047" x1="416" x2="416" y1="0" y2="512"></line><line stroke-width="1" stroke="#B35047" x1="448" x2="448" y1="0" y2="512"></line><line stroke-width="1" stroke="#B35047" x1="480" x2="480" y1="0" y2="512"></line><line stroke-width="1" stroke="#B35047" x1="0" x2="512" y1="32" y2="32"></line><line stroke-width="1" stroke="#B35047" x1="0" x2="512" y1="64" y2="64"></line><line stroke-width="1" stroke="#B35047" x1="0" x2="512" y1="96" y2="96"></line><line stroke-width="1" stroke="#B35047" x1="0" x2="512" y1="128" y2="128"></line><line stroke-width="1" stroke="#B35047" x1="0" x2="512" y1="160" y2="160"></line><line stroke-width="1" stroke="#B35047" x1="0" x2="512" y1="192" y2="192"></line><line stroke-width="1" stroke="#B35047" x1="0" x2="512" y1="224" y2="224"></line><line stroke-width="1" stroke="#B35047" x1="0" x2="512" y1="256" y2="256"></line><line stroke-width="1" stroke="#B35047" x1="0" x2="512" y1="288" y2="288"></line><line stroke-width="1" stroke="#B35047" x1="0" x2="512" y1="320" y2="320"></line><line stroke-width="1" stroke="#B35047" x1="0" x2="512" y1="352" y2="352"></line><line stroke-width="1" stroke="#B35047" x1="0" x2="512" y1="384" y2="384"></line><line stroke-width="1" stroke="#B35047" x1="0" x2="512" y1="416" y2="416"></line><line stroke-width="1" stroke="#B35047" x1="0" x2="512" y1="448" y2="448"></line><line stroke-width="1" stroke="#B35047" x1="0" x2="512" y1="480" y2="480"></line><rect x="0" y="0" width="512" height="512" fill="none" stroke-width="1" stroke="#B35047"></rect></g><path d="M 255.993,512.00 C 269.439,512.00 282.057,506.787 291.52,497.324 L 350.603,438.24 L 351.33,437.306 C 354.67,433.011 364.836,419.942 361.054,404.135 C 357.124,387.71 341.982,380.579 327.336,373.683 C 318.277,369.416 308.91,365.005 301.889,358.723 L 301.547,358.411 C 301.101,358.005 300.66,357.594 300.202,357.135 C 284.51,341.442 284.51,315.906 300.202,300.213 C 307.805,292.611 317.913,288.424 328.663,288.424 C 339.413,288.424 349.521,292.611 357.101,300.192 C 357.549,300.641 357.981,301.103 358.473,301.641 L 358.673,301.859 C 364.975,308.885 369.395,318.271 373.669,327.348 C 380.915,342.734 389.931,361.882 411.109,361.886 C 411.111,361.886 411.113,361.886 411.115,361.886 C 419.606,361.886 428.168,358.437 437.29,351.341 L 438.223,350.615 L 497.309,291.53 C 516.896,271.939 516.896,240.062 497.307,220.47 L 447.141,170.303 C 443.945,167.105 441.892,164.679 440.582,162.929 C 443.624,161.227 447.84,159.242 451.245,157.638 C 461.718,152.708 474.75,146.571 485.881,136.586 C 486.077,136.411 486.271,136.234 486.469,136.052 C 487.439,135.167 488.292,134.355 489.065,133.581 C 503.844,118.801 511.984,99.151 511.984,78.25 C 511.984,57.349 503.844,37.698 489.066,22.918 C 474.287,8.14 454.637,0.00 433.737,0.00 C 412.837,0.00 393.188,8.139 378.399,22.927 C 377.626,23.702 376.849,24.517 376.022,25.421 L 375.44,26.059 C 365.418,37.232 359.282,50.265 354.351,60.737 C 352.748,64.143 350.762,68.36 349.06,71.402 C 347.307,70.09 344.874,68.031 341.668,64.825 L 291.522,14.679 C 282.056,5.213 269.439,0.00 255.994,0.00 C 242.549,0.00 229.93,5.213 220.464,14.679 L 170.329,64.815 C 167.115,68.029 164.678,70.092 162.922,71.406 C 161.221,68.365 159.237,64.149 157.633,60.744 C 152.704,50.27 146.568,37.236 136.539,26.055 C 136.357,25.852 136.173,25.65 136.034,25.50 C 135.13,24.51 134.348,23.689 133.577,22.919 C 118.798,8.14 99.149,0.001 78.248,0.001 C 57.348,0.001 37.698,8.14 22.917,22.919 C -7.591,53.429 -7.591,103.072 22.906,133.571 C 23.668,134.334 24.474,135.103 25.442,135.988 C 25.637,136.169 25.836,136.35 26.058,136.55 C 37.232,146.572 50.265,152.708 60.737,157.638 C 64.143,159.241 68.359,161.227 71.401,162.929 C 70.086,164.685 68.025,167.121 64.812,170.334 L 14.68,220.47 C 5.213,229.936 0.00,242.555 0.00,256.001 C 0.00,269.447 5.213,282.065 14.679,291.531 L 64.811,341.665 C 68.024,344.879 70.087,347.315 71.401,349.071 C 68.359,350.773 64.142,352.758 60.737,354.361 C 50.265,359.292 37.232,365.428 26.058,375.45 L 25.49,375.968 C 24.496,376.878 23.675,377.66 22.916,378.419 C -7.591,408.927 -7.592,458.569 22.917,489.082 C 37.697,503.86 57.346,512.00 78.246,512.00 C 99.146,512.00 118.795,503.86 133.566,489.092 C 134.32,488.339 135.086,487.536 135.972,486.568 C 136.123,486.406 136.278,486.235 136.477,486.014 L 136.544,485.94 C 146.565,474.767 152.701,461.734 157.632,451.262 C 159.235,447.856 161.221,443.639 162.923,440.597 C 164.676,441.909 167.109,443.968 170.316,447.173 L 220.464,497.323 C 229.929,506.788 242.547,512.00 255.993,512.00 Z M 160.697,400.532 C 139.516,400.532 130.499,419.685 123.253,435.074 C 118.984,444.143 114.569,453.52 108.278,460.543 L 107.987,460.86 C 107.573,461.314 107.153,461.765 106.707,462.211 C 99.105,469.813 88.997,474.00 78.246,474.00 C 67.495,474.00 57.388,469.813 49.787,462.212 C 34.094,446.517 34.094,420.982 49.797,405.279 C 50.235,404.839 50.688,404.418 51.113,404.028 L 51.484,403.69 C 58.504,397.414 67.867,393.006 76.922,388.742 C 91.46,381.898 107.937,374.14 111.018,356.483 C 113.96,339.616 102.229,325.345 91.679,314.794 L 41.548,264.661 C 39.259,262.372 37.999,259.297 37.999,256.001 C 37.999,252.705 39.259,249.629 41.548,247.34 L 90.375,198.515 L 91.193,197.963 L 92.382,196.502 C 102.741,186.026 113.896,172.014 111.019,155.519 C 107.939,137.862 91.462,130.104 76.924,123.26 C 67.845,118.985 58.458,114.566 51.461,108.289 L 51.135,107.99 C 50.682,107.576 50.232,107.158 49.787,106.712 C 34.095,91.019 34.095,65.484 49.786,49.791 C 57.389,42.189 67.498,38.002 78.248,38.002 C 88.999,38.002 99.106,42.188 106.712,49.794 C 107.151,50.233 107.572,50.685 108.034,51.19 L 108.258,51.435 C 114.561,58.462 118.98,67.849 123.253,76.928 C 130.497,92.318 139.51,111.471 160.693,111.47 C 160.695,111.47 160.70,111.47 160.702,111.47 C 172.176,111.467 183.35,105.455 196.891,91.991 L 247.332,41.55 C 249.621,39.261 252.697,38.00 255.994,38.00 C 259.289,38.00 262.365,39.26 264.655,41.55 L 314.801,91.698 C 328.477,105.371 339.728,111.468 351.284,111.468 C 351.286,111.468 351.29,111.468 351.29,111.468 C 372.468,111.464 381.486,92.314 388.731,76.926 C 393.004,67.848 397.424,58.46 403.671,51.495 L 403.989,51.146 C 404.413,50.684 404.84,50.225 405.276,49.789 C 412.879,42.187 422.987,38.00 433.737,38.00 C 444.488,38.00 454.595,42.187 462.196,49.787 C 469.797,57.389 473.984,67.497 473.984,78.248 C 473.984,88.999 469.797,99.106 462.186,106.718 C 461.755,107.15 461.31,107.565 460.862,107.974 L 460.55,108.26 C 453.524,114.563 444.137,118.983 435.059,123.257 C 420.524,130.101 404.049,137.858 400.966,155.511 C 398.024,172.367 409.732,186.624 420.267,197.166 L 470.436,247.337 C 475.13,252.032 475.13,259.966 470.438,264.659 L 413.318,321.779 C 411.619,318.741 409.644,314.546 408.047,311.155 C 403.116,300.685 396.979,287.654 386.905,276.422 L 386.443,275.917 C 385.572,274.964 384.776,274.128 383.991,273.341 C 369.213,258.562 349.563,250.423 328.662,250.423 C 307.763,250.423 288.112,258.562 273.332,273.341 C 242.824,303.851 242.824,353.493 273.303,383.972 C 274.084,384.757 274.915,385.55 275.917,386.466 L 276.474,386.972 C 287.646,396.994 300.676,403.129 311.147,408.06 C 314.538,409.657 318.733,411.633 321.772,413.331 L 264.651,470.452 C 262.363,472.74 259.289,474.00 255.993,474.00 C 252.696,474.00 249.62,472.739 247.332,470.452 L 197.183,420.302 C 183.507,406.629 172.254,400.532 160.697,400.532 Z" ></path></svg>