<?xml version="1.0" encoding="utf-8"?> <!-- Generator: IcoMoon.io --> <!DOCTYPE svg PUBLIC "-//W3C//DTD SVG 1.1//EN" "http://www.w3.org/Graphics/SVG/1.1/DTD/svg11.dtd"> <svg width="512" height="512" viewBox="0 0 512 512" xmlns="http://www.w3.org/2000/svg" xmlns:xlink="http://www.w3.org/1999/xlink" fill="#000000"><g class="svgGrid" id="svgGrid"><line stroke-width="1" stroke="#B35047" x1="32" x2="32" y1="0" y2="512"></line><line stroke-width="1" stroke="#B35047" x1="64" x2="64" y1="0" y2="512"></line><line stroke-width="1" stroke="#B35047" x1="96" x2="96" y1="0" y2="512"></line><line stroke-width="1" stroke="#B35047" x1="128" x2="128" y1="0" y2="512"></line><line stroke-width="1" stroke="#B35047" x1="160" x2="160" y1="0" y2="512"></line><line stroke-width="1" stroke="#B35047" x1="192" x2="192" y1="0" y2="512"></line><line stroke-width="1" stroke="#B35047" x1="224" x2="224" y1="0" y2="512"></line><line stroke-width="1" stroke="#B35047" x1="256" x2="256" y1="0" y2="512"></line><line stroke-width="1" stroke="#B35047" x1="288" x2="288" y1="0" y2="512"></line><line stroke-width="1" stroke="#B35047" x1="320" x2="320" y1="0" y2="512"></line><line stroke-width="1" stroke="#B35047" x1="352" x2="352" y1="0" y2="512"></line><line stroke-width="1" stroke="#B35047" x1="384" x2="384" y1="0" y2="512"></line><line stroke-width="1" stroke="#B35047" x1="416" x2="416" y1="0" y2="512"></line><line stroke-width="1" stroke="#B35047" x1="448" x2="448" y1="0" y2="512"></line><line stroke-width="1" stroke="#B35047" x1="480" x2="480" y1="0" y2="512"></line><line stroke-width="1" stroke="#B35047" x1="0" x2="512" y1="32" y2="32"></line><line stroke-width="1" stroke="#B35047" x1="0" x2="512" y1="64" y2="64"></line><line stroke-width="1" stroke="#B35047" x1="0" x2="512" y1="96" y2="96"></line><line stroke-width="1" stroke="#B35047" x1="0" x2="512" y1="128" y2="128"></line><line stroke-width="1" stroke="#B35047" x1="0" x2="512" y1="160" y2="160"></line><line stroke-width="1" stroke="#B35047" x1="0" x2="512" y1="192" y2="192"></line><line stroke-width="1" stroke="#B35047" x1="0" x2="512" y1="224" y2="224"></line><line stroke-width="1" stroke="#B35047" x1="0" x2="512" y1="256" y2="256"></line><line stroke-width="1" stroke="#B35047" x1="0" x2="512" y1="288" y2="288"></line><line stroke-width="1" stroke="#B35047" x1="0" x2="512" y1="320" y2="320"></line><line stroke-width="1" stroke="#B35047" x1="0" x2="512" y1="352" y2="352"></line><line stroke-width="1" stroke="#B35047" x1="0" x2="512" y1="384" y2="384"></line><line stroke-width="1" stroke="#B35047" x1="0" x2="512" y1="416" y2="416"></line><line stroke-width="1" stroke="#B35047" x1="0" x2="512" y1="448" y2="448"></line><line stroke-width="1" stroke="#B35047" x1="0" x2="512" y1="480" y2="480"></line><rect x="0" y="0" width="512" height="512" fill="none" stroke-width="1" stroke="#B35047"></rect></g><path d="M 502.156,232.133l-54.194-54.194c-41.73-41.762, 11.691-38.424, 42.707-66.245c 0.155-0.139, 0.309-0.28, 0.463-0.422 c 0.719-0.657, 1.43-1.325, 2.123-2.018c 24.993-24.994, 24.993-65.515,0.00-90.51c-24.994-24.993-65.516-24.993-90.51,0.00 c-0.693,0.693-1.361,1.404-2.019,2.123c-0.142,0.154-0.282,0.308-0.422,0.462c-27.826,31.022-24.48,84.461-66.271,42.682 L 279.867,9.845c-13.126-13.127-34.605-13.127-47.733,0.00l-54.141,54.141c-0.005,0.005-0.01,0.009-0.015,0.014 c-41.805,41.804-38.454-11.644-66.283-42.669c-0.14-0.155-0.281-0.309-0.422-0.463c-0.658-0.719-1.326-1.43-2.019-2.123 c-24.993-24.993-65.515-24.993-90.51,0.00c-24.993,24.994-24.993,65.516,0.00,90.51c 0.692,0.693, 1.403,1.361, 2.123,2.019 c 0.153,0.142, 0.308,0.282, 0.462,0.422c 31.026,27.829, 84.473,24.479, 42.67,66.283c-0.005,0.005-0.008,0.01-0.014,0.015l-54.14,54.14 c-13.127,13.127-13.127,34.607,0.00,47.734l 54.151,54.151c 0.001,0.001, 0.001,0.002, 0.002,0.003 c 41.804,41.805-11.644,38.454-42.669,66.283c-0.155,0.14-0.309,0.281-0.463,0.422c-0.719,0.658-1.43,1.326-2.123,2.019 c-24.993,24.993-24.993,65.515,0.00,90.51c 24.994,24.993, 65.516,24.993, 90.51,0.00c 0.693-0.692, 1.361-1.403, 2.019-2.123 c 0.142-0.153, 0.282-0.308, 0.422-0.462c 27.826-31.023, 24.48-84.461, 66.27-42.683l 54.169,54.169c 13.127,13.125, 34.607,13.125, 47.733,0.00 l 62.917-62.917c 25.066-32.225-22.422-31.452-50.955-57.045c-0.154-0.14-0.309-0.28-0.462-0.422c-0.72-0.657-1.431-1.325-2.123-2.019 c-24.993-24.994-24.993-65.516,0.00-90.51c 24.995-24.993, 65.517-24.993, 90.51,0.00c 0.692,0.693, 1.36,1.404, 2.019,2.123 c 0.141,0.154, 0.282,0.308, 0.422,0.463c 25.593,28.532, 24.819,76.021, 57.045,50.954l 62.917-62.917 C 515.282,266.74, 515.282,245.26, 502.156,232.133z" ></path></svg>