<?xml version="1.0" encoding="utf-8"?> <!-- Generator: IcoMoon.io --> <!DOCTYPE svg PUBLIC "-//W3C//DTD SVG 1.1//EN" "http://www.w3.org/Graphics/SVG/1.1/DTD/svg11.dtd"> <svg width="512" height="512" viewBox="0 0 512 512" xmlns="http://www.w3.org/2000/svg" xmlns:xlink="http://www.w3.org/1999/xlink" fill="#000000"><g class="svgGrid" id="svgGrid"><line stroke-width="1" stroke="#B35047" x1="32" x2="32" y1="0" y2="512"></line><line stroke-width="1" stroke="#B35047" x1="64" x2="64" y1="0" y2="512"></line><line stroke-width="1" stroke="#B35047" x1="96" x2="96" y1="0" y2="512"></line><line stroke-width="1" stroke="#B35047" x1="128" x2="128" y1="0" y2="512"></line><line stroke-width="1" stroke="#B35047" x1="160" x2="160" y1="0" y2="512"></line><line stroke-width="1" stroke="#B35047" x1="192" x2="192" y1="0" y2="512"></line><line stroke-width="1" stroke="#B35047" x1="224" x2="224" y1="0" y2="512"></line><line stroke-width="1" stroke="#B35047" x1="256" x2="256" y1="0" y2="512"></line><line stroke-width="1" stroke="#B35047" x1="288" x2="288" y1="0" y2="512"></line><line stroke-width="1" stroke="#B35047" x1="320" x2="320" y1="0" y2="512"></line><line stroke-width="1" stroke="#B35047" x1="352" x2="352" y1="0" y2="512"></line><line stroke-width="1" stroke="#B35047" x1="384" x2="384" y1="0" y2="512"></line><line stroke-width="1" stroke="#B35047" x1="416" x2="416" y1="0" y2="512"></line><line stroke-width="1" stroke="#B35047" x1="448" x2="448" y1="0" y2="512"></line><line stroke-width="1" stroke="#B35047" x1="480" x2="480" y1="0" y2="512"></line><line stroke-width="1" stroke="#B35047" x1="0" x2="512" y1="32" y2="32"></line><line stroke-width="1" stroke="#B35047" x1="0" x2="512" y1="64" y2="64"></line><line stroke-width="1" stroke="#B35047" x1="0" x2="512" y1="96" y2="96"></line><line stroke-width="1" stroke="#B35047" x1="0" x2="512" y1="128" y2="128"></line><line stroke-width="1" stroke="#B35047" x1="0" x2="512" y1="160" y2="160"></line><line stroke-width="1" stroke="#B35047" x1="0" x2="512" y1="192" y2="192"></line><line stroke-width="1" stroke="#B35047" x1="0" x2="512" y1="224" y2="224"></line><line stroke-width="1" stroke="#B35047" x1="0" x2="512" y1="256" y2="256"></line><line stroke-width="1" stroke="#B35047" x1="0" x2="512" y1="288" y2="288"></line><line stroke-width="1" stroke="#B35047" x1="0" x2="512" y1="320" y2="320"></line><line stroke-width="1" stroke="#B35047" x1="0" x2="512" y1="352" y2="352"></line><line stroke-width="1" stroke="#B35047" x1="0" x2="512" y1="384" y2="384"></line><line stroke-width="1" stroke="#B35047" x1="0" x2="512" y1="416" y2="416"></line><line stroke-width="1" stroke="#B35047" x1="0" x2="512" y1="448" y2="448"></line><line stroke-width="1" stroke="#B35047" x1="0" x2="512" y1="480" y2="480"></line><rect x="0" y="0" width="512" height="512" fill="none" stroke-width="1" stroke="#B35047"></rect></g><path d="M 240.001,32.027L 8.352,373.011L 240.001,512.00L 471.65,373.011L 240.001,32.027z M 53.846,362.989L 224.00,112.524l0.00,352.558 L 53.846,362.989z M 256.001,460.00l 8.47,0.00 l-8.47,5.082L 256.001,460.00 z M 256.001,452.00l0.00-8.00 l 35.137,0.00 l-13.333,8.00L 256.001,452.00 z M 256.001,436.00l0.00-8.00 l 61.804,0.00 l-13.334,8.00 L 256.001,436.00 z M 256.001,420.00l0.00-8.00 l 88.471,0.00 l-13.334,8.00L 256.001,420.00 z M 256.001,404.00l0.00-8.00 l 115.137,0.00 l-13.333,8.00L 256.001,404.00 z M 256.001,388.00l0.00-8.00 l 141.804,0.00 l-13.333,8.00L 256.001,388.00 z M 256.001,372.00l0.00-8.00 l 168.471,0.00 l-13.333,8.00L 256.001,372.00 z M 263.798,124.00l 5.435,8.00l-13.231,0.00 l0.00-8.00 L 263.798,124.00 z M 274.667,140.00l 5.435,8.00 l-24.10,0.00 l0.00-8.00 L 274.667,140.00 z M 285.537,156.00l 5.435,8.00l-34.97,0.00 l0.00-8.00 L 285.537,156.00 z M 296.406,172.00l 5.436,8.00l-45.84,0.00 l0.00-8.00 L 296.406,172.00 z M 307.276,188.00l 5.435,8.00l-56.709,0.00 l0.00-8.00 L 307.276,188.00 z M 318.146,204.00l 5.436,8.00l-67.58,0.00 l0.00-8.00 L 318.146,204.00 z M 329.016,220.00l 5.435,8.00l-78.449,0.00 l0.00-8.00 L 329.016,220.00 z M 339.886,236.00l 5.435,8.00l-89.319,0.00 l0.00-8.00 L 339.886,236.00 z M 350.755,252.00l 5.435,8.00L 256.001,260.00 l0.00-8.00 L 350.755,252.00 z M 361.625,268.00l 5.435,8.00L 256.001,276.00 l0.00-8.00 L 361.625,268.00 z M 372.494,284.00l 5.436,8.00L 256.001,292.00 l0.00-8.00 L 372.494,284.00 z M 383.364,300.00l 5.435,8.00L 256.001,308.00 l0.00-8.00 L 383.364,300.00 z M 394.233,316.00l 5.436,8.00L 256.001,324.00 l0.00-8.00 L 394.233,316.00 z M 405.104,332.00l 5.435,8.00L 256.001,340.00 l0.00-8.00 L 405.104,332.00 z M 415.974,348.00l 5.435,8.00L 256.001,356.00 l0.00-8.00 L 415.974,348.00 z" ></path></svg>