<?xml version="1.0" encoding="utf-8"?> <!-- Generator: IcoMoon.io --> <!DOCTYPE svg PUBLIC "-//W3C//DTD SVG 1.1//EN" "http://www.w3.org/Graphics/SVG/1.1/DTD/svg11.dtd"> <svg width="512" height="512" viewBox="0 0 512 512" xmlns="http://www.w3.org/2000/svg" xmlns:xlink="http://www.w3.org/1999/xlink" fill="#000000"><g class="svgGrid" id="svgGrid"><line stroke-width="1" stroke="#B35047" x1="32" x2="32" y1="0" y2="512"></line><line stroke-width="1" stroke="#B35047" x1="64" x2="64" y1="0" y2="512"></line><line stroke-width="1" stroke="#B35047" x1="96" x2="96" y1="0" y2="512"></line><line stroke-width="1" stroke="#B35047" x1="128" x2="128" y1="0" y2="512"></line><line stroke-width="1" stroke="#B35047" x1="160" x2="160" y1="0" y2="512"></line><line stroke-width="1" stroke="#B35047" x1="192" x2="192" y1="0" y2="512"></line><line stroke-width="1" stroke="#B35047" x1="224" x2="224" y1="0" y2="512"></line><line stroke-width="1" stroke="#B35047" x1="256" x2="256" y1="0" y2="512"></line><line stroke-width="1" stroke="#B35047" x1="288" x2="288" y1="0" y2="512"></line><line stroke-width="1" stroke="#B35047" x1="320" x2="320" y1="0" y2="512"></line><line stroke-width="1" stroke="#B35047" x1="352" x2="352" y1="0" y2="512"></line><line stroke-width="1" stroke="#B35047" x1="384" x2="384" y1="0" y2="512"></line><line stroke-width="1" stroke="#B35047" x1="416" x2="416" y1="0" y2="512"></line><line stroke-width="1" stroke="#B35047" x1="448" x2="448" y1="0" y2="512"></line><line stroke-width="1" stroke="#B35047" x1="480" x2="480" y1="0" y2="512"></line><line stroke-width="1" stroke="#B35047" x1="0" x2="512" y1="32" y2="32"></line><line stroke-width="1" stroke="#B35047" x1="0" x2="512" y1="64" y2="64"></line><line stroke-width="1" stroke="#B35047" x1="0" x2="512" y1="96" y2="96"></line><line stroke-width="1" stroke="#B35047" x1="0" x2="512" y1="128" y2="128"></line><line stroke-width="1" stroke="#B35047" x1="0" x2="512" y1="160" y2="160"></line><line stroke-width="1" stroke="#B35047" x1="0" x2="512" y1="192" y2="192"></line><line stroke-width="1" stroke="#B35047" x1="0" x2="512" y1="224" y2="224"></line><line stroke-width="1" stroke="#B35047" x1="0" x2="512" y1="256" y2="256"></line><line stroke-width="1" stroke="#B35047" x1="0" x2="512" y1="288" y2="288"></line><line stroke-width="1" stroke="#B35047" x1="0" x2="512" y1="320" y2="320"></line><line stroke-width="1" stroke="#B35047" x1="0" x2="512" y1="352" y2="352"></line><line stroke-width="1" stroke="#B35047" x1="0" x2="512" y1="384" y2="384"></line><line stroke-width="1" stroke="#B35047" x1="0" x2="512" y1="416" y2="416"></line><line stroke-width="1" stroke="#B35047" x1="0" x2="512" y1="448" y2="448"></line><line stroke-width="1" stroke="#B35047" x1="0" x2="512" y1="480" y2="480"></line><rect x="0" y="0" width="512" height="512" fill="none" stroke-width="1" stroke="#B35047"></rect></g><path d="M 256.00,480.00c-57.294,0.00-112.881-4.967-156.521-13.984c-1.169-0.241-2.328-0.487-3.479-0.734l0.00,32.676 C 139.829,506.742, 195.454,512.00, 256.00,512.00s 116.171-5.258, 160.00-14.043l0.00-32.676 c-1.151,0.247-2.31,0.493-3.479,0.734 C 368.882,475.033, 313.295,480.00, 256.00,480.00zM 384.00,430.997L 384.00,416.00 l-16.00-32.00L 144.00,384.00 l-16.00,32.00l0.00,14.997 c 37.655,5.446, 81.37,8.564, 128.00,8.564 C 302.631,439.562, 346.345,436.443, 384.00,430.997zM 500.754,140.828c-14.997-14.997-39.311-14.997-54.307,0.00c-12.725,12.724-14.646,32.154-5.776,46.911l-97.661,58.597 l 19.253-90.858c 16.84,3.581, 34.585-4.562, 42.474-20.735c 9.297-19.062, 1.381-42.05-17.68-51.347 c-19.062-9.297-42.051-1.381-51.348,17.681c-7.889,16.174-3.38,35.171, 9.811,46.236l-59.104,70.348l-21.101-84.403 c 16.705-4.163, 29.085-19.261, 29.085-37.256c0.00-21.208-17.192-38.40-38.399-38.40c-21.208,0.00-38.40,17.192-38.40,38.40 c0.00,17.995, 12.38,33.093, 29.086,37.256l-21.101,84.403l-59.104-70.348c 13.19-11.065, 17.699-30.062, 9.811-46.236 c-9.297-19.062-32.286-26.978-51.348-17.681c-19.061,9.297-26.977,32.286-17.68,51.347c 7.888,16.174, 25.634,24.316, 42.474,20.735 l 19.252,90.858l-97.66-58.597c 8.87-14.757, 6.947-34.187-5.777-46.911c-14.996-14.997-39.31-14.997-54.307,0.00 c-14.995,14.996-14.995,39.309, 0.001,54.306c 12.724,12.724, 32.154,14.646, 46.91,5.777L 148.811,352.00l 214.378,0.00 l 90.653-151.089 c 14.756,8.869, 34.186,6.947, 46.91-5.777C 515.749,180.137, 515.749,155.823, 500.754,140.828z" ></path></svg>