<?xml version="1.0" encoding="utf-8"?> <!-- Generator: IcoMoon.io --> <!DOCTYPE svg PUBLIC "-//W3C//DTD SVG 1.1//EN" "http://www.w3.org/Graphics/SVG/1.1/DTD/svg11.dtd"> <svg width="512" height="512" viewBox="0 0 512 512" xmlns="http://www.w3.org/2000/svg" xmlns:xlink="http://www.w3.org/1999/xlink" fill="#000000"><g class="svgGrid" id="svgGrid"><line stroke-width="1" stroke="#B35047" x1="32" x2="32" y1="0" y2="512"></line><line stroke-width="1" stroke="#B35047" x1="64" x2="64" y1="0" y2="512"></line><line stroke-width="1" stroke="#B35047" x1="96" x2="96" y1="0" y2="512"></line><line stroke-width="1" stroke="#B35047" x1="128" x2="128" y1="0" y2="512"></line><line stroke-width="1" stroke="#B35047" x1="160" x2="160" y1="0" y2="512"></line><line stroke-width="1" stroke="#B35047" x1="192" x2="192" y1="0" y2="512"></line><line stroke-width="1" stroke="#B35047" x1="224" x2="224" y1="0" y2="512"></line><line stroke-width="1" stroke="#B35047" x1="256" x2="256" y1="0" y2="512"></line><line stroke-width="1" stroke="#B35047" x1="288" x2="288" y1="0" y2="512"></line><line stroke-width="1" stroke="#B35047" x1="320" x2="320" y1="0" y2="512"></line><line stroke-width="1" stroke="#B35047" x1="352" x2="352" y1="0" y2="512"></line><line stroke-width="1" stroke="#B35047" x1="384" x2="384" y1="0" y2="512"></line><line stroke-width="1" stroke="#B35047" x1="416" x2="416" y1="0" y2="512"></line><line stroke-width="1" stroke="#B35047" x1="448" x2="448" y1="0" y2="512"></line><line stroke-width="1" stroke="#B35047" x1="480" x2="480" y1="0" y2="512"></line><line stroke-width="1" stroke="#B35047" x1="0" x2="512" y1="32" y2="32"></line><line stroke-width="1" stroke="#B35047" x1="0" x2="512" y1="64" y2="64"></line><line stroke-width="1" stroke="#B35047" x1="0" x2="512" y1="96" y2="96"></line><line stroke-width="1" stroke="#B35047" x1="0" x2="512" y1="128" y2="128"></line><line stroke-width="1" stroke="#B35047" x1="0" x2="512" y1="160" y2="160"></line><line stroke-width="1" stroke="#B35047" x1="0" x2="512" y1="192" y2="192"></line><line stroke-width="1" stroke="#B35047" x1="0" x2="512" y1="224" y2="224"></line><line stroke-width="1" stroke="#B35047" x1="0" x2="512" y1="256" y2="256"></line><line stroke-width="1" stroke="#B35047" x1="0" x2="512" y1="288" y2="288"></line><line stroke-width="1" stroke="#B35047" x1="0" x2="512" y1="320" y2="320"></line><line stroke-width="1" stroke="#B35047" x1="0" x2="512" y1="352" y2="352"></line><line stroke-width="1" stroke="#B35047" x1="0" x2="512" y1="384" y2="384"></line><line stroke-width="1" stroke="#B35047" x1="0" x2="512" y1="416" y2="416"></line><line stroke-width="1" stroke="#B35047" x1="0" x2="512" y1="448" y2="448"></line><line stroke-width="1" stroke="#B35047" x1="0" x2="512" y1="480" y2="480"></line><rect x="0" y="0" width="512" height="512" fill="none" stroke-width="1" stroke="#B35047"></rect></g><path d="M 320.00,160.00c0.00-35.346-28.653-64.00-64.00-64.00c-35.346,0.00-64.00,28.654-64.00,64.00c0.00,22.677, 11.804,42.583, 29.592,53.952L 140.306,512.00l 39.388,0.00 l 8.727-32.00l 135.158,0.00 l 8.728,32.00l 39.388,0.00 l-81.286-298.048C 308.196,202.583, 320.00,182.677, 320.00,160.00z M 297.397,384.00l-82.794,0.00 l 8.727-32.00l 65.34,0.00 L 297.397,384.00z M 232.058,320.00L 256.00,232.211L 279.942,320.00L 232.058,320.00 z M 197.148,448.00l 8.728-32.00l 100.249,0.00 l 8.727,32.00L 197.148,448.00 zM 332.174,19.263 C 382.10,46.342 416.00,99.212 416.00,160.00 C 416.00,220.788 382.10,273.658 332.174,300.737 C 354.207,265.674 368.00,215.602 368.00,160.00 C 368.00,104.398 354.207,54.326 332.174,19.263 ZM 428.174,19.263 C 478.10,46.342 512.00,99.212 512.00,160.00 C 512.00,220.788 478.10,273.658 428.174,300.737 C 450.207,265.674 464.00,215.602 464.00,160.00 C 464.00,104.398 450.207,54.326 428.174,19.263 ZM 179.826,300.737 C 129.90,273.657 96.00,220.788 96.00,160.00 C 96.00,99.212 129.90,46.343 179.826,19.263 C 157.792,54.326 144.00,104.398 144.00,160.00 C 144.00,215.602 157.792,265.674 179.826,300.737 ZM 0.00,160.00 C 0.00,99.212 33.90,46.343 83.826,19.263 C 61.792,54.326 48.00,104.398 48.00,160.00 C 48.00,215.602 61.792,265.674 83.826,300.737 C 33.90,273.657 0.00,220.788 0.00,160.00 Z" ></path></svg>