<?xml version="1.0" encoding="utf-8"?> <!-- Generator: IcoMoon.io --> <!DOCTYPE svg PUBLIC "-//W3C//DTD SVG 1.1//EN" "http://www.w3.org/Graphics/SVG/1.1/DTD/svg11.dtd"> <svg width="512" height="512" viewBox="0 0 512 512" xmlns="http://www.w3.org/2000/svg" xmlns:xlink="http://www.w3.org/1999/xlink" fill="#000000"><g class="svgGrid" id="svgGrid"><line stroke-width="1" stroke="#B35047" x1="32" x2="32" y1="0" y2="512"></line><line stroke-width="1" stroke="#B35047" x1="64" x2="64" y1="0" y2="512"></line><line stroke-width="1" stroke="#B35047" x1="96" x2="96" y1="0" y2="512"></line><line stroke-width="1" stroke="#B35047" x1="128" x2="128" y1="0" y2="512"></line><line stroke-width="1" stroke="#B35047" x1="160" x2="160" y1="0" y2="512"></line><line stroke-width="1" stroke="#B35047" x1="192" x2="192" y1="0" y2="512"></line><line stroke-width="1" stroke="#B35047" x1="224" x2="224" y1="0" y2="512"></line><line stroke-width="1" stroke="#B35047" x1="256" x2="256" y1="0" y2="512"></line><line stroke-width="1" stroke="#B35047" x1="288" x2="288" y1="0" y2="512"></line><line stroke-width="1" stroke="#B35047" x1="320" x2="320" y1="0" y2="512"></line><line stroke-width="1" stroke="#B35047" x1="352" x2="352" y1="0" y2="512"></line><line stroke-width="1" stroke="#B35047" x1="384" x2="384" y1="0" y2="512"></line><line stroke-width="1" stroke="#B35047" x1="416" x2="416" y1="0" y2="512"></line><line stroke-width="1" stroke="#B35047" x1="448" x2="448" y1="0" y2="512"></line><line stroke-width="1" stroke="#B35047" x1="480" x2="480" y1="0" y2="512"></line><line stroke-width="1" stroke="#B35047" x1="0" x2="512" y1="32" y2="32"></line><line stroke-width="1" stroke="#B35047" x1="0" x2="512" y1="64" y2="64"></line><line stroke-width="1" stroke="#B35047" x1="0" x2="512" y1="96" y2="96"></line><line stroke-width="1" stroke="#B35047" x1="0" x2="512" y1="128" y2="128"></line><line stroke-width="1" stroke="#B35047" x1="0" x2="512" y1="160" y2="160"></line><line stroke-width="1" stroke="#B35047" x1="0" x2="512" y1="192" y2="192"></line><line stroke-width="1" stroke="#B35047" x1="0" x2="512" y1="224" y2="224"></line><line stroke-width="1" stroke="#B35047" x1="0" x2="512" y1="256" y2="256"></line><line stroke-width="1" stroke="#B35047" x1="0" x2="512" y1="288" y2="288"></line><line stroke-width="1" stroke="#B35047" x1="0" x2="512" y1="320" y2="320"></line><line stroke-width="1" stroke="#B35047" x1="0" x2="512" y1="352" y2="352"></line><line stroke-width="1" stroke="#B35047" x1="0" x2="512" y1="384" y2="384"></line><line stroke-width="1" stroke="#B35047" x1="0" x2="512" y1="416" y2="416"></line><line stroke-width="1" stroke="#B35047" x1="0" x2="512" y1="448" y2="448"></line><line stroke-width="1" stroke="#B35047" x1="0" x2="512" y1="480" y2="480"></line><rect x="0" y="0" width="512" height="512" fill="none" stroke-width="1" stroke="#B35047"></rect></g><path d="M 224.001,384.001L 256.00,384.001L 256.00,416.00L 224.001,416.00zM 288.00,384.001L 288.00,352.001L 256.00,352.001L 256.00,384.00L 287.999,384.00L 287.999,416.00L 319.999,416.00L 319.999,384.001 zM 160.001,384.001L 192.001,384.001L 192.001,416.00L 160.001,416.00zM 256.00,416.00L 287.999,416.00L 287.999,448.00L 256.00,448.00zM 192.001,416.001L 224.001,416.001L 224.001,447.999L 192.001,447.999zM 128.001,287.999L 160.00,287.999L 160.00,319.999L 128.001,319.999zM 192.001,352.001L 224.00,352.001L 224.00,384.001L 192.001,384.001zM 480.00,112.00c0.00-44.183-107.451-80.00-240.00-80.00S0.00,67.817,0.00,112.00c0.00,0.216, 0.02,0.431, 0.024,0.646l-0.016-0.021 C0.00,131.442, 7.547,158.176, 20.595,210.367c 0.001,0.004, 0.002,0.008, 0.004,0.013l 57.941,231.77 C 88.145,480.567, 128.403,512.00, 168.003,512.00L 240.00,512.00 l 71.997,0.00 c 39.601,0.00, 79.858-31.433, 89.463-69.851l 57.941-231.77 c 0.002-0.005, 0.003-0.009, 0.004-0.013c 13.048-52.191, 20.595-78.924, 20.586-97.741l-0.016,0.021 C 479.981,112.431, 480.00,112.216, 480.00,112.00z M 96.001,319.999l0.00-32.00 L 128.00,287.999 L 128.00,256.00 L 96.00,256.00 l0.00-32.00 L 64.00,224.00 l0.00-32.00 l 32.00,0.00 l0.00,32.00 l 32.00,0.00 l0.00-32.00 l 32.00,0.00 l0.00,32.00 l 32.00,0.00 l0.00,31.999 l 32.00,0.00 l0.00,32.00 l 32.00,0.00 l0.00,32.00 l-32.00,0.00 l0.00-32.00 l-32.00,0.00 l0.00,32.00 l-31.999,0.00 l0.00,32.00 l-32.00,0.00 l0.00-32.00 L 96.001,319.999 z M 288.00,255.998l0.00-31.999 l 31.996,0.00 l0.00-32.00 l 32.00,0.00 l0.00,32.00 L 320.00,223.999 l0.00,32.00 L 288.00,255.998l0.00,32.00 l-32.00,0.00 l0.00-32.00 l-32.00,0.00 l0.00-32.00 l 32.00,0.00 l0.00,32.00 L 288.00,255.998 z M 351.999,416.00l-32.00,0.00 l0.00,32.00 L 288.00,448.00 l0.00,32.00 l-32.00,0.00 l0.00-32.00 l-32.00,0.00 l0.00,31.999 l-32.00,0.00 L 192.00,448.00 l-32.00,0.00 l0.00-32.00 l-32.00,0.00 l0.00-32.00 l 32.00,0.00 l0.00-31.999 L 192.00,352.001 l0.00-32.00 l 32.00,0.00 l0.00,32.00 l 32.00,0.00 l0.00-32.00 l 32.00,0.00 l0.00,32.00 l 32.00,0.00 L 320.00,384.00 l 31.999,0.00 L 351.999,416.00 z M 384.00,320.001l-32.00,0.00 L 352.00,352.00 l-32.00,0.00 l0.00-32.00 l-32.00,0.00 l0.00-32.00 l 32.00,0.00 l0.00-31.999 l 31.996,0.00 l0.00-32.00 l 32.00,0.00 l0.00,32.00 L 352.00,256.001 l0.00,32.00 l 32.00,0.00 L 384.00,320.001 z M 416.00,223.999l-32.00,0.00 l0.00-32.00 l 32.00,0.00 L 416.00,223.999 z M 434.762,122.571c-3.738,2.324-8.031,4.609-12.787,6.831c-9.065,4.234-19.843,8.23-31.885,11.789 C 349.052,153.32, 295.749,160.00, 240.00,160.00s-109.052-6.68-150.09-18.809c-12.042-3.559-22.819-7.555-31.885-11.789 c-4.756-2.221-9.049-4.506-12.787-6.831c-7.975-4.958-11.354-8.742-12.665-10.571c 1.312-1.829, 4.69-5.613, 12.665-10.571 c 10.865-6.755, 26.313-13.194, 44.672-18.62C 130.948,70.68, 184.251,64.00, 240.00,64.00s 109.052,6.68, 150.09,18.809 c 18.359,5.426, 33.807,11.865, 44.672,18.62c 7.975,4.958, 11.354,8.742, 12.665,10.571 C 446.115,113.829, 442.737,117.613, 434.762,122.571zM 160.00,255.999L 160.00,287.999L 192.00,287.999L 192.00,256.00L 160.00,256.00L 160.00,224.00L 128.00,224.00L 128.00,255.999 zM 320.00,288.001L 352.00,288.001L 352.00,320.00L 320.00,320.00z" ></path></svg>