<?xml version="1.0" encoding="utf-8"?> <!-- Generator: IcoMoon.io --> <!DOCTYPE svg PUBLIC "-//W3C//DTD SVG 1.1//EN" "http://www.w3.org/Graphics/SVG/1.1/DTD/svg11.dtd"> <svg width="512" height="512" viewBox="0 0 512 512" xmlns="http://www.w3.org/2000/svg" xmlns:xlink="http://www.w3.org/1999/xlink" fill="#000000"><g class="svgGrid" id="svgGrid"><line stroke-width="1" stroke="#B35047" x1="32" x2="32" y1="0" y2="512"></line><line stroke-width="1" stroke="#B35047" x1="64" x2="64" y1="0" y2="512"></line><line stroke-width="1" stroke="#B35047" x1="96" x2="96" y1="0" y2="512"></line><line stroke-width="1" stroke="#B35047" x1="128" x2="128" y1="0" y2="512"></line><line stroke-width="1" stroke="#B35047" x1="160" x2="160" y1="0" y2="512"></line><line stroke-width="1" stroke="#B35047" x1="192" x2="192" y1="0" y2="512"></line><line stroke-width="1" stroke="#B35047" x1="224" x2="224" y1="0" y2="512"></line><line stroke-width="1" stroke="#B35047" x1="256" x2="256" y1="0" y2="512"></line><line stroke-width="1" stroke="#B35047" x1="288" x2="288" y1="0" y2="512"></line><line stroke-width="1" stroke="#B35047" x1="320" x2="320" y1="0" y2="512"></line><line stroke-width="1" stroke="#B35047" x1="352" x2="352" y1="0" y2="512"></line><line stroke-width="1" stroke="#B35047" x1="384" x2="384" y1="0" y2="512"></line><line stroke-width="1" stroke="#B35047" x1="416" x2="416" y1="0" y2="512"></line><line stroke-width="1" stroke="#B35047" x1="448" x2="448" y1="0" y2="512"></line><line stroke-width="1" stroke="#B35047" x1="480" x2="480" y1="0" y2="512"></line><line stroke-width="1" stroke="#B35047" x1="0" x2="512" y1="32" y2="32"></line><line stroke-width="1" stroke="#B35047" x1="0" x2="512" y1="64" y2="64"></line><line stroke-width="1" stroke="#B35047" x1="0" x2="512" y1="96" y2="96"></line><line stroke-width="1" stroke="#B35047" x1="0" x2="512" y1="128" y2="128"></line><line stroke-width="1" stroke="#B35047" x1="0" x2="512" y1="160" y2="160"></line><line stroke-width="1" stroke="#B35047" x1="0" x2="512" y1="192" y2="192"></line><line stroke-width="1" stroke="#B35047" x1="0" x2="512" y1="224" y2="224"></line><line stroke-width="1" stroke="#B35047" x1="0" x2="512" y1="256" y2="256"></line><line stroke-width="1" stroke="#B35047" x1="0" x2="512" y1="288" y2="288"></line><line stroke-width="1" stroke="#B35047" x1="0" x2="512" y1="320" y2="320"></line><line stroke-width="1" stroke="#B35047" x1="0" x2="512" y1="352" y2="352"></line><line stroke-width="1" stroke="#B35047" x1="0" x2="512" y1="384" y2="384"></line><line stroke-width="1" stroke="#B35047" x1="0" x2="512" y1="416" y2="416"></line><line stroke-width="1" stroke="#B35047" x1="0" x2="512" y1="448" y2="448"></line><line stroke-width="1" stroke="#B35047" x1="0" x2="512" y1="480" y2="480"></line><rect x="0" y="0" width="512" height="512" fill="none" stroke-width="1" stroke="#B35047"></rect></g><path d="M 464.00,144.00 L 320.00,192.00 L 368.00,48.00 ZM 264.00,0.00L 280.00,0.00L 280.00,32.00L 264.00,32.00zM 296.00,0.00L 312.00,0.00L 312.00,32.00L 296.00,32.00zM 328.00,0.00L 344.00,0.00L 344.00,32.00L 328.00,32.00zM 360.00,0.00L 376.00,0.00L 376.00,32.00L 360.00,32.00zM 392.00,0.00L 408.00,0.00L 408.00,32.00L 392.00,32.00zM 424.00,0.00L 440.00,0.00L 440.00,32.00L 424.00,32.00zM 457.00,0.00L 473.00,0.00L 473.00,32.00L 457.00,32.00zM 72.00,0.00L 88.00,0.00L 88.00,32.00L 72.00,32.00zM 104.00,0.00L 120.00,0.00L 120.00,32.00L 104.00,32.00zM 136.00,0.00L 152.00,0.00L 152.00,32.00L 136.00,32.00zM 168.00,0.00L 184.00,0.00L 184.00,32.00L 168.00,32.00zM 200.00,0.00L 216.00,0.00L 216.00,32.00L 200.00,32.00zM 232.00,0.00L 248.00,0.00L 248.00,32.00L 232.00,32.00zM 144.00,48.00 L 192.00,192.00 L 48.00,144.00 ZM 48.00,368.00 L 192.00,320.00 L 144.00,464.00 ZM 368.00,464.00 L 320.00,320.00 L 464.00,368.00 ZM 40.00,0.00L 56.00,0.00L 56.00,32.00L 40.00,32.00zM 264.00,480.00L 280.00,480.00L 280.00,512.00L 264.00,512.00zM 296.00,480.00L 312.00,480.00L 312.00,512.00L 296.00,512.00zM 328.00,480.00L 344.00,480.00L 344.00,512.00L 328.00,512.00zM 360.00,480.00L 376.00,480.00L 376.00,512.00L 360.00,512.00zM 392.00,480.00L 408.00,480.00L 408.00,512.00L 392.00,512.00zM 424.00,480.00L 440.00,480.00L 440.00,512.00L 424.00,512.00zM 457.00,480.00L 473.00,480.00L 473.00,512.00L 457.00,512.00zM 72.00,480.00L 88.00,480.00L 88.00,512.00L 72.00,512.00zM 104.00,480.00L 120.00,480.00L 120.00,512.00L 104.00,512.00zM 136.00,480.00L 152.00,480.00L 152.00,512.00L 136.00,512.00zM 168.00,480.00L 184.00,480.00L 184.00,512.00L 168.00,512.00zM 200.00,480.00L 216.00,480.00L 216.00,512.00L 200.00,512.00zM 232.00,480.00L 248.00,480.00L 248.00,512.00L 232.00,512.00zM 40.00,480.00L 56.00,480.00L 56.00,512.00L 40.00,512.00zM 0.50,232.50L 32.50,232.50L 32.50,248.50L 0.50,248.50zM 0.50,200.50L 32.50,200.50L 32.50,216.50L 0.50,216.50zM 0.50,168.50L 32.50,168.50L 32.50,184.50L 0.50,184.50zM 0.50,136.50L 32.50,136.50L 32.50,152.50L 0.50,152.50zM 0.50,104.50L 32.50,104.50L 32.50,120.50L 0.50,120.50zM 0.50,72.50L 32.50,72.50L 32.50,88.50L 0.50,88.50zM 0.50,39.50L 32.50,39.50L 32.50,55.50L 0.50,55.50zM 0.50,424.50L 32.50,424.50L 32.50,440.50L 0.50,440.50zM 0.50,392.50L 32.50,392.50L 32.50,408.50L 0.50,408.50zM 0.50,360.50L 32.50,360.50L 32.50,376.50L 0.50,376.50zM 0.50,328.50L 32.50,328.50L 32.50,344.50L 0.50,344.50zM 0.50,296.50L 32.50,296.50L 32.50,312.50L 0.50,312.50zM 0.50,264.50L 32.50,264.50L 32.50,280.50L 0.50,280.50zM 0.50,456.50L 32.50,456.50L 32.50,472.50L 0.50,472.50zM 480.50,232.50L 512.50,232.50L 512.50,248.50L 480.50,248.50zM 480.50,200.50L 512.50,200.50L 512.50,216.50L 480.50,216.50zM 480.50,168.50L 512.50,168.50L 512.50,184.50L 480.50,184.50zM 480.50,136.50L 512.50,136.50L 512.50,152.50L 480.50,152.50zM 480.50,104.50L 512.50,104.50L 512.50,120.50L 480.50,120.50zM 480.50,72.50L 512.50,72.50L 512.50,88.50L 480.50,88.50zM 480.50,39.50L 512.50,39.50L 512.50,55.50L 480.50,55.50zM 480.50,424.50L 512.50,424.50L 512.50,440.50L 480.50,440.50zM 480.50,392.50L 512.50,392.50L 512.50,408.50L 480.50,408.50zM 480.50,360.50L 512.50,360.50L 512.50,376.50L 480.50,376.50zM 480.50,328.50L 512.50,328.50L 512.50,344.50L 480.50,344.50zM 480.50,296.50L 512.50,296.50L 512.50,312.50L 480.50,312.50zM 480.50,264.50L 512.50,264.50L 512.50,280.50L 480.50,280.50zM 480.50,456.50L 512.50,456.50L 512.50,472.50L 480.50,472.50zM 320.00,192.00 L 192.00,192.00 L 192.00,320.00 L 320.00,320.00 L 320.00,192.00 Z M 352.00,160.00 L 352.00,160.00 L 352.00,352.00 L 160.00,352.00 L 160.00,160.00 L 352.00,160.00 Z" ></path></svg>