<?xml version="1.0" encoding="utf-8"?> <!-- Generator: IcoMoon.io --> <!DOCTYPE svg PUBLIC "-//W3C//DTD SVG 1.1//EN" "http://www.w3.org/Graphics/SVG/1.1/DTD/svg11.dtd"> <svg width="512" height="512" viewBox="0 0 512 512" xmlns="http://www.w3.org/2000/svg" xmlns:xlink="http://www.w3.org/1999/xlink" fill="#000000"><g class="svgGrid" id="svgGrid"><line stroke-width="1" stroke="#B35047" x1="32" x2="32" y1="0" y2="512"></line><line stroke-width="1" stroke="#B35047" x1="64" x2="64" y1="0" y2="512"></line><line stroke-width="1" stroke="#B35047" x1="96" x2="96" y1="0" y2="512"></line><line stroke-width="1" stroke="#B35047" x1="128" x2="128" y1="0" y2="512"></line><line stroke-width="1" stroke="#B35047" x1="160" x2="160" y1="0" y2="512"></line><line stroke-width="1" stroke="#B35047" x1="192" x2="192" y1="0" y2="512"></line><line stroke-width="1" stroke="#B35047" x1="224" x2="224" y1="0" y2="512"></line><line stroke-width="1" stroke="#B35047" x1="256" x2="256" y1="0" y2="512"></line><line stroke-width="1" stroke="#B35047" x1="288" x2="288" y1="0" y2="512"></line><line stroke-width="1" stroke="#B35047" x1="320" x2="320" y1="0" y2="512"></line><line stroke-width="1" stroke="#B35047" x1="352" x2="352" y1="0" y2="512"></line><line stroke-width="1" stroke="#B35047" x1="384" x2="384" y1="0" y2="512"></line><line stroke-width="1" stroke="#B35047" x1="416" x2="416" y1="0" y2="512"></line><line stroke-width="1" stroke="#B35047" x1="448" x2="448" y1="0" y2="512"></line><line stroke-width="1" stroke="#B35047" x1="480" x2="480" y1="0" y2="512"></line><line stroke-width="1" stroke="#B35047" x1="0" x2="512" y1="32" y2="32"></line><line stroke-width="1" stroke="#B35047" x1="0" x2="512" y1="64" y2="64"></line><line stroke-width="1" stroke="#B35047" x1="0" x2="512" y1="96" y2="96"></line><line stroke-width="1" stroke="#B35047" x1="0" x2="512" y1="128" y2="128"></line><line stroke-width="1" stroke="#B35047" x1="0" x2="512" y1="160" y2="160"></line><line stroke-width="1" stroke="#B35047" x1="0" x2="512" y1="192" y2="192"></line><line stroke-width="1" stroke="#B35047" x1="0" x2="512" y1="224" y2="224"></line><line stroke-width="1" stroke="#B35047" x1="0" x2="512" y1="256" y2="256"></line><line stroke-width="1" stroke="#B35047" x1="0" x2="512" y1="288" y2="288"></line><line stroke-width="1" stroke="#B35047" x1="0" x2="512" y1="320" y2="320"></line><line stroke-width="1" stroke="#B35047" x1="0" x2="512" y1="352" y2="352"></line><line stroke-width="1" stroke="#B35047" x1="0" x2="512" y1="384" y2="384"></line><line stroke-width="1" stroke="#B35047" x1="0" x2="512" y1="416" y2="416"></line><line stroke-width="1" stroke="#B35047" x1="0" x2="512" y1="448" y2="448"></line><line stroke-width="1" stroke="#B35047" x1="0" x2="512" y1="480" y2="480"></line><rect x="0" y="0" width="512" height="512" fill="none" stroke-width="1" stroke="#B35047"></rect></g><path d="M 148.95,0.00l-8.601,16.636c-2.967,5.739-3.436,15.441, 3.916,44.132c 4.646,18.127, 12.079,42.257, 22.094,71.721 c 12.645,37.202, 27.779,78.103, 41.266,113.162l 30.575-62.683L 148.95,0.00zM 445.758,435.696l-1.535-17.522l-1.179,0.564c-6.377-24.955-23.095-49.09-48.09-69.052 c-25.345-20.24-55.312-32.814-78.206-32.814c-4.53,0.00-8.712,0.494-12.518,1.472l-15.711-32.209 c 16.149-40.417, 39.153-100.779, 57.123-153.646c 10.014-29.463, 17.447-53.594, 22.093-71.72c 7.353-28.691, 6.882-38.393, 3.915-44.132 l-8.602-16.635L 256.002,219.465l0.00-0.001l-32.52,66.671l0.00,0.00l-15.711,32.209c-3.806-0.978-7.989-1.472-12.519-1.472 c-22.894,0.00-52.86,12.574-78.204,32.812C 87.812,373.032, 69.90,402.086, 66.614,431.49l-0.372,4.206 c-2.601,36.446, 13.639,66.34, 40.411,74.386c 4.235,1.272, 9.07,1.918, 14.373,1.918c 27.206,0.00, 61.183-16.609, 75.808-53.703 c 2.033-4.838, 4.27-10.708, 6.856-17.499c 8.286-21.751, 20.809-54.623, 33.895-68.239c 4.789-4.981, 8.493-8.596, 11.468-11.50 c 2.675-2.61, 4.923-4.804, 6.948-7.022c 2.025,2.218, 4.273,4.411, 6.946,7.019c 2.978,2.905, 6.683,6.52, 11.473,11.504 c 13.086,13.614, 25.606,46.481, 33.892,68.23c 2.588,6.795, 4.825,12.669, 6.859,17.509c 14.623,37.094, 48.601,53.701, 75.809,53.702 c 0.001,0.00, 0.002,0.00, 0.002,0.00c 5.302,0.00, 10.138-0.646, 14.373-1.918C 432.123,502.034, 448.36,472.142, 445.758,435.696z M 165.027,440.949 c-18.821,34.352-35.635,39.49-43.991,39.49c-11.377,0.00-19.895-9.239-21.556-18.169c-1.095-5.884-1.293-11.923-0.589-17.953 c 2.818-24.164, 19.215-44.907, 32.475-58.052c 18.219-18.064, 38.649-30.061, 51.764-35.301c 1.308-0.457, 2.109-0.525, 2.476-0.525 c 0.194,0.00, 0.30,0.018, 0.32,0.018c 0.003,0.00, 0.004,0.00, 0.004-0.001C 189.791,353.005, 194.339,382.012, 165.027,440.949z M 412.795,462.271 c-1.674,8.931-10.244,18.169-21.691,18.169c-8.408,0.00-25.327-5.139-44.263-39.491c-29.499-58.958-24.904-87.982-21.062-90.478 c 0.001,0.00, 0.101-0.031, 0.355-0.031c 0.368,0.00, 1.176,0.069, 2.489,0.526c 13.196,5.238, 33.751,17.234, 52.085,35.30 c 13.34,13.146, 29.841,33.888, 32.678,58.044C 414.091,450.356, 413.892,456.399, 412.795,462.271z" ></path></svg>