<?xml version="1.0" encoding="utf-8"?> <!-- Generator: IcoMoon.io --> <!DOCTYPE svg PUBLIC "-//W3C//DTD SVG 1.1//EN" "http://www.w3.org/Graphics/SVG/1.1/DTD/svg11.dtd"> <svg width="512" height="512" viewBox="0 0 512 512" xmlns="http://www.w3.org/2000/svg" xmlns:xlink="http://www.w3.org/1999/xlink" fill="#000000"><g class="svgGrid" id="svgGrid"><line stroke-width="1" stroke="#B35047" x1="32" x2="32" y1="0" y2="512"></line><line stroke-width="1" stroke="#B35047" x1="64" x2="64" y1="0" y2="512"></line><line stroke-width="1" stroke="#B35047" x1="96" x2="96" y1="0" y2="512"></line><line stroke-width="1" stroke="#B35047" x1="128" x2="128" y1="0" y2="512"></line><line stroke-width="1" stroke="#B35047" x1="160" x2="160" y1="0" y2="512"></line><line stroke-width="1" stroke="#B35047" x1="192" x2="192" y1="0" y2="512"></line><line stroke-width="1" stroke="#B35047" x1="224" x2="224" y1="0" y2="512"></line><line stroke-width="1" stroke="#B35047" x1="256" x2="256" y1="0" y2="512"></line><line stroke-width="1" stroke="#B35047" x1="288" x2="288" y1="0" y2="512"></line><line stroke-width="1" stroke="#B35047" x1="320" x2="320" y1="0" y2="512"></line><line stroke-width="1" stroke="#B35047" x1="352" x2="352" y1="0" y2="512"></line><line stroke-width="1" stroke="#B35047" x1="384" x2="384" y1="0" y2="512"></line><line stroke-width="1" stroke="#B35047" x1="416" x2="416" y1="0" y2="512"></line><line stroke-width="1" stroke="#B35047" x1="448" x2="448" y1="0" y2="512"></line><line stroke-width="1" stroke="#B35047" x1="480" x2="480" y1="0" y2="512"></line><line stroke-width="1" stroke="#B35047" x1="0" x2="512" y1="32" y2="32"></line><line stroke-width="1" stroke="#B35047" x1="0" x2="512" y1="64" y2="64"></line><line stroke-width="1" stroke="#B35047" x1="0" x2="512" y1="96" y2="96"></line><line stroke-width="1" stroke="#B35047" x1="0" x2="512" y1="128" y2="128"></line><line stroke-width="1" stroke="#B35047" x1="0" x2="512" y1="160" y2="160"></line><line stroke-width="1" stroke="#B35047" x1="0" x2="512" y1="192" y2="192"></line><line stroke-width="1" stroke="#B35047" x1="0" x2="512" y1="224" y2="224"></line><line stroke-width="1" stroke="#B35047" x1="0" x2="512" y1="256" y2="256"></line><line stroke-width="1" stroke="#B35047" x1="0" x2="512" y1="288" y2="288"></line><line stroke-width="1" stroke="#B35047" x1="0" x2="512" y1="320" y2="320"></line><line stroke-width="1" stroke="#B35047" x1="0" x2="512" y1="352" y2="352"></line><line stroke-width="1" stroke="#B35047" x1="0" x2="512" y1="384" y2="384"></line><line stroke-width="1" stroke="#B35047" x1="0" x2="512" y1="416" y2="416"></line><line stroke-width="1" stroke="#B35047" x1="0" x2="512" y1="448" y2="448"></line><line stroke-width="1" stroke="#B35047" x1="0" x2="512" y1="480" y2="480"></line><rect x="0" y="0" width="512" height="512" fill="none" stroke-width="1" stroke="#B35047"></rect></g><path d="M 390.979,512.00c-27.208-0.001-61.186-16.608-75.809-53.702c-2.034-4.84-4.271-10.714-6.859-17.509 c-8.285-21.749-20.806-54.616-33.892-68.23c-4.79-4.984-8.495-8.599-11.473-11.504c-2.673-2.607-4.921-4.801-6.946-7.019 c-2.025,2.219-4.273,4.412-6.948,7.022c-2.976,2.904-6.68,6.519-11.468,11.50c-13.086,13.616-25.608,46.488-33.895,68.239 c-2.586,6.791-4.823,12.661-6.856,17.499C 182.208,495.391, 148.231,512.00, 121.025,512.00c-5.303,0.00-10.138-0.646-14.373-1.918 c-26.772-8.046-43.012-37.939-40.411-74.386l 0.372-4.206c 3.287-29.404, 21.199-58.458, 50.435-81.806 c 25.344-20.238, 55.31-32.812, 78.204-32.812c 4.53,0.00, 8.712,0.494, 12.519,1.472l 15.711-32.209 c-16.148-40.414-39.152-100.774-57.123-153.646c-10.015-29.463-17.448-53.594-22.094-71.721 c-7.352-28.691-6.883-38.393-3.916-44.132L 148.95,0.00l 107.053,219.465L 363.049,0.001l 8.602,16.635 c 2.967,5.739, 3.438,15.441-3.915,44.132c-4.646,18.126-12.079,42.257-22.093,71.72c-17.97,52.868-40.974,113.229-57.123,153.646 l 15.711,32.209c 3.806-0.978, 7.987-1.472, 12.518-1.472c 22.895,0.00, 52.861,12.574, 78.206,32.814 c 24.995,19.962, 41.713,44.097, 48.09,69.052l 1.179-0.564l 1.535,17.522c 2.603,36.445-13.635,66.338-40.404,74.386 c-4.235,1.272-9.071,1.918-14.373,1.918C 390.98,512.00, 390.979,512.00, 390.979,512.00z M 346.841,440.948 c 18.936,34.353, 35.854,39.491, 44.263,39.491c 11.447,0.00, 20.018-9.238, 21.691-18.169c 1.097-5.871, 1.296-11.914, 0.592-17.961 c-2.837-24.156-19.338-44.898-32.678-58.044c-18.334-18.065-38.889-30.062-52.085-35.30c-1.313-0.457-2.121-0.526-2.489-0.526 c-0.255,0.00-0.354,0.031-0.355,0.031C 321.937,352.966, 317.342,381.99, 346.841,440.948z M 183.13,350.965 c-13.115,5.24-33.545,17.236-51.764,35.301c-13.26,13.145-29.656,33.888-32.475,58.052c-0.704,6.03-0.506,12.069, 0.589,17.953 c 1.661,8.93, 10.179,18.169, 21.556,18.169c 8.356,0.00, 25.17-5.139, 43.991-39.49c 29.312-58.938, 24.764-87.944, 20.903-90.493 c0.00,0.001-0.001,0.001-0.004,0.001c-0.02,0.00-0.125-0.018-0.32-0.018C 185.239,350.439, 184.438,350.508, 183.13,350.965z" ></path></svg>