<?xml version="1.0" encoding="utf-8"?> <!-- Generator: IcoMoon.io --> <!DOCTYPE svg PUBLIC "-//W3C//DTD SVG 1.1//EN" "http://www.w3.org/Graphics/SVG/1.1/DTD/svg11.dtd"> <svg width="512" height="512" viewBox="0 0 512 512" xmlns="http://www.w3.org/2000/svg" xmlns:xlink="http://www.w3.org/1999/xlink" fill="#000000"><g class="svgGrid" id="svgGrid"><line stroke-width="1" stroke="#B35047" x1="32" x2="32" y1="0" y2="512"></line><line stroke-width="1" stroke="#B35047" x1="64" x2="64" y1="0" y2="512"></line><line stroke-width="1" stroke="#B35047" x1="96" x2="96" y1="0" y2="512"></line><line stroke-width="1" stroke="#B35047" x1="128" x2="128" y1="0" y2="512"></line><line stroke-width="1" stroke="#B35047" x1="160" x2="160" y1="0" y2="512"></line><line stroke-width="1" stroke="#B35047" x1="192" x2="192" y1="0" y2="512"></line><line stroke-width="1" stroke="#B35047" x1="224" x2="224" y1="0" y2="512"></line><line stroke-width="1" stroke="#B35047" x1="256" x2="256" y1="0" y2="512"></line><line stroke-width="1" stroke="#B35047" x1="288" x2="288" y1="0" y2="512"></line><line stroke-width="1" stroke="#B35047" x1="320" x2="320" y1="0" y2="512"></line><line stroke-width="1" stroke="#B35047" x1="352" x2="352" y1="0" y2="512"></line><line stroke-width="1" stroke="#B35047" x1="384" x2="384" y1="0" y2="512"></line><line stroke-width="1" stroke="#B35047" x1="416" x2="416" y1="0" y2="512"></line><line stroke-width="1" stroke="#B35047" x1="448" x2="448" y1="0" y2="512"></line><line stroke-width="1" stroke="#B35047" x1="480" x2="480" y1="0" y2="512"></line><line stroke-width="1" stroke="#B35047" x1="0" x2="512" y1="32" y2="32"></line><line stroke-width="1" stroke="#B35047" x1="0" x2="512" y1="64" y2="64"></line><line stroke-width="1" stroke="#B35047" x1="0" x2="512" y1="96" y2="96"></line><line stroke-width="1" stroke="#B35047" x1="0" x2="512" y1="128" y2="128"></line><line stroke-width="1" stroke="#B35047" x1="0" x2="512" y1="160" y2="160"></line><line stroke-width="1" stroke="#B35047" x1="0" x2="512" y1="192" y2="192"></line><line stroke-width="1" stroke="#B35047" x1="0" x2="512" y1="224" y2="224"></line><line stroke-width="1" stroke="#B35047" x1="0" x2="512" y1="256" y2="256"></line><line stroke-width="1" stroke="#B35047" x1="0" x2="512" y1="288" y2="288"></line><line stroke-width="1" stroke="#B35047" x1="0" x2="512" y1="320" y2="320"></line><line stroke-width="1" stroke="#B35047" x1="0" x2="512" y1="352" y2="352"></line><line stroke-width="1" stroke="#B35047" x1="0" x2="512" y1="384" y2="384"></line><line stroke-width="1" stroke="#B35047" x1="0" x2="512" y1="416" y2="416"></line><line stroke-width="1" stroke="#B35047" x1="0" x2="512" y1="448" y2="448"></line><line stroke-width="1" stroke="#B35047" x1="0" x2="512" y1="480" y2="480"></line><rect x="0" y="0" width="512" height="512" fill="none" stroke-width="1" stroke="#B35047"></rect></g><path d="M 496.131,435.698L 374.855,332.551c-12.537-11.283-25.945-16.463-36.776-15.963C 366.707,283.055, 384.00,239.549, 384.00,192.00 C 384.00,85.961, 298.039,0.00, 192.00,0.00C 85.962,0.00,0.00,85.961,0.00,192.00s 85.961,192.00, 192.00,192.00c 47.549,0.00, 91.055-17.293, 124.588-45.922 c-0.50,10.831, 4.68,24.238, 15.963,36.775L 435.698,496.13c 17.661,19.623, 46.511,21.277, 64.109,3.678 C 517.407,482.209, 515.754,453.359, 496.131,435.698z M 287.261,292.00L 96.74,292.00 c-2.694-2.56-5.281-5.232-7.762-8.00l 206.044,0.00 C 292.541,286.768, 289.955,289.44, 287.261,292.00z M 151.544,324.00c-7.014-2.141-13.79-4.824-20.281-8.00l 121.475,0.00 c-6.491,3.176-13.267,5.859-20.281,8.00L 151.544,324.00 z M 117.089,308.00c-3.851-2.484-7.567-5.156-11.142-8.00l 172.106,0.00 c-3.575,2.844-7.292,5.516-11.143,8.00L 117.089,308.00 z M 82.332,276.00c-1.997-2.596-3.903-5.264-5.715-8.00l 230.766,0.00 c-1.812,2.736-3.718,5.404-5.715,8.00L 82.332,276.00 z M 71.701,260.00c-1.486-2.615-2.894-5.281-4.21-8.00l 249.018,0.00 c-1.316,2.719-2.724,5.385-4.21,8.00 L 71.701,260.00 z M 63.936,244.00c-1.071-2.628-2.071-5.294-2.981-8.00l 262.09,0.00 c-0.911,2.706-1.91,5.372-2.982,8.00L 63.936,244.00 z M 58.539,228.00 c-0.712-2.637-1.355-5.303-1.912-8.00l 270.746,0.00 c-0.557,2.697-1.20,5.363-1.911,8.00L 58.539,228.00 z M 53.778,192.00c0.00-1.338, 0.024-2.671, 0.062-4.00 l 276.319,0.00 c 0.038,1.329, 0.062,2.662, 0.062,4.00s-0.023,2.671-0.062,4.00L 53.84,196.00 C 53.802,194.671, 53.778,193.338, 53.778,192.00z M 96.74,92.00l 190.52,0.00 c 2.694,2.56, 5.28,5.232, 7.762,8.00L 88.979,100.00 C 91.459,97.232, 94.045,94.56, 96.74,92.00z M 232.456,60.00c 7.014,2.141, 13.79,4.824, 20.281,8.00L 131.263,68.00 c 6.491-3.176, 13.267-5.859, 20.281-8.00L 232.456,60.00 z M 266.91,76.00c 3.851,2.484, 7.567,5.157, 11.143,8.00L 105.947,84.00 c 3.575-2.843, 7.292-5.516, 11.143-8.00L 266.91,76.00 z M 301.667,108.00c 1.997,2.596, 3.903,5.263, 5.715,8.00L 76.617,116.00 c 1.812-2.737, 3.718-5.404, 5.715-8.00 L 301.667,108.00 z M 312.298,124.00c 1.486,2.616, 2.894,5.282, 4.21,8.00L 67.491,132.00 c 1.316-2.718, 2.724-5.384, 4.21-8.00L 312.298,124.00 z M 320.062,140.00 c 1.072,2.628, 2.07,5.294, 2.981,8.00L 60.955,148.00 c 0.911-2.706, 1.91-5.372, 2.981-8.00L 320.062,140.00 z M 325.46,156.00c 0.712,2.637, 1.355,5.303, 1.912,8.00 L 56.626,164.00 c 0.557-2.697, 1.20-5.363, 1.912-8.00L 325.46,156.00 z M 328.771,172.00c 0.385,2.643, 0.692,5.311, 0.925,8.00L 54.304,180.00 c 0.232-2.689, 0.54-5.357, 0.924-8.00L 328.771,172.00 z M 329.695,204.00c-0.232,2.689-0.54,5.357-0.925,8.00L 55.228,212.00 c-0.384-2.643-0.692-5.311-0.924-8.00 L 329.695,204.00 z" ></path></svg>