<?xml version="1.0" encoding="utf-8"?> <!-- Generator: IcoMoon.io --> <!DOCTYPE svg PUBLIC "-//W3C//DTD SVG 1.1//EN" "http://www.w3.org/Graphics/SVG/1.1/DTD/svg11.dtd"> <svg width="512" height="512" viewBox="0 0 512 512" xmlns="http://www.w3.org/2000/svg" xmlns:xlink="http://www.w3.org/1999/xlink" fill="#000000"><g class="svgGrid" id="svgGrid"><line stroke-width="1" stroke="#B35047" x1="32" x2="32" y1="0" y2="512"></line><line stroke-width="1" stroke="#B35047" x1="64" x2="64" y1="0" y2="512"></line><line stroke-width="1" stroke="#B35047" x1="96" x2="96" y1="0" y2="512"></line><line stroke-width="1" stroke="#B35047" x1="128" x2="128" y1="0" y2="512"></line><line stroke-width="1" stroke="#B35047" x1="160" x2="160" y1="0" y2="512"></line><line stroke-width="1" stroke="#B35047" x1="192" x2="192" y1="0" y2="512"></line><line stroke-width="1" stroke="#B35047" x1="224" x2="224" y1="0" y2="512"></line><line stroke-width="1" stroke="#B35047" x1="256" x2="256" y1="0" y2="512"></line><line stroke-width="1" stroke="#B35047" x1="288" x2="288" y1="0" y2="512"></line><line stroke-width="1" stroke="#B35047" x1="320" x2="320" y1="0" y2="512"></line><line stroke-width="1" stroke="#B35047" x1="352" x2="352" y1="0" y2="512"></line><line stroke-width="1" stroke="#B35047" x1="384" x2="384" y1="0" y2="512"></line><line stroke-width="1" stroke="#B35047" x1="416" x2="416" y1="0" y2="512"></line><line stroke-width="1" stroke="#B35047" x1="448" x2="448" y1="0" y2="512"></line><line stroke-width="1" stroke="#B35047" x1="480" x2="480" y1="0" y2="512"></line><line stroke-width="1" stroke="#B35047" x1="0" x2="512" y1="32" y2="32"></line><line stroke-width="1" stroke="#B35047" x1="0" x2="512" y1="64" y2="64"></line><line stroke-width="1" stroke="#B35047" x1="0" x2="512" y1="96" y2="96"></line><line stroke-width="1" stroke="#B35047" x1="0" x2="512" y1="128" y2="128"></line><line stroke-width="1" stroke="#B35047" x1="0" x2="512" y1="160" y2="160"></line><line stroke-width="1" stroke="#B35047" x1="0" x2="512" y1="192" y2="192"></line><line stroke-width="1" stroke="#B35047" x1="0" x2="512" y1="224" y2="224"></line><line stroke-width="1" stroke="#B35047" x1="0" x2="512" y1="256" y2="256"></line><line stroke-width="1" stroke="#B35047" x1="0" x2="512" y1="288" y2="288"></line><line stroke-width="1" stroke="#B35047" x1="0" x2="512" y1="320" y2="320"></line><line stroke-width="1" stroke="#B35047" x1="0" x2="512" y1="352" y2="352"></line><line stroke-width="1" stroke="#B35047" x1="0" x2="512" y1="384" y2="384"></line><line stroke-width="1" stroke="#B35047" x1="0" x2="512" y1="416" y2="416"></line><line stroke-width="1" stroke="#B35047" x1="0" x2="512" y1="448" y2="448"></line><line stroke-width="1" stroke="#B35047" x1="0" x2="512" y1="480" y2="480"></line><rect x="0" y="0" width="512" height="512" fill="none" stroke-width="1" stroke="#B35047"></rect></g><path d="M 160.00,0.00c 88.366,0.00, 160.001,71.635, 160.001,160.00c0.00,32.62-9.771,62.954-26.532,88.251c 0.005-0.007, 0.01-0.015, 0.015-0.022 l 35.18,35.18c 17.436-9.611, 33.847-11.408, 42.221-3.035l 135.764,135.764c 12.497,12.498, 2.366,42.891-22.627,67.885 c-24.994,24.992-55.386,35.123-67.882,22.627L 280.375,370.883c-8.375-8.373-6.576-24.783, 3.033-42.221l-35.178-35.178 c 0.021-0.016, 0.043-0.029, 0.063-0.045C 222.987,310.219, 192.639,320.00, 160.00,320.00C 71.635,320.00,0.00,248.365,0.00,160.00S 71.635,0.00, 160.00,0.00z M 69.49,250.509C 93.666,274.686, 125.811,288.00, 160.00,288.00c 34.19,0.00, 66.334-13.314, 90.511-37.491C 274.687,226.333, 288.00,194.189, 288.00,160.00 s-13.313-66.333-37.489-90.51C 226.334,45.313, 194.19,32.00, 160.00,32.00c-34.189,0.00-66.334,13.314-90.51,37.49C 45.314,93.667, 32.00,125.81, 32.00,160.00 S 45.314,226.333, 69.49,250.509z M 256.00,160.00c0.00,14.397-3.175,28.051-8.854,40.309c-7.261-66.992-60.462-120.193-127.454-127.455 C 131.949,67.174, 145.604,64.00, 160.00,64.00C 213.021,64.00, 256.00,106.979, 256.00,160.00z" ></path></svg>