<?xml version="1.0" encoding="utf-8"?> <!-- Generator: IcoMoon.io --> <!DOCTYPE svg PUBLIC "-//W3C//DTD SVG 1.1//EN" "http://www.w3.org/Graphics/SVG/1.1/DTD/svg11.dtd"> <svg width="512" height="512" viewBox="0 0 512 512" xmlns="http://www.w3.org/2000/svg" xmlns:xlink="http://www.w3.org/1999/xlink" fill="#000000"><g class="svgGrid" id="svgGrid"><line stroke-width="1" stroke="#B35047" x1="32" x2="32" y1="0" y2="512"></line><line stroke-width="1" stroke="#B35047" x1="64" x2="64" y1="0" y2="512"></line><line stroke-width="1" stroke="#B35047" x1="96" x2="96" y1="0" y2="512"></line><line stroke-width="1" stroke="#B35047" x1="128" x2="128" y1="0" y2="512"></line><line stroke-width="1" stroke="#B35047" x1="160" x2="160" y1="0" y2="512"></line><line stroke-width="1" stroke="#B35047" x1="192" x2="192" y1="0" y2="512"></line><line stroke-width="1" stroke="#B35047" x1="224" x2="224" y1="0" y2="512"></line><line stroke-width="1" stroke="#B35047" x1="256" x2="256" y1="0" y2="512"></line><line stroke-width="1" stroke="#B35047" x1="288" x2="288" y1="0" y2="512"></line><line stroke-width="1" stroke="#B35047" x1="320" x2="320" y1="0" y2="512"></line><line stroke-width="1" stroke="#B35047" x1="352" x2="352" y1="0" y2="512"></line><line stroke-width="1" stroke="#B35047" x1="384" x2="384" y1="0" y2="512"></line><line stroke-width="1" stroke="#B35047" x1="416" x2="416" y1="0" y2="512"></line><line stroke-width="1" stroke="#B35047" x1="448" x2="448" y1="0" y2="512"></line><line stroke-width="1" stroke="#B35047" x1="480" x2="480" y1="0" y2="512"></line><line stroke-width="1" stroke="#B35047" x1="0" x2="512" y1="32" y2="32"></line><line stroke-width="1" stroke="#B35047" x1="0" x2="512" y1="64" y2="64"></line><line stroke-width="1" stroke="#B35047" x1="0" x2="512" y1="96" y2="96"></line><line stroke-width="1" stroke="#B35047" x1="0" x2="512" y1="128" y2="128"></line><line stroke-width="1" stroke="#B35047" x1="0" x2="512" y1="160" y2="160"></line><line stroke-width="1" stroke="#B35047" x1="0" x2="512" y1="192" y2="192"></line><line stroke-width="1" stroke="#B35047" x1="0" x2="512" y1="224" y2="224"></line><line stroke-width="1" stroke="#B35047" x1="0" x2="512" y1="256" y2="256"></line><line stroke-width="1" stroke="#B35047" x1="0" x2="512" y1="288" y2="288"></line><line stroke-width="1" stroke="#B35047" x1="0" x2="512" y1="320" y2="320"></line><line stroke-width="1" stroke="#B35047" x1="0" x2="512" y1="352" y2="352"></line><line stroke-width="1" stroke="#B35047" x1="0" x2="512" y1="384" y2="384"></line><line stroke-width="1" stroke="#B35047" x1="0" x2="512" y1="416" y2="416"></line><line stroke-width="1" stroke="#B35047" x1="0" x2="512" y1="448" y2="448"></line><line stroke-width="1" stroke="#B35047" x1="0" x2="512" y1="480" y2="480"></line><rect x="0" y="0" width="512" height="512" fill="none" stroke-width="1" stroke="#B35047"></rect></g><path d="M 480.00,0.00L 256.00,64.00L 32.00,0.00c0.00,0.00-2.25,25.849,0.00,64.00l 224.00,70.045L 480.00,64.00C 482.249,25.849, 480.00,0.00, 480.00,0.00zM 36.095,97.553C 48.088,222.901, 92.84,433.67, 256.00,512.00c 163.16-78.33, 207.912-289.099, 219.905-414.447L 256.00,180.232 L 36.095,97.553z M 244.739,210.185l 4.827,1.815L 87.224,212.00 c-0.64-2.676-1.263-5.344-1.867-8.00l 142.932,0.00 L 244.739,210.185z M 100.62,156.00 l 21.278,8.00L 77.32,164.00 c-0.471-2.688-0.927-5.356-1.365-8.00L 100.62,156.00 z M 143.176,172.00l 21.278,8.00L 80.283,180.00 c-0.525-2.686-1.028-5.35-1.519-8.00L 143.176,172.00 z M 185.732,188.00l 21.278,8.00L 83.58,196.00 c-0.581-2.681-1.143-5.347-1.688-8.00L 185.732,188.00 z M 437.622,146.134 c-7.63,49.57-21.006,108.417-44.45,163.801C 360.239,387.732, 314.144,443.507, 256.00,475.97L 256.00,468.00 l-13.27,0.00 c-3.982-2.552-7.905-5.216-11.766-8.00L 256.00,460.00 l0.00-8.00 l-35.568,0.00 c-3.226-2.58-6.405-5.249-9.54-8.00L 256.00,444.00 l0.00-8.00 l-53.835,0.00 c-2.721-2.60-5.406-5.266-8.053-8.00 L 256.00,428.00 l0.00-8.00 l-69.375,0.00 c-2.346-2.606-4.652-5.282-6.936-8.00L 256.00,412.00 l0.00-8.00 l-82.831,0.00 c-2.061-2.616-4.089-5.289-6.097-8.00L 256.00,396.00 l0.00-8.00 l-94.695,0.00 c-1.828-2.62-3.624-5.297-5.405-8.00L 256.00,380.00 l0.00-8.00 L 150.771,372.00 c-1.642-2.634-3.27-5.293-4.869-8.00L 256.00,364.00 l0.00-8.00 L 141.311,356.00 c-1.477-2.633-2.932-5.302-4.371-8.00L 256.00,348.00 l0.00-8.00 L 132.778,340.00 c-1.338-2.639-2.662-5.301-3.965-8.00L 256.00,332.00 l0.00-8.00 L 125.039,324.00 c-1.213-2.638-2.406-5.309-3.587-8.00L 256.00,316.00 l0.00-8.00 L 118.022,308.00 c-1.113-2.66-2.208-5.326-3.275-8.00L 256.00,300.00 l0.00-8.00 L 111.631,292.00 c-1.015-2.663-2.014-5.329-2.985-8.00L 256.00,284.00 l0.00-8.00 L 105.807,276.00 c-0.926-2.665-1.838-5.332-2.723-8.00L 256.00,268.00 l0.00-8.00 L 100.496,260.00 c-0.845-2.668-1.677-5.335-2.483-8.00L 256.00,252.00 l0.00-8.00 L 95.652,244.00 c-0.771-2.67-1.528-5.338-2.262-8.00L 256.00,236.00 l0.00-8.00 L 91.239,228.00 c-0.703-2.673-1.391-5.341-2.058-8.00 L 256.00,220.00 l0.00-5.581 l 11.262-4.234L 437.622,146.134z" ></path></svg>