<?xml version="1.0" encoding="utf-8"?> <!-- Generator: IcoMoon.io --> <!DOCTYPE svg PUBLIC "-//W3C//DTD SVG 1.1//EN" "http://www.w3.org/Graphics/SVG/1.1/DTD/svg11.dtd"> <svg width="512" height="512" viewBox="0 0 512 512" xmlns="http://www.w3.org/2000/svg" xmlns:xlink="http://www.w3.org/1999/xlink" fill="#000000"><g class="svgGrid" id="svgGrid"><line stroke-width="1" stroke="#B35047" x1="32" x2="32" y1="0" y2="512"></line><line stroke-width="1" stroke="#B35047" x1="64" x2="64" y1="0" y2="512"></line><line stroke-width="1" stroke="#B35047" x1="96" x2="96" y1="0" y2="512"></line><line stroke-width="1" stroke="#B35047" x1="128" x2="128" y1="0" y2="512"></line><line stroke-width="1" stroke="#B35047" x1="160" x2="160" y1="0" y2="512"></line><line stroke-width="1" stroke="#B35047" x1="192" x2="192" y1="0" y2="512"></line><line stroke-width="1" stroke="#B35047" x1="224" x2="224" y1="0" y2="512"></line><line stroke-width="1" stroke="#B35047" x1="256" x2="256" y1="0" y2="512"></line><line stroke-width="1" stroke="#B35047" x1="288" x2="288" y1="0" y2="512"></line><line stroke-width="1" stroke="#B35047" x1="320" x2="320" y1="0" y2="512"></line><line stroke-width="1" stroke="#B35047" x1="352" x2="352" y1="0" y2="512"></line><line stroke-width="1" stroke="#B35047" x1="384" x2="384" y1="0" y2="512"></line><line stroke-width="1" stroke="#B35047" x1="416" x2="416" y1="0" y2="512"></line><line stroke-width="1" stroke="#B35047" x1="448" x2="448" y1="0" y2="512"></line><line stroke-width="1" stroke="#B35047" x1="480" x2="480" y1="0" y2="512"></line><line stroke-width="1" stroke="#B35047" x1="0" x2="512" y1="32" y2="32"></line><line stroke-width="1" stroke="#B35047" x1="0" x2="512" y1="64" y2="64"></line><line stroke-width="1" stroke="#B35047" x1="0" x2="512" y1="96" y2="96"></line><line stroke-width="1" stroke="#B35047" x1="0" x2="512" y1="128" y2="128"></line><line stroke-width="1" stroke="#B35047" x1="0" x2="512" y1="160" y2="160"></line><line stroke-width="1" stroke="#B35047" x1="0" x2="512" y1="192" y2="192"></line><line stroke-width="1" stroke="#B35047" x1="0" x2="512" y1="224" y2="224"></line><line stroke-width="1" stroke="#B35047" x1="0" x2="512" y1="256" y2="256"></line><line stroke-width="1" stroke="#B35047" x1="0" x2="512" y1="288" y2="288"></line><line stroke-width="1" stroke="#B35047" x1="0" x2="512" y1="320" y2="320"></line><line stroke-width="1" stroke="#B35047" x1="0" x2="512" y1="352" y2="352"></line><line stroke-width="1" stroke="#B35047" x1="0" x2="512" y1="384" y2="384"></line><line stroke-width="1" stroke="#B35047" x1="0" x2="512" y1="416" y2="416"></line><line stroke-width="1" stroke="#B35047" x1="0" x2="512" y1="448" y2="448"></line><line stroke-width="1" stroke="#B35047" x1="0" x2="512" y1="480" y2="480"></line><rect x="0" y="0" width="512" height="512" fill="none" stroke-width="1" stroke="#B35047"></rect></g><path d="M 450.017,432.00L 448.00,432.00 l-2.017,0.00 c-7.104,27.604-32.162,48.00-61.983,48.00s-54.879-20.396-61.983-48.00L 320.00,432.00 l-2.017,0.00 c-7.104,27.604-32.162,48.00-61.983,48.00s-54.879-20.396-61.983-48.00L 192.00,432.00 l-2.017,0.00 c-7.104,27.604-32.162,48.00-61.983,48.00 s-54.879-20.396-61.983-48.00L 64.00,432.00 l-2.017,0.00 C 54.879,459.604, 29.821,480.00,0.00,480.00l0.00,32.00 c 35.346,0.00, 64.00-18.653, 64.00-54.00c0.00,35.347, 28.654,54.00, 64.00,54.00 s 64.00-18.653, 64.00-54.00c0.00,35.347, 28.654,54.00, 64.00,54.00c 35.346,0.00, 64.00-18.653, 64.00-54.00c0.00,35.347, 28.654,54.00, 64.00,54.00s 64.00-18.653, 64.00-54.00 c0.00,35.347, 28.654,54.00, 64.00,54.00l0.00-32.00 C 482.179,480.00, 457.121,459.604, 450.017,432.00zM 450.017,368.00L 448.00,368.00 l-2.017,0.00 c-7.104,27.604-32.162,48.00-61.983,48.00c-24.019,0.00-44.939-13.236-55.886-32.808 C 391.793,371.008, 480.00,224.00, 480.00,224.00l-63.928-27.397c-0.066-0.544-0.143-1.082-0.229-1.613L 389.157,31.582 C 386.321,14.212, 369.60,0.00, 352.00,0.00L 160.00,0.00 c-17.60,0.00-34.321,14.212-37.157,31.582L 96.157,194.989c-0.087,0.531-0.163,1.069-0.229,1.613 L 32.00,224.00c0.00,0.00, 88.207,147.008, 151.886,159.192C 172.939,402.764, 152.019,416.00, 128.00,416.00c-29.821,0.00-54.879-20.396-61.983-48.00L 64.00,368.00 l-2.017,0.00 C 54.879,395.604, 29.821,416.00,0.00,416.00l0.00,32.00 c 35.346,0.00, 64.00-18.653, 64.00-54.00c0.00,35.347, 28.654,54.00, 64.00,54.00s 64.00-18.653, 64.00-54.00c0.00,35.347, 28.654,54.00, 64.00,54.00 c 35.346,0.00, 64.00-18.653, 64.00-54.00c0.00,35.347, 28.654,54.00, 64.00,54.00s 64.00-18.653, 64.00-54.00c0.00,35.347, 28.654,54.00, 64.00,54.00l0.00-32.00 C 482.179,416.00, 457.121,395.604, 450.017,368.00z M 288.00,32.00l 64.00,0.00 c 1.93,0.00, 5.265,2.834, 5.575,4.739l 23.669,144.937l-107.891-46.238L 288.00,32.00z M 154.424,36.739C 154.735,34.834, 158.07,32.00, 160.00,32.00l 64.00,0.00 l 14.646,103.438l-107.891,46.239L 154.424,36.739z M 256.00,416.00 c-23.686,0.00-44.356-12.874-55.423-32.00l 110.846,0.00 C 300.355,403.126, 279.686,416.00, 256.00,416.00z" ></path></svg>