<?xml version="1.0" encoding="utf-8"?> <!-- Generator: IcoMoon.io --> <!DOCTYPE svg PUBLIC "-//W3C//DTD SVG 1.1//EN" "http://www.w3.org/Graphics/SVG/1.1/DTD/svg11.dtd"> <svg width="512" height="512" viewBox="0 0 512 512" xmlns="http://www.w3.org/2000/svg" xmlns:xlink="http://www.w3.org/1999/xlink" fill="#000000"><g class="svgGrid" id="svgGrid"><line stroke-width="1" stroke="#B35047" x1="32" x2="32" y1="0" y2="512"></line><line stroke-width="1" stroke="#B35047" x1="64" x2="64" y1="0" y2="512"></line><line stroke-width="1" stroke="#B35047" x1="96" x2="96" y1="0" y2="512"></line><line stroke-width="1" stroke="#B35047" x1="128" x2="128" y1="0" y2="512"></line><line stroke-width="1" stroke="#B35047" x1="160" x2="160" y1="0" y2="512"></line><line stroke-width="1" stroke="#B35047" x1="192" x2="192" y1="0" y2="512"></line><line stroke-width="1" stroke="#B35047" x1="224" x2="224" y1="0" y2="512"></line><line stroke-width="1" stroke="#B35047" x1="256" x2="256" y1="0" y2="512"></line><line stroke-width="1" stroke="#B35047" x1="288" x2="288" y1="0" y2="512"></line><line stroke-width="1" stroke="#B35047" x1="320" x2="320" y1="0" y2="512"></line><line stroke-width="1" stroke="#B35047" x1="352" x2="352" y1="0" y2="512"></line><line stroke-width="1" stroke="#B35047" x1="384" x2="384" y1="0" y2="512"></line><line stroke-width="1" stroke="#B35047" x1="416" x2="416" y1="0" y2="512"></line><line stroke-width="1" stroke="#B35047" x1="448" x2="448" y1="0" y2="512"></line><line stroke-width="1" stroke="#B35047" x1="480" x2="480" y1="0" y2="512"></line><line stroke-width="1" stroke="#B35047" x1="0" x2="512" y1="32" y2="32"></line><line stroke-width="1" stroke="#B35047" x1="0" x2="512" y1="64" y2="64"></line><line stroke-width="1" stroke="#B35047" x1="0" x2="512" y1="96" y2="96"></line><line stroke-width="1" stroke="#B35047" x1="0" x2="512" y1="128" y2="128"></line><line stroke-width="1" stroke="#B35047" x1="0" x2="512" y1="160" y2="160"></line><line stroke-width="1" stroke="#B35047" x1="0" x2="512" y1="192" y2="192"></line><line stroke-width="1" stroke="#B35047" x1="0" x2="512" y1="224" y2="224"></line><line stroke-width="1" stroke="#B35047" x1="0" x2="512" y1="256" y2="256"></line><line stroke-width="1" stroke="#B35047" x1="0" x2="512" y1="288" y2="288"></line><line stroke-width="1" stroke="#B35047" x1="0" x2="512" y1="320" y2="320"></line><line stroke-width="1" stroke="#B35047" x1="0" x2="512" y1="352" y2="352"></line><line stroke-width="1" stroke="#B35047" x1="0" x2="512" y1="384" y2="384"></line><line stroke-width="1" stroke="#B35047" x1="0" x2="512" y1="416" y2="416"></line><line stroke-width="1" stroke="#B35047" x1="0" x2="512" y1="448" y2="448"></line><line stroke-width="1" stroke="#B35047" x1="0" x2="512" y1="480" y2="480"></line><rect x="0" y="0" width="512" height="512" fill="none" stroke-width="1" stroke="#B35047"></rect></g><path d="M 256.00,0.00C 132.288,0.00, 32.00,93.125, 32.00,208.00c0.00,70.68, 37.974,143.113, 96.00,180.701l0.00,99.747 C 165.655,503.425, 209.37,512.00, 256.00,512.00 c 46.631,0.00, 90.345-8.575, 128.00-23.552l0.00-99.747 C 442.026,351.113, 480.00,278.68, 480.00,208.00C 480.00,93.125, 379.712,0.00, 256.00,0.00z M 366.603,361.844 L 352.00,371.303l0.00,17.398 l0.00,77.137 c-10.353,3.219-21.056,5.894-32.00,8.031L 320.00,384.00 l-32.00,0.00 l0.00,94.488 c-10.559,0.998-21.25,1.512-32.00,1.512 c-10.75,0.00-21.441-0.514-32.00-1.512L 224.00,384.00 l-32.00,0.00 l0.00,89.869 c-10.944-2.138-21.647-4.812-32.00-8.031l0.00-77.137 l0.00-17.398 l-14.603-9.459 c-23.808-15.422-44.167-38.263-58.875-66.053C 71.789,267.95, 64.00,237.593, 64.00,208.00c0.00-46.56, 19.668-90.466, 55.383-123.629 c 17.626-16.367, 38.191-29.233, 61.125-38.24C 204.381,36.754, 229.78,32.00, 256.00,32.00s 51.619,4.754, 75.493,14.131 c 22.933,9.007, 43.498,21.873, 61.124,38.24C 428.331,117.534, 448.00,161.44, 448.00,208.00c0.00,29.593-7.788,59.95-22.523,87.791 C 410.769,323.581, 390.41,346.422, 366.603,361.844zM 139.864,137.409c-31.363,16.30-35.877,44.583-23.652,68.105s 41.561,35.377, 72.924,19.076 c 31.363-16.30, 43.364-43.271, 31.652-74.105C 211.375,125.703, 171.227,121.108, 139.864,137.409zM 373.107,137.409c-31.363-16.301-71.512-11.706-80.925,13.076c-11.712,30.834, 0.289,57.805, 31.651,74.105 c 31.363,16.301, 60.699,4.446, 72.925-19.076S 404.47,153.709, 373.107,137.409z" ></path></svg>