<?xml version="1.0" encoding="utf-8"?> <!-- Generator: IcoMoon.io --> <!DOCTYPE svg PUBLIC "-//W3C//DTD SVG 1.1//EN" "http://www.w3.org/Graphics/SVG/1.1/DTD/svg11.dtd"> <svg width="512" height="512" viewBox="0 0 512 512" xmlns="http://www.w3.org/2000/svg" xmlns:xlink="http://www.w3.org/1999/xlink" fill="#000000"><g class="svgGrid" id="svgGrid"><line stroke-width="1" stroke="#B35047" x1="32" x2="32" y1="0" y2="512"></line><line stroke-width="1" stroke="#B35047" x1="64" x2="64" y1="0" y2="512"></line><line stroke-width="1" stroke="#B35047" x1="96" x2="96" y1="0" y2="512"></line><line stroke-width="1" stroke="#B35047" x1="128" x2="128" y1="0" y2="512"></line><line stroke-width="1" stroke="#B35047" x1="160" x2="160" y1="0" y2="512"></line><line stroke-width="1" stroke="#B35047" x1="192" x2="192" y1="0" y2="512"></line><line stroke-width="1" stroke="#B35047" x1="224" x2="224" y1="0" y2="512"></line><line stroke-width="1" stroke="#B35047" x1="256" x2="256" y1="0" y2="512"></line><line stroke-width="1" stroke="#B35047" x1="288" x2="288" y1="0" y2="512"></line><line stroke-width="1" stroke="#B35047" x1="320" x2="320" y1="0" y2="512"></line><line stroke-width="1" stroke="#B35047" x1="352" x2="352" y1="0" y2="512"></line><line stroke-width="1" stroke="#B35047" x1="384" x2="384" y1="0" y2="512"></line><line stroke-width="1" stroke="#B35047" x1="416" x2="416" y1="0" y2="512"></line><line stroke-width="1" stroke="#B35047" x1="448" x2="448" y1="0" y2="512"></line><line stroke-width="1" stroke="#B35047" x1="480" x2="480" y1="0" y2="512"></line><line stroke-width="1" stroke="#B35047" x1="0" x2="512" y1="32" y2="32"></line><line stroke-width="1" stroke="#B35047" x1="0" x2="512" y1="64" y2="64"></line><line stroke-width="1" stroke="#B35047" x1="0" x2="512" y1="96" y2="96"></line><line stroke-width="1" stroke="#B35047" x1="0" x2="512" y1="128" y2="128"></line><line stroke-width="1" stroke="#B35047" x1="0" x2="512" y1="160" y2="160"></line><line stroke-width="1" stroke="#B35047" x1="0" x2="512" y1="192" y2="192"></line><line stroke-width="1" stroke="#B35047" x1="0" x2="512" y1="224" y2="224"></line><line stroke-width="1" stroke="#B35047" x1="0" x2="512" y1="256" y2="256"></line><line stroke-width="1" stroke="#B35047" x1="0" x2="512" y1="288" y2="288"></line><line stroke-width="1" stroke="#B35047" x1="0" x2="512" y1="320" y2="320"></line><line stroke-width="1" stroke="#B35047" x1="0" x2="512" y1="352" y2="352"></line><line stroke-width="1" stroke="#B35047" x1="0" x2="512" y1="384" y2="384"></line><line stroke-width="1" stroke="#B35047" x1="0" x2="512" y1="416" y2="416"></line><line stroke-width="1" stroke="#B35047" x1="0" x2="512" y1="448" y2="448"></line><line stroke-width="1" stroke="#B35047" x1="0" x2="512" y1="480" y2="480"></line><rect x="0" y="0" width="512" height="512" fill="none" stroke-width="1" stroke="#B35047"></rect></g><path d="M 256.00,0.00C 114.615,0.00,0.00,114.615,0.00,256.00s 114.615,256.00, 256.00,256.00s 256.00-114.615, 256.00-256.00S 397.385,0.00, 256.00,0.00z M 256.00,432.00 c-13.729,0.00-27.215-1.573-40.262-4.611l-30.864-59.863l 34.005-46.804l 74.242,0.00 l 34.005,46.804l-30.864,59.863 C 283.215,430.427, 269.729,432.00, 256.00,432.00z M 187.794,93.659L 248.00,123.972l0.00,57.84 l-60.102,43.666l-54.989-17.867l-10.212-66.544 c 2.821-3.262, 5.771-6.437, 8.852-9.518C 147.955,115.144, 167.031,102.384, 187.794,93.659z M 380.451,131.549 c 3.08,3.08, 6.03,6.255, 8.852,9.517l-10.212,66.545l-54.988,17.867L 264.00,181.812l0.00-57.84 l 60.206-30.313 C 344.97,102.384, 364.046,115.144, 380.451,131.549z M 127.948,222.823l 55.029,17.88l 22.948,70.626l-33.99,46.783l-66.501-10.86 c-14.084-23.145-22.59-49.246-24.828-76.63L 127.948,222.823z M 406.565,347.252l-66.501,10.86l-33.99-46.783l 22.948-70.626 l 55.029-17.88l 47.342,47.799C 429.155,298.006, 420.649,324.108, 406.565,347.252z M 425.705,86.294 c 13.677,13.676, 25.525,28.749, 35.439,45.042l-58.491,0.755c-19.854-23.475-45.237-42.115-74.146-53.914l-17.341-55.811 c 13.032,3.067, 25.805,7.224, 38.247,12.486C 377.991,46.941, 403.659,64.248, 425.705,86.294z M 86.294,86.294 c 22.046-22.046, 47.714-39.354, 76.292-51.44c 12.442-5.263, 25.215-9.419, 38.247-12.486l-17.34,55.811 c-28.908,11.80-54.292,30.439-74.146,53.914l-58.491-0.756C 60.77,115.043, 72.618,99.971, 86.294,86.294z M 16.00,256.00 c0.00-6.609, 0.278-13.174, 0.804-19.695l 47.709,33.73c 2.301,31.842, 12.37,61.525, 28.316,87.178l-18.768,55.318 c-16.298-18.896-29.455-40.058-39.208-63.117C 22.343,319.836, 16.00,288.407, 16.00,256.00z M 163.304,477.439l 46.841-34.965 C 224.84,446.076, 240.194,448.00, 256.00,448.00s 31.159-1.924, 45.854-5.525l 46.842,34.965C 319.327,489.75, 288.146,496.00, 256.00,496.00 S 192.673,489.75, 163.304,477.439z M 477.146,349.414c-9.754,23.059-22.91,44.221-39.208,63.117l-18.768-55.318 c 15.946-25.653, 26.016-55.337, 28.316-87.178l 47.708-33.729C 495.722,242.826, 496.00,249.391, 496.00,256.00 C 496.00,288.407, 489.656,319.836, 477.146,349.414z" ></path></svg>