<?xml version="1.0" encoding="utf-8"?> <!-- Generator: IcoMoon.io --> <!DOCTYPE svg PUBLIC "-//W3C//DTD SVG 1.1//EN" "http://www.w3.org/Graphics/SVG/1.1/DTD/svg11.dtd"> <svg width="512" height="512" viewBox="0 0 512 512" xmlns="http://www.w3.org/2000/svg" xmlns:xlink="http://www.w3.org/1999/xlink" fill="#000000"><g class="svgGrid" id="svgGrid"><line stroke-width="1" stroke="#B35047" x1="32" x2="32" y1="0" y2="512"></line><line stroke-width="1" stroke="#B35047" x1="64" x2="64" y1="0" y2="512"></line><line stroke-width="1" stroke="#B35047" x1="96" x2="96" y1="0" y2="512"></line><line stroke-width="1" stroke="#B35047" x1="128" x2="128" y1="0" y2="512"></line><line stroke-width="1" stroke="#B35047" x1="160" x2="160" y1="0" y2="512"></line><line stroke-width="1" stroke="#B35047" x1="192" x2="192" y1="0" y2="512"></line><line stroke-width="1" stroke="#B35047" x1="224" x2="224" y1="0" y2="512"></line><line stroke-width="1" stroke="#B35047" x1="256" x2="256" y1="0" y2="512"></line><line stroke-width="1" stroke="#B35047" x1="288" x2="288" y1="0" y2="512"></line><line stroke-width="1" stroke="#B35047" x1="320" x2="320" y1="0" y2="512"></line><line stroke-width="1" stroke="#B35047" x1="352" x2="352" y1="0" y2="512"></line><line stroke-width="1" stroke="#B35047" x1="384" x2="384" y1="0" y2="512"></line><line stroke-width="1" stroke="#B35047" x1="416" x2="416" y1="0" y2="512"></line><line stroke-width="1" stroke="#B35047" x1="448" x2="448" y1="0" y2="512"></line><line stroke-width="1" stroke="#B35047" x1="480" x2="480" y1="0" y2="512"></line><line stroke-width="1" stroke="#B35047" x1="0" x2="512" y1="32" y2="32"></line><line stroke-width="1" stroke="#B35047" x1="0" x2="512" y1="64" y2="64"></line><line stroke-width="1" stroke="#B35047" x1="0" x2="512" y1="96" y2="96"></line><line stroke-width="1" stroke="#B35047" x1="0" x2="512" y1="128" y2="128"></line><line stroke-width="1" stroke="#B35047" x1="0" x2="512" y1="160" y2="160"></line><line stroke-width="1" stroke="#B35047" x1="0" x2="512" y1="192" y2="192"></line><line stroke-width="1" stroke="#B35047" x1="0" x2="512" y1="224" y2="224"></line><line stroke-width="1" stroke="#B35047" x1="0" x2="512" y1="256" y2="256"></line><line stroke-width="1" stroke="#B35047" x1="0" x2="512" y1="288" y2="288"></line><line stroke-width="1" stroke="#B35047" x1="0" x2="512" y1="320" y2="320"></line><line stroke-width="1" stroke="#B35047" x1="0" x2="512" y1="352" y2="352"></line><line stroke-width="1" stroke="#B35047" x1="0" x2="512" y1="384" y2="384"></line><line stroke-width="1" stroke="#B35047" x1="0" x2="512" y1="416" y2="416"></line><line stroke-width="1" stroke="#B35047" x1="0" x2="512" y1="448" y2="448"></line><line stroke-width="1" stroke="#B35047" x1="0" x2="512" y1="480" y2="480"></line><rect x="0" y="0" width="512" height="512" fill="none" stroke-width="1" stroke="#B35047"></rect></g><path d="M 0.021,256.809l-0.011,0.002c0.00,0.00, 0.006,0.045, 0.014,0.111c 0.055,1.939, 0.275,3.838, 0.661,5.676 c 0.102,0.873, 0.214,1.83, 0.337,2.887c 0.111,0.943, 0.23,1.957, 0.359,3.039c 0.187,1.283, 0.385,2.646, 0.595,4.088 c 0.428,2.873, 0.90,6.062, 1.454,9.479c 0.674,3.223, 1.402,6.707, 2.182,10.432c 0.355,1.859, 0.888,3.752, 1.393,5.703 c 0.512,1.945, 1.039,3.947, 1.58,6.002c 0.283,1.021, 0.52,2.066, 0.854,3.104c 0.328,1.037, 0.66,2.088, 0.994,3.15 c 0.674,2.117, 1.363,4.283, 2.068,6.494c 0.176,0.553, 0.354,1.105, 0.532,1.662c 0.204,0.551, 0.407,1.104, 0.613,1.658 c 0.413,1.109, 0.829,2.229, 1.251,3.357c 0.848,2.248, 1.711,4.539, 2.59,6.871c 0.984,2.283, 1.985,4.607, 3.002,6.967 c 0.509,1.174, 1.022,2.357, 1.539,3.549c 0.524,1.188, 1.135,2.352, 1.704,3.537c 1.161,2.357, 2.339,4.748, 3.531,7.166 c 1.235,2.393, 2.604,4.756, 3.923,7.164c 0.668,1.199, 1.34,2.404, 2.014,3.615c 0.684,1.205, 1.451,2.375, 2.178,3.57 c 1.475,2.369, 2.965,4.762, 4.467,7.174c 6.32,9.447, 13.338,18.783, 21.105,27.639c 7.856,8.789, 16.363,17.125, 25.346,24.801 c 9.09,7.568, 18.632,14.451, 28.363,20.557c 9.802,6.018, 19.822,11.156, 29.688,15.572c 2.502,1.02, 4.982,2.031, 7.439,3.033 c 1.231,0.486, 2.434,1.016, 3.668,1.459c 1.235,0.434, 2.465,0.867, 3.688,1.297c 2.449,0.842, 4.839,1.734, 7.242,2.496 c 2.416,0.715, 4.802,1.422, 7.156,2.121c 1.178,0.336, 2.33,0.713, 3.502,1.006c 1.173,0.287, 2.338,0.57, 3.493,0.852 c 2.303,0.559, 4.571,1.107, 6.802,1.648c 2.25,0.434, 4.463,0.861, 6.635,1.279c 1.083,0.205, 2.155,0.41, 3.217,0.611 c 0.531,0.10, 1.059,0.199, 1.583,0.299c 0.53,0.074, 1.059,0.146, 1.583,0.221c 2.096,0.291, 4.146,0.576, 6.15,0.855 c 0.999,0.137, 1.986,0.273, 2.961,0.408c 0.973,0.143, 1.952,0.189, 2.907,0.285c 1.911,0.168, 3.772,0.332, 5.582,0.49 c 1.808,0.152, 3.552,0.344, 5.263,0.369c 0.115,0.004, 0.226,0.008, 0.341,0.013C 223.866,497.983, 238.063,512.00, 255.543,512.00 c 0.271,0.00, 0.54-0.014, 0.81-0.021l0.00,0.011c0.00,0.00, 0.045-0.006, 0.112-0.014c 1.939-0.055, 3.837-0.275, 5.675-0.661 c 0.874-0.102, 1.831-0.213, 2.888-0.336c 0.942-0.111, 1.956-0.231, 3.038-0.359c 1.283-0.188, 2.646-0.386, 4.088-0.596 c 2.873-0.428, 6.062-0.90, 9.479-1.454c 3.223-0.674, 6.707-1.402, 10.432-2.181c 1.859-0.356, 3.752-0.889, 5.703-1.393 c 1.946-0.513, 3.947-1.04, 6.002-1.581c 1.022-0.283, 2.066-0.52, 3.104-0.854c 1.037-0.328, 2.087-0.659, 3.15-0.994 c 2.116-0.674, 4.282-1.363, 6.494-2.067c 0.552-0.177, 1.105-0.354, 1.662-0.533c 0.55-0.203, 1.103-0.407, 1.658-0.613 c 1.108-0.412, 2.228-0.829, 3.357-1.25c 2.248-0.849, 4.539-1.712, 6.87-2.591c 2.284-0.984, 4.608-1.985, 6.968-3.002 c 1.174-0.509, 2.357-1.022, 3.549-1.539c 1.188-0.524, 2.351-1.135, 3.537-1.704c 2.357-1.161, 4.747-2.339, 7.165-3.531 c 2.393-1.235, 4.756-2.604, 7.164-3.923c 1.199-0.668, 2.404-1.339, 3.615-2.014c 1.205-0.683, 2.375-1.45, 3.57-2.177 c 2.369-1.476, 4.762-2.965, 7.175-4.468c 9.445-6.32, 18.782-13.337, 27.639-21.105c 8.787-7.856, 17.124-16.363, 24.801-25.345 c 7.568-9.091, 14.451-18.632, 20.556-28.364c 6.018-9.801, 11.157-19.822, 15.571-29.688c 1.021-2.501, 2.031-4.982, 3.034-7.439 c 0.487-1.231, 1.016-2.434, 1.459-3.667c 0.435-1.236, 0.866-2.466, 1.296-3.688c 0.843-2.449, 1.734-4.839, 2.497-7.242 c 0.716-2.416, 1.423-4.802, 2.12-7.155c 0.337-1.179, 0.715-2.33, 1.008-3.502c 0.285-1.174, 0.569-2.338, 0.851-3.494 c 0.559-2.303, 1.108-4.57, 1.648-6.801c 0.434-2.251, 0.86-4.464, 1.279-6.636c 0.205-1.082, 0.409-2.154, 0.611-3.217 c 0.10-0.53, 0.199-1.058, 0.298-1.582c 0.074-0.531, 0.148-1.059, 0.222-1.584c 0.291-2.095, 0.576-4.146, 0.854-6.15 c 0.139-0.998, 0.275-1.985, 0.41-2.961c 0.142-0.973, 0.188-1.951, 0.284-2.906c 0.168-1.911, 0.332-3.773, 0.49-5.582 c 0.152-1.808, 0.343-3.553, 0.369-5.264c 0.01-0.267, 0.02-0.522, 0.029-0.787C 497.746,287.923, 512.00,273.627, 512.00,256.00 c0.00-0.271-0.014-0.54-0.021-0.81l 0.011,0.00c0.00,0.00-0.006-0.045-0.014-0.112c-0.055-1.939-0.275-3.837-0.661-5.675 c-0.102-0.874-0.214-1.831-0.337-2.888c-0.111-0.943-0.23-1.957-0.359-3.038c-0.187-1.283-0.385-2.647-0.595-4.088 c-0.428-2.873-0.90-6.062-1.454-9.479c-0.674-3.222-1.402-6.707-2.182-10.431c-0.355-1.86-0.888-3.753-1.393-5.704 c-0.512-1.946-1.039-3.947-1.58-6.001c-0.283-1.022-0.52-2.067-0.854-3.104c-0.328-1.038-0.66-2.087-0.994-3.15 c-0.674-2.117-1.363-4.283-2.068-6.495c-0.176-0.551-0.354-1.105-0.532-1.662c-0.204-0.55-0.407-1.103-0.613-1.658 c-0.413-1.108-0.829-2.227-1.251-3.357c-0.848-2.249-1.711-4.54-2.59-6.87c-0.984-2.285-1.985-4.608-3.002-6.968 c-0.51-1.174-1.022-2.357-1.539-3.549c-0.524-1.188-1.135-2.351-1.704-3.538c-1.161-2.357-2.339-4.747-3.531-7.165 c-1.235-2.393-2.604-4.756-3.923-7.164c-0.668-1.199-1.34-2.404-2.014-3.615c-0.684-1.205-1.451-2.375-2.178-3.57 c-1.475-2.37-2.965-4.762-4.467-7.175c-6.32-9.446-13.338-18.782-21.105-27.639c-7.856-8.788-16.363-17.125-25.346-24.801 c-9.09-7.568-18.632-14.451-28.363-20.556c-9.802-6.018-19.822-11.157-29.688-15.571c-2.502-1.02-4.982-2.031-7.439-3.034 c-1.231-0.487-2.434-1.016-3.668-1.459c-1.235-0.435-2.465-0.867-3.688-1.296c-2.449-0.842-4.839-1.734-7.242-2.497 c-2.416-0.716-4.802-1.423-7.156-2.121c-1.178-0.336-2.33-0.714-3.502-1.007c-1.173-0.286-2.338-0.569-3.493-0.851 c-2.303-0.559-4.571-1.108-6.802-1.649c-2.25-0.434-4.463-0.86-6.635-1.279c-1.083-0.206-2.155-0.41-3.217-0.611 c-0.531-0.10-1.059-0.199-1.583-0.298c-0.53-0.074-1.059-0.148-1.583-0.221c-2.096-0.292-4.146-0.577-6.15-0.855 c-0.999-0.138-1.986-0.275-2.961-0.41c-0.973-0.142-1.952-0.188-2.907-0.285c-1.911-0.168-3.772-0.332-5.582-0.49 c-1.808-0.152-3.552-0.343-5.263-0.369c-0.426-0.016-0.837-0.031-1.256-0.046C 287.201,13.999, 273.012,0.00, 255.543,0.00 c-0.271,0.00-0.54,0.014-0.81,0.021l-0.001-0.011c0.00,0.00-0.045,0.006-0.111,0.014c-1.939,0.055-3.838,0.275-5.676,0.661 c-0.874,0.102-1.831,0.213-2.888,0.336c-0.942,0.111-1.956,0.231-3.038,0.359c-1.283,0.188-2.646,0.386-4.088,0.596 c-2.873,0.428-6.062,0.90-9.479,1.454c-3.223,0.674-6.707,1.402-10.432,2.181c-1.859,0.356-3.752,0.889-5.703,1.393 c-1.946,0.513-3.947,1.04-6.002,1.581c-1.022,0.283-2.066,0.52-3.104,0.854c-1.037,0.328-2.087,0.659-3.15,0.994 c-2.116,0.674-4.282,1.363-6.494,2.067c-0.552,0.177-1.105,0.354-1.662,0.533c-0.55,0.203-1.103,0.407-1.658,0.613 c-1.108,0.412-2.228,0.829-3.357,1.25c-2.248,0.849-4.539,1.712-6.87,2.591c-2.284,0.984-4.608,1.985-6.968,3.002 c-1.174,0.509-2.357,1.022-3.549,1.539c-1.188,0.524-2.351,1.135-3.537,1.704c-2.357,1.161-4.747,2.339-7.165,3.531 c-2.393,1.235-4.756,2.604-7.164,3.923c-1.199,0.668-2.404,1.339-3.615,2.014c-1.205,0.683-2.375,1.45-3.57,2.177 c-2.369,1.476-4.762,2.965-7.175,4.468c-9.445,6.32-18.782,13.337-27.639,21.105c-8.787,7.856-17.124,16.363-24.801,25.345 c-7.568,9.091-14.451,18.632-20.556,28.364c-6.018,9.801-11.157,19.822-15.571,29.688c-1.021,2.501-2.031,4.982-3.034,7.439 c-0.487,1.231-1.016,2.434-1.459,3.667c-0.435,1.236-0.866,2.466-1.296,3.688c-0.843,2.449-1.734,4.839-2.497,7.242 c-0.716,2.416-1.423,4.802-2.12,7.155c-0.337,1.179-0.715,2.33-1.008,3.502c-0.285,1.174-0.569,2.338-0.851,3.494 c-0.559,2.303-1.108,4.57-1.648,6.801c-0.434,2.251-0.86,4.464-1.279,6.636c-0.205,1.082-0.409,2.154-0.611,3.217 c-0.10,0.53-0.199,1.058-0.298,1.582c-0.074,0.531-0.148,1.059-0.222,1.584c-0.291,2.095-0.576,4.146-0.854,6.15 c-0.139,0.998-0.275,1.985-0.41,2.961c-0.142,0.973-0.188,1.951-0.284,2.906c-0.168,1.911-0.332,3.773-0.49,5.582 c-0.152,1.808-0.343,3.553-0.369,5.264c-0.01,0.274-0.02,0.538-0.029,0.81C 13.763,224.583,0.00,238.679,0.00,256.00 C0.00,256.271, 0.014,256.539, 0.021,256.809z M 36.759,224.353c 0.021-0.098, 0.043-0.192, 0.064-0.29c 0.322-1.624, 0.816-3.271, 1.278-4.971 c 0.467-1.694, 0.947-3.438, 1.44-5.227c 0.258-0.89, 0.467-1.801, 0.773-2.703c 0.298-0.901, 0.601-1.814, 0.905-2.738 c 0.609-1.841, 1.232-3.725, 1.868-5.647c 0.158-0.479, 0.317-0.962, 0.478-1.446c 0.185-0.477, 0.37-0.957, 0.557-1.438 c 0.373-0.962, 0.75-1.934, 1.13-2.915c 0.76-1.952, 1.535-3.941, 2.323-5.965c 0.884-1.98, 1.783-3.995, 2.696-6.04 c 0.454-1.019, 0.912-2.045, 1.373-3.078c 0.466-1.03, 1.018-2.036, 1.526-3.063c 1.035-2.042, 2.085-4.111, 3.147-6.206 c 1.101-2.071, 2.327-4.112, 3.499-6.196c 0.592-1.037, 1.187-2.08, 1.785-3.128c 0.605-1.043, 1.293-2.051, 1.938-3.083 c 1.308-2.049, 2.628-4.116, 3.959-6.201c 5.617-8.149, 11.816-16.199, 18.665-23.819c 6.937-7.552, 14.421-14.702, 22.299-21.274 c 7.987-6.464, 16.343-12.325, 24.838-17.511c 8.565-5.097, 17.30-9.419, 25.867-13.129c 2.175-0.85, 4.331-1.691, 6.467-2.525 c 1.068-0.406, 2.108-0.855, 3.18-1.222c 1.073-0.357, 2.14-0.714, 3.202-1.068c 2.125-0.693, 4.191-1.444, 6.274-2.071 c 2.092-0.587, 4.157-1.166, 6.196-1.737c 1.019-0.275, 2.013-0.595, 3.027-0.831c 1.015-0.229, 2.022-0.457, 3.022-0.684 c 1.989-0.455, 3.948-0.903, 5.874-1.344c 1.944-0.343, 3.855-0.68, 5.731-1.011c 0.934-0.165, 1.858-0.329, 2.773-0.49 c 0.457-0.081, 0.912-0.162, 1.364-0.242c 0.458-0.056, 0.914-0.111, 1.367-0.166c 1.806-0.224, 3.574-0.441, 5.302-0.655 c 0.86-0.108, 1.711-0.216, 2.551-0.322c 0.837-0.113, 1.682-0.133, 2.505-0.204c 1.646-0.119, 3.249-0.236, 4.808-0.35 c 1.555-0.109, 3.055-0.262, 4.529-0.254c 2.924-0.066, 5.66-0.128, 8.19-0.186c 2.332,0.084, 4.474,0.162, 6.409,0.231 c 0.957,0.027, 1.863,0.054, 2.716,0.078c 1.061,0.067, 2.054,0.13, 2.979,0.189c 1.065,0.069, 2.03,0.133, 2.91,0.19 c 1.628,0.255, 3.296,0.391, 4.995,0.391c 0.233,0.00, 0.465-0.013, 0.698-0.018c 0.066,0.004, 0.112,0.007, 0.112,0.007l0.00-0.01 c 15.57-0.389, 28.375-11.892, 30.778-26.877c 0.271,0.06, 0.532,0.118, 0.806,0.178c 1.623,0.322, 3.271,0.816, 4.971,1.278 c 1.693,0.467, 3.438,0.947, 5.227,1.44c 0.889,0.258, 1.801,0.467, 2.702,0.773c 0.901,0.298, 1.815,0.601, 2.739,0.906 c 1.84,0.609, 3.724,1.232, 5.646,1.868c 0.48,0.158, 0.962,0.317, 1.446,0.478c 0.478,0.185, 0.957,0.37, 1.438,0.556 c 0.963,0.373, 1.934,0.75, 2.915,1.13c 1.952,0.76, 3.942,1.535, 5.966,2.323c 1.98,0.884, 3.994,1.783, 6.04,2.696 c 1.019,0.454, 2.044,0.912, 3.078,1.373c 1.03,0.466, 2.036,1.018, 3.063,1.527c 2.041,1.035, 4.111,2.085, 6.205,3.147 c 2.072,1.101, 4.113,2.327, 6.197,3.499c 1.037,0.592, 2.08,1.187, 3.128,1.786c 1.043,0.605, 2.051,1.293, 3.083,1.938 c 2.049,1.308, 4.115,2.628, 6.201,3.959c 8.148,5.617, 16.199,11.816, 23.818,18.665c 7.552,6.937, 14.703,14.421, 21.275,22.299 c 6.464,7.987, 12.324,16.343, 17.51,24.838c 5.098,8.565, 9.42,17.30, 13.13,25.868c 0.849,2.174, 1.691,4.331, 2.525,6.466 c 0.406,1.068, 0.855,2.108, 1.222,3.18c 0.357,1.073, 0.714,2.14, 1.068,3.202c 0.693,2.125, 1.444,4.192, 2.071,6.274 c 0.587,2.092, 1.165,4.158, 1.737,6.196c 0.275,1.019, 0.595,2.013, 0.83,3.027c 0.23,1.015, 0.458,2.023, 0.684,3.023 c 0.455,1.989, 0.904,3.948, 1.344,5.874c 0.344,1.944, 0.681,3.855, 1.012,5.731c 0.165,0.934, 0.328,1.858, 0.49,2.774 c 0.081,0.457, 0.162,0.912, 0.242,1.364c 0.055,0.458, 0.111,0.914, 0.166,1.367c 0.223,1.806, 0.441,3.574, 0.655,5.302 c 0.108,0.86, 0.216,1.71, 0.321,2.55c 0.113,0.837, 0.134,1.682, 0.205,2.505c 0.119,1.646, 0.236,3.249, 0.35,4.808 c 0.109,1.555, 0.262,3.055, 0.254,4.529c 0.066,2.924, 0.128,5.66, 0.186,8.19c-0.084,2.332-0.162,4.474-0.231,6.409 c-0.027,0.957-0.054,1.863-0.078,2.716c-0.067,1.061-0.13,2.054-0.189,2.979c-0.069,1.065-0.133,2.03-0.19,2.91 C 448.135,252.633, 448.00,254.301, 448.00,256.00c0.00,0.234, 0.013,0.465, 0.018,0.698c-0.004,0.066-0.008,0.112-0.008,0.112l 0.011,0.00 c 0.384,15.383, 11.618,28.064, 26.341,30.685c-0.033,0.148-0.065,0.292-0.099,0.442c-0.322,1.624-0.816,3.271-1.278,4.971 c-0.467,1.694-0.947,3.438-1.44,5.227c-0.258,0.89-0.467,1.801-0.773,2.703c-0.298,0.901-0.601,1.814-0.905,2.738 c-0.609,1.841-1.232,3.725-1.868,5.647c-0.158,0.479-0.317,0.962-0.478,1.446c-0.185,0.477-0.37,0.957-0.557,1.438 c-0.373,0.962-0.75,1.934-1.13,2.915c-0.76,1.952-1.535,3.941-2.323,5.965c-0.884,1.98-1.783,3.995-2.696,6.04 c-0.454,1.019-0.912,2.045-1.373,3.078c-0.466,1.03-1.018,2.036-1.526,3.063c-1.035,2.042-2.085,4.111-3.147,6.206 c-1.101,2.071-2.327,4.112-3.499,6.196c-0.592,1.037-1.187,2.08-1.785,3.128c-0.605,1.043-1.293,2.051-1.938,3.083 c-1.308,2.049-2.628,4.116-3.959,6.201c-5.617,8.149-11.816,16.199-18.665,23.819c-6.937,7.552-14.421,14.702-22.299,21.274 c-7.987,6.464-16.343,12.325-24.838,17.511c-8.565,5.097-17.30,9.419-25.867,13.129c-2.175,0.85-4.331,1.691-6.467,2.525 c-1.068,0.406-2.108,0.855-3.18,1.222c-1.073,0.357-2.14,0.714-3.202,1.068c-2.125,0.693-4.191,1.444-6.274,2.071 c-2.092,0.587-4.157,1.166-6.196,1.737c-1.019,0.275-2.013,0.595-3.027,0.831c-1.015,0.229-2.022,0.457-3.022,0.684 c-1.989,0.455-3.948,0.903-5.874,1.344c-1.944,0.343-3.855,0.68-5.731,1.011c-0.934,0.165-1.858,0.329-2.773,0.49 c-0.457,0.081-0.912,0.162-1.364,0.242c-0.458,0.056-0.914,0.111-1.367,0.166c-1.806,0.224-3.574,0.441-5.302,0.655 c-0.86,0.108-1.711,0.216-2.551,0.322c-0.837,0.113-1.682,0.133-2.505,0.204c-1.646,0.119-3.249,0.236-4.808,0.35 c-1.555,0.109-3.055,0.262-4.529,0.254c-2.924,0.066-5.66,0.128-8.19,0.186c-2.332-0.084-4.474-0.162-6.409-0.231 c-0.957-0.027-1.863-0.054-2.716-0.078c-1.061-0.067-2.054-0.13-2.979-0.189c-1.065-0.069-2.03-0.133-2.91-0.19 c-1.628-0.255-3.296-0.391-4.995-0.391c-0.233,0.00-0.465,0.013-0.698,0.018c-0.066-0.004-0.112-0.007-0.112-0.007l0.00,0.01 c-15.502,0.387-28.262,11.793-30.744,26.682c-1.60-0.32-3.223-0.805-4.896-1.261c-1.693-0.467-3.438-0.947-5.227-1.439 c-0.889-0.258-1.801-0.469-2.702-0.773c-0.901-0.299-1.815-0.602-2.739-0.906c-1.84-0.609-3.724-1.232-5.646-1.869 c-0.48-0.158-0.962-0.316-1.446-0.477c-0.478-0.186-0.957-0.371-1.438-0.557c-0.963-0.373-1.934-0.75-2.915-1.129 c-1.952-0.762-3.942-1.535-5.966-2.324c-1.98-0.885-3.994-1.783-6.04-2.695c-1.019-0.455-2.044-0.912-3.078-1.373 c-1.03-0.467-2.036-1.018-3.063-1.527c-2.041-1.035-4.111-2.086-6.205-3.148c-2.072-1.10-4.113-2.326-6.197-3.498 c-1.037-0.592-2.08-1.188-3.128-1.785c-1.043-0.605-2.051-1.293-3.083-1.939c-2.049-1.307-4.115-2.627-6.201-3.959 c-8.148-5.615-16.199-11.816-23.818-18.664c-7.552-6.938-14.703-14.42-21.275-22.299c-6.464-7.986-12.324-16.342-17.51-24.838 c-5.098-8.564-9.42-17.301-13.13-25.867c-0.849-2.176-1.691-4.332-2.525-6.467c-0.406-1.068-0.855-2.109-1.222-3.18 c-0.357-1.074-0.714-2.141-1.068-3.203c-0.693-2.125-1.444-4.191-2.071-6.273c-0.587-2.092-1.165-4.158-1.737-6.197 c-0.275-1.018-0.595-2.012-0.83-3.027c-0.23-1.014-0.458-2.021-0.684-3.021c-0.455-1.99-0.904-3.949-1.344-5.875 c-0.344-1.943-0.681-3.855-1.012-5.73c-0.165-0.934-0.328-1.859-0.49-2.773c-0.081-0.457-0.162-0.912-0.242-1.365 c-0.055-0.457-0.111-0.914-0.166-1.367c-0.223-1.805-0.441-3.574-0.655-5.301c-0.108-0.861-0.216-1.711-0.321-2.551 c-0.113-0.838-0.134-1.682-0.205-2.506c-0.119-1.645-0.236-3.248-0.35-4.807c-0.109-1.555-0.262-3.055-0.254-4.529 c-0.066-2.924-0.128-5.66-0.186-8.191c 0.084-2.332, 0.162-4.473, 0.231-6.408c 0.027-0.957, 0.054-1.863, 0.078-2.717 c 0.067-1.061, 0.13-2.053, 0.189-2.979c 0.069-1.064, 0.133-2.029, 0.19-2.91C 63.865,259.367, 64.00,257.699, 64.00,256.00 c0.00-0.233-0.013-0.465-0.018-0.698c 0.004-0.066, 0.008-0.112, 0.008-0.112l-0.011,0.00 C 63.589,239.50, 51.912,226.613, 36.759,224.353z" ></path></svg>