<?xml version="1.0" encoding="utf-8"?> <!-- Generator: IcoMoon.io --> <!DOCTYPE svg PUBLIC "-//W3C//DTD SVG 1.1//EN" "http://www.w3.org/Graphics/SVG/1.1/DTD/svg11.dtd"> <svg width="512" height="512" viewBox="0 0 512 512" xmlns="http://www.w3.org/2000/svg" xmlns:xlink="http://www.w3.org/1999/xlink" fill="#000000"><g class="svgGrid" id="svgGrid"><line stroke-width="1" stroke="#B35047" x1="32" x2="32" y1="0" y2="512"></line><line stroke-width="1" stroke="#B35047" x1="64" x2="64" y1="0" y2="512"></line><line stroke-width="1" stroke="#B35047" x1="96" x2="96" y1="0" y2="512"></line><line stroke-width="1" stroke="#B35047" x1="128" x2="128" y1="0" y2="512"></line><line stroke-width="1" stroke="#B35047" x1="160" x2="160" y1="0" y2="512"></line><line stroke-width="1" stroke="#B35047" x1="192" x2="192" y1="0" y2="512"></line><line stroke-width="1" stroke="#B35047" x1="224" x2="224" y1="0" y2="512"></line><line stroke-width="1" stroke="#B35047" x1="256" x2="256" y1="0" y2="512"></line><line stroke-width="1" stroke="#B35047" x1="288" x2="288" y1="0" y2="512"></line><line stroke-width="1" stroke="#B35047" x1="320" x2="320" y1="0" y2="512"></line><line stroke-width="1" stroke="#B35047" x1="352" x2="352" y1="0" y2="512"></line><line stroke-width="1" stroke="#B35047" x1="384" x2="384" y1="0" y2="512"></line><line stroke-width="1" stroke="#B35047" x1="416" x2="416" y1="0" y2="512"></line><line stroke-width="1" stroke="#B35047" x1="448" x2="448" y1="0" y2="512"></line><line stroke-width="1" stroke="#B35047" x1="480" x2="480" y1="0" y2="512"></line><line stroke-width="1" stroke="#B35047" x1="0" x2="512" y1="32" y2="32"></line><line stroke-width="1" stroke="#B35047" x1="0" x2="512" y1="64" y2="64"></line><line stroke-width="1" stroke="#B35047" x1="0" x2="512" y1="96" y2="96"></line><line stroke-width="1" stroke="#B35047" x1="0" x2="512" y1="128" y2="128"></line><line stroke-width="1" stroke="#B35047" x1="0" x2="512" y1="160" y2="160"></line><line stroke-width="1" stroke="#B35047" x1="0" x2="512" y1="192" y2="192"></line><line stroke-width="1" stroke="#B35047" x1="0" x2="512" y1="224" y2="224"></line><line stroke-width="1" stroke="#B35047" x1="0" x2="512" y1="256" y2="256"></line><line stroke-width="1" stroke="#B35047" x1="0" x2="512" y1="288" y2="288"></line><line stroke-width="1" stroke="#B35047" x1="0" x2="512" y1="320" y2="320"></line><line stroke-width="1" stroke="#B35047" x1="0" x2="512" y1="352" y2="352"></line><line stroke-width="1" stroke="#B35047" x1="0" x2="512" y1="384" y2="384"></line><line stroke-width="1" stroke="#B35047" x1="0" x2="512" y1="416" y2="416"></line><line stroke-width="1" stroke="#B35047" x1="0" x2="512" y1="448" y2="448"></line><line stroke-width="1" stroke="#B35047" x1="0" x2="512" y1="480" y2="480"></line><rect x="0" y="0" width="512" height="512" fill="none" stroke-width="1" stroke="#B35047"></rect></g><path d="M 498.608,439.539c 0.003,0.002, 0.005,0.004, 0.008,0.006L 495.111,436.00l-1.134,0.00 c-4.219-2.932-9.083-5.615-14.487-8.00l 7.711,0.00 l-7.911-8.00l-24.88,0.00 c-11.764-2.57-24.752-4.00-38.41-4.00c-13.662,0.00-26.653,1.43-38.419,4.002c 0.003-0.001, 0.006-0.001, 0.009-0.002l-84.852,0.00 l 4.356,8.00l 55.415,0.00 c 0.001,0.00, 0.002-0.001, 0.003-0.001c-5.407,2.386-10.273,5.07-14.493,8.003c 0.001,0.00, 0.002-0.001, 0.003-0.002l-36.57,0.00 l 4.356,8.00l 22.901,0.00 c 0.002-0.002, 0.004-0.004, 0.006-0.006c-2.348,2.557-4.264,5.232-5.692,8.008c 0.001-0.001, 0.001-0.002, 0.001-0.002 l-12.858,0.00 l 4.356,8.00l 5.812,0.00 c 0.001-0.005, 0.002-0.009, 0.003-0.014C 320.117,461.31, 320.00,462.648, 320.00,464.00c0.00,1.348, 0.117,2.681, 0.334,4.00 l-1.454,0.00 l 3.015,5.536l 0.003-0.001C 330.742,495.477, 369.511,512.00, 416.00,512.00c 53.02,0.00, 96.00-21.49, 96.00-48.00 C 512.00,455.065, 507.112,446.702, 498.608,439.539z M 330.755,441.908c0.00,0.001-0.001,0.001-0.002,0.002 C 330.754,441.909, 330.755,441.909, 330.755,441.908z M 321.382,455.858c-0.022,0.065-0.043,0.131-0.065,0.196 C 321.338,455.989, 321.359,455.924, 321.382,455.858z M 322.184,453.791c-0.039,0.09-0.079,0.18-0.117,0.27 C 322.104,453.97, 322.145,453.881, 322.184,453.791z M 321.36,472.076c 0.016,0.046, 0.029,0.093, 0.046,0.139 C 321.391,472.169, 321.376,472.122, 321.36,472.076z M 320.606,469.393c 0.002,0.008, 0.004,0.016, 0.005,0.022 C 320.61,469.408, 320.608,469.40, 320.606,469.393z M 320.943,470.729c 0.012,0.039, 0.021,0.079, 0.033,0.118 C 320.965,470.808, 320.954,470.768, 320.943,470.729zM 179.215,420.00c-15.685-2.57-33.003-4.00-51.215-4.00c-18.211,0.00-35.529,1.43-51.213,4.00L 36.911,420.00 l-8.439,8.00l 14.873,0.00 c 0.018-0.006, 0.038-0.012, 0.056-0.018c-7.228,2.389-13.731,5.078-19.37,8.018l-3.999,0.00 l-8.44,8.00l 0.022,0.00 C 4.161,450.089,0.00,456.861,0.00,464.00 c0.00,26.51, 57.308,48.00, 128.00,48.00c 65.084,0.00, 118.82-18.216, 126.937-41.794l 0.021,0.002l 1.057-2.208l-0.461,0.00 c 0.29-1.319, 0.446-2.652, 0.446-4.00 s-0.156-2.683-0.446-4.002c0.00,0.001,0.00,0.001,0.00,0.002l 4.29,0.00 l 3.829-8.00l-11.706,0.00 c-1.902-2.771-4.455-5.445-7.581-8.00l 23.116,0.00 l 3.828-8.00l-39.36,0.00 c0.00,0.00, 0.001,0.001, 0.002,0.001c-5.625-2.933-12.111-5.616-19.318-8.001l 62.506,0.00 l 3.829-8.00l-99.775,0.00 C 179.213,420.00, 179.214,420.00, 179.215,420.00 z M 253.245,454.061c-0.051-0.09-0.104-0.18-0.156-0.27C 253.141,453.881, 253.194,453.971, 253.245,454.061z M 254.244,456.054 c-0.029-0.064-0.057-0.13-0.086-0.194C 254.188,455.924, 254.215,455.988, 254.244,456.054z M 233.737,436.945L 233.737,436.945 L 233.737,436.945zM 432.14,100.00L 374.503,100.00L 366.062,108.00L 428.312,108.00 zM 424.482,116.00L 357.623,116.00L 349.184,124.00L 420.653,124.00 zM 447.455,68.00L 408.262,68.00L 399.822,76.00L 443.626,76.00 zM 439.798,84.00L 391.382,84.00L 382.942,92.00L 435.969,92.00 zM 455.113,52.00L 425.142,52.00L 416.701,60.00L 451.284,60.00 zM 462.771,36.00L 442.021,36.00L 433.581,44.00L 458.941,44.00 zM 478.086,4.00L 475.78,4.00L 467.34,12.00L 474.257,12.00 zM 470.428,20.00L 458.90,20.00L 450.461,28.00L 466.60,28.00 zM 409.167,148.00L 323.864,148.00L 315.424,156.00L 405.339,156.00 zM 416.825,132.00L 340.743,132.00L 332.304,140.00L 412.996,140.00 zM 393.852,180.00L 290.104,180.00L 281.665,188.00L 390.023,188.00 zM 401.51,164.00L 306.984,164.00L 298.545,172.00L 397.681,172.00 zM 471.38,412.00L 463.47,404.00L 286.646,404.00L 290.475,396.00L 455.56,396.00L 447.649,388.00L 294.304,388.00L 298.133,380.00L 439.739,380.00L 431.829,372.00L 301.961,372.00L 305.79,364.00L 423.918,364.00L 416.008,356.00L 309.619,356.00L 313.447,348.00L 408.098,348.00L 400.188,340.00L 317.276,340.00L 321.105,332.00L 392.277,332.00L 384.367,324.00L 324.934,324.00L 328.763,316.00L 328.763,316.00L 376.457,316.00L 368.546,308.00L 332.592,308.00L 336.42,300.00L 360.636,300.00L 352.726,292.00L 340.249,292.00L 340.249,292.00L 344.078,284.00L 344.078,284.00L 344.815,284.00L 344.318,283.497L 347.906,276.00L 336.905,276.00L 328.995,268.00L 328.995,268.00L 351.735,268.00L 355.564,260.00L 321.085,260.00L 321.085,260.00L 313.174,252.00L 359.393,252.00L 363.222,244.00L 305.264,244.00L 297.354,236.00L 367.051,236.00L 370.879,228.00L 289.443,228.00L 289.443,228.00L 281.533,220.00L 281.533,220.00L 374.708,220.00L 378.537,212.00L 273.623,212.00L 273.623,212.00L 265.712,204.00L 265.713,204.00L 382.365,204.00L 386.194,196.00L 273.226,196.00L 265.264,203.546L 257.802,196.00L 170.744,196.00L 175.102,204.00L 264.785,204.00L 256.346,212.00L 179.458,212.00L 183.815,220.00L 247.906,220.00L 239.466,228.00L 188.172,228.00L 192.529,236.00L 231.026,236.00L 231.026,236.00L 222.587,244.00L 222.586,244.00L 196.886,244.00L 201.243,252.00L 214.147,252.00L 214.147,252.00L 205.708,260.00L 205.707,260.00L 205.60,260.00L 205.636,260.067L 197.267,268.00L 209.957,268.00L 214.313,276.00L 188.828,276.00L 180.388,284.00L 218.67,284.00L 223.027,292.00L 171.948,292.00L 163.508,300.00L 227.384,300.00L 231.741,308.00L 155.068,308.00L 146.628,316.00L 236.098,316.00L 240.455,324.00L 138.189,324.00L 129.749,332.00L 244.812,332.00L 249.169,340.00L 121.309,340.00L 112.87,348.00L 253.526,348.00L 257.883,356.00L 104.43,356.00L 95.99,364.00L 262.239,364.00L 262.239,364.00L 266.597,372.00L 87.55,372.00L 79.11,380.00L 270.953,380.00L 270.953,380.00L 275.311,388.00L 70.67,388.00L 62.231,396.00L 279.667,396.00L 279.667,396.00L 284.024,404.00L 53.791,404.00L 45.351,412.00L 282.816,412.00L 285.419,406.562L 288.381,412.00 zM 114.104,92.00L 154.968,92.00L 147.058,84.00L 109.748,84.00 zM 96.677,60.00L 123.327,60.00L 115.417,52.00L 92.32,52.00 zM 105.391,76.00L 139.148,76.00L 131.237,68.00L 101.034,68.00 zM 87.963,44.00L 107.507,44.00L 99.596,36.00L 83.606,36.00 zM 75.865,12.00L 67.955,4.00L 66.179,4.00L 70.535,12.00 zM 131.532,124.00L 186.609,124.00L 178.699,116.00L 127.175,116.00 zM 79.249,28.00L 91.686,28.00L 83.776,20.00L 74.892,20.00 zM 122.818,108.00L 170.789,108.00L 162.879,100.00L 118.461,100.00 zM 148.96,156.00L 218.251,156.00L 210.34,148.00L 144.603,148.00 zM 140.246,140.00L 202.43,140.00L 194.52,132.00L 135.889,132.00 zM 157.674,172.00L 234.071,172.00L 226.161,164.00L 153.317,164.00 zM 166.388,188.00L 249.892,188.00L 241.981,180.00L 162.031,180.00 z" ></path></svg>