<?xml version="1.0" encoding="utf-8"?> <!-- Generator: IcoMoon.io --> <!DOCTYPE svg PUBLIC "-//W3C//DTD SVG 1.1//EN" "http://www.w3.org/Graphics/SVG/1.1/DTD/svg11.dtd"> <svg width="512" height="512" viewBox="0 0 512 512" xmlns="http://www.w3.org/2000/svg" xmlns:xlink="http://www.w3.org/1999/xlink" fill="#000000"><g class="svgGrid" id="svgGrid"><line stroke-width="1" stroke="#B35047" x1="32" x2="32" y1="0" y2="512"></line><line stroke-width="1" stroke="#B35047" x1="64" x2="64" y1="0" y2="512"></line><line stroke-width="1" stroke="#B35047" x1="96" x2="96" y1="0" y2="512"></line><line stroke-width="1" stroke="#B35047" x1="128" x2="128" y1="0" y2="512"></line><line stroke-width="1" stroke="#B35047" x1="160" x2="160" y1="0" y2="512"></line><line stroke-width="1" stroke="#B35047" x1="192" x2="192" y1="0" y2="512"></line><line stroke-width="1" stroke="#B35047" x1="224" x2="224" y1="0" y2="512"></line><line stroke-width="1" stroke="#B35047" x1="256" x2="256" y1="0" y2="512"></line><line stroke-width="1" stroke="#B35047" x1="288" x2="288" y1="0" y2="512"></line><line stroke-width="1" stroke="#B35047" x1="320" x2="320" y1="0" y2="512"></line><line stroke-width="1" stroke="#B35047" x1="352" x2="352" y1="0" y2="512"></line><line stroke-width="1" stroke="#B35047" x1="384" x2="384" y1="0" y2="512"></line><line stroke-width="1" stroke="#B35047" x1="416" x2="416" y1="0" y2="512"></line><line stroke-width="1" stroke="#B35047" x1="448" x2="448" y1="0" y2="512"></line><line stroke-width="1" stroke="#B35047" x1="480" x2="480" y1="0" y2="512"></line><line stroke-width="1" stroke="#B35047" x1="0" x2="512" y1="32" y2="32"></line><line stroke-width="1" stroke="#B35047" x1="0" x2="512" y1="64" y2="64"></line><line stroke-width="1" stroke="#B35047" x1="0" x2="512" y1="96" y2="96"></line><line stroke-width="1" stroke="#B35047" x1="0" x2="512" y1="128" y2="128"></line><line stroke-width="1" stroke="#B35047" x1="0" x2="512" y1="160" y2="160"></line><line stroke-width="1" stroke="#B35047" x1="0" x2="512" y1="192" y2="192"></line><line stroke-width="1" stroke="#B35047" x1="0" x2="512" y1="224" y2="224"></line><line stroke-width="1" stroke="#B35047" x1="0" x2="512" y1="256" y2="256"></line><line stroke-width="1" stroke="#B35047" x1="0" x2="512" y1="288" y2="288"></line><line stroke-width="1" stroke="#B35047" x1="0" x2="512" y1="320" y2="320"></line><line stroke-width="1" stroke="#B35047" x1="0" x2="512" y1="352" y2="352"></line><line stroke-width="1" stroke="#B35047" x1="0" x2="512" y1="384" y2="384"></line><line stroke-width="1" stroke="#B35047" x1="0" x2="512" y1="416" y2="416"></line><line stroke-width="1" stroke="#B35047" x1="0" x2="512" y1="448" y2="448"></line><line stroke-width="1" stroke="#B35047" x1="0" x2="512" y1="480" y2="480"></line><rect x="0" y="0" width="512" height="512" fill="none" stroke-width="1" stroke="#B35047"></rect></g><path d="M 440.00,128.00l-24.00,0.00 l0.00-24.00 c0.00-22.056-17.944-40.00-40.00-40.00l-24.00,0.00 L 352.00,40.00 c0.00-22.056-17.943-40.00-40.00-40.00l-240.00,0.00 c-22.056,0.00-40.00,17.944-40.00,40.00l0.00,304.00 c0.00,22.057, 17.944,40.00, 40.00,40.00l 24.00,0.00 l0.00,24.00 c0.00,22.057, 17.944,40.00, 40.00,40.00l 24.00,0.00 l0.00,24.00 c0.00,22.056, 17.944,40.00, 40.00,40.00l 240.00,0.00 c 22.056,0.00, 40.00-17.944, 40.00-40.00L 480.00,168.00 C 480.00,145.944, 462.056,128.00, 440.00,128.00z M 72.001,352.00c-4.40,0.00-8.00-3.60-8.00-8.00L 64.001,40.00 c0.00-4.40, 3.60-8.00, 8.00-8.00l 240.00,0.00 c 4.40,0.00, 8.00,3.60, 8.00,8.00l0.00,24.00 L 136.00,64.00 c-22.056,0.00-40.00,17.944-40.00,40.00l0.00,248.00 L 72.001,352.00 z M 136.00,416.00c-4.40,0.00-8.00-3.60-8.00-8.00L 128.00,104.00 c0.00-4.40, 3.60-8.00, 8.00-8.00l 240.00,0.00 c 4.40,0.00, 8.00,3.60, 8.00,8.00l0.00,24.00 L 200.00,128.00 c-22.056,0.00-40.00,17.944-40.00,40.00l0.00,248.00 L 136.00,416.00 z M 448.00,472.00c0.00,4.40-3.60,8.00-8.00,8.00L 200.00,480.00 c-4.40,0.00-8.00-3.60-8.00-8.00L 192.00,168.00 c0.00-4.40, 3.60-8.00, 8.00-8.00l 240.00,0.00 c 4.40,0.00, 8.00,3.60, 8.00,8.00L 448.00,472.00 z" ></path></svg>