<?xml version="1.0" encoding="utf-8"?> <!-- Generator: IcoMoon.io --> <!DOCTYPE svg PUBLIC "-//W3C//DTD SVG 1.1//EN" "http://www.w3.org/Graphics/SVG/1.1/DTD/svg11.dtd"> <svg width="512" height="512" viewBox="0 0 512 512" xmlns="http://www.w3.org/2000/svg" xmlns:xlink="http://www.w3.org/1999/xlink" fill="#000000"><g class="svgGrid" id="svgGrid"><line stroke-width="1" stroke="#B35047" x1="32" x2="32" y1="0" y2="512"></line><line stroke-width="1" stroke="#B35047" x1="64" x2="64" y1="0" y2="512"></line><line stroke-width="1" stroke="#B35047" x1="96" x2="96" y1="0" y2="512"></line><line stroke-width="1" stroke="#B35047" x1="128" x2="128" y1="0" y2="512"></line><line stroke-width="1" stroke="#B35047" x1="160" x2="160" y1="0" y2="512"></line><line stroke-width="1" stroke="#B35047" x1="192" x2="192" y1="0" y2="512"></line><line stroke-width="1" stroke="#B35047" x1="224" x2="224" y1="0" y2="512"></line><line stroke-width="1" stroke="#B35047" x1="256" x2="256" y1="0" y2="512"></line><line stroke-width="1" stroke="#B35047" x1="288" x2="288" y1="0" y2="512"></line><line stroke-width="1" stroke="#B35047" x1="320" x2="320" y1="0" y2="512"></line><line stroke-width="1" stroke="#B35047" x1="352" x2="352" y1="0" y2="512"></line><line stroke-width="1" stroke="#B35047" x1="384" x2="384" y1="0" y2="512"></line><line stroke-width="1" stroke="#B35047" x1="416" x2="416" y1="0" y2="512"></line><line stroke-width="1" stroke="#B35047" x1="448" x2="448" y1="0" y2="512"></line><line stroke-width="1" stroke="#B35047" x1="480" x2="480" y1="0" y2="512"></line><line stroke-width="1" stroke="#B35047" x1="0" x2="512" y1="32" y2="32"></line><line stroke-width="1" stroke="#B35047" x1="0" x2="512" y1="64" y2="64"></line><line stroke-width="1" stroke="#B35047" x1="0" x2="512" y1="96" y2="96"></line><line stroke-width="1" stroke="#B35047" x1="0" x2="512" y1="128" y2="128"></line><line stroke-width="1" stroke="#B35047" x1="0" x2="512" y1="160" y2="160"></line><line stroke-width="1" stroke="#B35047" x1="0" x2="512" y1="192" y2="192"></line><line stroke-width="1" stroke="#B35047" x1="0" x2="512" y1="224" y2="224"></line><line stroke-width="1" stroke="#B35047" x1="0" x2="512" y1="256" y2="256"></line><line stroke-width="1" stroke="#B35047" x1="0" x2="512" y1="288" y2="288"></line><line stroke-width="1" stroke="#B35047" x1="0" x2="512" y1="320" y2="320"></line><line stroke-width="1" stroke="#B35047" x1="0" x2="512" y1="352" y2="352"></line><line stroke-width="1" stroke="#B35047" x1="0" x2="512" y1="384" y2="384"></line><line stroke-width="1" stroke="#B35047" x1="0" x2="512" y1="416" y2="416"></line><line stroke-width="1" stroke="#B35047" x1="0" x2="512" y1="448" y2="448"></line><line stroke-width="1" stroke="#B35047" x1="0" x2="512" y1="480" y2="480"></line><rect x="0" y="0" width="512" height="512" fill="none" stroke-width="1" stroke="#B35047"></rect></g><path d="M 224.00,32.00 C 224.00,14.327 238.327,0.00 256.00,0.00 C 273.674,0.00 288.00,14.327 288.00,32.00 C 288.00,49.673 273.674,64.00 256.00,64.00 C 238.327,64.00 224.00,49.673 224.00,32.00 Z M 224.00,480.00 C 224.00,462.327 238.327,448.00 256.00,448.00 C 273.674,448.00 288.00,462.327 288.00,480.00 C 288.00,497.673 273.674,512.00 256.00,512.00 C 238.327,512.00 224.00,497.673 224.00,480.00 Z M 448.00,256.00 C 448.00,238.327 462.327,224.00 480.00,224.00 C 497.673,224.00 512.00,238.327 512.00,256.00 C 512.00,273.674 497.673,288.00 480.00,288.00 C 462.327,288.00 448.00,273.674 448.00,256.00 Z M 0.00,256.00 C 0.00,238.327 14.327,224.00 32.00,224.00 C 49.673,224.00 64.00,238.327 64.00,256.00 C 64.00,273.674 49.673,288.00 32.00,288.00 C 14.327,288.00 0.00,273.674 0.00,256.00 Z M 384.001,96.00 C 384.001,78.327 398.328,64.00 416.001,64.00 C 433.674,64.00 448.001,78.327 448.001,96.00 C 448.001,113.673 433.674,128.00 416.001,128.00 C 398.328,128.00 384.001,113.673 384.001,96.00 Z M 64.00,416.00 C 64.00,398.327 78.327,384.00 96.00,384.00 C 113.673,384.00 128.00,398.327 128.00,416.00 C 128.00,433.673 113.673,448.00 96.00,448.00 C 78.327,448.00 64.00,433.673 64.00,416.00 Z M 384.001,416.00 C 384.001,398.327 398.328,384.00 416.001,384.00 C 433.674,384.00 448.001,398.327 448.001,416.00 C 448.001,433.673 433.674,448.00 416.001,448.00 C 398.328,448.00 384.001,433.673 384.001,416.00 Z M 64.00,96.00 C 64.00,78.327 78.327,64.00 96.00,64.00 C 113.673,64.00 128.00,78.327 128.00,96.00 C 128.00,113.673 113.673,128.00 96.00,128.00 C 78.327,128.00 64.00,113.673 64.00,96.00 ZM 256.00,192.00 C 220.71,192.00 192.00,220.71 192.00,256.00 C 192.00,291.29 220.71,320.00 256.00,320.00 C 291.29,320.00 320.00,291.29 320.00,256.00 C 320.00,220.71 291.29,192.00 256.00,192.00 Z M 256.00,128.00 L 256.00,128.00 C 326.692,128.00 384.00,185.308 384.00,256.00 C 384.00,326.692 326.692,384.00 256.00,384.00 C 185.308,384.00 128.00,326.692 128.00,256.00 C 128.00,185.308 185.308,128.00 256.00,128.00 Z" ></path></svg>