<?xml version="1.0" encoding="utf-8"?> <!-- Generator: IcoMoon.io --> <!DOCTYPE svg PUBLIC "-//W3C//DTD SVG 1.1//EN" "http://www.w3.org/Graphics/SVG/1.1/DTD/svg11.dtd"> <svg width="512" height="512" viewBox="0 0 512 512" xmlns="http://www.w3.org/2000/svg" xmlns:xlink="http://www.w3.org/1999/xlink" fill="#000000"><g class="svgGrid" id="svgGrid"><line stroke-width="1" stroke="#B35047" x1="32" x2="32" y1="0" y2="512"></line><line stroke-width="1" stroke="#B35047" x1="64" x2="64" y1="0" y2="512"></line><line stroke-width="1" stroke="#B35047" x1="96" x2="96" y1="0" y2="512"></line><line stroke-width="1" stroke="#B35047" x1="128" x2="128" y1="0" y2="512"></line><line stroke-width="1" stroke="#B35047" x1="160" x2="160" y1="0" y2="512"></line><line stroke-width="1" stroke="#B35047" x1="192" x2="192" y1="0" y2="512"></line><line stroke-width="1" stroke="#B35047" x1="224" x2="224" y1="0" y2="512"></line><line stroke-width="1" stroke="#B35047" x1="256" x2="256" y1="0" y2="512"></line><line stroke-width="1" stroke="#B35047" x1="288" x2="288" y1="0" y2="512"></line><line stroke-width="1" stroke="#B35047" x1="320" x2="320" y1="0" y2="512"></line><line stroke-width="1" stroke="#B35047" x1="352" x2="352" y1="0" y2="512"></line><line stroke-width="1" stroke="#B35047" x1="384" x2="384" y1="0" y2="512"></line><line stroke-width="1" stroke="#B35047" x1="416" x2="416" y1="0" y2="512"></line><line stroke-width="1" stroke="#B35047" x1="448" x2="448" y1="0" y2="512"></line><line stroke-width="1" stroke="#B35047" x1="480" x2="480" y1="0" y2="512"></line><line stroke-width="1" stroke="#B35047" x1="0" x2="512" y1="32" y2="32"></line><line stroke-width="1" stroke="#B35047" x1="0" x2="512" y1="64" y2="64"></line><line stroke-width="1" stroke="#B35047" x1="0" x2="512" y1="96" y2="96"></line><line stroke-width="1" stroke="#B35047" x1="0" x2="512" y1="128" y2="128"></line><line stroke-width="1" stroke="#B35047" x1="0" x2="512" y1="160" y2="160"></line><line stroke-width="1" stroke="#B35047" x1="0" x2="512" y1="192" y2="192"></line><line stroke-width="1" stroke="#B35047" x1="0" x2="512" y1="224" y2="224"></line><line stroke-width="1" stroke="#B35047" x1="0" x2="512" y1="256" y2="256"></line><line stroke-width="1" stroke="#B35047" x1="0" x2="512" y1="288" y2="288"></line><line stroke-width="1" stroke="#B35047" x1="0" x2="512" y1="320" y2="320"></line><line stroke-width="1" stroke="#B35047" x1="0" x2="512" y1="352" y2="352"></line><line stroke-width="1" stroke="#B35047" x1="0" x2="512" y1="384" y2="384"></line><line stroke-width="1" stroke="#B35047" x1="0" x2="512" y1="416" y2="416"></line><line stroke-width="1" stroke="#B35047" x1="0" x2="512" y1="448" y2="448"></line><line stroke-width="1" stroke="#B35047" x1="0" x2="512" y1="480" y2="480"></line><rect x="0" y="0" width="512" height="512" fill="none" stroke-width="1" stroke="#B35047"></rect></g><path d="M 21.807,208.00C 8.463,219.751,0.00,236.931,0.00,256.00c0.00,35.20, 28.80,64.00, 64.00,64.00l 160.00,0.00 c 35.20,0.00, 64.00,28.80, 64.00,64.00l0.00,64.00 c0.00,35.20, 28.80,64.00, 64.00,64.00 s 64.00-28.80, 64.00-64.00l0.00-64.00 c0.00-35.20, 21.60-64.00, 48.00-64.00s 48.00-28.80, 48.00-64.00L 512.00,128.00 C 512.00,57.308, 454.692,0.00, 384.00,0.00L 224.00,0.00 L 96.00,0.00 C 60.80,0.00, 32.00,28.80, 32.00,64.00 c0.00,13.154, 4.024,25.414, 10.90,35.612C 17.988,108.383,0.00,132.187,0.00,160.00C0.00,179.069, 8.463,196.249, 21.807,208.00z M 266.193,112.00 C 279.537,100.249, 288.00,83.069, 288.00,64.00c0.00-11.64-3.164-22.57-8.652-32.00L 384.00,32.00 c 52.935,0.00, 96.00,43.065, 96.00,96.00l0.00,128.00 c0.00,19.538-10.506,32.00-16.00,32.00 c-22.752,0.00-44.438,11.518-59.50,31.60C 391.28,337.227, 384.00,360.098, 384.00,384.00l0.00,64.00 c0.00,8.477-3.348,16.493-9.428,22.572 C 368.493,476.652, 360.477,480.00, 352.00,480.00s-16.493-3.348-22.572-9.428C 323.348,464.493, 320.00,456.477, 320.00,448.00l0.00-64.00 c0.00-36.127-20.068-67.642-49.635-84.021C 281.272,288.488, 288.00,272.996, 288.00,256.00c0.00-19.069-8.463-36.249-21.807-48.00 C 279.537,196.249, 288.00,179.069, 288.00,160.00S 279.537,123.751, 266.193,112.00z M 73.428,41.428C 79.507,35.348, 87.523,32.00, 96.00,32.00l 128.00,0.00 c 8.477,0.00, 16.493,3.348, 22.572,9.428C 252.652,47.507, 256.00,55.523, 256.00,64.00s-3.348,16.493-9.428,22.572C 240.493,92.652, 232.477,96.00, 224.00,96.00 L 96.00,96.00 c-8.477,0.00-16.493-3.348-22.572-9.428C 67.348,80.493, 64.00,72.477, 64.00,64.00S 67.348,47.507, 73.428,41.428z M 41.428,137.428 C 47.507,131.348, 55.523,128.00, 64.00,128.00l 32.00,0.00 l 128.00,0.00 c 8.477,0.00, 16.493,3.348, 22.572,9.428C 252.652,143.507, 256.00,151.523, 256.00,160.00 s-3.348,16.493-9.428,22.572C 240.493,188.652, 232.477,192.00, 224.00,192.00L 64.00,192.00 c-8.477,0.00-16.493-3.348-22.572-9.428 C 35.348,176.493, 32.00,168.477, 32.00,160.00S 35.348,143.507, 41.428,137.428z M 41.428,233.428C 47.507,227.348, 55.523,224.00, 64.00,224.00l 160.00,0.00 c 8.477,0.00, 16.493,3.348, 22.572,9.428C 252.652,239.507, 256.00,247.523, 256.00,256.00s-3.348,16.494-9.428,22.572 C 240.493,284.652, 232.477,288.00, 224.00,288.00L 64.00,288.00 c-8.477,0.00-16.493-3.348-22.572-9.428C 35.348,272.494, 32.00,264.477, 32.00,256.00 S 35.348,239.507, 41.428,233.428z" ></path></svg>