<?xml version="1.0" encoding="utf-8"?> <!-- Generator: IcoMoon.io --> <!DOCTYPE svg PUBLIC "-//W3C//DTD SVG 1.1//EN" "http://www.w3.org/Graphics/SVG/1.1/DTD/svg11.dtd"> <svg width="512" height="512" viewBox="0 0 512 512" xmlns="http://www.w3.org/2000/svg" xmlns:xlink="http://www.w3.org/1999/xlink" fill="#000000"><g class="svgGrid" id="svgGrid"><line stroke-width="1" stroke="#B35047" x1="32" x2="32" y1="0" y2="512"></line><line stroke-width="1" stroke="#B35047" x1="64" x2="64" y1="0" y2="512"></line><line stroke-width="1" stroke="#B35047" x1="96" x2="96" y1="0" y2="512"></line><line stroke-width="1" stroke="#B35047" x1="128" x2="128" y1="0" y2="512"></line><line stroke-width="1" stroke="#B35047" x1="160" x2="160" y1="0" y2="512"></line><line stroke-width="1" stroke="#B35047" x1="192" x2="192" y1="0" y2="512"></line><line stroke-width="1" stroke="#B35047" x1="224" x2="224" y1="0" y2="512"></line><line stroke-width="1" stroke="#B35047" x1="256" x2="256" y1="0" y2="512"></line><line stroke-width="1" stroke="#B35047" x1="288" x2="288" y1="0" y2="512"></line><line stroke-width="1" stroke="#B35047" x1="320" x2="320" y1="0" y2="512"></line><line stroke-width="1" stroke="#B35047" x1="352" x2="352" y1="0" y2="512"></line><line stroke-width="1" stroke="#B35047" x1="384" x2="384" y1="0" y2="512"></line><line stroke-width="1" stroke="#B35047" x1="416" x2="416" y1="0" y2="512"></line><line stroke-width="1" stroke="#B35047" x1="448" x2="448" y1="0" y2="512"></line><line stroke-width="1" stroke="#B35047" x1="480" x2="480" y1="0" y2="512"></line><line stroke-width="1" stroke="#B35047" x1="0" x2="512" y1="32" y2="32"></line><line stroke-width="1" stroke="#B35047" x1="0" x2="512" y1="64" y2="64"></line><line stroke-width="1" stroke="#B35047" x1="0" x2="512" y1="96" y2="96"></line><line stroke-width="1" stroke="#B35047" x1="0" x2="512" y1="128" y2="128"></line><line stroke-width="1" stroke="#B35047" x1="0" x2="512" y1="160" y2="160"></line><line stroke-width="1" stroke="#B35047" x1="0" x2="512" y1="192" y2="192"></line><line stroke-width="1" stroke="#B35047" x1="0" x2="512" y1="224" y2="224"></line><line stroke-width="1" stroke="#B35047" x1="0" x2="512" y1="256" y2="256"></line><line stroke-width="1" stroke="#B35047" x1="0" x2="512" y1="288" y2="288"></line><line stroke-width="1" stroke="#B35047" x1="0" x2="512" y1="320" y2="320"></line><line stroke-width="1" stroke="#B35047" x1="0" x2="512" y1="352" y2="352"></line><line stroke-width="1" stroke="#B35047" x1="0" x2="512" y1="384" y2="384"></line><line stroke-width="1" stroke="#B35047" x1="0" x2="512" y1="416" y2="416"></line><line stroke-width="1" stroke="#B35047" x1="0" x2="512" y1="448" y2="448"></line><line stroke-width="1" stroke="#B35047" x1="0" x2="512" y1="480" y2="480"></line><rect x="0" y="0" width="512" height="512" fill="none" stroke-width="1" stroke="#B35047"></rect></g><path d="M 490.193,304.00C 503.537,292.249, 512.00,275.069, 512.00,256.00c0.00-35.20-28.80-64.00-64.00-64.00L 288.00,192.00 c-35.20,0.00-64.00-28.80-64.00-64.00L 224.00,64.00 c0.00-35.20-28.80-64.00-64.00-64.00 S 96.00,28.80, 96.00,64.00l0.00,64.00 c0.00,35.20-21.60,64.00-48.00,64.00S0.00,220.80,0.00,256.00l0.00,128.00 c0.00,70.692, 57.308,128.00, 128.00,128.00l 160.00,0.00 l 128.00,0.00 c 35.20,0.00, 64.00-28.80, 64.00-64.00 c0.00-13.154-4.024-25.414-10.90-35.612C 494.012,403.617, 512.00,379.813, 512.00,352.00C 512.00,332.931, 503.537,315.751, 490.193,304.00z M 245.807,400.00 C 232.463,411.751, 224.00,428.931, 224.00,448.00c0.00,11.64, 3.164,22.57, 8.653,32.00L 128.00,480.00 c-52.935,0.00-96.00-43.065-96.00-96.00L 32.00,256.00 c0.00-19.538, 10.506-32.00, 16.00-32.00 c 22.751,0.00, 44.438-11.518, 59.50-31.60c 13.22-17.626, 20.50-40.498, 20.50-64.40L 128.00,64.00 c0.00-8.477, 3.348-16.493, 9.427-22.573 C 143.507,35.348, 151.523,32.00, 160.00,32.00s 16.493,3.348, 22.573,9.427C 188.652,47.507, 192.00,55.523, 192.00,64.00l0.00,64.00 c0.00,36.127, 20.069,67.642, 49.635,84.021C 230.728,223.512, 224.00,239.004, 224.00,256.00c0.00,19.069, 8.463,36.249, 21.807,48.00 C 232.463,315.751, 224.00,332.931, 224.00,352.00S 232.463,388.249, 245.807,400.00z M 438.572,470.572C 432.493,476.652, 424.477,480.00, 416.00,480.00L 288.00,480.00 c-8.477,0.00-16.493-3.348-22.572-9.428C 259.348,464.493, 256.00,456.477, 256.00,448.00s 3.348-16.493, 9.428-22.572 C 271.507,419.348, 279.523,416.00, 288.00,416.00l 128.00,0.00 c 8.477,0.00, 16.493,3.348, 22.572,9.428C 444.652,431.507, 448.00,439.523, 448.00,448.00 S 444.652,464.493, 438.572,470.572z M 470.572,374.572C 464.493,380.652, 456.477,384.00, 448.00,384.00l-32.00,0.00 L 288.00,384.00 c-8.477,0.00-16.493-3.348-22.572-9.428C 259.348,368.493, 256.00,360.477, 256.00,352.00s 3.348-16.493, 9.428-22.572 C 271.507,323.348, 279.523,320.00, 288.00,320.00l 160.00,0.00 c 8.477,0.00, 16.493,3.348, 22.572,9.428C 476.652,335.507, 480.00,343.523, 480.00,352.00 S 476.652,368.493, 470.572,374.572z M 470.572,278.572C 464.493,284.652, 456.477,288.00, 448.00,288.00L 288.00,288.00 c-8.477,0.00-16.493-3.348-22.572-9.428 C 259.348,272.493, 256.00,264.477, 256.00,256.00c0.00-8.477, 3.348-16.494, 9.428-22.573C 271.507,227.348, 279.523,224.00, 288.00,224.00l 160.00,0.00 c 8.477,0.00, 16.493,3.348, 22.572,9.427C 476.652,239.506, 480.00,247.523, 480.00,256.00C 480.00,264.477, 476.652,272.493, 470.572,278.572z" ></path></svg>