<?xml version="1.0" encoding="utf-8"?> <!-- Generator: IcoMoon.io --> <!DOCTYPE svg PUBLIC "-//W3C//DTD SVG 1.1//EN" "http://www.w3.org/Graphics/SVG/1.1/DTD/svg11.dtd"> <svg width="512" height="512" viewBox="0 0 512 512" xmlns="http://www.w3.org/2000/svg" xmlns:xlink="http://www.w3.org/1999/xlink" fill="#000000"><g class="svgGrid" id="svgGrid"><line stroke-width="1" stroke="#B35047" x1="32" x2="32" y1="0" y2="512"></line><line stroke-width="1" stroke="#B35047" x1="64" x2="64" y1="0" y2="512"></line><line stroke-width="1" stroke="#B35047" x1="96" x2="96" y1="0" y2="512"></line><line stroke-width="1" stroke="#B35047" x1="128" x2="128" y1="0" y2="512"></line><line stroke-width="1" stroke="#B35047" x1="160" x2="160" y1="0" y2="512"></line><line stroke-width="1" stroke="#B35047" x1="192" x2="192" y1="0" y2="512"></line><line stroke-width="1" stroke="#B35047" x1="224" x2="224" y1="0" y2="512"></line><line stroke-width="1" stroke="#B35047" x1="256" x2="256" y1="0" y2="512"></line><line stroke-width="1" stroke="#B35047" x1="288" x2="288" y1="0" y2="512"></line><line stroke-width="1" stroke="#B35047" x1="320" x2="320" y1="0" y2="512"></line><line stroke-width="1" stroke="#B35047" x1="352" x2="352" y1="0" y2="512"></line><line stroke-width="1" stroke="#B35047" x1="384" x2="384" y1="0" y2="512"></line><line stroke-width="1" stroke="#B35047" x1="416" x2="416" y1="0" y2="512"></line><line stroke-width="1" stroke="#B35047" x1="448" x2="448" y1="0" y2="512"></line><line stroke-width="1" stroke="#B35047" x1="480" x2="480" y1="0" y2="512"></line><line stroke-width="1" stroke="#B35047" x1="0" x2="512" y1="32" y2="32"></line><line stroke-width="1" stroke="#B35047" x1="0" x2="512" y1="64" y2="64"></line><line stroke-width="1" stroke="#B35047" x1="0" x2="512" y1="96" y2="96"></line><line stroke-width="1" stroke="#B35047" x1="0" x2="512" y1="128" y2="128"></line><line stroke-width="1" stroke="#B35047" x1="0" x2="512" y1="160" y2="160"></line><line stroke-width="1" stroke="#B35047" x1="0" x2="512" y1="192" y2="192"></line><line stroke-width="1" stroke="#B35047" x1="0" x2="512" y1="224" y2="224"></line><line stroke-width="1" stroke="#B35047" x1="0" x2="512" y1="256" y2="256"></line><line stroke-width="1" stroke="#B35047" x1="0" x2="512" y1="288" y2="288"></line><line stroke-width="1" stroke="#B35047" x1="0" x2="512" y1="320" y2="320"></line><line stroke-width="1" stroke="#B35047" x1="0" x2="512" y1="352" y2="352"></line><line stroke-width="1" stroke="#B35047" x1="0" x2="512" y1="384" y2="384"></line><line stroke-width="1" stroke="#B35047" x1="0" x2="512" y1="416" y2="416"></line><line stroke-width="1" stroke="#B35047" x1="0" x2="512" y1="448" y2="448"></line><line stroke-width="1" stroke="#B35047" x1="0" x2="512" y1="480" y2="480"></line><rect x="0" y="0" width="512" height="512" fill="none" stroke-width="1" stroke="#B35047"></rect></g><path d="M 16.00,208.00c0.00,16.458 8.978,30.977 22.654,39.624C 34.432,254.77, 32.00,263.10, 32.00,272.00c0.00,26.51 21.49,48.00 48.00,48.00l 93.904,0.00 C 162.676,360.455, 157.00,402.296, 157.00,445.00c0.00,36.944 30.056,67.00 67.00,67.00c 36.943,0.00 67.00-30.056 67.00-67.00c0.00-51.986 19.361-91.975 57.545-118.855 c 10.50-7.392 22.371-13.743 35.455-19.033L 384.00,352.00 L 512.00,352.00 l0.00-320.00 l -128.00,0.00 l0.00,31.499 c -29.945-1.966, -44.484-9.461, -58.595-16.747 C 311.361,39.499, 296.839,32.00, 272.00,32.00l -80.00,0.00 l -80.00,0.00 c -26.51,0.00, -48.00,21.49, -48.00,48.00c0.00,6.249 1.207,12.213 3.38,17.688 C 46.995,103.231, 32.00,121.859, 32.00,144.00c0.00,8.90 2.432,17.23 6.654,24.376C 24.978,177.023, 16.00,191.542, 16.00,208.00z M 176.00,288.00l -96.00,0.00 c -8.822,0.00, -16.00-7.178, -16.00-16.00s 7.178-16.00 16.00-16.00l 96.00,0.00 c 8.822,0.00 16.00,7.178 16.00,16.00S 184.822,288.00, 176.00,288.00z M 233.455,184.688 C 246.992,176.201, 256.00,161.156, 256.00,144.00c0.00-17.00, -8.846-31.925, -22.177-40.453C 237.749,96.589, 240.00,88.56, 240.00,80.00 c0.00-5.611, -0.973-10.994, -2.742-16.00L 272.00,64.00 c 17.064,0.00 26.149,4.691 38.723,11.185c 15.874,8.196 35.193,18.16 73.277,20.364L 384.00,266.66 c -21.468,7.214, -40.714,16.715, -57.329,28.412C 278.475,329.00, 253.00,380.844, 253.00,445.00c0.00,15.991, -13.01,29.00, -29.00,29.00s -29.00-13.009, -29.00-29.00 c0.00-42.83 6.207-84.706 18.48-125.00c 3.33-12.37 6.47-24.614 8.438-33.995c 1.271-4.17 1.98-8.582 2.061-13.147 c 0.015-0.301 0.021-0.59 0.021-0.855c0.00-8.90, -2.432-17.229, -6.654-24.376C 231.021,238.977, 240.00,224.458, 240.00,208.00 C 240.00,199.538, 237.619,191.592, 233.455,184.688z M 112.00,64.00l 80.00,0.00 c 8.822,0.00 16.00,7.178 16.00,16.00s -7.178,16.00, -16.00,16.00l -80.00,0.00 c -8.822,0.00, -16.00-7.178, -16.00-16.00 S 103.178,64.00, 112.00,64.00z M 80.00,128.00L 208.00,128.00 c 8.822,0.00 16.00,7.178 16.00,16.00s -7.178,16.00, -16.00,16.00l -128.00,0.00 c -8.822,0.00, -16.00-7.178, -16.00-16.00S 71.178,128.00, 80.00,128.00z M 68.00,192.00L 188.00,192.00 c 10.841,0.00 20.00,7.327 20.00,16.00s -9.159,16.00, -20.00,16.00l -120.00,0.00 c -10.841,0.00, -20.00-7.327, -20.00-16.00S 57.159,192.00, 68.00,192.00z M 448.00,80.00 c0.00-8.837 7.164-16.00 16.00-16.00s 16.00,7.163 16.00,16.00s -7.164,16.00, -16.00,16.00S 448.00,88.837, 448.00,80.00z" ></path></svg>