<?xml version="1.0" encoding="utf-8"?> <!-- Generator: IcoMoon.io --> <!DOCTYPE svg PUBLIC "-//W3C//DTD SVG 1.1//EN" "http://www.w3.org/Graphics/SVG/1.1/DTD/svg11.dtd"> <svg width="512" height="512" viewBox="0 0 512 512" xmlns="http://www.w3.org/2000/svg" xmlns:xlink="http://www.w3.org/1999/xlink" fill="#000000"><g class="svgGrid" id="svgGrid"><line stroke-width="1" stroke="#B35047" x1="32" x2="32" y1="0" y2="512"></line><line stroke-width="1" stroke="#B35047" x1="64" x2="64" y1="0" y2="512"></line><line stroke-width="1" stroke="#B35047" x1="96" x2="96" y1="0" y2="512"></line><line stroke-width="1" stroke="#B35047" x1="128" x2="128" y1="0" y2="512"></line><line stroke-width="1" stroke="#B35047" x1="160" x2="160" y1="0" y2="512"></line><line stroke-width="1" stroke="#B35047" x1="192" x2="192" y1="0" y2="512"></line><line stroke-width="1" stroke="#B35047" x1="224" x2="224" y1="0" y2="512"></line><line stroke-width="1" stroke="#B35047" x1="256" x2="256" y1="0" y2="512"></line><line stroke-width="1" stroke="#B35047" x1="288" x2="288" y1="0" y2="512"></line><line stroke-width="1" stroke="#B35047" x1="320" x2="320" y1="0" y2="512"></line><line stroke-width="1" stroke="#B35047" x1="352" x2="352" y1="0" y2="512"></line><line stroke-width="1" stroke="#B35047" x1="384" x2="384" y1="0" y2="512"></line><line stroke-width="1" stroke="#B35047" x1="416" x2="416" y1="0" y2="512"></line><line stroke-width="1" stroke="#B35047" x1="448" x2="448" y1="0" y2="512"></line><line stroke-width="1" stroke="#B35047" x1="480" x2="480" y1="0" y2="512"></line><line stroke-width="1" stroke="#B35047" x1="0" x2="512" y1="32" y2="32"></line><line stroke-width="1" stroke="#B35047" x1="0" x2="512" y1="64" y2="64"></line><line stroke-width="1" stroke="#B35047" x1="0" x2="512" y1="96" y2="96"></line><line stroke-width="1" stroke="#B35047" x1="0" x2="512" y1="128" y2="128"></line><line stroke-width="1" stroke="#B35047" x1="0" x2="512" y1="160" y2="160"></line><line stroke-width="1" stroke="#B35047" x1="0" x2="512" y1="192" y2="192"></line><line stroke-width="1" stroke="#B35047" x1="0" x2="512" y1="224" y2="224"></line><line stroke-width="1" stroke="#B35047" x1="0" x2="512" y1="256" y2="256"></line><line stroke-width="1" stroke="#B35047" x1="0" x2="512" y1="288" y2="288"></line><line stroke-width="1" stroke="#B35047" x1="0" x2="512" y1="320" y2="320"></line><line stroke-width="1" stroke="#B35047" x1="0" x2="512" y1="352" y2="352"></line><line stroke-width="1" stroke="#B35047" x1="0" x2="512" y1="384" y2="384"></line><line stroke-width="1" stroke="#B35047" x1="0" x2="512" y1="416" y2="416"></line><line stroke-width="1" stroke="#B35047" x1="0" x2="512" y1="448" y2="448"></line><line stroke-width="1" stroke="#B35047" x1="0" x2="512" y1="480" y2="480"></line><rect x="0" y="0" width="512" height="512" fill="none" stroke-width="1" stroke="#B35047"></rect></g><path d="M 256.00,288.00c 70.692,0.00, 128.00-57.308, 128.00-128.00S 326.692,32.00, 256.00,32.00S 128.00,89.308, 128.00,160.00S 185.308,288.00, 256.00,288.00z M 160.00,160.00 c0.00-1.34, 0.035-2.673, 0.09-4.00l 191.82,0.00 c 0.055,1.327, 0.09,2.66, 0.09,4.00s-0.035,2.673-0.09,4.00L 160.09,164.00 C 160.035,162.673, 160.00,161.34, 160.00,160.00z M 188.303,92.00l 135.395,0.00 c 2.54,2.529, 4.937,5.202, 7.184,8.00L 181.12,100.00 C 183.366,97.202, 185.762,94.529, 188.303,92.00z M 197.421,84.00 c 3.831-2.96, 7.891-5.637, 12.149-8.00l 92.859,0.00 c 4.258,2.363, 8.318,5.04, 12.149,8.00L 197.421,84.00 z M 336.661,108.00c 1.672,2.584, 3.223,5.253, 4.645,8.00 L 170.694,116.00 c 1.422-2.747, 2.973-5.416, 4.645-8.00L 336.661,108.00 z M 344.989,124.00c 1.061,2.612, 2.011,5.28, 2.842,8.00L 164.169,132.00 c 0.831-2.72, 1.781-5.388, 2.841-8.00L 344.989,124.00 z M 349.898,140.00c 0.56,2.629, 1.015,5.297, 1.353,8.00L 160.749,148.00 c 0.339-2.703, 0.793-5.371, 1.353-8.00 L 349.898,140.00 z M 351.251,172.00c-0.338,2.703-0.793,5.371-1.353,8.00L 162.102,180.00 c-0.56-2.629-1.014-5.297-1.353-8.00L 351.251,172.00 z M 347.831,188.00 c-0.831,2.72-1.781,5.388-2.842,8.00L 167.011,196.00 c-1.061-2.612-2.01-5.28-2.841-8.00L 347.831,188.00 z M 341.306,204.00c-1.422,2.747-2.973,5.416-4.645,8.00 L 175.339,212.00 c-1.672-2.584-3.223-5.253-4.645-8.00L 341.306,204.00 z M 323.697,228.00L 188.303,228.00 c-2.541-2.529-4.937-5.202-7.183-8.00l 149.761,0.00 C 328.634,222.798, 326.237,225.471, 323.697,228.00z M 314.579,236.00c-3.831,2.96-7.892,5.637-12.149,8.00L 209.57,244.00 c-4.258-2.363-8.318-5.04-12.149-8.00L 314.579,236.00 z M 228.568,252.00l 54.863,0.00 c-8.695,2.598-17.902,4.00-27.432,4.00S 237.264,254.598, 228.568,252.00z M 283.432,68.00l-54.863,0.00 c 8.696-2.598, 17.902-4.00, 27.432-4.00S 274.736,65.402, 283.432,68.00zM 384.00,320.00L 128.00,320.00 C 57.308,320.00,0.00,377.309,0.00,448.00l0.00,32.00 l 4.033,0.00 l 503.934,0.00 L 512.00,480.00 l0.00-32.00 C 512.00,377.309, 454.692,320.00, 384.00,320.00z M 60.303,380.00l 391.395,0.00 c 2.54,2.529, 4.937,5.202, 7.184,8.00L 53.12,388.00 C 55.366,385.202, 57.762,382.529, 60.303,380.00z M 69.421,372.00c 3.831-2.96, 7.891-5.637, 12.149-8.00 L 430.43,364.00 c 4.258,2.363, 8.318,5.04, 12.149,8.00L 69.421,372.00 z M 464.661,396.00c 1.672,2.584, 3.223,5.254, 4.645,8.00L 42.694,404.00 c 1.422-2.746, 2.973-5.416, 4.645-8.00L 464.661,396.00 z M 472.989,412.00c 1.061,2.612, 2.011,5.28, 2.842,8.00L 36.169,420.00 c 0.831-2.72, 1.781-5.388, 2.841-8.00 L 472.989,412.00 z M 477.898,428.00c 0.56,2.629, 1.015,5.297, 1.353,8.00L 32.749,436.00 c 0.339-2.703, 0.793-5.371, 1.353-8.00L 477.898,428.00 z M 384.00,352.00 c 9.529,0.00, 18.736,1.402, 27.432,4.00L 100.568,356.00 c 8.696-2.598, 17.902-4.00, 27.432-4.00L 384.00,352.00 z M 32.00,448.00c0.00-1.341, 0.035-2.673, 0.09-4.00l 447.82,0.00 c 0.055,1.327, 0.09,2.659, 0.09,4.00L 32.00,448.00 z" ></path></svg>