<?xml version="1.0" encoding="utf-8"?> <!-- Generator: IcoMoon.io --> <!DOCTYPE svg PUBLIC "-//W3C//DTD SVG 1.1//EN" "http://www.w3.org/Graphics/SVG/1.1/DTD/svg11.dtd"> <svg width="512" height="512" viewBox="0 0 512 512" xmlns="http://www.w3.org/2000/svg" xmlns:xlink="http://www.w3.org/1999/xlink" fill="#000000"><g class="svgGrid" id="svgGrid"><line stroke-width="1" stroke="#B35047" x1="32" x2="32" y1="0" y2="512"></line><line stroke-width="1" stroke="#B35047" x1="64" x2="64" y1="0" y2="512"></line><line stroke-width="1" stroke="#B35047" x1="96" x2="96" y1="0" y2="512"></line><line stroke-width="1" stroke="#B35047" x1="128" x2="128" y1="0" y2="512"></line><line stroke-width="1" stroke="#B35047" x1="160" x2="160" y1="0" y2="512"></line><line stroke-width="1" stroke="#B35047" x1="192" x2="192" y1="0" y2="512"></line><line stroke-width="1" stroke="#B35047" x1="224" x2="224" y1="0" y2="512"></line><line stroke-width="1" stroke="#B35047" x1="256" x2="256" y1="0" y2="512"></line><line stroke-width="1" stroke="#B35047" x1="288" x2="288" y1="0" y2="512"></line><line stroke-width="1" stroke="#B35047" x1="320" x2="320" y1="0" y2="512"></line><line stroke-width="1" stroke="#B35047" x1="352" x2="352" y1="0" y2="512"></line><line stroke-width="1" stroke="#B35047" x1="384" x2="384" y1="0" y2="512"></line><line stroke-width="1" stroke="#B35047" x1="416" x2="416" y1="0" y2="512"></line><line stroke-width="1" stroke="#B35047" x1="448" x2="448" y1="0" y2="512"></line><line stroke-width="1" stroke="#B35047" x1="480" x2="480" y1="0" y2="512"></line><line stroke-width="1" stroke="#B35047" x1="0" x2="512" y1="32" y2="32"></line><line stroke-width="1" stroke="#B35047" x1="0" x2="512" y1="64" y2="64"></line><line stroke-width="1" stroke="#B35047" x1="0" x2="512" y1="96" y2="96"></line><line stroke-width="1" stroke="#B35047" x1="0" x2="512" y1="128" y2="128"></line><line stroke-width="1" stroke="#B35047" x1="0" x2="512" y1="160" y2="160"></line><line stroke-width="1" stroke="#B35047" x1="0" x2="512" y1="192" y2="192"></line><line stroke-width="1" stroke="#B35047" x1="0" x2="512" y1="224" y2="224"></line><line stroke-width="1" stroke="#B35047" x1="0" x2="512" y1="256" y2="256"></line><line stroke-width="1" stroke="#B35047" x1="0" x2="512" y1="288" y2="288"></line><line stroke-width="1" stroke="#B35047" x1="0" x2="512" y1="320" y2="320"></line><line stroke-width="1" stroke="#B35047" x1="0" x2="512" y1="352" y2="352"></line><line stroke-width="1" stroke="#B35047" x1="0" x2="512" y1="384" y2="384"></line><line stroke-width="1" stroke="#B35047" x1="0" x2="512" y1="416" y2="416"></line><line stroke-width="1" stroke="#B35047" x1="0" x2="512" y1="448" y2="448"></line><line stroke-width="1" stroke="#B35047" x1="0" x2="512" y1="480" y2="480"></line><rect x="0" y="0" width="512" height="512" fill="none" stroke-width="1" stroke="#B35047"></rect></g><path d="M 206.92,464.00L 51.037,464.00 c 4.614-19.67, 14.259-41.192, 27.38-60.255c 20.728-30.113, 46.589-49.811, 72.82-55.463 c 11.053-2.382, 18.944-12.155, 18.944-23.462l0.00-17.146 c0.00-8.63-4.633-16.595-12.134-20.861c-29.74-16.917-48.957-54.133-48.957-94.813 c0.00-57.346, 37.193-104.00, 82.909-104.00c 45.717,0.00, 82.909,46.654, 82.909,104.00c0.00,4.599-0.258,9.15-0.737,13.636 c 15.016-8.696, 31.351-15.361, 48.629-19.638c-1.249-37.569-14.193-72.845-36.784-99.893C 261.184,56.374, 227.795,40.00, 192.00,40.00 s-69.184,16.374-94.017,46.105C 74.193,114.589, 61.091,152.197, 61.091,192.00c0.00,28.64, 6.872,56.533, 19.873,80.664 c 8.107,15.048, 18.355,28.238, 30.254,39.061c-26.997,12.995-51.993,35.246-72.339,64.805C 14.534,411.898,0.00,453.569,0.00,488.00 c0.00,13.255, 10.745,24.00, 24.00,24.00l 223.923,0.00 C 231.704,498.46, 217.81,482.232, 206.92,464.00zM 368.00,224.00c-79.529,0.00-144.00,64.471-144.00,144.00s 64.471,144.00, 144.00,144.00s 144.00-64.471, 144.00-144.00S 447.529,224.00, 368.00,224.00z M 428.273,280.856 L 368.00,341.13l-60.273-60.273C 324.852,268.975, 345.625,262.00, 368.00,262.00S 411.148,268.975, 428.273,280.856z M 262.00,368.00 c0.00-22.375, 6.975-43.148, 18.856-60.273L 341.13,368.00l-60.273,60.273C 268.975,411.148, 262.00,390.375, 262.00,368.00z M 307.727,455.144L 368.00,394.87 l 60.273,60.273C 411.148,467.025, 390.375,474.00, 368.00,474.00S 324.852,467.025, 307.727,455.144z M 455.144,428.273L 394.87,368.00l 60.273-60.273 C 467.025,324.852, 474.00,345.625, 474.00,368.00S 467.025,411.148, 455.144,428.273z" ></path></svg>