<?xml version="1.0" encoding="utf-8"?> <!-- Generator: IcoMoon.io --> <!DOCTYPE svg PUBLIC "-//W3C//DTD SVG 1.1//EN" "http://www.w3.org/Graphics/SVG/1.1/DTD/svg11.dtd"> <svg width="544" height="512" viewBox="0 0 544 512" xmlns="http://www.w3.org/2000/svg" xmlns:xlink="http://www.w3.org/1999/xlink" fill="#000000"><g class="svgGrid" id="svgGrid"><line stroke-width="1" stroke="#B35047" x1="32" x2="32" y1="0" y2="512"></line><line stroke-width="1" stroke="#B35047" x1="64" x2="64" y1="0" y2="512"></line><line stroke-width="1" stroke="#B35047" x1="96" x2="96" y1="0" y2="512"></line><line stroke-width="1" stroke="#B35047" x1="128" x2="128" y1="0" y2="512"></line><line stroke-width="1" stroke="#B35047" x1="160" x2="160" y1="0" y2="512"></line><line stroke-width="1" stroke="#B35047" x1="192" x2="192" y1="0" y2="512"></line><line stroke-width="1" stroke="#B35047" x1="224" x2="224" y1="0" y2="512"></line><line stroke-width="1" stroke="#B35047" x1="256" x2="256" y1="0" y2="512"></line><line stroke-width="1" stroke="#B35047" x1="288" x2="288" y1="0" y2="512"></line><line stroke-width="1" stroke="#B35047" x1="320" x2="320" y1="0" y2="512"></line><line stroke-width="1" stroke="#B35047" x1="352" x2="352" y1="0" y2="512"></line><line stroke-width="1" stroke="#B35047" x1="384" x2="384" y1="0" y2="512"></line><line stroke-width="1" stroke="#B35047" x1="416" x2="416" y1="0" y2="512"></line><line stroke-width="1" stroke="#B35047" x1="448" x2="448" y1="0" y2="512"></line><line stroke-width="1" stroke="#B35047" x1="480" x2="480" y1="0" y2="512"></line><line stroke-width="1" stroke="#B35047" x1="0" x2="512" y1="32" y2="32"></line><line stroke-width="1" stroke="#B35047" x1="0" x2="512" y1="64" y2="64"></line><line stroke-width="1" stroke="#B35047" x1="0" x2="512" y1="96" y2="96"></line><line stroke-width="1" stroke="#B35047" x1="0" x2="512" y1="128" y2="128"></line><line stroke-width="1" stroke="#B35047" x1="0" x2="512" y1="160" y2="160"></line><line stroke-width="1" stroke="#B35047" x1="0" x2="512" y1="192" y2="192"></line><line stroke-width="1" stroke="#B35047" x1="0" x2="512" y1="224" y2="224"></line><line stroke-width="1" stroke="#B35047" x1="0" x2="512" y1="256" y2="256"></line><line stroke-width="1" stroke="#B35047" x1="0" x2="512" y1="288" y2="288"></line><line stroke-width="1" stroke="#B35047" x1="0" x2="512" y1="320" y2="320"></line><line stroke-width="1" stroke="#B35047" x1="0" x2="512" y1="352" y2="352"></line><line stroke-width="1" stroke="#B35047" x1="0" x2="512" y1="384" y2="384"></line><line stroke-width="1" stroke="#B35047" x1="0" x2="512" y1="416" y2="416"></line><line stroke-width="1" stroke="#B35047" x1="0" x2="512" y1="448" y2="448"></line><line stroke-width="1" stroke="#B35047" x1="0" x2="512" y1="480" y2="480"></line><rect x="0" y="0" width="512" height="512" fill="none" stroke-width="1" stroke="#B35047"></rect></g><path d="M 400.00,224.00c-79.529,0.00-144.00,64.471-144.00,144.00s 64.471,144.00, 144.00,144.00s 144.00-64.471, 144.00-144.00S 479.529,224.00, 400.00,224.00z M 480.00,314.869 L 426.869,368.00L 480.00,421.131L 480.00,448.00 l-26.869,0.00 L 400.00,394.869L 346.869,448.00L 320.00,448.00 l0.00-26.869 L 373.131,368.00L 320.00,314.869L 320.00,288.00 l 26.869,0.00 L 400.00,341.131 L 453.131,288.00L 480.00,288.00 L 480.00,314.869 zM 218.00,368.00 C 218.00,396.688 224.681,423.841 236.555,448.00 L 192.00,448.00 L 0.00,448.00 L 0.00,390.743 C 41.682,352.17 112.118,323.262 136.586,319.368 C 147.641,317.609 147.893,287.211 147.893,287.211 C 147.893,287.211 115.408,255.053 108.329,211.81 C 89.283,211.81 77.521,165.837 96.568,149.662 C 95.775,132.635 72.089,16.00 192.00,16.00 C 311.911,16.00 288.227,132.635 287.43,149.662 C 306.478,165.837 294.714,211.81 275.669,211.81 C 273.538,224.827 269.098,236.827 263.942,247.261 C 253.726,258.761 244.935,271.551 237.865,285.366 C 236.756,286.563 236.105,287.211 236.105,287.211 C 236.105,287.211 236.11,287.808 236.148,288.815 C 224.526,312.77 218.00,339.636 218.00,368.00 Z" ></path></svg>