<?xml version="1.0" encoding="utf-8"?> <!-- Generator: IcoMoon.io --> <!DOCTYPE svg PUBLIC "-//W3C//DTD SVG 1.1//EN" "http://www.w3.org/Graphics/SVG/1.1/DTD/svg11.dtd"> <svg width="512" height="512" viewBox="0 0 512 512" xmlns="http://www.w3.org/2000/svg" xmlns:xlink="http://www.w3.org/1999/xlink" fill="#000000"><g class="svgGrid" id="svgGrid"><line stroke-width="1" stroke="#B35047" x1="32" x2="32" y1="0" y2="512"></line><line stroke-width="1" stroke="#B35047" x1="64" x2="64" y1="0" y2="512"></line><line stroke-width="1" stroke="#B35047" x1="96" x2="96" y1="0" y2="512"></line><line stroke-width="1" stroke="#B35047" x1="128" x2="128" y1="0" y2="512"></line><line stroke-width="1" stroke="#B35047" x1="160" x2="160" y1="0" y2="512"></line><line stroke-width="1" stroke="#B35047" x1="192" x2="192" y1="0" y2="512"></line><line stroke-width="1" stroke="#B35047" x1="224" x2="224" y1="0" y2="512"></line><line stroke-width="1" stroke="#B35047" x1="256" x2="256" y1="0" y2="512"></line><line stroke-width="1" stroke="#B35047" x1="288" x2="288" y1="0" y2="512"></line><line stroke-width="1" stroke="#B35047" x1="320" x2="320" y1="0" y2="512"></line><line stroke-width="1" stroke="#B35047" x1="352" x2="352" y1="0" y2="512"></line><line stroke-width="1" stroke="#B35047" x1="384" x2="384" y1="0" y2="512"></line><line stroke-width="1" stroke="#B35047" x1="416" x2="416" y1="0" y2="512"></line><line stroke-width="1" stroke="#B35047" x1="448" x2="448" y1="0" y2="512"></line><line stroke-width="1" stroke="#B35047" x1="480" x2="480" y1="0" y2="512"></line><line stroke-width="1" stroke="#B35047" x1="0" x2="512" y1="32" y2="32"></line><line stroke-width="1" stroke="#B35047" x1="0" x2="512" y1="64" y2="64"></line><line stroke-width="1" stroke="#B35047" x1="0" x2="512" y1="96" y2="96"></line><line stroke-width="1" stroke="#B35047" x1="0" x2="512" y1="128" y2="128"></line><line stroke-width="1" stroke="#B35047" x1="0" x2="512" y1="160" y2="160"></line><line stroke-width="1" stroke="#B35047" x1="0" x2="512" y1="192" y2="192"></line><line stroke-width="1" stroke="#B35047" x1="0" x2="512" y1="224" y2="224"></line><line stroke-width="1" stroke="#B35047" x1="0" x2="512" y1="256" y2="256"></line><line stroke-width="1" stroke="#B35047" x1="0" x2="512" y1="288" y2="288"></line><line stroke-width="1" stroke="#B35047" x1="0" x2="512" y1="320" y2="320"></line><line stroke-width="1" stroke="#B35047" x1="0" x2="512" y1="352" y2="352"></line><line stroke-width="1" stroke="#B35047" x1="0" x2="512" y1="384" y2="384"></line><line stroke-width="1" stroke="#B35047" x1="0" x2="512" y1="416" y2="416"></line><line stroke-width="1" stroke="#B35047" x1="0" x2="512" y1="448" y2="448"></line><line stroke-width="1" stroke="#B35047" x1="0" x2="512" y1="480" y2="480"></line><rect x="0" y="0" width="512" height="512" fill="none" stroke-width="1" stroke="#B35047"></rect></g><path d="M 152.983,292.00c-0.493,2.762-1.188,5.575-2.164,8.00l 49.679,0.00 c-0.688-2.631-1.245-5.306-1.662-8.00L 152.983,292.00 zM 9.399,388.00c-1.724,2.638-3.245,5.306-4.529,8.00l 194.986,0.00 c 5.639-2.821, 11.325-5.508, 16.946-8.00L 9.399,388.00 zM 41.145,356.00c-3.452,2.599-6.777,5.269-9.945,8.00l 202.902,0.00 c-1.456-2.549-2.89-5.219-4.28-8.00L 41.145,356.00 zM 138.285,308.00c-6.406,1.61-14.68,4.332-24.004,8.00l 92.448,0.00 c-1.359-2.521-2.583-5.191-3.661-8.00L 138.285,308.00 zM 65.208,340.00c-4.316,2.558-8.585,5.228-12.75,8.00l 173.643,0.00 c-1.117-2.591-2.186-5.255-3.182-8.00L 65.208,340.00 zM 1.796,404.00c-0.776,2.649-1.306,5.317-1.575,8.00l 170.856,0.00 c 0.318-0.198, 0.628-0.396, 0.949-0.595 c 4.079-2.511, 8.32-4.987, 12.661-7.405L 1.796,404.00 zM 15.32,380.00l 221.067,0.00 c 2.17-0.808, 4.317-1.587, 6.409-2.307c-1.259-1.793-2.542-3.699-3.829-5.693L 22.579,372.00 C 19.977,374.621, 17.554,377.292, 15.32,380.00zM 124.279,76.00l 135.453,0.00 c-2.175-2.818-4.63-5.498-7.394-8.00L 131.669,68.00 C 128.905,70.502, 126.454,73.183, 124.279,76.00zM 108.402,124.00l 154.566,0.00 c 3.915-1.792, 8.00-3.374, 12.259-4.734c-0.104-1.083-0.226-2.172-0.362-3.266L 109.134,116.00 C 108.798,118.704, 108.56,121.377, 108.402,124.00zM 79.513,332.00L 219.26,332.00 c-2.667-2.341-5.145-5.021-7.404-8.00L 95.662,324.00 C 90.377,326.455, 84.958,329.127, 79.513,332.00zM 133.849,252.00l 70.037,0.00 c 0.404-0.855, 0.826-1.697, 1.269-2.525c-0.159-1.705-0.313-3.543-0.453-5.475l-75.065,0.00 C 130.987,246.799, 132.404,249.47, 133.849,252.00zM 112.354,212.00c 2.376,2.069, 5.055,3.283, 7.928,3.283c 0.263,1.593, 0.581,3.161, 0.921,4.717l 83.138,0.00 c 0.127-2.611, 0.314-5.279, 0.581-8.00L 112.354,212.00 zM 108.801,148.00c 0.248,3.018, 0.528,5.713, 0.775,8.00l 114.753,0.00 c 1.916-2.729, 4.008-5.40, 6.284-8.00L 108.801,148.00 zM 108.141,132.00c-0.014,2.779, 0.048,5.453, 0.156,8.00l 130.18,0.00 c 3.217-2.898, 6.626-5.564, 10.224-8.00L 108.141,132.00 zM 112.378,100.00c-0.776,2.656-1.424,5.33-1.958,8.00l 163.155,0.00 c-0.534-2.67-1.182-5.344-1.958-8.00L 112.378,100.00 zM 119.006,84.00c-1.456,2.603-2.729,5.278-3.839,8.00l 153.67,0.00 c-1.109-2.722-2.381-5.397-3.836-8.00L 119.006,84.00 zM 198.009,276.00l-46.956,0.00 c 1.94,2.176, 3.142,3.359, 3.142,3.359s-0.018,1.878-0.225,4.641l 44.044,0.00 C 197.873,281.315, 197.868,278.64, 198.009,276.00zM 163.364,52.00c-7.931,1.915-14.756,4.643-20.622,8.00l 98.528,0.00 c-5.857-3.354-12.666-6.085-20.583-8.00L 163.364,52.00 zM 138.783,260.00c 1.968,2.971, 3.896,5.648, 5.69,8.00l 54.435,0.00 c 0.471-2.743, 1.096-5.417, 1.889-8.00L 138.783,260.00 zM 204.128,228.00l-80.822,0.00 c 0.846,2.745, 1.796,5.413, 2.82,8.00l 78.136,0.00 C 204.169,233.445, 204.117,230.776, 204.128,228.00zM 103.475,196.00c 0.755,2.85, 1.761,5.56, 2.979,8.00l 99.473,0.00 c 0.403-2.643, 0.885-5.312, 1.459-8.00L 103.475,196.00 zM 108.591,164.00c-2.11,2.245-3.676,4.977-4.76,8.00l 111.377,0.00 c 1.226-2.693, 2.57-5.365, 4.062-8.00L 108.591,164.00 zM 102.089,180.00c-0.256,2.622-0.25,5.319-0.014,8.00l 107.282,0.00 c 0.754-2.668, 1.621-5.338, 2.585-8.00L 102.089,180.00 zM 367.497,402.687c-9.476-1.494-9.692-27.327-9.692-27.327s 27.844-27.328, 33.912-64.076 c 16.326,0.00, 26.407-39.069, 10.082-52.814c 0.681-14.47, 20.984-113.588-81.799-113.588c-102.782,0.00-82.479,99.118-81.799,113.588 c-16.327,13.745-6.244,52.814, 10.081,52.814c 6.067,36.748, 33.913,64.076, 33.913,64.076s-0.216,25.833-9.692,27.327 C 241.979,407.503, 128.00,457.345, 128.00,512.00l 192.00,0.00 l 192.00,0.00 C 512.00,457.345, 398.021,407.503, 367.497,402.687z" ></path></svg>