<?xml version="1.0" encoding="utf-8"?> <!-- Generator: IcoMoon.io --> <!DOCTYPE svg PUBLIC "-//W3C//DTD SVG 1.1//EN" "http://www.w3.org/Graphics/SVG/1.1/DTD/svg11.dtd"> <svg width="512" height="512" viewBox="0 0 512 512" xmlns="http://www.w3.org/2000/svg" xmlns:xlink="http://www.w3.org/1999/xlink" fill="#000000"><g class="svgGrid" id="svgGrid"><line stroke-width="1" stroke="#B35047" x1="32" x2="32" y1="0" y2="512"></line><line stroke-width="1" stroke="#B35047" x1="64" x2="64" y1="0" y2="512"></line><line stroke-width="1" stroke="#B35047" x1="96" x2="96" y1="0" y2="512"></line><line stroke-width="1" stroke="#B35047" x1="128" x2="128" y1="0" y2="512"></line><line stroke-width="1" stroke="#B35047" x1="160" x2="160" y1="0" y2="512"></line><line stroke-width="1" stroke="#B35047" x1="192" x2="192" y1="0" y2="512"></line><line stroke-width="1" stroke="#B35047" x1="224" x2="224" y1="0" y2="512"></line><line stroke-width="1" stroke="#B35047" x1="256" x2="256" y1="0" y2="512"></line><line stroke-width="1" stroke="#B35047" x1="288" x2="288" y1="0" y2="512"></line><line stroke-width="1" stroke="#B35047" x1="320" x2="320" y1="0" y2="512"></line><line stroke-width="1" stroke="#B35047" x1="352" x2="352" y1="0" y2="512"></line><line stroke-width="1" stroke="#B35047" x1="384" x2="384" y1="0" y2="512"></line><line stroke-width="1" stroke="#B35047" x1="416" x2="416" y1="0" y2="512"></line><line stroke-width="1" stroke="#B35047" x1="448" x2="448" y1="0" y2="512"></line><line stroke-width="1" stroke="#B35047" x1="480" x2="480" y1="0" y2="512"></line><line stroke-width="1" stroke="#B35047" x1="0" x2="512" y1="32" y2="32"></line><line stroke-width="1" stroke="#B35047" x1="0" x2="512" y1="64" y2="64"></line><line stroke-width="1" stroke="#B35047" x1="0" x2="512" y1="96" y2="96"></line><line stroke-width="1" stroke="#B35047" x1="0" x2="512" y1="128" y2="128"></line><line stroke-width="1" stroke="#B35047" x1="0" x2="512" y1="160" y2="160"></line><line stroke-width="1" stroke="#B35047" x1="0" x2="512" y1="192" y2="192"></line><line stroke-width="1" stroke="#B35047" x1="0" x2="512" y1="224" y2="224"></line><line stroke-width="1" stroke="#B35047" x1="0" x2="512" y1="256" y2="256"></line><line stroke-width="1" stroke="#B35047" x1="0" x2="512" y1="288" y2="288"></line><line stroke-width="1" stroke="#B35047" x1="0" x2="512" y1="320" y2="320"></line><line stroke-width="1" stroke="#B35047" x1="0" x2="512" y1="352" y2="352"></line><line stroke-width="1" stroke="#B35047" x1="0" x2="512" y1="384" y2="384"></line><line stroke-width="1" stroke="#B35047" x1="0" x2="512" y1="416" y2="416"></line><line stroke-width="1" stroke="#B35047" x1="0" x2="512" y1="448" y2="448"></line><line stroke-width="1" stroke="#B35047" x1="0" x2="512" y1="480" y2="480"></line><rect x="0" y="0" width="512" height="512" fill="none" stroke-width="1" stroke="#B35047"></rect></g><path d="M 445.502,148.031 C 483.66,157.321 512.00,191.727 512.00,232.771 C 512.00,280.889 473.065,319.902 424.996,319.994 L 424.996,320.00 L 96.865,320.00 C 43.367,320.00 0.00,276.607 0.00,223.076 C 0.00,169.548 43.367,126.154 96.867,126.155 C 102.768,126.155 108.541,126.712 114.151,127.724 C 113.709,124.627 113.469,121.465 113.469,118.247 C 113.469,81.324 143.385,51.386 180.29,51.386 C 201.799,51.386 220.923,61.567 233.144,77.366 C 254.938,49.747 288.675,32.00 326.571,32.00 C 391.273,32.00 443.881,83.681 445.502,148.031 ZM 447.984,404.084 C 448.137,406.582 447.141,408.326 444.992,409.328 L 389.57,432.002 L 444.992,454.891 C 447.142,455.744 448.138,457.42 447.984,459.912 C 447.838,462.414 445.999,466.438 442.463,471.999 C 438.929,477.703 436.055,481.198 433.835,482.479 C 431.614,483.765 429.581,483.765 427.741,482.479 L 378.749,449.324 L 385.189,505.371 C 385.653,507.507 384.639,509.146 382.194,510.287 C 379.741,511.429 374.987,512.00 367.931,512.00 C 360.879,512.00 356.124,511.426 353.682,510.287 C 351.223,509.146 350.223,507.507 350.682,505.371 L 357.125,449.324 L 308.359,482.479 C 306.519,483.765 304.445,483.765 302.152,482.479 C 299.851,481.198 296.933,477.703 293.411,471.999 C 289.869,466.438 288.08,462.414 288.002,459.912 C 287.923,457.42 288.958,455.745 291.112,454.891 L 346.537,432.002 L 291.112,409.328 C 288.958,408.33 287.923,406.582 288.002,404.084 C 288.08,401.591 289.869,397.562 293.411,392.001 C 296.936,386.443 299.848,383.026 302.152,381.741 C 304.453,380.459 306.519,380.459 308.359,381.741 L 357.125,414.671 L 350.682,358.846 C 350.223,356.563 351.223,354.857 353.682,353.72 C 356.129,352.571 360.879,352.00 367.931,352.00 C 374.987,352.00 379.741,352.578 382.194,353.72 C 384.639,354.854 385.653,356.563 385.189,358.846 L 378.749,414.671 L 427.741,381.741 C 429.581,380.459 431.617,380.459 433.835,381.741 C 436.055,383.027 438.929,386.517 442.463,392.215 C 446.00,397.631 447.831,401.586 447.984,404.084 ZM 223.984,404.084 C 224.137,406.582 223.141,408.326 220.992,409.328 L 165.57,432.002 L 220.992,454.891 C 223.142,455.744 224.138,457.42 223.984,459.912 C 223.838,462.414 221.999,466.438 218.463,471.999 C 214.929,477.703 212.055,481.198 209.835,482.479 C 207.614,483.765 205.581,483.765 203.741,482.479 L 154.749,449.324 L 161.189,505.371 C 161.653,507.507 160.639,509.146 158.194,510.287 C 155.741,511.429 150.987,512.00 143.931,512.00 C 136.879,512.00 132.124,511.426 129.682,510.287 C 127.223,509.146 126.223,507.507 126.682,505.371 L 133.125,449.324 L 84.359,482.479 C 82.519,483.765 80.445,483.765 78.152,482.479 C 75.851,481.198 72.933,477.703 69.411,471.999 C 65.869,466.438 64.08,462.414 64.002,459.912 C 63.923,457.42 64.958,455.745 67.112,454.891 L 122.537,432.002 L 67.112,409.328 C 64.958,408.33 63.923,406.582 64.002,404.084 C 64.08,401.591 65.869,397.562 69.411,392.001 C 72.936,386.443 75.848,383.026 78.152,381.741 C 80.453,380.459 82.519,380.459 84.359,381.741 L 133.125,414.671 L 126.682,358.846 C 126.223,356.563 127.223,354.857 129.682,353.72 C 132.129,352.571 136.879,352.00 143.931,352.00 C 150.987,352.00 155.741,352.578 158.194,353.72 C 160.639,354.854 161.653,356.563 161.189,358.846 L 154.749,414.671 L 203.741,381.741 C 205.581,380.459 207.617,380.459 209.835,381.741 C 212.055,383.027 214.929,386.517 218.463,392.215 C 222.00,397.631 223.831,401.586 223.984,404.084 Z" ></path></svg>