<?xml version="1.0" encoding="utf-8"?> <!-- Generator: IcoMoon.io --> <!DOCTYPE svg PUBLIC "-//W3C//DTD SVG 1.1//EN" "http://www.w3.org/Graphics/SVG/1.1/DTD/svg11.dtd"> <svg width="512" height="512" viewBox="0 0 512 512" xmlns="http://www.w3.org/2000/svg" xmlns:xlink="http://www.w3.org/1999/xlink" fill="#000000"><g class="svgGrid" id="svgGrid"><line stroke-width="1" stroke="#B35047" x1="32" x2="32" y1="0" y2="512"></line><line stroke-width="1" stroke="#B35047" x1="64" x2="64" y1="0" y2="512"></line><line stroke-width="1" stroke="#B35047" x1="96" x2="96" y1="0" y2="512"></line><line stroke-width="1" stroke="#B35047" x1="128" x2="128" y1="0" y2="512"></line><line stroke-width="1" stroke="#B35047" x1="160" x2="160" y1="0" y2="512"></line><line stroke-width="1" stroke="#B35047" x1="192" x2="192" y1="0" y2="512"></line><line stroke-width="1" stroke="#B35047" x1="224" x2="224" y1="0" y2="512"></line><line stroke-width="1" stroke="#B35047" x1="256" x2="256" y1="0" y2="512"></line><line stroke-width="1" stroke="#B35047" x1="288" x2="288" y1="0" y2="512"></line><line stroke-width="1" stroke="#B35047" x1="320" x2="320" y1="0" y2="512"></line><line stroke-width="1" stroke="#B35047" x1="352" x2="352" y1="0" y2="512"></line><line stroke-width="1" stroke="#B35047" x1="384" x2="384" y1="0" y2="512"></line><line stroke-width="1" stroke="#B35047" x1="416" x2="416" y1="0" y2="512"></line><line stroke-width="1" stroke="#B35047" x1="448" x2="448" y1="0" y2="512"></line><line stroke-width="1" stroke="#B35047" x1="480" x2="480" y1="0" y2="512"></line><line stroke-width="1" stroke="#B35047" x1="0" x2="512" y1="32" y2="32"></line><line stroke-width="1" stroke="#B35047" x1="0" x2="512" y1="64" y2="64"></line><line stroke-width="1" stroke="#B35047" x1="0" x2="512" y1="96" y2="96"></line><line stroke-width="1" stroke="#B35047" x1="0" x2="512" y1="128" y2="128"></line><line stroke-width="1" stroke="#B35047" x1="0" x2="512" y1="160" y2="160"></line><line stroke-width="1" stroke="#B35047" x1="0" x2="512" y1="192" y2="192"></line><line stroke-width="1" stroke="#B35047" x1="0" x2="512" y1="224" y2="224"></line><line stroke-width="1" stroke="#B35047" x1="0" x2="512" y1="256" y2="256"></line><line stroke-width="1" stroke="#B35047" x1="0" x2="512" y1="288" y2="288"></line><line stroke-width="1" stroke="#B35047" x1="0" x2="512" y1="320" y2="320"></line><line stroke-width="1" stroke="#B35047" x1="0" x2="512" y1="352" y2="352"></line><line stroke-width="1" stroke="#B35047" x1="0" x2="512" y1="384" y2="384"></line><line stroke-width="1" stroke="#B35047" x1="0" x2="512" y1="416" y2="416"></line><line stroke-width="1" stroke="#B35047" x1="0" x2="512" y1="448" y2="448"></line><line stroke-width="1" stroke="#B35047" x1="0" x2="512" y1="480" y2="480"></line><rect x="0" y="0" width="512" height="512" fill="none" stroke-width="1" stroke="#B35047"></rect></g><path d="M 420.438,512.00C 420.438,512.00, 420.438,512.00, 420.438,512.00c-12.681,0.00-24.784-5.636-33.207-15.462L 210.156,289.95 C 191.547,297.86, 171.335,302.00, 151.00,302.00C 67.738,302.00,0.00,234.262,0.00,151.00c0.00-14.908, 2.18-29.661, 6.478-43.849l 7.743-25.558l 96.879,96.879 c 2.621,2.621, 6.137,4.064, 9.90,4.064s 7.279-1.443, 9.90-4.064l 47.573-47.574c 5.458-5.458, 5.458-14.341,0.00-19.80L 81.594,14.222 l 25.557-7.744C 121.338,2.18, 136.091,0.00, 151.00,0.00c 83.262,0.00, 151.00,67.739, 151.00,151.00c0.00,20.331-4.14,40.543-12.05,59.155L 496.538,387.23 c 9.481,8.128, 14.961,19.335, 15.431,31.557c 0.469,12.221-4.136,23.813-12.966,32.643l-47.574,47.574 C 443.049,507.385, 432.042,512.00, 420.438,512.00z M 218.138,250.091l 193.39,225.621c 2.37,2.766, 5.534,4.288, 8.911,4.288 c 2.162,0.00, 5.368-0.629, 8.363-3.623l 47.574-47.575c 2.455-2.455, 3.739-5.576, 3.616-8.788c-0.124-3.213-1.644-6.227-4.28-8.487 L 250.094,218.139l 6.024-11.32C 265.199,189.754, 270.00,170.452, 270.00,151.00c0.00-65.617-53.383-119.00-119.00-119.00c-2.076,0.00-4.147,0.054-6.213,0.16 L 201.10,88.473c 17.935,17.936, 17.935,47.119,0.00,65.054L 153.527,201.10c-8.665,8.665-20.216,13.437-32.527,13.437 c-12.31,0.00-23.862-4.772-32.527-13.437L 32.16,144.788C 32.054,146.854, 32.00,148.925, 32.00,151.00c0.00,65.617, 53.383,119.00, 119.00,119.00 c 19.456,0.00, 38.757-4.801, 55.817-13.882L 218.138,250.091z" ></path></svg>